<?xml version="1.0" standalone="no"?>
<!DOCTYPE svg PUBLIC "-//W3C//DTD SVG 1.1//EN" "http://www.w3.org/Graphics/SVG/1.1/DTD/svg11.dtd" >
<svg>
<metadata>
Created by FontForge 20090914 at Wed Mar 31 09:23:07 2021
 By www-data
Copyright (c) 2014 Dan Reynolds. Copyright (c) 2014 Mathieu R&#195;&#169;guer.
</metadata>
<defs>
<font id="MartelSans-Black" horiz-adv-x="664" >
  <font-face 
    font-family="Martel Sans Black"
    font-weight="900"
    font-stretch="normal"
    units-per-em="1000"
    panose-1="0 0 10 0 0 0 0 0 0 0"
    ascent="800"
    descent="-200"
    x-height="568"
    cap-height="680"
    bbox="-1178 -673.998 1606 1150"
    underline-thickness="50"
    underline-position="-50"
    unicode-range="U+000D-U+FB02"
  />
<missing-glyph horiz-adv-x="530" 
d="M530 -200v958h-533v-958h533zM129 423c42 6.66699 74.167 12.668 96.5 18.001s39.333 12.333 51 21s17.5 20 17.5 34c0 37.333 -74.667 56 -224 56v129c142.667 0 245.667 -17.333 309 -52s95 -79.334 95 -134.001c0 -44 -17.5 -81.333 -52.5 -112
s-85.167 -57 -150.5 -79l-6 -70h-126zM129 25.001c-20.667 20.667 -31 45.334 -31 74.001c0 29.333 10.333 54.166 31 74.499s45.334 30.5 74.001 30.5c29.333 0 54.166 -10.167 74.499 -30.5s30.5 -45.166 30.5 -74.499c0 -28.667 -10.167 -53.334 -30.5 -74.001
s-45.166 -31 -74.499 -31c-28.667 0 -53.334 10.333 -74.001 31z" />
    <glyph glyph-name="fi" unicode="fi" horiz-adv-x="778" 
d="M274 568l159.999 -0.00195312v-123h-160v-445h-174v445h-85v73l85 34v36c0 70.667 18.833 124.834 56.5 162.501s94.834 56.5 171.501 56.5c28 0 64 -2.66699 108 -8l-11 -122c-26.667 3.33301 -49 5 -67 5c-28 0 -49 -8.16699 -63 -24.5s-21 -40.166 -21 -71.499v-18z
M540.499 673.498c-19.667 19.667 -29.5 43.167 -29.5 70.5s9.83301 50.833 29.5 70.5s43.167 29.5 70.5 29.5s50.833 -9.83301 70.5 -29.5s29.5 -43.167 29.5 -70.5s-9.83301 -50.833 -29.5 -70.5s-43.167 -29.5 -70.5 -29.5s-50.833 9.83301 -70.5 29.5zM523.999 567.998
h174v-568h-174v568z" />
    <glyph glyph-name="fl" unicode="fl" horiz-adv-x="778" 
d="M274 568l159.999 -0.00195312v-123h-160v-445h-174v445h-85v73l85 34v36c0 70.667 18.833 124.834 56.5 162.501s94.834 56.5 171.501 56.5c28 0 64 -2.66699 108 -8l-11 -122c-26.667 3.33301 -49 5 -67 5c-28 0 -49 -8.16699 -63 -24.5s-21 -40.166 -21 -71.499v-18z
M523.999 799.998h174v-800h-174v800z" />
    <glyph glyph-name="f_f" unicode="ff" horiz-adv-x="888" 
d="M274 568l159.999 -0.00195312v-123h-160v-445h-174v445h-85v73l85 34v36c0 70.667 18.833 124.834 56.5 162.501s94.834 56.5 171.501 56.5c28 0 64 -2.66699 108 -8l-11 -122c-26.667 3.33301 -49 5 -67 5c-28 0 -49 -8.16699 -63 -24.5s-21 -40.166 -21 -71.499v-18z
M717.999 567.998l159.999 -0.00195312v-123h-160v-445h-174v445h-85v73l85 34v36c0 70.667 18.833 124.834 56.5 162.501s94.834 56.5 171.501 56.5c28 0 64 -2.66699 108 -8l-11 -122c-26.667 3.33301 -49 5 -67 5c-28 0 -49 -8.16699 -63 -24.5s-21 -40.166 -21 -71.499
v-18z" />
    <glyph glyph-name="f_f_i" unicode="ffi" horiz-adv-x="1222" 
d="M274 568l159.999 -0.00195312v-123h-160v-445h-174v445h-85v73l85 34v36c0 70.667 18.833 124.834 56.5 162.501s94.834 56.5 171.501 56.5c28 0 64 -2.66699 108 -8l-11 -122c-26.667 3.33301 -49 5 -67 5c-28 0 -49 -8.16699 -63 -24.5s-21 -40.166 -21 -71.499v-18z
M717.999 567.998l159.999 -0.00195312v-123h-160v-445h-174v445h-85v73l85 34v36c0 70.667 18.833 124.834 56.5 162.501s94.834 56.5 171.501 56.5c28 0 64 -2.66699 108 -8l-11 -122c-26.667 3.33301 -49 5 -67 5c-28 0 -49 -8.16699 -63 -24.5s-21 -40.166 -21 -71.499
v-18zM984.498 673.496c-19.667 19.667 -29.5 43.167 -29.5 70.5s9.83301 50.833 29.5 70.5s43.167 29.5 70.5 29.5s50.833 -9.83301 70.5 -29.5s29.5 -43.167 29.5 -70.5s-9.83301 -50.833 -29.5 -70.5s-43.167 -29.5 -70.5 -29.5s-50.833 9.83301 -70.5 29.5z
M967.998 567.996h174v-568h-174v568z" />
    <glyph glyph-name="f_f_l" unicode="ffl" horiz-adv-x="1222" 
d="M274 568l159.999 -0.00195312v-123h-160v-445h-174v445h-85v73l85 34v36c0 70.667 18.833 124.834 56.5 162.501s94.834 56.5 171.501 56.5c28 0 64 -2.66699 108 -8l-11 -122c-26.667 3.33301 -49 5 -67 5c-28 0 -49 -8.16699 -63 -24.5s-21 -40.166 -21 -71.499v-18z
M717.999 567.998l159.999 -0.00195312v-123h-160v-445h-174v445h-85v73l85 34v36c0 70.667 18.833 124.834 56.5 162.501s94.834 56.5 171.501 56.5c28 0 64 -2.66699 108 -8l-11 -122c-26.667 3.33301 -49 5 -67 5c-28 0 -49 -8.16699 -63 -24.5s-21 -40.166 -21 -71.499
v-18zM967.998 799.996h174v-800h-174v800z" />
    <glyph glyph-name=".notdef" horiz-adv-x="530" 
d="M530 -200v958h-533v-958h533zM129 423c42 6.66699 74.167 12.668 96.5 18.001s39.333 12.333 51 21s17.5 20 17.5 34c0 37.333 -74.667 56 -224 56v129c142.667 0 245.667 -17.333 309 -52s95 -79.334 95 -134.001c0 -44 -17.5 -81.333 -52.5 -112
s-85.167 -57 -150.5 -79l-6 -70h-126zM129 25.001c-20.667 20.667 -31 45.334 -31 74.001c0 29.333 10.333 54.166 31 74.499s45.334 30.5 74.001 30.5c29.333 0 54.166 -10.167 74.499 -30.5s30.5 -45.166 30.5 -74.499c0 -28.667 -10.167 -53.334 -30.5 -74.001
s-45.166 -31 -74.499 -31c-28.667 0 -53.334 10.333 -74.001 31z" />
    <glyph glyph-name="nonmarkingreturn" unicode="&#xd;" horiz-adv-x="600" 
 />
    <glyph glyph-name="space" unicode=" " horiz-adv-x="250" 
 />
    <glyph glyph-name="exclam" unicode="!" horiz-adv-x="350" 
d="M78 680h184l-10 -446h-154zM101 25c-20.667 20.667 -31 45.334 -31 74.001c0 29.333 10.333 54.166 31 74.499s45.334 30.5 74.001 30.5c29.333 0 54.166 -10.167 74.499 -30.5s30.5 -45.166 30.5 -74.499c0 -28.667 -10.167 -53.334 -30.5 -74.001
s-45.166 -31 -74.499 -31c-28.667 0 -53.334 10.333 -74.001 31z" />
    <glyph glyph-name="quotedbl" unicode="&#x22;" horiz-adv-x="640" 
d="M92 770h184l-26 -386h-132zM364 770h184l-26 -386h-132z" />
    <glyph glyph-name="numbersign" unicode="#" horiz-adv-x="823" 
d="M662 401l-37 -122h100l-39 -127h-100l-47 -152h-164l47 152h-136l-47 -152h-164l47 152h-100l39 127h100l37 122h-99l39 127h99l47 152h164l-47 -152h136l47 152h164l-47 -152h100l-39 -127h-100zM498 401h-136l-37 -122h136z" />
    <glyph glyph-name="dollar" unicode="$" 
d="M555.5 88.5c-29.667 -32.333 -73.1699 -54.832 -130.503 -67.499v-144h-153v132c-39.333 1.33301 -77.166 6 -113.499 14s-67.833 18.667 -94.5 32l34 123c37.333 -14 71.666 -24.333 102.999 -31s63.333 -10 96 -10c36 0 66.167 5 90.5 15s36.5 25 36.5 45
c0 20.667 -10.667 37.167 -32 49.5s-55 26.166 -101 41.499c-44 15.333 -79.667 29.5 -107 42.5s-50.833 31 -70.5 54s-29.5 51.5 -29.5 85.5c0 50.667 16.5 92.5 49.5 125.5s79.167 55.167 138.5 66.5v138h153v-132c54 -6 102.333 -20 145 -42l-35 -122
c-29.333 12.667 -56.666 22.167 -81.999 28.5s-51 9.5 -77 9.5c-35.333 0 -63.5 -5.33301 -84.5 -16s-31.5 -25.334 -31.5 -44.001c0 -17.333 10.167 -31.666 30.5 -42.999s51.833 -24.333 94.5 -39c44.667 -16 81.334 -30.833 110.001 -44.5s53.334 -32.5 74.001 -56.5
s31 -54 31 -90c0 -48 -14.833 -88.167 -44.5 -120.5z" />
    <glyph glyph-name="percent" unicode="%" horiz-adv-x="1147" 
d="M837 644l-400 -692l-127 77l400 692zM119 291c-32.667 20 -57.167 45.998 -73.5 77.998s-24.5 66.667 -24.5 104s8.16699 72.333 24.5 105s40.833 59 73.5 79s72.334 30 119.001 30c47.333 0 87.333 -10 120 -30s57.167 -46.167 73.5 -78.5s24.5 -67.166 24.5 -104.499
s-8.16699 -72.166 -24.5 -104.499s-40.833 -58.5 -73.5 -78.5s-72.667 -30 -120 -30c-46.667 0 -86.334 10 -119.001 30zM284 393.998c8.66699 16.667 13 43.334 13 80.001s-4.33301 63.334 -13 80.001s-24 25 -46 25s-37.167 -8.33301 -45.5 -25
s-12.5 -43.334 -12.5 -80.001s4.16699 -63.334 12.5 -80.001s23.5 -25 45.5 -25s37.333 8.33301 46 25zM789 18.998c-32.667 20 -57.167 45.998 -73.5 77.998s-24.5 66.667 -24.5 104s8.16699 72.333 24.5 105s40.833 59 73.5 79s72.334 30 119.001 30
c47.333 0 87.333 -10 120 -30s57.167 -46.167 73.5 -78.5s24.5 -67.166 24.5 -104.499s-8.16699 -72.166 -24.5 -104.499s-40.833 -58.5 -73.5 -78.5s-72.667 -30 -120 -30c-46.667 0 -86.334 10 -119.001 30zM954 121.996c8.66699 16.667 13 43.334 13 80.001
s-4.33301 63.334 -13 80.001s-24 25 -46 25s-37.167 -8.33301 -45.5 -25s-12.5 -43.334 -12.5 -80.001s4.16699 -63.334 12.5 -80.001s23.5 -25 45.5 -25s37.333 8.33301 46 25z" />
    <glyph glyph-name="ampersand" unicode="&#x26;" horiz-adv-x="739" 
d="M636 -8c-32 0 -61.835 4.67188 -89.502 14.0049s-55.834 24.666 -84.501 45.999c-62.667 -42.667 -128.334 -64 -197.001 -64c-54 0 -100.333 8.16699 -139 24.5s-68 39.166 -88 68.499s-30 63 -30 101c0 44 12 83.5 36 118.5s59 63.5 105 85.5
c-20 24 -34.333 44.667 -43 62s-13 37 -13 59c0 34 7.83301 64.833 23.5 92.5s39.667 49.834 72 66.501s71.833 25 118.5 25c44.667 0 82.834 -7.33301 114.501 -22s55.5 -34.334 71.5 -59.001s24 -51.334 24 -80.001c0 -38.667 -11.167 -72.334 -33.5 -101.001
s-56.833 -55.667 -103.5 -81l89 -97c26.667 48 48.334 105.333 65.001 172l167 -15c-9.33301 -44.667 -25.166 -89.334 -47.499 -134.001s-49.5 -86 -81.5 -124c28.667 -19.333 57.334 -29 86.001 -29c18 0 34.333 2 49 6l29 -121c-24.667 -9.33301 -58 -14 -100 -14z
M273.998 550.505c-7.33301 -9 -11.002 -20.167 -11.002 -33.5c0 -14 2.33301 -26.667 7 -38s12.334 -23.333 23.001 -36c19.333 13.333 33.166 26 41.499 38s12.5 25 12.5 39c0 12 -3.66699 22.333 -11 31s-17.666 13 -30.999 13s-23.666 -4.5 -30.999 -13.5z
M213.496 139.005c17 -16 40.833 -24.001 71.5 -24.001c28 0 56 8 84 24l-131 146c-18 -15.333 -30.833 -30.666 -38.5 -45.999s-11.5 -29.333 -11.5 -42c0 -22.667 8.5 -42 25.5 -58z" />
    <glyph glyph-name="quotesingle" unicode="'" horiz-adv-x="368" 
d="M92 770h184l-26 -386h-132z" />
    <glyph glyph-name="parenleft" unicode="(" horiz-adv-x="360" 
d="M103 54.5c-32 72.333 -48.001 152.167 -48.001 239.5s16 167.166 48 239.499s73 132.5 123 180.5l102 -84c-26.667 -37.333 -49.5 -86.5 -68.5 -147.5s-28.5 -123.833 -28.5 -188.5c0 -66.667 9.33301 -129.667 28 -189s41.334 -108.666 68.001 -147.999l-101 -83
c-50 48 -91 108.167 -123 180.5z" />
    <glyph glyph-name="parenright" unicode=")" horiz-adv-x="360" 
d="M32 -42c26.667 37.333 49.501 86.499 68.501 147.499s28.5 123.833 28.5 188.5c0 66.667 -9.33301 129.667 -28 189s-41.334 108.666 -68.001 147.999l101 83c50 -48 91 -108.167 123 -180.5s48 -152.166 48 -239.499s-16 -167.166 -48 -239.499s-73 -132.5 -123 -180.5z
" />
    <glyph glyph-name="asterisk" unicode="*" horiz-adv-x="552" 
d="M337 429l138 -117l-132 -91l-67 153l-67 -153l-132 91l138 117l-179 19l47 145l149 -84l-33 171h154l-31 -166l146 79l48 -145z" />
    <glyph glyph-name="plus" unicode="+" 
d="M632 244h-233v-244h-133v244h-234v123h234v233h133v-233h233v-123z" />
    <glyph glyph-name="comma" unicode="," horiz-adv-x="351" 
d="M43 -117c38.667 29.333 58 76.667 58 142c0 47.333 -10.333 96.333 -31 147l185 26c11.333 -42.667 17 -83.334 17 -122.001c0 -62 -15.333 -114.167 -46 -156.5s-73.667 -78.166 -129 -107.499z" />
    <glyph glyph-name="hyphen" unicode="-" horiz-adv-x="300" 
d="M20 353h260v-123h-260v123z" />
    <glyph glyph-name="period" unicode="." horiz-adv-x="351" 
d="M101 25c-20.667 20.667 -31 45.334 -31 74.001c0 29.333 10.333 54.166 31 74.499s45.334 30.5 74.001 30.5c29.333 0 54.166 -10.167 74.499 -30.5s30.5 -45.166 30.5 -74.499c0 -28.667 -10.167 -53.334 -30.5 -74.001s-45.166 -31 -74.499 -31
c-28.667 0 -53.334 10.333 -74.001 31z" />
    <glyph glyph-name="slash" unicode="/" horiz-adv-x="450" 
d="M280 708h177l-288 -944h-176z" />
    <glyph glyph-name="zero" unicode="0" 
d="M171.5 35.5c-43 31.667 -74.833 74.5 -95.5 128.5s-31 114.667 -31 182c0 65.333 10.333 124 31 176s52.5 93.167 95.5 123.5s96.5 45.5 160.5 45.5s117.5 -15.167 160.5 -45.5s74.833 -71.5 95.5 -123.5s31 -110.667 31 -176c0 -67.333 -10.333 -128 -31 -182
s-52.5 -96.833 -95.5 -128.5s-96.5 -47.5 -160.5 -47.5s-117.5 15.833 -160.5 47.5zM413 181.5c17.333 43 26 97.833 26 164.5c0 62.667 -8.66699 114.334 -26 155.001s-44.333 61 -81 61s-63.667 -20.333 -81 -61s-26 -92.334 -26 -155.001
c0 -66.667 8.66699 -121.5 26 -164.5s44.333 -64.5 81 -64.5s63.667 21.5 81 64.5z" />
    <glyph glyph-name="one" unicode="1" 
d="M611 125v-125h-504v125h162v430h-125l-25 125h330v-555h162z" />
    <glyph glyph-name="two" unicode="2" 
d="M69 95l162 156.999c50 48 87.333 91 112 129s37 69.333 37 94c0 26.667 -10 47.834 -30 63.501s-48.667 23.5 -86 23.5c-56 0 -116.333 -22.333 -181 -67l-35 121c73.333 50 154.333 75 243 75c48 0 92.167 -8.16699 132.5 -24.5s72.5 -39.5 96.5 -69.5
s36 -64.333 36 -103c0 -100 -60 -203 -180 -309l-63 -56v-2h289v-127h-533v95z" />
    <glyph glyph-name="three" unicode="3" 
d="M547.5 309.5c25.667 -27.667 38.502 -60.832 38.502 -99.499c0 -40.667 -11.833 -77.834 -35.5 -111.501s-58.334 -60.5 -104.001 -80.5s-100.167 -30 -163.5 -30c-42.667 0 -85.167 4 -127.5 12s-78.166 19.667 -107.499 35l34 123c70 -27.333 137 -41 201 -41
c40 0 70.667 7.33301 92 22s32 34.667 32 60c0 26.667 -9 48.167 -27 64.5s-42.667 24.5 -74 24.5c-34.667 0 -71.334 -5.33301 -110.001 -16l-11 126c51.333 12.667 87.833 22.5 109.5 29.5s39.667 16.833 54 29.5s21.5 30 21.5 52c0 15.333 -6.66699 28 -20 38
s-31.333 15 -54 15c-60.667 0 -125 -17.667 -193 -53l-35 120c65.333 41.333 144.666 62 237.999 62c48 0 90.5 -7.16699 127.5 -21.5s65.5 -34.5 85.5 -60.5s30 -56.333 30 -91c0 -31.333 -9 -59.333 -27 -84s-43.333 -45.667 -76 -63
c42 -13.333 75.833 -33.833 101.5 -61.5z" />
    <glyph glyph-name="four" unicode="4" 
d="M647 146h-112v-146h-180v146h-328v99l333 435h175v-407h112v-127zM355 273v104l4 122h-1l-80 -119l-82 -107h159z" />
    <glyph glyph-name="five" unicode="5" 
d="M471.5 412.5c42.333 -18.333 74.5 -43.667 96.5 -76s33 -69.5 33 -111.5c0 -43.333 -12.333 -83 -37 -119s-60.5 -64.667 -107.5 -86s-103.167 -32 -168.5 -32c-40.667 0 -81.334 4 -122.001 12s-75 19.667 -103 35l34 123c66.667 -27.333 130.334 -41 191.001 -41
c45.333 0 79 8.66699 101 26s33 41 33 71c0 64.667 -40.667 97 -122 97c-28 0 -55.833 -3 -83.5 -9s-58.834 -14.667 -93.501 -26l-23 17l33 387h447v-127h-288l-13 -115c18.667 1.33301 32.334 2 41.001 2c58.667 0 109.167 -9.16699 151.5 -27.5z" />
    <glyph glyph-name="six" unicode="6" 
d="M493.5 408c38.333 -21.333 67.499 -49.335 87.499 -84.002s30 -71 30 -109c0 -41.333 -11.167 -79.5 -33.5 -114.5s-54.666 -63 -96.999 -84s-91.833 -31.5 -148.5 -31.5c-85.333 0 -153.166 24 -203.499 72s-75.5 119.333 -75.5 214c0 80 18.167 150 54.5 210
s87.833 107.833 154.5 143.5s145.667 57.834 237 66.501l23 -123c-71.333 -14.667 -127 -32.167 -167 -52.5s-70.333 -51.166 -91 -92.499c32 11.333 63.667 17 95 17c51.333 0 96.166 -10.667 134.499 -32zM405.499 138.498c17 17.667 25.499 39.833 25.499 66.5
c0 30.667 -8.16699 56.334 -24.5 77.001s-38.833 31 -67.5 31c-38.667 0 -74 -13.333 -106 -40v-23c0 -44.667 8.83301 -78.834 26.5 -102.501s41.834 -35.5 72.501 -35.5c32 0 56.5 8.83301 73.5 26.5z" />
    <glyph glyph-name="seven" unicode="7" 
d="M433 551v2h-385v127h568v-106l-289 -574h-207z" />
    <glyph glyph-name="eight" unicode="8" 
d="M574 292.5c23.333 -26.333 35.002 -59.167 35.002 -98.5c0 -38.667 -10 -73.5 -30 -104.5s-50.667 -55.667 -92 -74s-92.666 -27.5 -153.999 -27.5s-112.833 8.66699 -154.5 26s-72.667 39.833 -93 67.5s-30.5 57.5 -30.5 89.5c0 70 38.667 126.667 116 170
c-30 17.333 -53.5 37.5 -70.5 60.5s-25.5 50.833 -25.5 83.5c0 38 9.66699 72.667 29 104s48.333 56.166 87 74.499s86 27.5 142 27.5c55.333 0 102.166 -8.5 140.499 -25.5s67.166 -39.167 86.499 -66.5s29 -56.666 29 -87.999c0 -32 -9.66699 -60.167 -29 -84.5
s-47 -45.833 -83 -64.5c41.333 -20 73.666 -43.167 96.999 -69.5zM274.502 543.999c-13 -13.333 -19.5 -29.668 -19.5 -49.001c0 -17.333 8.16699 -32.166 24.5 -44.499s40.833 -25.166 73.5 -38.499c19.333 14 33.5 28.833 42.5 44.5s13.5 30.5 13.5 44.5
c0 17.333 -6.33301 32.166 -19 44.499s-31.667 18.5 -57 18.5c-26 0 -45.5 -6.66699 -58.5 -20zM405.502 134.997c15.667 13.333 23.5 29.667 23.5 49c0 22 -9.83301 40.333 -29.5 55s-48.5 29 -86.5 43c-24.667 -12 -43.834 -26.5 -57.501 -43.5s-20.5 -36.167 -20.5 -57.5
c0 -18 8.16699 -33.5 24.5 -46.5s40.833 -19.5 73.5 -19.5s56.834 6.66699 72.501 20z" />
    <glyph glyph-name="nine" unicode="9" 
d="M535.5 619c50.333 -48 75.501 -119.331 75.501 -213.998c0 -80 -18.167 -150 -54.5 -210s-87.833 -107.833 -154.5 -143.5s-145.667 -57.834 -237 -66.501l-23 123c71.333 14.667 127 32.167 167 52.5s70.333 51.166 91 92.499c-32 -11.333 -63.667 -17 -95 -17
c-51.333 0 -96.166 10.667 -134.499 32s-67.5 49.333 -87.5 84s-30 71 -30 109c0 41.333 11.167 79.5 33.5 114.5s54.666 63 96.999 84s91.833 31.5 148.5 31.5c85.333 0 153.166 -24 203.499 -72zM431.001 403.002l0.000976562 23.001
c0 44.667 -8.83301 78.834 -26.5 102.501s-41.834 35.5 -72.501 35.5c-32 0 -56.5 -8.83301 -73.5 -26.5s-25.5 -39.834 -25.5 -66.501c0 -30.667 8.16699 -56.334 24.5 -77.001s38.833 -31 67.5 -31c38.667 0 74 13.333 106 40z" />
    <glyph glyph-name="colon" unicode=":" horiz-adv-x="351" 
d="M101 401c-20.667 20.667 -31 45.334 -31 74.001c0 29.333 10.333 54.166 31 74.499s45.334 30.5 74.001 30.5c29.333 0 54.166 -10.167 74.499 -30.5s30.5 -45.166 30.5 -74.499c0 -28.667 -10.167 -53.334 -30.5 -74.001s-45.166 -31 -74.499 -31
c-28.667 0 -53.334 10.333 -74.001 31zM101 25c-20.667 20.667 -31 45.334 -31 74.001c0 29.333 10.333 54.166 31 74.499s45.334 30.5 74.001 30.5c29.333 0 54.166 -10.167 74.499 -30.5s30.5 -45.166 30.5 -74.499c0 -28.667 -10.167 -53.334 -30.5 -74.001
s-45.166 -31 -74.499 -31c-28.667 0 -53.334 10.333 -74.001 31z" />
    <glyph glyph-name="semicolon" unicode=";" horiz-adv-x="351" 
d="M101 401c-20.667 20.667 -31 45.334 -31 74.001c0 29.333 10.333 54.166 31 74.499s45.334 30.5 74.001 30.5c29.333 0 54.166 -10.167 74.499 -30.5s30.5 -45.166 30.5 -74.499c0 -28.667 -10.167 -53.334 -30.5 -74.001s-45.166 -31 -74.499 -31
c-28.667 0 -53.334 10.333 -74.001 31zM43 -117c38.667 29.333 58 76.667 58 142c0 47.333 -10.333 96.333 -31 147l185 26c11.333 -42.667 17 -83.334 17 -122.001c0 -62 -15.333 -114.167 -46 -156.5s-73.667 -78.166 -129 -107.499z" />
    <glyph glyph-name="less" unicode="&#x3c;" 
d="M632 447l-443 -147l443 -147v-130l-600 217v119l600 218v-130z" />
    <glyph glyph-name="equal" unicode="=" 
d="M32 490h600v-123h-600v123zM32 244h600v-123h-600v123z" />
    <glyph glyph-name="greater" unicode="&#x3e;" 
d="M632 359v-119l-600 -217v130l443 147l-443 147v130z" />
    <glyph glyph-name="question" unicode="?" horiz-adv-x="539" 
d="M129 423c42 6.66699 74.167 12.668 96.5 18.001s39.333 12.333 51 21s17.5 20 17.5 34c0 37.333 -74.667 56 -224 56v129c142.667 0 245.667 -17.333 309 -52s95 -79.334 95 -134.001c0 -44 -17.5 -81.333 -52.5 -112s-85.167 -57 -150.5 -79l-6 -70h-126zM129 25.001
c-20.667 20.667 -31 45.334 -31 74.001c0 29.333 10.333 54.166 31 74.499s45.334 30.5 74.001 30.5c29.333 0 54.166 -10.167 74.499 -30.5s30.5 -45.166 30.5 -74.499c0 -28.667 -10.167 -53.334 -30.5 -74.001s-45.166 -31 -74.499 -31
c-28.667 0 -53.334 10.333 -74.001 31z" />
    <glyph glyph-name="at" unicode="@" horiz-adv-x="957" 
d="M322.5 231c13 20 35.165 37.9971 66.498 53.9971s75 32 131 48c-1.33301 37.333 -18 56 -50 56c-20 0 -41.167 -4.33301 -63.5 -13s-47.5 -23.334 -75.5 -44.001l-24 103c64.667 43.333 127.334 65 188.001 65c55.333 0 94.833 -15 118.5 -45s35.5 -76.333 35.5 -139
v-123c0 -15.333 2.33301 -26.333 7 -33s12.334 -10 23.001 -10c12.667 0 25.5 7.16699 38.5 21.5s24 35.5 33 63.5s13.5 60.667 13.5 98c0 42.667 -9.5 81.5 -28.5 116.5s-47.333 62.833 -85 83.5s-83.167 31 -136.5 31c-60 0 -114.167 -10.833 -162.5 -32.5
s-86.833 -55.167 -115.5 -100.5s-43 -101.666 -43 -168.999s13 -123.666 39 -168.999s61.167 -78.833 105.5 -100.5s94.5 -32.5 150.5 -32.5c76 0 143.333 16.333 202 49l47 -106c-75.333 -43.333 -158.666 -65 -249.999 -65c-78 0 -150.833 15.167 -218.5 45.5
s-122.667 77.333 -165 141s-63.5 143.167 -63.5 238.5c0 94.667 22.5 173.834 67.5 237.501s103.333 110.5 175 140.5s148.5 45 230.5 45c85.333 0 158.5 -16.167 219.5 -48.5s107 -75.333 138 -129s46.5 -112.5 46.5 -176.5c0 -61.333 -12.833 -114.166 -38.5 -158.499
s-58.334 -77.833 -98.001 -100.5s-80.167 -34 -121.5 -34c-53.333 0 -92.333 18 -117 54c-20 -17.333 -40.333 -30.833 -61 -40.5s-42.667 -14.5 -66 -14.5c-32.667 0 -59.5 11.167 -80.5 33.5s-31.5 50.833 -31.5 85.5c0 29.333 6.5 54 19.5 74zM449.998 202.497
c-12 -10.333 -18 -20.1689 -18 -29.502c0 -7.33301 2.5 -13.166 7.5 -17.499s12.167 -6.5 21.5 -6.5c17.333 0 37 8 59 24v65c-34.667 -13.333 -58 -25.166 -70 -35.499z" />
    <glyph glyph-name="A" unicode="A" horiz-adv-x="707" 
d="M467 157h-230l-51 -157h-181l261 689h174l262 -689h-183zM427 280l-75 226l-74 -226h149z" />
    <glyph glyph-name="B" unicode="B" horiz-adv-x="692" 
d="M610.5 298c27.667 -31.333 41.5 -69.334 41.5 -114.001c0 -61.333 -24.5 -107.333 -73.5 -138s-121.167 -46 -216.5 -46h-272v680h272c86.667 0 151.667 -13.167 195 -39.5s65 -68.5 65 -126.5c0 -37.333 -11.333 -69.666 -34 -96.999s-55.334 -46.333 -98.001 -57
c52.667 -10 92.834 -30.667 120.501 -62zM270 554.999v-133h92c53.333 0 80 23 80 69c0 24 -6.66699 40.667 -20 50s-33.333 14 -60 14h-92zM444 145.499c18.667 13.667 28 35.5 28 65.5s-9.33301 51.833 -28 65.5s-46 20.5 -82 20.5h-92v-172h92
c36 0 63.333 6.83301 82 20.5z" />
    <glyph glyph-name="C" unicode="C" horiz-adv-x="682" 
d="M216 36.5c-57.333 32.333 -100.169 75.333 -128.502 129s-42.5 112.167 -42.5 175.5c0 62.667 14.833 120.667 44.5 174s73.834 96 132.501 128s129.334 48 212.001 48c77.333 0 145.333 -15 204 -45l-36 -126c-24.667 12.667 -50.334 22.834 -77.001 30.501
s-57 11.5 -91 11.5c-43.333 0 -80.833 -9.83301 -112.5 -29.5s-55.667 -46.334 -72 -80.001s-24.5 -71.167 -24.5 -112.5c0 -65.333 17.333 -118.833 52 -160.5s84.334 -62.5 149.001 -62.5c55.333 0 115 13.667 179 41l34 -123c-27.333 -14 -60 -25.333 -98 -34
s-76.333 -13 -115 -13c-82.667 0 -152.667 16.167 -210 48.5z" />
    <glyph glyph-name="D" unicode="D" horiz-adv-x="777" 
d="M568 636c54 -29.333 94.833 -69.667 122.5 -121s41.5 -109.333 41.5 -174c0 -66 -13.833 -124.833 -41.5 -176.5s-68.5 -92 -122.5 -121s-119.333 -43.5 -196 -43.5h-282v680h282c76.667 0 142 -14.667 196 -44zM504.5 184.999c31.667 38.667 47.5 90.333 47.5 155
c0 64 -15.833 115.5 -47.5 154.5s-75.834 58.5 -132.501 58.5h-102v-426h102c56.667 0 100.834 19.333 132.501 58z" />
    <glyph glyph-name="E" unicode="E" horiz-adv-x="601" 
d="M551 125v-125h-461v680h441v-125h-261v-133h221v-125h-221v-172h281z" />
    <glyph glyph-name="F" unicode="F" horiz-adv-x="551" 
d="M270 553v-170h221v-127h-221v-256h-180v680h441v-127h-261z" />
    <glyph glyph-name="G" unicode="G" horiz-adv-x="711" 
d="M666 336l-0.00390625 -301c-32 -14 -69.167 -25.333 -111.5 -34s-85.166 -13 -128.499 -13c-82.667 0 -152.667 16.167 -210 48.5s-100.166 75.333 -128.499 129s-42.5 112.167 -42.5 175.5c0 62.667 14.833 120.667 44.5 174s73.834 96 132.501 128
s129.334 48 212.001 48c77.333 0 145.333 -15 204 -45l-36 -126c-24.667 12.667 -50.334 22.834 -77.001 30.501s-57 11.5 -91 11.5c-43.333 0 -80.833 -9.83301 -112.5 -29.5s-55.667 -46.334 -72 -80.001s-24.5 -71.167 -24.5 -112.5c0 -65.333 17.333 -118.833 52 -160.5
s84.334 -62.5 149.001 -62.5c20.667 0 42.667 1.66699 66 5v214h174z" />
    <glyph glyph-name="H" unicode="H" horiz-adv-x="819" 
d="M729 680v-680h-180v296h-279v-296h-180v680h180v-257h279v257h180z" />
    <glyph glyph-name="I" unicode="I" horiz-adv-x="360" 
d="M90 680h180v-680h-180v680z" />
    <glyph glyph-name="J" unicode="J" horiz-adv-x="360" 
d="M-69 -231l10.999 125.999c26.667 -3.33301 48.667 -5 66 -5c28.667 0 49.5 8.33301 62.5 25s19.5 42.334 19.5 77.001v688h180v-690c0 -73.333 -19.167 -129.833 -57.5 -169.5s-96.166 -59.5 -173.499 -59.5c-28 0 -64 2.66699 -108 8z" />
    <glyph glyph-name="K" unicode="K" horiz-adv-x="739" 
d="M517 0l-247 344v-344h-180v680h180v-295l232 295h207l-271 -313l296 -367h-217z" />
    <glyph glyph-name="L" unicode="L" horiz-adv-x="561" 
d="M551 125v-125h-461v680h180v-555h281z" />
    <glyph glyph-name="M" unicode="M" horiz-adv-x="922" 
d="M832 680v-680h-175v180l10 218l-138 -233h-136l-141 238l13 -223v-180h-175v680h170l201 -333l201 333h170z" />
    <glyph glyph-name="N" unicode="N" horiz-adv-x="819" 
d="M729 680v-680l-162 -1l-310 426l13 -221v-204h-180v680h162l310 -423l-13 218v205h180z" />
    <glyph glyph-name="O" unicode="O" horiz-adv-x="828" 
d="M213.5 35.5c-55.667 31.667 -97.667 74.166 -126 127.499s-42.5 112.333 -42.5 177s14.167 123.667 42.5 177s70.333 95.666 126 126.999s122.5 47 200.5 47s144.833 -15.833 200.5 -47.5s97.667 -74 126 -127s42.5 -111.833 42.5 -176.5
c0 -65.333 -14.167 -124.666 -42.5 -177.999s-70.333 -95.666 -126 -126.999s-122.5 -47 -200.5 -47s-144.833 15.833 -200.5 47.5zM515.5 145.999c28.333 19.333 50.0039 45.833 65.0039 79.5s22.5 71.834 22.5 114.501c0 64.667 -16.833 117.834 -50.5 159.501
s-79.834 62.5 -138.501 62.5s-104.834 -20.833 -138.501 -62.5s-50.5 -94.834 -50.5 -159.501c0 -42.667 7.5 -80.834 22.5 -114.501s36.667 -60.167 65 -79.5s62.166 -29 101.499 -29s73.166 9.66699 101.499 29z" />
    <glyph glyph-name="P" unicode="P" horiz-adv-x="682" 
d="M585 626c44.667 -36 67 -93 67 -171s-22.333 -135 -67 -171s-115.667 -54 -213 -54h-102v-230h-180v680h282c97.333 0 168.333 -18 213 -54zM449 379.5c15.333 15.667 23 40.832 23 75.499c0 35.333 -7.66699 60.833 -23 76.5s-41 23.5 -77 23.5h-102v-200h102
c36 0.666992 61.667 8.83398 77 24.501z" />
    <glyph glyph-name="Q" unicode="Q" horiz-adv-x="828" 
d="M930 -196c-26 -15.333 -50.668 -26.3311 -74.001 -32.998s-47.666 -10 -72.999 -10c-54 0 -101.333 7.66699 -142 23s-76.334 41.333 -107.001 78l-106 126h-14c-78 0 -144.833 15.833 -200.5 47.5s-97.667 74.167 -126 127.5s-42.5 112.333 -42.5 177
s14.167 123.667 42.5 177s70.333 95.666 126 126.999s122.5 47 200.5 47s144.833 -15.833 200.5 -47.5s97.667 -74 126 -127s42.5 -111.833 42.5 -176.5c0 -70 -16.167 -132.833 -48.5 -188.5s-79.166 -97.834 -140.499 -126.501l40 -47c26.667 -32 52.5 -54.167 77.5 -66.5
s50.5 -18.5 76.5 -18.5c44 0 86 11 126 33zM247.499 225.502c15 -33.667 36.6709 -60.167 65.0039 -79.5s62.166 -29 101.499 -29s73.166 9.66699 101.499 29s50 45.833 65 79.5s22.5 71.834 22.5 114.501c0 64.667 -16.833 117.834 -50.5 159.501
s-79.834 62.5 -138.501 62.5s-104.834 -20.833 -138.501 -62.5s-50.5 -94.834 -50.5 -159.501c0 -42.667 7.5 -80.834 22.5 -114.501z" />
    <glyph glyph-name="R" unicode="R" horiz-adv-x="742" 
d="M366 250h-96v-250h-180v680h272c97.333 0 168.333 -16.5 213 -49.5s67 -84.833 67 -155.5c0 -92 -33.667 -153.667 -101 -185l191 -290h-208zM270 375l92 -0.000976562c35.333 0 60.833 7.33301 76.5 22s23.5 37.334 23.5 68.001c0 32 -7.66699 55 -23 69s-41 21 -77 21
h-92v-180z" />
    <glyph glyph-name="S" unicode="S" horiz-adv-x="614" 
d="M145 0.5c-41.333 8.33301 -77.002 19.833 -107.002 34.5l34 123c37.333 -14 71.666 -24.333 102.999 -31s63.333 -10 96 -10c36 0 66.167 5.83301 90.5 17.5s36.5 29.167 36.5 52.5c0 15.333 -5.66699 28.666 -17 39.999s-25.666 21 -42.999 29
s-41.666 17.667 -72.999 29c-43.333 16 -78.833 31 -106.5 45s-51.334 33.333 -71.001 58s-29.5 55.334 -29.5 92.001c0 66 25.667 117.667 77 155s121 56 209 56c34.667 0 69.834 -4 105.501 -12s67.167 -19 94.5 -33l-35 -122c-29.333 12.667 -56.666 22.167 -81.999 28.5
s-51 9.5 -77 9.5c-34.667 0 -62.667 -6.16699 -84 -18.5s-32 -29.5 -32 -51.5c0 -18.667 10 -34 30 -46s51.667 -26 95 -42c44 -16.667 80.5 -32.5 109.5 -47.5s53.833 -35.5 74.5 -61.5s31 -58 31 -96c0 -66.667 -25.667 -118.5 -77 -155.5s-126 -55.5 -224 -55.5
c-44 0 -86.667 4.16699 -128 12.5z" />
    <glyph glyph-name="T" unicode="T" horiz-adv-x="590" 
d="M570 553h-185v-553h-180v553h-185v127h550v-127z" />
    <glyph glyph-name="U" unicode="U" horiz-adv-x="799" 
d="M162 63.5c-54.667 50.333 -82 119.833 -82 208.5v408h180v-407c0 -54.667 11.833 -94.334 35.5 -119.001s58.5 -37 104.5 -37c45.333 0 79.833 12.333 103.5 37s35.5 64.334 35.5 119.001v407h180v-406c0 -89.333 -27.333 -159.333 -82 -210s-133.667 -76 -237 -76
c-104 0 -183.333 25.167 -238 75.5z" />
    <glyph glyph-name="V" unicode="V" horiz-adv-x="725" 
d="M715 680l-259 -685h-186l-260 685h183l171 -518l170 518h181z" />
    <glyph glyph-name="W" unicode="W" horiz-adv-x="1112" 
d="M1102 680l-236 -685h-183l-135 467l-134 -467h-183l-221 685h183l132 -502l137 502h174l139 -505l140 505h187z" />
    <glyph glyph-name="X" unicode="X" horiz-adv-x="746" 
d="M520 0l-149 232l-148 -232h-208l254 349l-241 331h211l133 -220l132 220h208l-240 -328l259 -352h-211z" />
    <glyph glyph-name="Y" unicode="Y" horiz-adv-x="692" 
d="M436 274v-274h-180v271l-251 409h189l152 -278l154 278h187z" />
    <glyph glyph-name="Z" unicode="Z" horiz-adv-x="709" 
d="M679 127v-127h-629v99l384 454h-371v127h602v-107l-383 -446h397z" />
    <glyph glyph-name="bracketleft" unicode="[" horiz-adv-x="408" 
d="M72 695h264v-119l-90 -10v-564l90 -10v-119h-264v822z" />
    <glyph glyph-name="backslash" unicode="\" horiz-adv-x="450" 
d="M-7 708h177l287 -944h-176z" />
    <glyph glyph-name="bracketright" unicode="]" horiz-adv-x="408" 
d="M72 -8l90 10v564l-90 10v119h264v-822h-264v119z" />
    <glyph glyph-name="asciicircum" unicode="^" 
d="M399 140l-67 155l-67 -155h-164l155 290h152l155 -290h-164z" />
    <glyph glyph-name="underscore" unicode="_" horiz-adv-x="500" 
d="M0 -154h500v-123h-500v123z" />
    <glyph glyph-name="grave" unicode="`" horiz-adv-x="500" 
d="M103 802h187l97 -212h-134z" />
    <glyph glyph-name="a" unicode="a" horiz-adv-x="616" 
d="M613 6c-21.333 -4.66699 -40.1709 -7.99805 -56.5039 -9.99805s-35.5 -3 -57.5 -3c-64 0 -106 20.667 -126 62c-28 -20.667 -56 -36.334 -84 -47.001s-58.667 -16 -92 -16c-30 0 -57 6.33301 -81 19s-42.667 29.667 -56 51s-20 44.666 -20 69.999
c0 42.667 10.833 76.5 32.5 101.5s50.834 45 87.501 60s92.334 33.167 167.001 54.5l30 9v4c0 61.333 -28 92 -84 92c-27.333 0 -56.666 -6 -87.999 -18s-67.333 -31.333 -108 -58l-33 120c45.333 26 91.5 46.333 138.5 61s96.833 22 149.5 22
c64 0 113.167 -17.333 147.5 -52s51.5 -94 51.5 -178v-190c0 -14.667 3 -25.167 9 -31.5s15.667 -9.5 29 -9.5c12.667 0 25.334 1.66699 38.001 5zM224.495 126.002c7 -6 18.167 -8.99902 33.5 -8.99902c28 0 61 12 99 36v106l-15 -5c-50 -18 -83.833 -33.833 -101.5 -47.5
s-26.5 -30.834 -26.5 -51.501c0 -13.333 3.5 -23 10.5 -29z" />
    <glyph glyph-name="b" unicode="b" horiz-adv-x="695" 
d="M526.5 546.5c40.333 -22.333 71.833 -55.5 94.5 -99.5s34 -98 34 -162c0 -68 -12.667 -124.167 -38 -168.5s-58.833 -76.833 -100.5 -97.5s-87.5 -31 -137.5 -31c-54.667 0 -106 17.667 -154 53l-16 -41h-129v800h174v-255c40 23.333 84.333 35 133 35
c52.667 0 99.167 -11.167 139.5 -33.5zM450 155c19.333 28 29 71.334 29 130.001c0 113.333 -37.333 170 -112 170c-22.667 0 -42.834 -2.33301 -60.501 -7s-35.167 -12.334 -52.5 -23.001v-282c34.667 -20 69.334 -30 104.001 -30c42 0 72.667 14 92 42z" />
    <glyph glyph-name="c" unicode="c" horiz-adv-x="552" 
d="M172 26.5c-44.667 25.667 -77.832 60.666 -99.499 104.999s-32.5 94.833 -32.5 151.5c0 54.667 11 104.334 33 149.001s56.333 80.5 103 107.5s106 40.5 178 40.5c26 0 54 -3 84 -9s54.333 -13.667 73 -23l-33 -120c-44.667 18 -86 27 -124 27
c-44 0 -78 -14.5 -102 -43.5s-36 -71.5 -36 -127.5s10.667 -98.5 32 -127.5s51.666 -43.5 90.999 -43.5c26.667 0 51 4 73 12s47 20 75 36l47 -110c-23.333 -18 -52.166 -33 -86.499 -45s-70.5 -18 -108.5 -18c-66.667 0 -122.334 12.833 -167.001 38.5z" />
    <glyph glyph-name="d" unicode="d" horiz-adv-x="695" 
d="M615 800v-799.999h-129l-16 42c-48 -36 -102 -54 -162 -54c-52.667 0 -99.167 11.167 -139.5 33.5s-71.833 55.5 -94.5 99.5s-34 98 -34 162c0 105.333 29.667 181.166 89 227.499s138.333 69.5 237 69.5c25.333 0 50.333 -2.33301 75 -7v227h174zM328 113.001
c22.667 0 42.833 2.33203 60.5 6.99902s35.167 12.334 52.5 23.001v305c-22 4.66699 -43.333 7 -64 7c-54.667 0 -95.167 -14.167 -121.5 -42.5s-39.5 -71.5 -39.5 -129.5c0 -113.333 37.333 -170 112 -170z" />
    <glyph glyph-name="e" unicode="e" horiz-adv-x="616" 
d="M247 147c20 -22.667 50.6699 -33.998 92.0029 -33.998c30.667 0 59.167 5.5 85.5 16.5s56.5 27.5 90.5 49.5l47 -110c-35.333 -28.667 -70.333 -49.334 -105 -62.001s-74.334 -19 -119.001 -19c-66 0 -121.333 12.833 -166 38.5s-77.834 60.667 -99.501 105
s-32.5 94.833 -32.5 151.5c0 90 25.333 162 76 216s124.667 81 222 81c77.333 0 136.166 -20.833 176.499 -62.5s60.833 -100.834 61.5 -177.501c0 -30 -4.33301 -59.333 -13 -88h-351c3.33301 -47.333 15 -82.333 35 -105zM407.003 365.002
c0.666992 4 1.00098 9.33398 1.00098 16.001c-0.666992 27.333 -8 48.166 -22 62.499s-33.333 21.5 -58 21.5c-58.667 0 -95.334 -33.333 -110.001 -100h189z" />
    <glyph glyph-name="f" unicode="f" horiz-adv-x="444" 
d="M274 568l159.999 -0.00195312v-123h-160v-445h-174v445h-85v73l85 34v36c0 70.667 18.833 124.834 56.5 162.501s94.834 56.5 171.501 56.5c28 0 64 -2.66699 108 -8l-11 -122c-26.667 3.33301 -49 5 -67 5c-28 0 -49 -8.16699 -63 -24.5s-21 -40.166 -21 -71.499v-18z
" />
    <glyph glyph-name="g" unicode="g" horiz-adv-x="630" 
d="M627 444l-99 12.999c8.66699 -20 13 -42 13 -66c0 -34 -9 -65.667 -27 -95s-45 -52.833 -81 -70.5s-79.667 -26.5 -131 -26.5c-20 0 -37.667 1.33301 -53 4c-15.333 -16.667 -23 -30.667 -23 -42s3.33301 -19.5 10 -24.5s19 -7.5 37 -7.5h149
c61.333 0 109.333 -12.667 144 -38s52 -59.666 52 -102.999s-14.833 -82.833 -44.5 -118.5s-70.5 -64 -122.5 -85s-109.667 -31.5 -173 -31.5c-60.667 0 -109.834 7.33301 -147.501 22s-64.667 33.667 -81 57s-24.5 48.333 -24.5 75c0 24 7.16699 46.167 21.5 66.5
s34.833 40.5 61.5 60.5c-18 10 -31.333 22.5 -40 37.5s-13 30.833 -13 47.5c0 40 30 80.333 90 121c-26.667 17.333 -47 39 -61 65s-21 54 -21 84c0 34 9 65.5 27 94.5s45 52.333 81 70s79.667 26.5 131 26.5c34.667 0 65.334 -4 92.001 -12h233v-124zM355 333.499
c13.333 13 20 31.833 20 56.5s-6.5 43.334 -19.5 56.001s-30.833 19 -53.5 19c-22 0 -39.667 -6.33301 -53 -19s-20 -31.334 -20 -56.001s6.66699 -43.5 20 -56.5s31 -19.5 53 -19.5s39.667 6.5 53 19.5zM380 3.99902h-137h-11c-27.333 -29.333 -41 -57.333 -41 -84
c0 -28 29 -42 87 -42c32 0 61.333 4.16699 88 12.5s47.667 19 63 32s23 26.167 23 39.5c0 28 -24 42 -72 42z" />
    <glyph glyph-name="h" unicode="h" horiz-adv-x="687" 
d="M569.5 521c28.333 -39.333 42.5 -96 42.5 -170v-351h-174v329c0 46.667 -5.5 79 -16.5 97s-32.167 27 -63.5 27c-34 0 -68.667 -11.333 -104 -34v-419h-174v800h174v-264c55.333 29.333 109.333 44 162 44c74 0 125.167 -19.667 153.5 -59z" />
    <glyph glyph-name="i" unicode="i" horiz-adv-x="334" 
d="M96.5 673.5c-19.667 19.667 -29.5 43.167 -29.5 70.5s9.83301 50.833 29.5 70.5s43.167 29.5 70.5 29.5s50.833 -9.83301 70.5 -29.5s29.5 -43.167 29.5 -70.5s-9.83301 -50.833 -29.5 -70.5s-43.167 -29.5 -70.5 -29.5s-50.833 9.83301 -70.5 29.5zM80 568h174v-568
h-174v568z" />
    <glyph glyph-name="j" unicode="j" horiz-adv-x="334" 
d="M96.5 673.5c-19.667 19.667 -29.5 43.167 -29.5 70.5s9.83301 50.833 29.5 70.5s43.167 29.5 70.5 29.5s50.833 -9.83301 70.5 -29.5s29.5 -43.167 29.5 -70.5s-9.83301 -50.833 -29.5 -70.5s-43.167 -29.5 -70.5 -29.5s-50.833 9.83301 -70.5 29.5zM-82 -231
l11.001 122.002c26.667 -3.33301 49 -5 67 -5c28 0 49 8.16699 63 24.5s21 40.166 21 71.499v586h174v-588c0 -70.667 -18.833 -124.834 -56.5 -162.501s-94.834 -56.5 -171.501 -56.5c-28 0 -64 2.66699 -108 8z" />
    <glyph glyph-name="k" unicode="k" horiz-adv-x="640" 
d="M446 0l-192 286v-286h-174v800h174v-468l167 236h178l-191 -260l227 -308h-189z" />
    <glyph glyph-name="l" unicode="l" horiz-adv-x="334" 
d="M80 800h174v-800h-174v800z" />
    <glyph glyph-name="m" unicode="m" horiz-adv-x="1045" 
d="M927.5 521c28.333 -39.333 42.499 -96 42.499 -170v-351h-174v329c0 46.667 -5.5 79 -16.5 97s-32.167 27 -63.5 27c-34.667 0 -70 -11.667 -106 -35l-3 6c3.33301 -18 5 -42.333 5 -73v-351h-174v329c0 46.667 -5.5 79 -16.5 97s-32.167 27 -63.5 27
c-34 0 -68.667 -11.333 -104 -34v-419h-174v568h129l18 -47c65.333 39.333 128.333 59 189 59c74.667 0 127.334 -21.667 158.001 -65c69.333 43.333 136 65 200 65c74 0 125.167 -19.667 153.5 -59z" />
    <glyph glyph-name="n" unicode="n" horiz-adv-x="687" 
d="M569.5 521c28.333 -39.333 42.5 -96 42.5 -170v-351h-174v329c0 46.667 -5.5 79 -16.5 97s-32.167 27 -63.5 27c-34 0 -68.667 -11.333 -104 -34v-419h-174v568h129l18 -47c65.333 39.333 128.333 59 189 59c74 0 125.167 -19.667 153.5 -59z" />
    <glyph glyph-name="o" unicode="o" horiz-adv-x="678" 
d="M174 26c-44.667 25.333 -78.167 60.332 -100.5 104.999s-33.5 95.334 -33.5 152.001c0 90 25.5 162 76.5 216s125.167 81 222.5 81c64 0 118.5 -13.5 163.5 -40.5s78.833 -62.833 101.5 -107.5s34 -93.667 34 -147s-11.333 -102.5 -34 -147.5
s-56.5 -81.167 -101.5 -108.5s-99.5 -41 -163.5 -41c-65.333 0 -120.333 12.667 -165 38zM433 154.999c19.333 28 29 71 29 129s-9.66699 101 -29 129s-50.666 42 -93.999 42s-74.666 -14 -93.999 -42s-29 -71 -29 -129s9.66699 -101 29 -129s50.666 -42 93.999 -42
s74.666 14 93.999 42z" />
    <glyph glyph-name="p" unicode="p" horiz-adv-x="695" 
d="M526.5 545c40.333 -23.333 71.833 -57.5 94.5 -102.5s34 -99.167 34 -162.5c0 -101.333 -29.833 -175.333 -89.5 -222s-138.5 -70 -236.5 -70c-25.333 0 -50.333 2.33301 -75 7v-227h-174v800h129l16 -42c48 36 102 54 162 54c52.667 0 99.167 -11.667 139.5 -35z
M439.5 155.5c26.333 28.333 39.501 71.501 39.501 129.501c0 113.333 -37.333 170 -112 170c-22.667 0 -42.834 -2.33301 -60.501 -7s-35.167 -12.334 -52.5 -23.001v-305c22 -4.66699 43.333 -7 64 -7c54.667 0 95.167 14.167 121.5 42.5z" />
    <glyph glyph-name="q" unicode="q" horiz-adv-x="695" 
d="M615 568v-805h-174v260c-40 -23.333 -84.333 -35 -133 -35c-52.667 0 -99.167 11.167 -139.5 33.5s-71.833 55.5 -94.5 99.5s-34 98 -34 162c0 68 12.667 124.167 38 168.5s58.833 76.833 100.5 97.5s87.5 31 137.5 31c54.667 0 106 -17.667 154 -53l16 41h129z
M388.5 120c17.667 4.66699 35.167 12.333 52.5 23v282c-34.667 20 -69.334 30 -104.001 30c-42 0 -72.667 -14 -92 -42s-29 -71.333 -29 -130c0 -113.333 37.333 -170 112 -170c22.667 0 42.834 2.33301 60.501 7z" />
    <glyph glyph-name="r" unicode="r" horiz-adv-x="472" 
d="M442 412c-34.667 0 -66.333 -2 -95 -6s-59.667 -12 -93 -24v-382h-174v568h129l26 -67c34.667 28 68.667 48 102 60s68.333 18 105 18v-167z" />
    <glyph glyph-name="s" unicode="s" horiz-adv-x="550" 
d="M134 -1.5c-36 7 -67.3311 15.8301 -93.998 26.4971l33 120c62 -21.333 117.667 -32 167 -32c65.333 0 98 16 98 48c0 14 -8.33301 25.833 -25 35.5s-43 20.834 -79 33.501c-38 13.333 -69.167 25.833 -93.5 37.5s-45.333 27.834 -63 48.501s-26.5 46.334 -26.5 77.001
c0 61.333 22.5 107.833 67.5 139.5s107.5 47.5 187.5 47.5c30 0 61.167 -2.83301 93.5 -8.5s60.166 -13.5 83.499 -23.5l-33 -120c-52 18 -98.333 27 -139 27c-58.667 0 -88 -13.667 -88 -41c0 -14 7.66699 -25.333 23 -34s40.333 -18.667 75 -30
c38.667 -12.667 70.667 -25 96 -37s47.166 -29.333 65.499 -52s27.5 -52 27.5 -88c0 -58.667 -22.667 -104.167 -68 -136.5s-112 -48.5 -200 -48.5c-36 0 -72 3.5 -108 10.5z" />
    <glyph glyph-name="t" unicode="t" horiz-adv-x="484" 
d="M462 37c-20 -14 -43.832 -24.833 -71.499 -32.5s-54.5 -11.5 -80.5 -11.5c-70.667 0 -123.334 15.5 -158.001 46.5s-52 75.5 -52 133.5v272h-85v73l107 43l48 153h104v-146h160v-123h-160v-230c0 -35.333 5.66699 -60.333 17 -75s28.333 -22 51 -22
c29.333 0 60.333 8.66699 93 26z" />
    <glyph glyph-name="u" unicode="u" horiz-adv-x="687" 
d="M607 568v-568h-129l-18 47c-65.333 -39.333 -128.333 -59 -189 -59c-74 0 -125.167 19.667 -153.5 59s-42.5 96 -42.5 170v351h174v-329c0 -46.667 5.5 -79 16.5 -97s32.167 -27 63.5 -27c34 0 68.667 11.333 104 34v419h174z" />
    <glyph glyph-name="v" unicode="v" horiz-adv-x="622" 
d="M615 568l-218 -573h-172l-218 573h177l128 -400l128 400h175z" />
    <glyph glyph-name="w" unicode="w" horiz-adv-x="893" 
d="M883 568l-179 -573h-170l-87 389l-88 -389h-170l-179 573h177l85 -393l91 393h169l88 -393l88 393h175z" />
    <glyph glyph-name="x" unicode="x" horiz-adv-x="630" 
d="M436 0l-122 189l-122 -189h-187l214 293l-199 275h188l106 -176l106 176h186l-199 -272l218 -296h-189z" />
    <glyph glyph-name="y" unicode="y" horiz-adv-x="634" 
d="M628 568l-241.002 -642.001c-22.667 -64 -55 -110.167 -97 -138.5s-92.667 -42.5 -152 -42.5c-21.333 0 -43.666 1.83301 -66.999 5.5s-43.666 8.83398 -60.999 15.501l11 127c38 -12 70.333 -18 97 -18c30 0 56.167 6.66699 78.5 20s41.5 34.333 57.5 63l-236 610h177
l132 -401l126 401h175z" />
    <glyph glyph-name="z" unicode="z" horiz-adv-x="558" 
d="M528 123v-123h-503v95l293 350h-278v123h478v-95l-293 -350h303z" />
    <glyph glyph-name="braceleft" unicode="{" horiz-adv-x="408" 
d="M176.5 -90.5c-51.667 26.333 -77.5 67.166 -77.5 122.499c0 14 3 33 9 57c6.66699 26.667 10 48 10 64c0 24 -8.5 42.167 -25.5 54.5s-43.5 20.5 -79.5 24.5v112c35.333 3.33301 61.5 11.166 78.5 23.499s25.5 30.5 25.5 54.5c0 15.333 -3.33301 37 -10 65
c-6 22.667 -9 41.667 -9 57c0 55.333 26 96.166 78 122.499s116.667 39.166 194 38.499v-111c-66.667 0.666992 -100 -19.333 -100 -60c0 -21.333 3.33301 -46.666 10 -75.999c6 -21.333 9 -40.666 9 -57.999c0 -27.333 -6.66699 -50.666 -20 -69.999s-32.333 -33 -57 -41
v-2c25.333 -8 44.5 -21.5 57.5 -40.5s19.5 -42.833 19.5 -71.5c0 -17.333 -3 -36.666 -9 -57.999c-6.66699 -28 -10 -53 -10 -75c0 -40 33.333 -60 100 -60v-112c-77.333 0 -141.833 13.167 -193.5 39.5z" />
    <glyph glyph-name="bar" unicode="|" horiz-adv-x="400" 
d="M110 807h180v-1043h-180v1043z" />
    <glyph glyph-name="braceright" unicode="}" horiz-adv-x="408" 
d="M38 -18c66.667 0 100 20 100 60c0 22 -3.33301 47 -10 75c-6 21.333 -9 40.666 -9 57.999c0 28.667 6.5 52.5 19.5 71.5s32.167 32.5 57.5 40.5v2c-24.667 8 -43.667 21.667 -57 41s-20 42.666 -20 69.999c0 17.333 3 36.666 9 57.999
c6.66699 29.333 10 54.666 10 75.999c0 40.667 -33.333 60.667 -100 60v111c77.333 0.666992 142 -12.166 194 -38.499s78 -67.166 78 -122.499c0 -15.333 -3 -34.333 -9 -57c-6.66699 -28 -10 -49.667 -10 -65c0 -24 8.5 -42.167 25.5 -54.5s43.167 -20.166 78.5 -23.499
v-112c-36 -4 -62.5 -12.167 -79.5 -24.5s-25.5 -30.5 -25.5 -54.5c0 -16 3.33301 -37.333 10 -64c6 -24 9 -43 9 -57c0 -55.333 -25.833 -96.166 -77.5 -122.499s-116.167 -39.5 -193.5 -39.5v112z" />
    <glyph glyph-name="asciitilde" unicode="~" 
d="M41 251c27.333 37.333 56.333 67.668 87 91.001s67.334 35 110.001 35c20 0 38 -3.33301 54 -10s33.667 -16 53 -28c18 -10.667 32.833 -18.5 44.5 -23.5s24.5 -7.5 38.5 -7.5c43.333 0 82 24 116 72l79 -77c-28.667 -37.333 -57.834 -67.166 -87.501 -89.499
s-65.5 -33.5 -107.5 -33.5c-18 0 -34 3 -48 9s-32 15 -54 27c-18 11.333 -33.5 19.666 -46.5 24.999s-26.833 8 -41.5 8c-24 0 -45.5 -6.83301 -64.5 -20.5s-36.833 -31.834 -53.5 -54.501z" />
    <glyph glyph-name="DEL" horiz-adv-x="600" 
 />
    <glyph glyph-name="uni00A0" unicode="&#xa0;" horiz-adv-x="250" 
 />
    <glyph glyph-name="exclamdown" unicode="&#xa1;" horiz-adv-x="350" 
d="M272 -106h-184l10 446h154zM249 549c20.667 -20.667 31 -45.334 31 -74.001c0 -29.333 -10.333 -54.166 -31 -74.499s-45.334 -30.5 -74.001 -30.5c-29.333 0 -54.166 10.167 -74.499 30.5s-30.5 45.166 -30.5 74.499c0 28.667 10.167 53.334 30.5 74.001
s45.166 31 74.499 31c28.667 0 53.334 -10.333 74.001 -31z" />
    <glyph glyph-name="cent" unicode="&#xa2;" 
d="M561.5 92.5c-30.333 -17.667 -62.833 -30.8281 -97.5 -39.4951v-176h-153v171c-88 11.333 -154.333 43.166 -199 95.499s-67 117.166 -67 194.499c0 71.333 22 132.666 66 183.999s110.667 83.666 200 96.999v181h153v-183c28.667 -6.66699 56.5 -16.5 83.5 -29.5
s49.833 -27.833 68.5 -44.5l-33 -120c-66.667 51.333 -128 77 -184 77c-56.667 0 -100.5 -13.667 -131.5 -41s-46.5 -67.333 -46.5 -120c0 -56 14.167 -98.5 42.5 -127.5s68.5 -43.5 120.5 -43.5c37.333 0 71.666 8 102.999 24s66.333 39.667 105 71l47 -110
c-21.333 -22.667 -47.166 -42.834 -77.499 -60.501z" />
    <glyph glyph-name="sterling" unicode="&#xa3;" 
d="M604 127l-0.000976562 -126.999h-519v95c71.333 38 107 80.333 107 127c0 20 -3.66699 39.333 -11 58h-107v124h52c-8 27.333 -12 55.666 -12 84.999c0 65.333 23.667 115.333 71 150s112 52 194 52c79.333 0 153 -15 221 -45l-35 -122
c-29.333 12.667 -56.666 22.167 -81.999 28.5s-51 9.5 -77 9.5c-37.333 0 -66 -7.66699 -86 -23s-30 -34.333 -30 -57c0 -26 5.66699 -52 17 -78h207v-124h-153c4 -16.667 6 -36 6 -58c0 -16.667 -3.16699 -32.5 -9.5 -47.5s-15.833 -30.833 -28.5 -47.5h275z" />
    <glyph glyph-name="currency" unicode="&#xa4;" 
d="M528 196l74.001 -74l-108 -108l-75 75c-26.667 -10.667 -55.667 -16 -87 -16c-30 0 -59 5.33301 -87 16l-75 -75l-108 108l75 75c-12 27.333 -18 57 -18 89c0 29.333 5.33301 58.333 16 87l-73 73l108 108l71 -71c29.333 12 59.666 18 90.999 18c34.667 0 65 -6 91 -18
l71 71l108 -108l-73 -73c11.333 -26.667 17 -55 17 -85c0 -33.333 -6 -64 -18 -92zM275.001 222c14.667 -17.333 33.667 -26 57 -26c24 0 43.333 8.66699 58 26s22 39 22 65c0 25.333 -7.5 46.833 -22.5 64.5s-34.167 26.5 -57.5 26.5s-42.333 -8.83301 -57 -26.5
s-22 -39.167 -22 -64.5c0 -26 7.33301 -47.667 22 -65z" />
    <glyph glyph-name="yen" unicode="&#xa5;" 
d="M456 434h129v-124h-165v-35h165v-124h-165v-151h-175v151h-168v124h168v35h-168v124h133l-169 246h184l109 -179l110 179h183z" />
    <glyph glyph-name="brokenbar" unicode="&#xa6;" horiz-adv-x="400" 
d="M110 807h180v-408h-180v408zM110 172h180v-408h-180v408z" />
    <glyph glyph-name="section" unicode="&#xa7;" horiz-adv-x="600" 
d="M534 34c0 -58.667 -22.665 -104.17 -67.998 -136.503s-112 -48.5 -200 -48.5c-36 0 -72 3.5 -108 10.5s-67.333 15.833 -94 26.5l33 120c62 -21.333 117.667 -32 167 -32c65.333 0 98 16 98 48c0 14 -8.33301 25.833 -25 35.5s-43 20.834 -79 33.501
c-38 13.333 -69.167 25.833 -93.5 37.5s-45.333 27.834 -63 48.501s-26.5 46.334 -26.5 77.001c0 63.333 24.667 111.333 74 144c-38.667 28.667 -58 64 -58 106c0 61.333 22.5 107.833 67.5 139.5s107.5 47.5 187.5 47.5c30 0 61.167 -2.83301 93.5 -8.5
s60.166 -13.5 83.499 -23.5l-33 -120c-52 18 -98.333 27 -139 27c-58.667 0 -88 -13.667 -88 -41c0 -14 7.66699 -25.333 23 -34s40.333 -18.667 75 -30c38.667 -12.667 70.667 -25 96 -37s47.166 -29.333 65.499 -52s27.5 -52 27.5 -88c0 -60 -22.667 -105.667 -68 -137
c34.667 -28 52 -65.667 52 -113zM267.002 242.997c13.333 -8 34.333 -16.999 63 -26.999c32 16 48 34.667 48 56c0 13.333 -7 24.5 -21 33.5s-35.333 18.5 -64 28.5c-30.667 -14.667 -46 -34.334 -46 -59.001c0 -13.333 6.66699 -24 20 -32z" />
    <glyph glyph-name="dieresis" unicode="&#xa8;" horiz-adv-x="500" 
d="M57 670c-18 18 -27 39.333 -27 64s9 46 27 64s39.333 27 64 27s46 -9 64 -27s27 -39.333 27 -64s-9 -46 -27 -64s-39.333 -27 -64 -27s-46 9 -64 27zM315 670c-18 18 -27 39.333 -27 64s9 46 27 64s39.333 27 64 27s46 -9 64 -27s27 -39.333 27 -64s-9 -46 -27 -64
s-39.333 -27 -64 -27s-46 9 -64 27z" />
    <glyph glyph-name="copyright" unicode="&#xa9;" horiz-adv-x="818" 
d="M218.5 35c-55 31.333 -97.667 73.833 -128 127.5s-45.5 112.834 -45.5 177.501s15.167 123.667 45.5 177s73 95.666 128 126.999s118.5 47 190.5 47s135.5 -15.667 190.5 -47s97.667 -73.666 128 -126.999s45.5 -112.333 45.5 -177s-15.167 -123.834 -45.5 -177.501
s-73 -96.167 -128 -127.5s-118.5 -47 -190.5 -47s-135.5 15.667 -190.5 47zM537 122c36 22 63.5 52.167 82.5 90.5s28.5 80.833 28.5 127.5s-9.5 89.167 -28.5 127.5s-46.5 68.5 -82.5 90.5s-78.667 33 -128 33s-92 -11 -128 -33s-63.5 -52.167 -82.5 -90.5
s-28.5 -80.833 -28.5 -127.5s9.5 -89.167 28.5 -127.5s46.5 -68.5 82.5 -90.5s78.667 -33 128 -33s92 11 128 33zM317.5 178c-28.333 17.333 -49.501 40.334 -63.501 69.001s-21 60 -21 94c0 33.333 7.33301 64.333 22 93s36.5 51.5 65.5 68.5s64.167 25.5 105.5 25.5
c42 0 78.333 -8 109 -24l-25 -89c-24.667 10 -47 15 -67 15c-27.333 0 -48.666 -8.5 -63.999 -25.5s-23 -38.167 -23 -63.5c0 -26.667 7.16699 -48.334 21.5 -65.001s34.833 -25 61.5 -25c19.333 0 40.666 5 63.999 15l32 -89c-14 -7.33301 -31.167 -13.333 -51.5 -18
s-40.833 -7 -61.5 -7c-41.333 0 -76.166 8.66699 -104.499 26z" />
    <glyph glyph-name="ordfeminine" unicode="&#xaa;" horiz-adv-x="453" 
d="M48.5 496.5c17 19.667 40.835 35.832 71.502 48.499s72.667 25.667 126 39c0 30.667 -16.333 46 -49 46c-43.333 0 -92 -14.667 -146 -44l-30 90c36 18 72.167 32 108.5 42s75.166 15 116.499 15c56 0 96.167 -13.5 120.5 -40.5s36.5 -70.5 36.5 -130.5v-97
c0 -6.66699 1 -11.667 3 -15s6 -5 12 -5c7.33301 0 14.333 1.66699 21 5l6 -115c-26 -6.66699 -54.333 -10 -85 -10c-51.333 0 -85.333 13.333 -102 40c-20.667 -14 -40.334 -24.333 -59.001 -31s-41 -10 -67 -10c-32 0 -58.167 9.33301 -78.5 28s-30.5 41.667 -30.5 69
c0 30.667 8.5 55.834 25.5 75.501zM196.502 477.498c-9.66699 -9 -14.5 -19.832 -14.5 -32.499c0 -6.66699 2.33301 -11.834 7 -15.501s10.667 -5.5 18 -5.5c10.667 0 23.667 5.66699 39 17v65c-23.333 -10 -39.833 -19.5 -49.5 -28.5zM24.002 258.999h410v-118h-410v118z
" />
    <glyph glyph-name="guillemotleft" unicode="&#xab;" horiz-adv-x="646" 
d="M50 259l149 211l124 -87l-88 -124l88 -124l-124 -87zM325 259l149 211l124 -87l-88 -124l88 -124l-124 -87z" />
    <glyph glyph-name="logicalnot" unicode="&#xac;" 
d="M632 367v-367h-133v244h-467v123h600z" />
    <glyph glyph-name="uni00AD" unicode="&#xad;" horiz-adv-x="600" 
d="M20 353h260v-123h-260v123z" />
    <glyph glyph-name="registered" unicode="&#xae;" horiz-adv-x="512" 
d="M369 707.5c34 -19 60.833 -45.5 80.5 -79.5s29.5 -72.333 29.5 -115c0 -41.333 -9.83301 -79 -29.5 -113s-46.5 -60.833 -80.5 -80.5s-71.333 -29.5 -112 -29.5s-78.167 9.83301 -112.5 29.5s-61.5 46.5 -81.5 80.5s-30 71.667 -30 113c0 42.667 10 81 30 115
s47 60.5 81 79.5s71.667 28.5 113 28.5c40.667 0 78 -9.5 112 -28.5zM335.5 373.5c24.333 13.667 43.5 32.668 57.5 57.001s21 51.833 21 82.5s-7 58.334 -21 83.001s-33.167 44 -57.5 58s-50.833 21 -79.5 21s-55 -7 -79 -21s-43 -33.333 -57 -58s-21 -52.334 -21 -83.001
c0 -30 7 -57.333 21 -82s33 -43.834 57 -57.501s50.333 -20.5 79 -20.5s55.167 6.83301 79.5 20.5zM314 492.001l42.999 -64.001h-64l-31 51h-25v-51h-56v172h85c22.667 0 40.334 -5.66699 53.001 -17s19 -25.666 19 -42.999c0 -21.333 -8 -37.333 -24 -48zM236.999 522h25
c7.33301 0 12.333 1.5 15 4.5s4 7.83301 4 14.5c0 5.33301 -1.33301 9.33301 -4 12s-7.66699 4 -15 4h-25v-35z" />
    <glyph glyph-name="macron" unicode="&#xaf;" horiz-adv-x="500" 
d="M50 782h400v-122h-400v122z" />
    <glyph glyph-name="degree" unicode="&#xb0;" horiz-adv-x="525" 
d="M154 365c-30.667 18 -54.167 42.002 -70.5 72.002s-24.5 62.667 -24.5 98s8.16699 68.166 24.5 98.499s39.833 54.666 70.5 72.999s66.667 27.5 108 27.5c42 0 78.333 -9.16699 109 -27.5s54.167 -42.5 70.5 -72.5s24.5 -62.333 24.5 -97
c0 -36 -8.16699 -69.167 -24.5 -99.5s-39.833 -54.5 -70.5 -72.5s-67 -27 -109 -27c-41.333 0 -77.333 9 -108 27zM319.5 471.002c15 17.333 22.5 39 22.5 65s-7.5 47.667 -22.5 65s-34.167 26 -57.5 26c-22.667 0 -41.5 -8.66699 -56.5 -26s-22.5 -39 -22.5 -65
s7.5 -47.667 22.5 -65s33.833 -26 56.5 -26c23.333 0 42.5 8.66699 57.5 26z" />
    <glyph glyph-name="plusminus" unicode="&#xb1;" 
d="M632 440v-117h-233v-160h-133v160h-234v117h234v160h133v-160h233zM32 117h600v-117h-600v117z" />
    <glyph glyph-name="uni00B2" unicode="&#xb2;" horiz-adv-x="477" 
d="M140.5 829c28.333 12 57.5 18 87.5 18c42 0 76.5 -6.5 103.5 -19.5s46.833 -29.667 59.5 -50s19 -41.5 19 -63.5c0 -30 -8.5 -55.667 -25.5 -77s-44.167 -44.666 -81.5 -69.999l-33 -21v-1h151v-113h-336v106l96 65c28 20 47.667 37.5 59 52.5s17 29.5 17 43.5
c0 11.333 -3.16699 20.166 -9.5 26.499s-14.5 9.5 -24.5 9.5c-17.333 0 -36.166 -5.16699 -56.499 -15.5s-43.833 -24.5 -70.5 -42.5l-33 108c23.333 17.333 49.166 32 77.499 44z" />
    <glyph glyph-name="uni00B3" unicode="&#xb3;" horiz-adv-x="477" 
d="M418 548c0 -23.333 -7.83203 -44.6689 -23.499 -64.002s-39.167 -34.666 -70.5 -45.999s-69.333 -17 -114 -17c-52.667 0 -103.667 10.667 -153 32l30 98c43.333 -18.667 85.333 -28 126 -28c18.667 0 32.834 3.16699 42.501 9.5s14.5 14.833 14.5 25.5
c0 10 -3.66699 18 -11 24s-17.666 9 -30.999 9c-21.333 0 -44.333 -4 -69 -12l-9 98c37.333 6.66699 63.166 12.667 77.499 18s21.5 14.333 21.5 27c0 7.33301 -3.33301 13 -10 17s-16 6 -28 6c-14.667 0 -32.834 -3.16699 -54.501 -9.5s-40.834 -15.166 -57.501 -26.499
l-30 91c22.667 14.667 48.5 26.167 77.5 34.5s57.833 12.5 86.5 12.5c49.333 0 88.833 -10 118.5 -30s44.5 -46.667 44.5 -80s-20 -61.666 -60 -84.999c54.667 -22.667 82 -57.334 82 -104.001z" />
    <glyph glyph-name="acute" unicode="&#xb4;" horiz-adv-x="500" 
d="M210 802h187l-150 -212h-134z" />
    <glyph glyph-name="paragraph" unicode="&#xb6;" horiz-adv-x="608" 
d="M528 -20c0 -70.667 -18.8301 -124.831 -56.4971 -162.498s-94.834 -56.5 -171.501 -56.5c-28 0 -64 2.66699 -108 8l11 122c26.667 -3.33301 49 -5 67 -5c28 0 49 8.16699 63 24.5s21 40.166 21 71.499v218h-56c-86 0 -152.167 21.833 -198.5 65.5
s-69.5 102.167 -69.5 175.5c0 45.333 10.167 86.166 30.5 122.499s50.666 64.833 90.999 85.5s89.166 31 146.499 31h230v-700z" />
    <glyph glyph-name="periodcentered" unicode="&#xb7;" horiz-adv-x="350" 
d="M101 220c-20.667 20.667 -31 45.334 -31 74.001c0 29.333 10.333 54.166 31 74.499s45.334 30.5 74.001 30.5c29.333 0 54.166 -10.167 74.499 -30.5s30.5 -45.166 30.5 -74.499c0 -28.667 -10.167 -53.334 -30.5 -74.001s-45.166 -31 -74.499 -31
c-28.667 0 -53.334 10.333 -74.001 31z" />
    <glyph glyph-name="cedilla" unicode="&#xb8;" horiz-adv-x="500" 
d="M338.5 -71.5c17 -15.667 25.5 -34.499 25.5 -56.499c0 -18.667 -6 -36.834 -18 -54.501s-32.333 -32.5 -61 -44.5s-66 -18 -112 -18l-22 77c33.333 0 56 2.83301 68 8.5s18 13.834 18 24.501c0 7.33301 -3 13.166 -9 17.499s-14 6.5 -24 6.5
c-8.66699 0 -17.667 -1.66699 -27 -5l-31 43l67 123h112l-50 -93c25.333 -3.33301 46.5 -12.833 63.5 -28.5z" />
    <glyph glyph-name="uni00B9" unicode="&#xb9;" horiz-adv-x="477" 
d="M434 545v-113h-323v113h85v193h-73l-21 102h247v-295h85z" />
    <glyph glyph-name="ordmasculine" unicode="&#xba;" horiz-adv-x="475" 
d="M44.5 627.5c16.333 31.667 40.833 57.165 73.5 76.498s72.334 29 119.001 29c47.333 0 87.333 -9.83301 120 -29.5s57.167 -45.167 73.5 -76.5s24.5 -64.666 24.5 -99.999c0 -36.667 -8.16699 -71 -24.5 -103s-40.833 -57.667 -73.5 -77s-72.667 -29 -120 -29
c-46.667 0 -86.334 9.66699 -119.001 29s-57.167 44.833 -73.5 76.5s-24.5 65.5 -24.5 101.5c0 36.667 8.16699 70.834 24.5 102.501zM283 600.998c-8.66699 16 -24 24.001 -46 24.001s-37.167 -7.83301 -45.5 -23.5s-12.5 -40.834 -12.5 -75.501s4.16699 -60 12.5 -76
s23.5 -24 45.5 -24s37.333 8 46 24s13 41.333 13 76c0 34 -4.33301 59 -13 75zM441 258.999v-118h-407v118h407z" />
    <glyph glyph-name="guillemotright" unicode="&#xbb;" horiz-adv-x="646" 
d="M48 135l88 124l-88 124l124 87l149 -211l-149 -211zM323 135l88 124l-88 124l124 87l149 -211l-149 -211z" />
    <glyph glyph-name="onequarter" unicode="&#xbc;" horiz-adv-x="1175" 
d="M890 644l-400 -692l-127 77l400 692zM434 385v-113h-323v113h85v193h-73l-21 102h247v-295h85zM1153 62h-62v-73h-150v73h-211v89l196 257h165v-233h62v-113zM941 175v51l2 56h-1l-35 -50l-39 -57h73z" />
    <glyph glyph-name="onehalf" unicode="&#xbd;" horiz-adv-x="1200" 
d="M890 644l-400 -692l-127 77l400 692zM434 385v-113h-323v113h85v193h-73l-21 102h247v-295h85zM863.5 397c28.333 12 57.5 18 87.5 18c42 0 76.5 -6.5 103.5 -19.5s46.833 -29.667 59.5 -50s19 -41.5 19 -63.5c0 -30 -8.5 -55.667 -25.5 -77
s-44.167 -44.666 -81.5 -69.999l-33 -21v-1h151v-113h-336v106l96 65c28 20 47.667 37.5 59 52.5s17 29.5 17 43.5c0 11.333 -3.16699 20.166 -9.5 26.499s-14.5 9.5 -24.5 9.5c-17.333 0 -36.166 -5.16699 -56.499 -15.5s-43.833 -24.5 -70.5 -42.5l-33 108
c23.333 17.333 49.166 32 77.499 44z" />
    <glyph glyph-name="threequarters" unicode="&#xbe;" horiz-adv-x="1122" 
d="M837 644l-400 -692l-127 77l400 692zM418 388c0 -23.333 -7.83203 -44.6689 -23.499 -64.002s-39.167 -34.666 -70.5 -45.999s-69.333 -17 -114 -17c-52.667 0 -103.667 10.667 -153 32l30 98c43.333 -18.667 85.333 -28 126 -28c18.667 0 32.834 3.16699 42.501 9.5
s14.5 14.833 14.5 25.5c0 10 -3.66699 18 -11 24s-17.666 9 -30.999 9c-21.333 0 -44.333 -4 -69 -12l-9 98c37.333 6.66699 63.166 12.667 77.499 18s21.5 14.333 21.5 27c0 7.33301 -3.33301 13 -10 17s-16 6 -28 6c-14.667 0 -32.834 -3.16699 -54.501 -9.5
s-40.834 -15.166 -57.501 -26.499l-30 91c22.667 14.667 48.5 26.167 77.5 34.5s57.833 12.5 86.5 12.5c49.333 0 88.833 -10 118.5 -30s44.5 -46.667 44.5 -80s-20 -61.666 -60 -84.999c54.667 -22.667 82 -57.334 82 -104.001zM1100 61.9971h-62v-73h-150v73h-211v89
l196 257h165v-233h62v-113zM888.001 174.997v51l2 56h-1l-35 -50l-39 -57h73z" />
    <glyph glyph-name="questiondown" unicode="&#xbf;" horiz-adv-x="539" 
d="M410 151c-42 -6.66699 -74.167 -12.668 -96.5 -18.001s-39.333 -12.333 -51 -21s-17.5 -20 -17.5 -34c0 -37.333 74.667 -56 224 -56v-129c-142.667 0 -245.667 17.333 -309 52s-95 79.334 -95 134.001c0 44 17.5 81.333 52.5 112s85.167 57 150.5 79l6 70h126z
M410 548.999c20.667 -20.667 31 -45.334 31 -74.001c0 -29.333 -10.333 -54.166 -31 -74.499s-45.334 -30.5 -74.001 -30.5c-29.333 0 -54.166 10.167 -74.499 30.5s-30.5 45.166 -30.5 74.499c0 28.667 10.167 53.334 30.5 74.001s45.166 31 74.499 31
c28.667 0 53.334 -10.333 74.001 -31z" />
    <glyph glyph-name="Agrave" unicode="&#xc0;" horiz-adv-x="707" 
d="M467 157h-230l-51 -157h-181l261 689h174l262 -689h-183zM427 280l-75 226l-74 -226h149zM111 912h185l141 -172h-147z" />
    <glyph glyph-name="Aacute" unicode="&#xc1;" horiz-adv-x="707" 
d="M467 157h-230l-51 -157h-181l261 689h174l262 -689h-183zM427 280l-75 226l-74 -226h149zM410 912h185l-179 -172h-147z" />
    <glyph glyph-name="Acircumflex" unicode="&#xc2;" horiz-adv-x="707" 
d="M467 157h-230l-51 -157h-181l261 689h174l262 -689h-183zM427 280l-75 226l-74 -226h149zM419 740l-67 88l-67 -88h-165l149 172h166l149 -172h-165z" />
    <glyph glyph-name="Atilde" unicode="&#xc3;" horiz-adv-x="707" 
d="M467 157h-230l-51 -157h-181l261 689h174l262 -689h-183zM427 280l-75 226l-74 -226h149zM152 734c3.33301 54.667 16.3291 97.832 38.9961 129.499s51.334 47.5 86.001 47.5c12.667 0 25 -2.16699 37 -6.5s26 -10.5 42 -18.5
c14.667 -7.33301 26.334 -12.666 35.001 -15.999s17.334 -5 26.001 -5c18 0 31.667 18.667 41 56l94 -4c-3.33301 -50.667 -16.666 -92.834 -39.999 -126.501s-51.666 -50.5 -84.999 -50.5c-14 0 -27.333 2.33301 -40 7s-28 11.334 -46 20.001
c-12.667 6.66699 -23 11.5 -31 14.5s-15.667 4.5 -23 4.5c-9.33301 0 -17.333 -4.33301 -24 -13s-12.334 -23 -17.001 -43z" />
    <glyph glyph-name="Adieresis" unicode="&#xc4;" horiz-adv-x="707" 
d="M467 157h-230l-51 -157h-181l261 689h174l262 -689h-183zM427 280l-75 226l-74 -226h149zM164.5 764.5c-16.333 16.333 -24.5 35.833 -24.5 58.5s8.16699 42.167 24.5 58.5s35.833 24.5 58.5 24.5s42.167 -8.16699 58.5 -24.5s24.5 -35.833 24.5 -58.5
s-8.16699 -42.167 -24.5 -58.5s-35.833 -24.5 -58.5 -24.5s-42.167 8.16699 -58.5 24.5zM422.5 764.5c-16.333 16.333 -24.5 35.833 -24.5 58.5s8.16699 42.167 24.5 58.5s35.833 24.5 58.5 24.5s42.167 -8.16699 58.5 -24.5s24.5 -35.833 24.5 -58.5
s-8.16699 -42.167 -24.5 -58.5s-35.833 -24.5 -58.5 -24.5s-42.167 8.16699 -58.5 24.5z" />
    <glyph glyph-name="Aring" unicode="&#xc5;" horiz-adv-x="707" 
d="M467 157h-230l-51 -157h-181l261 689h174l262 -689h-183zM427 280l-75 226l-74 -226h149zM238.5 761c-27 20.667 -40.5 47.334 -40.5 80.001s13.5 59.334 40.5 80.001s64.833 31 113.5 31s86.5 -10.333 113.5 -31s40.5 -47.334 40.5 -80.001s-13.5 -59.334 -40.5 -80.001
s-64.833 -31 -113.5 -31s-86.5 10.333 -113.5 31zM394 841c0 22 -14.001 33.001 -42.001 33.001c-13.333 0 -23.666 -2.83301 -30.999 -8.5s-11 -13.834 -11 -24.501c0 -22 14 -33 42 -33s42 11 42 33z" />
    <glyph glyph-name="AE" unicode="&#xc6;" horiz-adv-x="1013" 
d="M963 125v-125h-461v217h-209v1l-127 -218h-181l420 680h538v-125h-261v-148h221v-125h-221v-157h281zM502 342v235l-137 -235h137z" />
    <glyph glyph-name="Ccedilla" unicode="&#xc7;" horiz-adv-x="682" 
d="M518.5 -71.5c17 -15.667 25.498 -34.499 25.498 -56.499c0 -18.667 -6 -36.834 -18 -54.501s-32.333 -32.5 -61 -44.5s-66 -18 -112 -18l-22 77c33.333 0 56 2.83301 68 8.5s18 13.834 18 24.501c0 7.33301 -3 13.166 -9 17.499s-14 6.5 -24 6.5
c-8.66699 0 -17.667 -1.66699 -27 -5l-31 43l35 65c-68.667 8.66699 -126.667 29.667 -174 63s-82.833 74.833 -106.5 124.5s-35.5 103.5 -35.5 161.5c0 62.667 14.833 120.667 44.5 174s73.834 96 132.501 128s129.334 48 212.001 48c77.333 0 145.333 -15 204 -45
l-36 -126c-24.667 12.667 -50.334 22.834 -77.001 30.501s-57 11.5 -91 11.5c-43.333 0 -80.833 -9.83301 -112.5 -29.5s-55.667 -46.334 -72 -80.001s-24.5 -71.167 -24.5 -112.5c0 -65.333 17.333 -118.833 52 -160.5s84.334 -62.5 149.001 -62.5
c55.333 0 115 13.667 179 41l34 -123c-22 -10.667 -47.5 -20.167 -76.5 -28.5s-58.833 -13.833 -89.5 -16.5l-18 -33c25.333 -3.33301 46.5 -12.833 63.5 -28.5z" />
    <glyph glyph-name="Egrave" unicode="&#xc8;" horiz-adv-x="601" 
d="M551 125v-125h-461v680h441v-125h-261v-133h221v-125h-221v-172h281zM73 912h185l141 -172h-147z" />
    <glyph glyph-name="Eacute" unicode="&#xc9;" horiz-adv-x="601" 
d="M551 125v-125h-461v680h441v-125h-261v-133h221v-125h-221v-172h281zM372 912h185l-179 -172h-147z" />
    <glyph glyph-name="Ecircumflex" unicode="&#xca;" horiz-adv-x="601" 
d="M551 125v-125h-461v680h441v-125h-261v-133h221v-125h-221v-172h281zM381 740l-67 88l-67 -88h-165l149 172h166l149 -172h-165z" />
    <glyph glyph-name="Edieresis" unicode="&#xcb;" horiz-adv-x="601" 
d="M551 125v-125h-461v680h441v-125h-261v-133h221v-125h-221v-172h281zM126.5 764.5c-16.333 16.333 -24.5 35.833 -24.5 58.5s8.16699 42.167 24.5 58.5s35.833 24.5 58.5 24.5s42.167 -8.16699 58.5 -24.5s24.5 -35.833 24.5 -58.5s-8.16699 -42.167 -24.5 -58.5
s-35.833 -24.5 -58.5 -24.5s-42.167 8.16699 -58.5 24.5zM384.5 764.5c-16.333 16.333 -24.5 35.833 -24.5 58.5s8.16699 42.167 24.5 58.5s35.833 24.5 58.5 24.5s42.167 -8.16699 58.5 -24.5s24.5 -35.833 24.5 -58.5s-8.16699 -42.167 -24.5 -58.5
s-35.833 -24.5 -58.5 -24.5s-42.167 8.16699 -58.5 24.5z" />
    <glyph glyph-name="Igrave" unicode="&#xcc;" horiz-adv-x="360" 
d="M90 680h180v-680h-180v680zM-61 912h185l141 -172h-147z" />
    <glyph glyph-name="Iacute" unicode="&#xcd;" horiz-adv-x="360" 
d="M90 680h180v-680h-180v680zM238 912h185l-179 -172h-147z" />
    <glyph glyph-name="Icircumflex" unicode="&#xce;" horiz-adv-x="360" 
d="M90 680h180v-680h-180v680zM247 740l-67 88l-67 -88h-165l149 172h166l149 -172h-165z" />
    <glyph glyph-name="Idieresis" unicode="&#xcf;" horiz-adv-x="360" 
d="M90 680h180v-680h-180v680zM-7.5 764.5c-16.333 16.333 -24.5 35.833 -24.5 58.5s8.16699 42.167 24.5 58.5s35.833 24.5 58.5 24.5s42.167 -8.16699 58.5 -24.5s24.5 -35.833 24.5 -58.5s-8.16699 -42.167 -24.5 -58.5s-35.833 -24.5 -58.5 -24.5
s-42.167 8.16699 -58.5 24.5zM250.5 764.5c-16.333 16.333 -24.5 35.833 -24.5 58.5s8.16699 42.167 24.5 58.5s35.833 24.5 58.5 24.5s42.167 -8.16699 58.5 -24.5s24.5 -35.833 24.5 -58.5s-8.16699 -42.167 -24.5 -58.5s-35.833 -24.5 -58.5 -24.5
s-42.167 8.16699 -58.5 24.5z" />
    <glyph glyph-name="Eth" unicode="&#xd0;" horiz-adv-x="777" 
d="M568 636c54 -29.333 94.833 -69.667 122.5 -121s41.5 -109.333 41.5 -174c0 -66 -13.833 -124.833 -41.5 -176.5s-68.5 -92 -122.5 -121s-119.333 -43.5 -196 -43.5h-282v299h-87v122h87v259h282c76.667 0 142 -14.667 196 -44zM504.5 184.999
c31.667 38.667 47.5 90.333 47.5 155c0 64 -15.833 115.5 -47.5 154.5s-75.834 58.5 -132.501 58.5h-102v-132h123v-122h-123v-172h102c56.667 0 100.834 19.333 132.501 58z" />
    <glyph glyph-name="Ntilde" unicode="&#xd1;" horiz-adv-x="819" 
d="M729 680v-680l-162 -1l-310 426l13 -221v-204h-180v680h162l310 -423l-13 218v205h180zM208 734c3.33301 54.667 16.3291 97.832 38.9961 129.499s51.334 47.5 86.001 47.5c12.667 0 25 -2.16699 37 -6.5s26 -10.5 42 -18.5
c14.667 -7.33301 26.334 -12.666 35.001 -15.999s17.334 -5 26.001 -5c18 0 31.667 18.667 41 56l94 -4c-3.33301 -50.667 -16.666 -92.834 -39.999 -126.501s-51.666 -50.5 -84.999 -50.5c-14 0 -27.333 2.33301 -40 7s-28 11.334 -46 20.001
c-12.667 6.66699 -23 11.5 -31 14.5s-15.667 4.5 -23 4.5c-9.33301 0 -17.333 -4.33301 -24 -13s-12.334 -23 -17.001 -43z" />
    <glyph glyph-name="Ograve" unicode="&#xd2;" horiz-adv-x="828" 
d="M213.5 35.5c-55.667 31.667 -97.667 74.166 -126 127.499s-42.5 112.333 -42.5 177s14.167 123.667 42.5 177s70.333 95.666 126 126.999s122.5 47 200.5 47s144.833 -15.833 200.5 -47.5s97.667 -74 126 -127s42.5 -111.833 42.5 -176.5
c0 -65.333 -14.167 -124.666 -42.5 -177.999s-70.333 -95.666 -126 -126.999s-122.5 -47 -200.5 -47s-144.833 15.833 -200.5 47.5zM515.5 145.999c28.333 19.333 50.0039 45.833 65.0039 79.5s22.5 71.834 22.5 114.501c0 64.667 -16.833 117.834 -50.5 159.501
s-79.834 62.5 -138.501 62.5s-104.834 -20.833 -138.501 -62.5s-50.5 -94.834 -50.5 -159.501c0 -42.667 7.5 -80.834 22.5 -114.501s36.667 -60.167 65 -79.5s62.166 -29 101.499 -29s73.166 9.66699 101.499 29zM173.004 911.999h185l141 -172h-147z" />
    <glyph glyph-name="Oacute" unicode="&#xd3;" horiz-adv-x="828" 
d="M213.5 35.5c-55.667 31.667 -97.667 74.166 -126 127.499s-42.5 112.333 -42.5 177s14.167 123.667 42.5 177s70.333 95.666 126 126.999s122.5 47 200.5 47s144.833 -15.833 200.5 -47.5s97.667 -74 126 -127s42.5 -111.833 42.5 -176.5
c0 -65.333 -14.167 -124.666 -42.5 -177.999s-70.333 -95.666 -126 -126.999s-122.5 -47 -200.5 -47s-144.833 15.833 -200.5 47.5zM515.5 145.999c28.333 19.333 50.0039 45.833 65.0039 79.5s22.5 71.834 22.5 114.501c0 64.667 -16.833 117.834 -50.5 159.501
s-79.834 62.5 -138.501 62.5s-104.834 -20.833 -138.501 -62.5s-50.5 -94.834 -50.5 -159.501c0 -42.667 7.5 -80.834 22.5 -114.501s36.667 -60.167 65 -79.5s62.166 -29 101.499 -29s73.166 9.66699 101.499 29zM472.004 911.999h185l-179 -172h-147z" />
    <glyph glyph-name="Ocircumflex" unicode="&#xd4;" horiz-adv-x="828" 
d="M213.5 35.5c-55.667 31.667 -97.667 74.166 -126 127.499s-42.5 112.333 -42.5 177s14.167 123.667 42.5 177s70.333 95.666 126 126.999s122.5 47 200.5 47s144.833 -15.833 200.5 -47.5s97.667 -74 126 -127s42.5 -111.833 42.5 -176.5
c0 -65.333 -14.167 -124.666 -42.5 -177.999s-70.333 -95.666 -126 -126.999s-122.5 -47 -200.5 -47s-144.833 15.833 -200.5 47.5zM515.5 145.999c28.333 19.333 50.0039 45.833 65.0039 79.5s22.5 71.834 22.5 114.501c0 64.667 -16.833 117.834 -50.5 159.501
s-79.834 62.5 -138.501 62.5s-104.834 -20.833 -138.501 -62.5s-50.5 -94.834 -50.5 -159.501c0 -42.667 7.5 -80.834 22.5 -114.501s36.667 -60.167 65 -79.5s62.166 -29 101.499 -29s73.166 9.66699 101.499 29zM481.004 739.999l-67 88l-67 -88h-165l149 172h166
l149 -172h-165z" />
    <glyph glyph-name="Otilde" unicode="&#xd5;" horiz-adv-x="828" 
d="M213.5 35.5c-55.667 31.667 -97.667 74.166 -126 127.499s-42.5 112.333 -42.5 177s14.167 123.667 42.5 177s70.333 95.666 126 126.999s122.5 47 200.5 47s144.833 -15.833 200.5 -47.5s97.667 -74 126 -127s42.5 -111.833 42.5 -176.5
c0 -65.333 -14.167 -124.666 -42.5 -177.999s-70.333 -95.666 -126 -126.999s-122.5 -47 -200.5 -47s-144.833 15.833 -200.5 47.5zM515.5 145.999c28.333 19.333 50.0039 45.833 65.0039 79.5s22.5 71.834 22.5 114.501c0 64.667 -16.833 117.834 -50.5 159.501
s-79.834 62.5 -138.501 62.5s-104.834 -20.833 -138.501 -62.5s-50.5 -94.834 -50.5 -159.501c0 -42.667 7.5 -80.834 22.5 -114.501s36.667 -60.167 65 -79.5s62.166 -29 101.499 -29s73.166 9.66699 101.499 29zM214.004 733.999
c3.33301 54.667 16.3291 97.832 38.9961 129.499s51.334 47.5 86.001 47.5c12.667 0 25 -2.16699 37 -6.5s26 -10.5 42 -18.5c14.667 -7.33301 26.334 -12.666 35.001 -15.999s17.334 -5 26.001 -5c18 0 31.667 18.667 41 56l94 -4
c-3.33301 -50.667 -16.666 -92.834 -39.999 -126.501s-51.666 -50.5 -84.999 -50.5c-14 0 -27.333 2.33301 -40 7s-28 11.334 -46 20.001c-12.667 6.66699 -23 11.5 -31 14.5s-15.667 4.5 -23 4.5c-9.33301 0 -17.333 -4.33301 -24 -13s-12.334 -23 -17.001 -43z" />
    <glyph glyph-name="Odieresis" unicode="&#xd6;" horiz-adv-x="828" 
d="M213.5 35.5c-55.667 31.667 -97.667 74.166 -126 127.499s-42.5 112.333 -42.5 177s14.167 123.667 42.5 177s70.333 95.666 126 126.999s122.5 47 200.5 47s144.833 -15.833 200.5 -47.5s97.667 -74 126 -127s42.5 -111.833 42.5 -176.5
c0 -65.333 -14.167 -124.666 -42.5 -177.999s-70.333 -95.666 -126 -126.999s-122.5 -47 -200.5 -47s-144.833 15.833 -200.5 47.5zM515.5 145.999c28.333 19.333 50.0039 45.833 65.0039 79.5s22.5 71.834 22.5 114.501c0 64.667 -16.833 117.834 -50.5 159.501
s-79.834 62.5 -138.501 62.5s-104.834 -20.833 -138.501 -62.5s-50.5 -94.834 -50.5 -159.501c0 -42.667 7.5 -80.834 22.5 -114.501s36.667 -60.167 65 -79.5s62.166 -29 101.499 -29s73.166 9.66699 101.499 29zM226.504 764.499c-16.333 16.333 -24.5 35.833 -24.5 58.5
s8.16699 42.167 24.5 58.5s35.833 24.5 58.5 24.5s42.167 -8.16699 58.5 -24.5s24.5 -35.833 24.5 -58.5s-8.16699 -42.167 -24.5 -58.5s-35.833 -24.5 -58.5 -24.5s-42.167 8.16699 -58.5 24.5zM484.504 764.499c-16.333 16.333 -24.5 35.833 -24.5 58.5
s8.16699 42.167 24.5 58.5s35.833 24.5 58.5 24.5s42.167 -8.16699 58.5 -24.5s24.5 -35.833 24.5 -58.5s-8.16699 -42.167 -24.5 -58.5s-35.833 -24.5 -58.5 -24.5s-42.167 8.16699 -58.5 24.5z" />
    <glyph glyph-name="multiply" unicode="&#xd7;" 
d="M503 45l-172 173l-170 -170l-87 87l170 170l-165 164l87 87l165 -164l168 168l87 -87l-168 -168l172 -173z" />
    <glyph glyph-name="Oslash" unicode="&#xd8;" horiz-adv-x="828" 
d="M762 467.5c14 -40.333 21 -82.835 21 -127.502c0 -65.333 -14.167 -124.666 -42.5 -177.999s-70.333 -95.666 -126 -126.999s-122.5 -47 -200.5 -47c-67.333 0 -128 12.667 -182 38l-81 -96l-96 82l76 89c-28 31.333 -49.333 67.5 -64 108.5s-22 84.5 -22 130.5
c0 64.667 14.167 123.667 42.5 177s70.333 95.666 126 126.999s122.5 47 200.5 47c70 0 131.667 -13 185 -39l78 91l96 -82l-73 -86c27.333 -31.333 48 -67.166 62 -107.499zM244 233.998l260.001 306.001c-26 14.667 -56 22 -90 22
c-58.667 0 -104.834 -20.833 -138.501 -62.5s-50.5 -94.834 -50.5 -159.501c0 -40.667 6.33301 -76 19 -106zM515.501 145.999c28.333 19.333 50.001 45.8311 65.001 79.498s22.5 71.834 22.5 114.501c0 36.667 -5.66699 70.334 -17 101.001l-259 -304
c25.333 -13.333 54.333 -20 87 -20c39.333 0 73.166 9.66699 101.499 29z" />
    <glyph glyph-name="Ugrave" unicode="&#xd9;" horiz-adv-x="799" 
d="M162 63.5c-54.667 50.333 -82 119.833 -82 208.5v408h180v-407c0 -54.667 11.833 -94.334 35.5 -119.001s58.5 -37 104.5 -37c45.333 0 79.833 12.333 103.5 37s35.5 64.334 35.5 119.001v407h180v-406c0 -89.333 -27.333 -159.333 -82 -210s-133.667 -76 -237 -76
c-104 0 -183.333 25.167 -238 75.5zM159 912h185l141 -172h-147z" />
    <glyph glyph-name="Uacute" unicode="&#xda;" horiz-adv-x="799" 
d="M162 63.5c-54.667 50.333 -82 119.833 -82 208.5v408h180v-407c0 -54.667 11.833 -94.334 35.5 -119.001s58.5 -37 104.5 -37c45.333 0 79.833 12.333 103.5 37s35.5 64.334 35.5 119.001v407h180v-406c0 -89.333 -27.333 -159.333 -82 -210s-133.667 -76 -237 -76
c-104 0 -183.333 25.167 -238 75.5zM458 912h185l-179 -172h-147z" />
    <glyph glyph-name="Ucircumflex" unicode="&#xdb;" horiz-adv-x="799" 
d="M162 63.5c-54.667 50.333 -82 119.833 -82 208.5v408h180v-407c0 -54.667 11.833 -94.334 35.5 -119.001s58.5 -37 104.5 -37c45.333 0 79.833 12.333 103.5 37s35.5 64.334 35.5 119.001v407h180v-406c0 -89.333 -27.333 -159.333 -82 -210s-133.667 -76 -237 -76
c-104 0 -183.333 25.167 -238 75.5zM467 740l-67 88l-67 -88h-165l149 172h166l149 -172h-165z" />
    <glyph glyph-name="Udieresis" unicode="&#xdc;" horiz-adv-x="799" 
d="M162 63.5c-54.667 50.333 -82 119.833 -82 208.5v408h180v-407c0 -54.667 11.833 -94.334 35.5 -119.001s58.5 -37 104.5 -37c45.333 0 79.833 12.333 103.5 37s35.5 64.334 35.5 119.001v407h180v-406c0 -89.333 -27.333 -159.333 -82 -210s-133.667 -76 -237 -76
c-104 0 -183.333 25.167 -238 75.5zM212.5 764.5c-16.333 16.333 -24.5 35.833 -24.5 58.5s8.16699 42.167 24.5 58.5s35.833 24.5 58.5 24.5s42.167 -8.16699 58.5 -24.5s24.5 -35.833 24.5 -58.5s-8.16699 -42.167 -24.5 -58.5s-35.833 -24.5 -58.5 -24.5
s-42.167 8.16699 -58.5 24.5zM470.5 764.5c-16.333 16.333 -24.5 35.833 -24.5 58.5s8.16699 42.167 24.5 58.5s35.833 24.5 58.5 24.5s42.167 -8.16699 58.5 -24.5s24.5 -35.833 24.5 -58.5s-8.16699 -42.167 -24.5 -58.5s-35.833 -24.5 -58.5 -24.5
s-42.167 8.16699 -58.5 24.5z" />
    <glyph glyph-name="Yacute" unicode="&#xdd;" horiz-adv-x="692" 
d="M436 274v-274h-180v271l-251 409h189l152 -278l154 278h187zM404 912h185l-179 -172h-147z" />
    <glyph glyph-name="Thorn" unicode="&#xde;" horiz-adv-x="705" 
d="M585 521c44.667 -36 67 -93 67 -171s-22.333 -135 -67 -171s-115.667 -54 -213 -54h-102v-125h-180v680h180v-105h102c97.333 0 168.333 -18 213 -54zM449 274.5c15.333 15.667 23 40.832 23 75.499c0 35.333 -7.66699 60.833 -23 76.5s-41 23.5 -77 23.5h-102v-200h102
c36 0.666992 61.667 8.83398 77 24.501z" />
    <glyph glyph-name="germandbls" unicode="&#xdf;" horiz-adv-x="732" 
d="M368 -3.5c-32 5.66699 -61.3311 12.835 -87.998 21.502l32 121c22.667 -8 46.5 -14.333 71.5 -19s47.5 -7 67.5 -7c24 0 41.5 3.66699 52.5 11s16.5 19.333 16.5 36c0 12.667 -5.66699 23.667 -17 33s-30.333 21.666 -57 36.999c-27.333 15.333 -49.833 29.5 -67.5 42.5
s-33 29.667 -46 50s-19.5 44.833 -19.5 73.5c0 35.333 7.16699 65.5 21.5 90.5s34.166 52.167 59.499 81.5c14.667 18 25.167 31.5 31.5 40.5s9.5 18.167 9.5 27.5c0 14.667 -6.83301 26 -20.5 34s-33.167 12 -58.5 12c-68 0 -102 -34.333 -102 -103v-579h-174v581
c0 72 24.5 127.667 73.5 167s119.833 59 212.5 59c76 0 135.167 -14.333 177.5 -43s63.5 -68.334 63.5 -119.001c0 -26.667 -6.33301 -50.834 -19 -72.501s-31 -46.5 -55 -74.5c-16.667 -18.667 -28.834 -34 -36.501 -46s-11.5 -23.667 -11.5 -35
c0 -12.667 5.83301 -24 17.5 -34s30.167 -22.667 55.5 -38c28 -16 50.833 -30.833 68.5 -44.5s33 -31.167 46 -52.5s19.5 -46.666 19.5 -75.999c0 -36.667 -10.333 -69 -31 -97s-48.5 -49.5 -83.5 -64.5s-73.167 -22.5 -114.5 -22.5c-31.333 0 -63 2.83301 -95 8.5z" />
    <glyph glyph-name="agrave" unicode="&#xe0;" horiz-adv-x="616" 
d="M613 6c-21.333 -4.66699 -40.1709 -7.99805 -56.5039 -9.99805s-35.5 -3 -57.5 -3c-64 0 -106 20.667 -126 62c-28 -20.667 -56 -36.334 -84 -47.001s-58.667 -16 -92 -16c-30 0 -57 6.33301 -81 19s-42.667 29.667 -56 51s-20 44.666 -20 69.999
c0 42.667 10.833 76.5 32.5 101.5s50.834 45 87.501 60s92.334 33.167 167.001 54.5l30 9v4c0 61.333 -28 92 -84 92c-27.333 0 -56.666 -6 -87.999 -18s-67.333 -31.333 -108 -58l-33 120c45.333 26 91.5 46.333 138.5 61s96.833 22 149.5 22
c64 0 113.167 -17.333 147.5 -52s51.5 -94 51.5 -178v-190c0 -14.667 3 -25.167 9 -31.5s15.667 -9.5 29 -9.5c12.667 0 25.334 1.66699 38.001 5zM224.495 126.002c7 -6 18.167 -8.99902 33.5 -8.99902c28 0 61 12 99 36v106l-15 -5c-50 -18 -83.833 -33.833 -101.5 -47.5
s-26.5 -30.834 -26.5 -51.501c0 -13.333 3.5 -23 10.5 -29zM110.995 842.003h187l97 -212h-134z" />
    <glyph glyph-name="aacute" unicode="&#xe1;" horiz-adv-x="616" 
d="M613 6c-21.333 -4.66699 -40.1709 -7.99805 -56.5039 -9.99805s-35.5 -3 -57.5 -3c-64 0 -106 20.667 -126 62c-28 -20.667 -56 -36.334 -84 -47.001s-58.667 -16 -92 -16c-30 0 -57 6.33301 -81 19s-42.667 29.667 -56 51s-20 44.666 -20 69.999
c0 42.667 10.833 76.5 32.5 101.5s50.834 45 87.501 60s92.334 33.167 167.001 54.5l30 9v4c0 61.333 -28 92 -84 92c-27.333 0 -56.666 -6 -87.999 -18s-67.333 -31.333 -108 -58l-33 120c45.333 26 91.5 46.333 138.5 61s96.833 22 149.5 22
c64 0 113.167 -17.333 147.5 -52s51.5 -94 51.5 -178v-190c0 -14.667 3 -25.167 9 -31.5s15.667 -9.5 29 -9.5c12.667 0 25.334 1.66699 38.001 5zM224.495 126.002c7 -6 18.167 -8.99902 33.5 -8.99902c28 0 61 12 99 36v106l-15 -5c-50 -18 -83.833 -33.833 -101.5 -47.5
s-26.5 -30.834 -26.5 -51.501c0 -13.333 3.5 -23 10.5 -29zM325.995 842.003h187l-150 -212h-134z" />
    <glyph glyph-name="acircumflex" unicode="&#xe2;" horiz-adv-x="616" 
d="M613 6c-21.333 -4.66699 -40.1709 -7.99805 -56.5039 -9.99805s-35.5 -3 -57.5 -3c-64 0 -106 20.667 -126 62c-28 -20.667 -56 -36.334 -84 -47.001s-58.667 -16 -92 -16c-30 0 -57 6.33301 -81 19s-42.667 29.667 -56 51s-20 44.666 -20 69.999
c0 42.667 10.833 76.5 32.5 101.5s50.834 45 87.501 60s92.334 33.167 167.001 54.5l30 9v4c0 61.333 -28 92 -84 92c-27.333 0 -56.666 -6 -87.999 -18s-67.333 -31.333 -108 -58l-33 120c45.333 26 91.5 46.333 138.5 61s96.833 22 149.5 22
c64 0 113.167 -17.333 147.5 -52s51.5 -94 51.5 -178v-190c0 -14.667 3 -25.167 9 -31.5s15.667 -9.5 29 -9.5c12.667 0 25.334 1.66699 38.001 5zM224.495 126.002c7 -6 18.167 -8.99902 33.5 -8.99902c28 0 61 12 99 36v106l-15 -5c-50 -18 -83.833 -33.833 -101.5 -47.5
s-26.5 -30.834 -26.5 -51.501c0 -13.333 3.5 -23 10.5 -29zM379.995 630.003l-67 108l-67 -108h-134l115 210h172l115 -210h-134z" />
    <glyph glyph-name="atilde" unicode="&#xe3;" horiz-adv-x="616" 
d="M613 6c-21.333 -4.66699 -40.1709 -7.99805 -56.5039 -9.99805s-35.5 -3 -57.5 -3c-64 0 -106 20.667 -126 62c-28 -20.667 -56 -36.334 -84 -47.001s-58.667 -16 -92 -16c-30 0 -57 6.33301 -81 19s-42.667 29.667 -56 51s-20 44.666 -20 69.999
c0 42.667 10.833 76.5 32.5 101.5s50.834 45 87.501 60s92.334 33.167 167.001 54.5l30 9v4c0 61.333 -28 92 -84 92c-27.333 0 -56.666 -6 -87.999 -18s-67.333 -31.333 -108 -58l-33 120c45.333 26 91.5 46.333 138.5 61s96.833 22 149.5 22
c64 0 113.167 -17.333 147.5 -52s51.5 -94 51.5 -178v-190c0 -14.667 3 -25.167 9 -31.5s15.667 -9.5 29 -9.5c12.667 0 25.334 1.66699 38.001 5zM224.495 126.002c7 -6 18.167 -8.99902 33.5 -8.99902c28 0 61 12 99 36v106l-15 -5c-50 -18 -83.833 -33.833 -101.5 -47.5
s-26.5 -30.834 -26.5 -51.501c0 -13.333 3.5 -23 10.5 -29zM112.995 664.003c3.33301 54.667 16.3291 97.832 38.9961 129.499s51.334 47.5 86.001 47.5c12.667 0 25 -2.16699 37 -6.5s26 -10.5 42 -18.5c14.667 -7.33301 26.334 -12.666 35.001 -15.999
s17.334 -5 26.001 -5c18 0 31.667 18.667 41 56l94 -4c-3.33301 -50.667 -16.666 -92.834 -39.999 -126.501s-51.666 -50.5 -84.999 -50.5c-14 0 -27.333 2.33301 -40 7s-28 11.334 -46 20.001c-12.667 6.66699 -23 11.5 -31 14.5s-15.667 4.5 -23 4.5
c-9.33301 0 -17.333 -4.5 -24 -13.5s-12.334 -23.167 -17.001 -42.5z" />
    <glyph glyph-name="adieresis" unicode="&#xe4;" horiz-adv-x="616" 
d="M613 6c-21.333 -4.66699 -40.1709 -7.99805 -56.5039 -9.99805s-35.5 -3 -57.5 -3c-64 0 -106 20.667 -126 62c-28 -20.667 -56 -36.334 -84 -47.001s-58.667 -16 -92 -16c-30 0 -57 6.33301 -81 19s-42.667 29.667 -56 51s-20 44.666 -20 69.999
c0 42.667 10.833 76.5 32.5 101.5s50.834 45 87.501 60s92.334 33.167 167.001 54.5l30 9v4c0 61.333 -28 92 -84 92c-27.333 0 -56.666 -6 -87.999 -18s-67.333 -31.333 -108 -58l-33 120c45.333 26 91.5 46.333 138.5 61s96.833 22 149.5 22
c64 0 113.167 -17.333 147.5 -52s51.5 -94 51.5 -178v-190c0 -14.667 3 -25.167 9 -31.5s15.667 -9.5 29 -9.5c12.667 0 25.334 1.66699 38.001 5zM224.495 126.002c7 -6 18.167 -8.99902 33.5 -8.99902c28 0 61 12 99 36v106l-15 -5c-50 -18 -83.833 -33.833 -101.5 -47.5
s-26.5 -30.834 -26.5 -51.501c0 -13.333 3.5 -23 10.5 -29zM119.995 670.003c-18 18 -27 39.333 -27 64s9 46 27 64s39.333 27 64 27s46 -9 64 -27s27 -39.333 27 -64s-9 -46 -27 -64s-39.333 -27 -64 -27s-46 9 -64 27zM377.995 670.003c-18 18 -27 39.333 -27 64
s9 46 27 64s39.333 27 64 27s46 -9 64 -27s27 -39.333 27 -64s-9 -46 -27 -64s-39.333 -27 -64 -27s-46 9 -64 27z" />
    <glyph glyph-name="aring" unicode="&#xe5;" horiz-adv-x="616" 
d="M613 6c-21.333 -4.66699 -40.1709 -7.99805 -56.5039 -9.99805s-35.5 -3 -57.5 -3c-64 0 -106 20.667 -126 62c-28 -20.667 -56 -36.334 -84 -47.001s-58.667 -16 -92 -16c-30 0 -57 6.33301 -81 19s-42.667 29.667 -56 51s-20 44.666 -20 69.999
c0 42.667 10.833 76.5 32.5 101.5s50.834 45 87.501 60s92.334 33.167 167.001 54.5l30 9v4c0 61.333 -28 92 -84 92c-27.333 0 -56.666 -6 -87.999 -18s-67.333 -31.333 -108 -58l-33 120c45.333 26 91.5 46.333 138.5 61s96.833 22 149.5 22
c64 0 113.167 -17.333 147.5 -52s51.5 -94 51.5 -178v-190c0 -14.667 3 -25.167 9 -31.5s15.667 -9.5 29 -9.5c12.667 0 25.334 1.66699 38.001 5zM224.495 126.002c7 -6 18.167 -8.99902 33.5 -8.99902c28 0 61 12 99 36v106l-15 -5c-50 -18 -83.833 -33.833 -101.5 -47.5
s-26.5 -30.834 -26.5 -51.501c0 -13.333 3.5 -23 10.5 -29zM230.495 642.003c-23 11.333 -40.333 26.333 -52 45s-17.5 38.334 -17.5 59.001s5.83301 40.334 17.5 59.001s29 33.667 52 45s50.5 17 82.5 17s59.5 -5.66699 82.5 -17s40.333 -26.333 52 -45
s17.5 -38.334 17.5 -59.001s-5.83301 -40.334 -17.5 -59.001s-29 -33.667 -52 -45s-50.5 -17 -82.5 -17s-59.5 5.66699 -82.5 17zM346.995 711.503c8.66699 9 13 20.5 13 34.5s-4.33301 25.5 -13 34.5s-20 13.5 -34 13.5s-25.333 -4.5 -34 -13.5s-13 -20.5 -13 -34.5
s4.33301 -25.5 13 -34.5s20 -13.5 34 -13.5s25.333 4.5 34 13.5z" />
    <glyph glyph-name="ae" unicode="&#xe6;" horiz-adv-x="933" 
d="M564 147c20 -22.667 50.6641 -33.9961 91.9971 -33.9961c30.667 0 59.167 5.5 85.5 16.5s56.5 27.5 90.5 49.5l47 -110c-35.333 -28.667 -70.333 -49.334 -105 -62.001s-74.334 -19 -119.001 -19c-54 0 -100.667 9 -140 27s-71.333 43.333 -96 76
c-39.333 -32.667 -75.666 -57.334 -108.999 -74.001s-71 -25 -113 -25c-30 0 -57 6.33301 -81 19s-42.667 29.667 -56 51s-20 44.666 -20 69.999c0 42.667 10.833 76.5 32.5 101.5s50.834 45 87.501 60s92.334 33.167 167.001 54.5l30 9v4c0 61.333 -28 92 -84 92
c-27.333 0 -56.666 -6 -87.999 -18s-67.333 -31.333 -108 -58l-33 120c45.333 26 91.5 46.333 138.5 61s96.833 22 149.5 22c60.667 0 105.334 -18.333 134.001 -55c49.333 36.667 112.333 55 189 55c77.333 0 136.166 -20.833 176.499 -62.5s60.833 -100.834 61.5 -177.501
c0 -30 -4.33301 -59.333 -13 -88h-351c3.33301 -47.333 15 -82.333 35 -105zM723.997 365.004c0.666992 4 1.00098 9.33398 1.00098 16.001c-0.666992 27.333 -8 48.166 -22 62.499s-33.333 21.5 -58 21.5c-58.667 0 -95.334 -33.333 -110.001 -100h189zM312.998 129.505
c18.667 8.33301 40.667 20.834 66 37.501c-10 32.667 -15.333 64 -16 94l-21 -7c-50 -18 -83.833 -33.833 -101.5 -47.5s-26.5 -30.834 -26.5 -51.501c0 -13.333 3.5 -23 10.5 -29s18.167 -9 33.5 -9c18 0 36.333 4.16699 55 12.5z" />
    <glyph glyph-name="ccedilla" unicode="&#xe7;" horiz-adv-x="552" 
d="M432.5 -71.5c17 -15.667 25.501 -34.498 25.501 -56.498c0 -18.667 -6 -36.834 -18 -54.501s-32.333 -32.5 -61 -44.5s-66 -18 -112 -18l-22 77c33.333 0 56 2.83301 68 8.5s18 13.834 18 24.501c0 7.33301 -3 13.166 -9 17.499s-14 6.5 -24 6.5
c-8.66699 0 -17.667 -1.66699 -27 -5l-31 43l36 66c-78 11.333 -136.833 43.166 -176.5 95.499s-59.5 117.166 -59.5 194.499c0 54.667 11 104.334 33 149.001s56.333 80.5 103 107.5s106 40.5 178 40.5c26 0 54 -3 84 -9s54.333 -13.667 73 -23l-33 -120
c-44.667 18 -86 27 -124 27c-44 0 -78 -14.5 -102 -43.5s-36 -71.5 -36 -127.5s10.667 -98.5 32 -127.5s51.666 -43.5 90.999 -43.5c26.667 0 51 4 73 12s47 20 75 36l47 -110c-18 -14 -39.667 -26.333 -65 -37s-52.333 -18 -81 -22l-19 -35
c25.333 -3.33301 46.5 -12.833 63.5 -28.5z" />
    <glyph glyph-name="egrave" unicode="&#xe8;" horiz-adv-x="616" 
d="M247 147c20 -22.667 50.6699 -33.998 92.0029 -33.998c30.667 0 59.167 5.5 85.5 16.5s56.5 27.5 90.5 49.5l47 -110c-35.333 -28.667 -70.333 -49.334 -105 -62.001s-74.334 -19 -119.001 -19c-66 0 -121.333 12.833 -166 38.5s-77.834 60.667 -99.501 105
s-32.5 94.833 -32.5 151.5c0 90 25.333 162 76 216s124.667 81 222 81c77.333 0 136.166 -20.833 176.499 -62.5s60.833 -100.834 61.5 -177.501c0 -30 -4.33301 -59.333 -13 -88h-351c3.33301 -47.333 15 -82.333 35 -105zM407.003 365.002
c0.666992 4 1.00098 9.33398 1.00098 16.001c-0.666992 27.333 -8 48.166 -22 62.499s-33.333 21.5 -58 21.5c-58.667 0 -95.334 -33.333 -110.001 -100h189zM124.004 842.003h187l97 -212h-134z" />
    <glyph glyph-name="eacute" unicode="&#xe9;" horiz-adv-x="616" 
d="M247 147c20 -22.667 50.6699 -33.998 92.0029 -33.998c30.667 0 59.167 5.5 85.5 16.5s56.5 27.5 90.5 49.5l47 -110c-35.333 -28.667 -70.333 -49.334 -105 -62.001s-74.334 -19 -119.001 -19c-66 0 -121.333 12.833 -166 38.5s-77.834 60.667 -99.501 105
s-32.5 94.833 -32.5 151.5c0 90 25.333 162 76 216s124.667 81 222 81c77.333 0 136.166 -20.833 176.499 -62.5s60.833 -100.834 61.5 -177.501c0 -30 -4.33301 -59.333 -13 -88h-351c3.33301 -47.333 15 -82.333 35 -105zM407.003 365.002
c0.666992 4 1.00098 9.33398 1.00098 16.001c-0.666992 27.333 -8 48.166 -22 62.499s-33.333 21.5 -58 21.5c-58.667 0 -95.334 -33.333 -110.001 -100h189zM339.004 842.003h187l-150 -212h-134z" />
    <glyph glyph-name="ecircumflex" unicode="&#xea;" horiz-adv-x="616" 
d="M247 147c20 -22.667 50.6699 -33.998 92.0029 -33.998c30.667 0 59.167 5.5 85.5 16.5s56.5 27.5 90.5 49.5l47 -110c-35.333 -28.667 -70.333 -49.334 -105 -62.001s-74.334 -19 -119.001 -19c-66 0 -121.333 12.833 -166 38.5s-77.834 60.667 -99.501 105
s-32.5 94.833 -32.5 151.5c0 90 25.333 162 76 216s124.667 81 222 81c77.333 0 136.166 -20.833 176.499 -62.5s60.833 -100.834 61.5 -177.501c0 -30 -4.33301 -59.333 -13 -88h-351c3.33301 -47.333 15 -82.333 35 -105zM407.003 365.002
c0.666992 4 1.00098 9.33398 1.00098 16.001c-0.666992 27.333 -8 48.166 -22 62.499s-33.333 21.5 -58 21.5c-58.667 0 -95.334 -33.333 -110.001 -100h189zM393.004 630.003l-67 108l-67 -108h-134l115 210h172l115 -210h-134z" />
    <glyph glyph-name="edieresis" unicode="&#xeb;" horiz-adv-x="616" 
d="M247 147c20 -22.667 50.6699 -33.998 92.0029 -33.998c30.667 0 59.167 5.5 85.5 16.5s56.5 27.5 90.5 49.5l47 -110c-35.333 -28.667 -70.333 -49.334 -105 -62.001s-74.334 -19 -119.001 -19c-66 0 -121.333 12.833 -166 38.5s-77.834 60.667 -99.501 105
s-32.5 94.833 -32.5 151.5c0 90 25.333 162 76 216s124.667 81 222 81c77.333 0 136.166 -20.833 176.499 -62.5s60.833 -100.834 61.5 -177.501c0 -30 -4.33301 -59.333 -13 -88h-351c3.33301 -47.333 15 -82.333 35 -105zM407.003 365.002
c0.666992 4 1.00098 9.33398 1.00098 16.001c-0.666992 27.333 -8 48.166 -22 62.499s-33.333 21.5 -58 21.5c-58.667 0 -95.334 -33.333 -110.001 -100h189zM133.004 670.003c-18 18 -27 39.333 -27 64s9 46 27 64s39.333 27 64 27s46 -9 64 -27s27 -39.333 27 -64
s-9 -46 -27 -64s-39.333 -27 -64 -27s-46 9 -64 27zM391.004 670.003c-18 18 -27 39.333 -27 64s9 46 27 64s39.333 27 64 27s46 -9 64 -27s27 -39.333 27 -64s-9 -46 -27 -64s-39.333 -27 -64 -27s-46 9 -64 27z" />
    <glyph glyph-name="igrave" unicode="&#xec;" horiz-adv-x="334" 
d="M80 568h174v-568h-174v568zM-35 842h187l97 -212h-134z" />
    <glyph glyph-name="iacute" unicode="&#xed;" horiz-adv-x="334" 
d="M80 568h174v-568h-174v568zM180 842h187l-150 -212h-134z" />
    <glyph glyph-name="icircumflex" unicode="&#xee;" horiz-adv-x="334" 
d="M80 568h174v-568h-174v568zM234 630l-67 108l-67 -108h-134l115 210h172l115 -210h-134z" />
    <glyph glyph-name="idieresis" unicode="&#xef;" horiz-adv-x="334" 
d="M80 568h174v-568h-174v568zM-26 670c-18 18 -27 39.333 -27 64s9 46 27 64s39.333 27 64 27s46 -9 64 -27s27 -39.333 27 -64s-9 -46 -27 -64s-39.333 -27 -64 -27s-46 9 -64 27zM232 670c-18 18 -27 39.333 -27 64s9 46 27 64s39.333 27 64 27s46 -9 64 -27
s27 -39.333 27 -64s-9 -46 -27 -64s-39.333 -27 -64 -27s-46 9 -64 27z" />
    <glyph glyph-name="eth" unicode="&#xf0;" horiz-adv-x="704" 
d="M595.5 488.5c27.667 -64.333 41.499 -128.835 41.499 -193.502c0 -61.333 -12.5 -115.166 -37.5 -161.499s-59.667 -82.166 -104 -107.499s-94.833 -38 -151.5 -38c-66 0 -121.833 12.5 -167.5 37.5s-79.834 58.5 -102.501 100.5s-34 88 -34 138s11.5 96 34.5 138
s57 75.5 102 100.5s98.5 37.5 160.5 37.5c20.667 0 40 -2 58 -6c-18 27.333 -37.667 50.666 -59 69.999l-167 -68l-46 103l103 41c-33.333 18 -70.666 34 -111.999 48l101 83c58 -15.333 112 -38.666 162 -69.999l150 60l45 -102l-94 -38
c50.667 -50.667 89.834 -108.167 117.501 -172.5zM428.999 160.498c21.333 31.667 32.001 75.499 32.001 131.499c0 18.667 -1 37.334 -3 56.001c-14.667 22.667 -32.5 39.5 -53.5 50.5s-43.5 16.5 -67.5 16.5c-38 0 -67.667 -13.833 -89 -41.5s-32 -64.167 -32 -109.5
c0 -43.333 11 -79.333 33 -108s53.667 -43 95 -43c35.333 0 63.666 15.833 84.999 47.5z" />
    <glyph glyph-name="ntilde" unicode="&#xf1;" horiz-adv-x="687" 
d="M569.5 521c28.333 -39.333 42.5 -96 42.5 -170v-351h-174v329c0 46.667 -5.5 79 -16.5 97s-32.167 27 -63.5 27c-34 0 -68.667 -11.333 -104 -34v-419h-174v568h129l18 -47c65.333 39.333 128.333 59 189 59c74 0 125.167 -19.667 153.5 -59zM147 664
c3.33301 54.667 16.3291 97.832 38.9961 129.499s51.334 47.5 86.001 47.5c12.667 0 25 -2.16699 37 -6.5s26 -10.5 42 -18.5c14.667 -7.33301 26.334 -12.666 35.001 -15.999s17.334 -5 26.001 -5c18 0 31.667 18.667 41 56l94 -4
c-3.33301 -50.667 -16.666 -92.834 -39.999 -126.501s-51.666 -50.5 -84.999 -50.5c-14 0 -27.333 2.33301 -40 7s-28 11.334 -46 20.001c-12.667 6.66699 -23 11.5 -31 14.5s-15.667 4.5 -23 4.5c-9.33301 0 -17.333 -4.5 -24 -13.5s-12.334 -23.167 -17.001 -42.5z" />
    <glyph glyph-name="ograve" unicode="&#xf2;" horiz-adv-x="678" 
d="M174 26c-44.667 25.333 -78.167 60.332 -100.5 104.999s-33.5 95.334 -33.5 152.001c0 90 25.5 162 76.5 216s125.167 81 222.5 81c64 0 118.5 -13.5 163.5 -40.5s78.833 -62.833 101.5 -107.5s34 -93.667 34 -147s-11.333 -102.5 -34 -147.5
s-56.5 -81.167 -101.5 -108.5s-99.5 -41 -163.5 -41c-65.333 0 -120.333 12.667 -165 38zM433 154.999c19.333 28 29 71 29 129s-9.66699 101 -29 129s-50.666 42 -93.999 42s-74.666 -14 -93.999 -42s-29 -71 -29 -129s9.66699 -101 29 -129s50.666 -42 93.999 -42
s74.666 14 93.999 42zM137 841.999h187l97 -212h-134z" />
    <glyph glyph-name="oacute" unicode="&#xf3;" horiz-adv-x="678" 
d="M174 26c-44.667 25.333 -78.167 60.332 -100.5 104.999s-33.5 95.334 -33.5 152.001c0 90 25.5 162 76.5 216s125.167 81 222.5 81c64 0 118.5 -13.5 163.5 -40.5s78.833 -62.833 101.5 -107.5s34 -93.667 34 -147s-11.333 -102.5 -34 -147.5
s-56.5 -81.167 -101.5 -108.5s-99.5 -41 -163.5 -41c-65.333 0 -120.333 12.667 -165 38zM433 154.999c19.333 28 29 71 29 129s-9.66699 101 -29 129s-50.666 42 -93.999 42s-74.666 -14 -93.999 -42s-29 -71 -29 -129s9.66699 -101 29 -129s50.666 -42 93.999 -42
s74.666 14 93.999 42zM352 841.999h187l-150 -212h-134z" />
    <glyph glyph-name="ocircumflex" unicode="&#xf4;" horiz-adv-x="678" 
d="M174 26c-44.667 25.333 -78.167 60.332 -100.5 104.999s-33.5 95.334 -33.5 152.001c0 90 25.5 162 76.5 216s125.167 81 222.5 81c64 0 118.5 -13.5 163.5 -40.5s78.833 -62.833 101.5 -107.5s34 -93.667 34 -147s-11.333 -102.5 -34 -147.5
s-56.5 -81.167 -101.5 -108.5s-99.5 -41 -163.5 -41c-65.333 0 -120.333 12.667 -165 38zM433 154.999c19.333 28 29 71 29 129s-9.66699 101 -29 129s-50.666 42 -93.999 42s-74.666 -14 -93.999 -42s-29 -71 -29 -129s9.66699 -101 29 -129s50.666 -42 93.999 -42
s74.666 14 93.999 42zM406 629.999l-67 108l-67 -108h-134l115 210h172l115 -210h-134z" />
    <glyph glyph-name="otilde" unicode="&#xf5;" horiz-adv-x="678" 
d="M174 26c-44.667 25.333 -78.167 60.332 -100.5 104.999s-33.5 95.334 -33.5 152.001c0 90 25.5 162 76.5 216s125.167 81 222.5 81c64 0 118.5 -13.5 163.5 -40.5s78.833 -62.833 101.5 -107.5s34 -93.667 34 -147s-11.333 -102.5 -34 -147.5
s-56.5 -81.167 -101.5 -108.5s-99.5 -41 -163.5 -41c-65.333 0 -120.333 12.667 -165 38zM433 154.999c19.333 28 29 71 29 129s-9.66699 101 -29 129s-50.666 42 -93.999 42s-74.666 -14 -93.999 -42s-29 -71 -29 -129s9.66699 -101 29 -129s50.666 -42 93.999 -42
s74.666 14 93.999 42zM139 663.999c3.33301 54.667 16.3291 97.832 38.9961 129.499s51.334 47.5 86.001 47.5c12.667 0 25 -2.16699 37 -6.5s26 -10.5 42 -18.5c14.667 -7.33301 26.334 -12.666 35.001 -15.999s17.334 -5 26.001 -5c18 0 31.667 18.667 41 56l94 -4
c-3.33301 -50.667 -16.666 -92.834 -39.999 -126.501s-51.666 -50.5 -84.999 -50.5c-14 0 -27.333 2.33301 -40 7s-28 11.334 -46 20.001c-12.667 6.66699 -23 11.5 -31 14.5s-15.667 4.5 -23 4.5c-9.33301 0 -17.333 -4.5 -24 -13.5s-12.334 -23.167 -17.001 -42.5z" />
    <glyph glyph-name="odieresis" unicode="&#xf6;" horiz-adv-x="678" 
d="M174 26c-44.667 25.333 -78.167 60.332 -100.5 104.999s-33.5 95.334 -33.5 152.001c0 90 25.5 162 76.5 216s125.167 81 222.5 81c64 0 118.5 -13.5 163.5 -40.5s78.833 -62.833 101.5 -107.5s34 -93.667 34 -147s-11.333 -102.5 -34 -147.5
s-56.5 -81.167 -101.5 -108.5s-99.5 -41 -163.5 -41c-65.333 0 -120.333 12.667 -165 38zM433 154.999c19.333 28 29 71 29 129s-9.66699 101 -29 129s-50.666 42 -93.999 42s-74.666 -14 -93.999 -42s-29 -71 -29 -129s9.66699 -101 29 -129s50.666 -42 93.999 -42
s74.666 14 93.999 42zM146 669.999c-18 18 -27 39.333 -27 64s9 46 27 64s39.333 27 64 27s46 -9 64 -27s27 -39.333 27 -64s-9 -46 -27 -64s-39.333 -27 -64 -27s-46 9 -64 27zM404 669.999c-18 18 -27 39.333 -27 64s9 46 27 64s39.333 27 64 27s46 -9 64 -27
s27 -39.333 27 -64s-9 -46 -27 -64s-39.333 -27 -64 -27s-46 9 -64 27z" />
    <glyph glyph-name="divide" unicode="&#xf7;" 
d="M258 438c-20.667 20.667 -31 45.334 -31 74.001c0 29.333 10.333 54.166 31 74.499s45.334 30.5 74.001 30.5c29.333 0 54.166 -10.167 74.499 -30.5s30.5 -45.166 30.5 -74.499c0 -28.667 -10.167 -53.334 -30.5 -74.001s-45.166 -31 -74.499 -31
c-28.667 0 -53.334 10.333 -74.001 31zM32 367h600v-123h-600v123zM258 25c-20.667 20.667 -31 45.334 -31 74.001c0 29.333 10.333 54.166 31 74.499s45.334 30.5 74.001 30.5c29.333 0 54.166 -10.167 74.499 -30.5s30.5 -45.166 30.5 -74.499
c0 -28.667 -10.167 -53.334 -30.5 -74.001s-45.166 -31 -74.499 -31c-28.667 0 -53.334 10.333 -74.001 31z" />
    <glyph glyph-name="oslash" unicode="&#xf8;" horiz-adv-x="678" 
d="M614 411c16 -39.333 24 -81.334 24 -126.001c0 -53.333 -11.333 -102.5 -34 -147.5s-56.5 -81.167 -101.5 -108.5s-99.5 -41 -163.5 -41c-52.667 0 -99 8.66699 -139 26l-52 -75l-72 45l52 75c-29.333 26.667 -51.333 59.167 -66 97.5s-22 80.5 -22 126.5
c0 90 25.5 162 76.5 216s125.167 81 222.5 81c47.333 0 91.333 -8 132 -24l49 71l72 -45l-49 -71c31.333 -27.333 55 -60.666 71 -99.999zM225 199.999l168.999 245c-14 6.66699 -32.333 10 -55 10c-43.333 0 -74.666 -14 -93.999 -42s-29 -71 -29 -129
c0 -32.667 3 -60.667 9 -84zM432.999 154.999c19.333 28 29 71 29 129c0 37.333 -4 68.333 -12 93l-173 -251c16.667 -8.66699 37.334 -13 62.001 -13c43.333 0 74.666 14 93.999 42z" />
    <glyph glyph-name="ugrave" unicode="&#xf9;" horiz-adv-x="687" 
d="M607 568v-568h-129l-18 47c-65.333 -39.333 -128.333 -59 -189 -59c-74 0 -125.167 19.667 -153.5 59s-42.5 96 -42.5 170v351h174v-329c0 -46.667 5.5 -79 16.5 -97s32.167 -27 63.5 -27c34 0 68.667 11.333 104 34v419h174zM136 842h187l97 -212h-134z" />
    <glyph glyph-name="uacute" unicode="&#xfa;" horiz-adv-x="687" 
d="M607 568v-568h-129l-18 47c-65.333 -39.333 -128.333 -59 -189 -59c-74 0 -125.167 19.667 -153.5 59s-42.5 96 -42.5 170v351h174v-329c0 -46.667 5.5 -79 16.5 -97s32.167 -27 63.5 -27c34 0 68.667 11.333 104 34v419h174zM351 842h187l-150 -212h-134z" />
    <glyph glyph-name="ucircumflex" unicode="&#xfb;" horiz-adv-x="687" 
d="M607 568v-568h-129l-18 47c-65.333 -39.333 -128.333 -59 -189 -59c-74 0 -125.167 19.667 -153.5 59s-42.5 96 -42.5 170v351h174v-329c0 -46.667 5.5 -79 16.5 -97s32.167 -27 63.5 -27c34 0 68.667 11.333 104 34v419h174zM405 630l-67 108l-67 -108h-134l115 210h172
l115 -210h-134z" />
    <glyph glyph-name="udieresis" unicode="&#xfc;" horiz-adv-x="687" 
d="M607 568v-568h-129l-18 47c-65.333 -39.333 -128.333 -59 -189 -59c-74 0 -125.167 19.667 -153.5 59s-42.5 96 -42.5 170v351h174v-329c0 -46.667 5.5 -79 16.5 -97s32.167 -27 63.5 -27c34 0 68.667 11.333 104 34v419h174zM145 670c-18 18 -27 39.333 -27 64
s9 46 27 64s39.333 27 64 27s46 -9 64 -27s27 -39.333 27 -64s-9 -46 -27 -64s-39.333 -27 -64 -27s-46 9 -64 27zM403 670c-18 18 -27 39.333 -27 64s9 46 27 64s39.333 27 64 27s46 -9 64 -27s27 -39.333 27 -64s-9 -46 -27 -64s-39.333 -27 -64 -27s-46 9 -64 27z" />
    <glyph glyph-name="yacute" unicode="&#xfd;" horiz-adv-x="634" 
d="M628 568l-241.002 -642.001c-22.667 -64 -55 -110.167 -97 -138.5s-92.667 -42.5 -152 -42.5c-21.333 0 -43.666 1.83301 -66.999 5.5s-43.666 8.83398 -60.999 15.501l11 127c38 -12 70.333 -18 97 -18c30 0 56.167 6.66699 78.5 20s41.5 34.333 57.5 63l-236 610h177
l132 -401l126 401h175zM339.998 841.999h187l-150 -212h-134z" />
    <glyph glyph-name="thorn" unicode="&#xfe;" horiz-adv-x="695" 
d="M526.5 546.5c40.333 -22.333 71.834 -55.5 94.501 -99.5s34 -98 34 -162c0 -68 -12.667 -124.167 -38 -168.5s-58.833 -76.833 -100.5 -97.5s-87.5 -31 -137.5 -31c-44.667 0 -86.334 11.333 -125.001 34v-254h-174v1032h174v-255c40 23.333 84.333 35 133 35
c52.667 0 99.167 -11.167 139.5 -33.5zM450.001 155c19.333 28 29 71.334 29 130.001c0 113.333 -37.333 170 -112 170c-22.667 0 -42.834 -2.33301 -60.501 -7s-35.167 -12.334 -52.5 -23.001v-282c34.667 -20 69.334 -30 104.001 -30c42 0 72.667 14 92 42z" />
    <glyph glyph-name="ydieresis" unicode="&#xff;" horiz-adv-x="634" 
d="M628 568l-241.002 -642.001c-22.667 -64 -55 -110.167 -97 -138.5s-92.667 -42.5 -152 -42.5c-21.333 0 -43.666 1.83301 -66.999 5.5s-43.666 8.83398 -60.999 15.501l11 127c38 -12 70.333 -18 97 -18c30 0 56.167 6.66699 78.5 20s41.5 34.333 57.5 63l-236 610h177
l132 -401l126 401h175zM133.998 669.999c-18 18 -27 39.333 -27 64s9 46 27 64s39.333 27 64 27s46 -9 64 -27s27 -39.333 27 -64s-9 -46 -27 -64s-39.333 -27 -64 -27s-46 9 -64 27zM391.998 669.999c-18 18 -27 39.333 -27 64s9 46 27 64s39.333 27 64 27s46 -9 64 -27
s27 -39.333 27 -64s-9 -46 -27 -64s-39.333 -27 -64 -27s-46 9 -64 27z" />
    <glyph glyph-name="Amacron" unicode="&#x100;" horiz-adv-x="707" 
d="M467 157h-230l-51 -157h-181l261 689h174l262 -689h-183zM427 280l-75 226l-74 -226h149zM152 890h400v-122h-400v122z" />
    <glyph glyph-name="amacron" unicode="&#x101;" horiz-adv-x="616" 
d="M613 6c-21.333 -4.66699 -40.1709 -7.99805 -56.5039 -9.99805s-35.5 -3 -57.5 -3c-64 0 -106 20.667 -126 62c-28 -20.667 -56 -36.334 -84 -47.001s-58.667 -16 -92 -16c-30 0 -57 6.33301 -81 19s-42.667 29.667 -56 51s-20 44.666 -20 69.999
c0 42.667 10.833 76.5 32.5 101.5s50.834 45 87.501 60s92.334 33.167 167.001 54.5l30 9v4c0 61.333 -28 92 -84 92c-27.333 0 -56.666 -6 -87.999 -18s-67.333 -31.333 -108 -58l-33 120c45.333 26 91.5 46.333 138.5 61s96.833 22 149.5 22
c64 0 113.167 -17.333 147.5 -52s51.5 -94 51.5 -178v-190c0 -14.667 3 -25.167 9 -31.5s15.667 -9.5 29 -9.5c12.667 0 25.334 1.66699 38.001 5zM224.495 126.002c7 -6 18.167 -8.99902 33.5 -8.99902c28 0 61 12 99 36v106l-15 -5c-50 -18 -83.833 -33.833 -101.5 -47.5
s-26.5 -30.834 -26.5 -51.501c0 -13.333 3.5 -23 10.5 -29zM112.995 822.003h400v-122h-400v122z" />
    <glyph glyph-name="Abreve" unicode="&#x102;" horiz-adv-x="707" 
d="M467 157h-230l-51 -157h-181l261 689h174l262 -689h-183zM427 280l-75 226l-74 -226h149zM207 778.5c-35.333 32.333 -53.6699 76.5 -55.0029 132.5l127 1c1.33301 -22.667 8.5 -39.5 21.5 -50.5s30.167 -16.5 51.5 -16.5s38.5 5.5 51.5 16.5s20.167 27.833 21.5 50.5
l127 -2c-1.33301 -56 -19.666 -100 -54.999 -132s-83.666 -48 -144.999 -48s-109.666 16.167 -144.999 48.5z" />
    <glyph glyph-name="abreve" unicode="&#x103;" horiz-adv-x="616" 
d="M613 6c-21.333 -4.66699 -40.1709 -7.99805 -56.5039 -9.99805s-35.5 -3 -57.5 -3c-64 0 -106 20.667 -126 62c-28 -20.667 -56 -36.334 -84 -47.001s-58.667 -16 -92 -16c-30 0 -57 6.33301 -81 19s-42.667 29.667 -56 51s-20 44.666 -20 69.999
c0 42.667 10.833 76.5 32.5 101.5s50.834 45 87.501 60s92.334 33.167 167.001 54.5l30 9v4c0 61.333 -28 92 -84 92c-27.333 0 -56.666 -6 -87.999 -18s-67.333 -31.333 -108 -58l-33 120c45.333 26 91.5 46.333 138.5 61s96.833 22 149.5 22
c64 0 113.167 -17.333 147.5 -52s51.5 -94 51.5 -178v-190c0 -14.667 3 -25.167 9 -31.5s15.667 -9.5 29 -9.5c12.667 0 25.334 1.66699 38.001 5zM224.495 126.002c7 -6 18.167 -8.99902 33.5 -8.99902c28 0 61 12 99 36v106l-15 -5c-50 -18 -83.833 -33.833 -101.5 -47.5
s-26.5 -30.834 -26.5 -51.501c0 -13.333 3.5 -23 10.5 -29zM174.495 681.003c-33 35.333 -50.167 88.334 -51.5 159.001l117 2c1.33301 -32.667 8.5 -57.334 21.5 -74.001s30.167 -25 51.5 -25s38.5 8.33301 51.5 25s20.167 41.667 21.5 75l117 -3
c-1.33301 -70.667 -18.5 -123.667 -51.5 -159s-79.167 -53 -138.5 -53s-105.5 17.667 -138.5 53z" />
    <glyph glyph-name="Aogonek" unicode="&#x104;" horiz-adv-x="707" 
d="M718 -215c-13.333 -15.333 -34.001 -29.333 -62.001 -42s-56.667 -19 -86 -19c-41.333 0 -74.5 10.5 -99.5 31.5s-37.5 50.167 -37.5 87.5c0 26 7.5 53.167 22.5 81.5s36.167 53.833 63.5 76.5l-52 156h-230l-51 -157h-181l261 689h174l262 -689h-48
c-27.333 -23.333 -48.166 -45.333 -62.499 -66s-21.5 -38.667 -21.5 -54c0 -10 3.16699 -17.667 9.5 -23s14.833 -8 25.5 -8c20.667 0 43.667 10.667 69 32zM426.999 280l-75 226l-74 -226h149z" />
    <glyph glyph-name="aogonek" unicode="&#x105;" horiz-adv-x="616" 
d="M623 -215c-13.333 -15.333 -34.0039 -29.3311 -62.0039 -41.998s-56.667 -19 -86 -19c-41.333 0 -74.5 10.5 -99.5 31.5s-37.5 50.167 -37.5 87.5c0 27.333 8 55.5 24 84.5s38.333 54.5 67 76.5c-26 10.667 -44.667 27.667 -56 51c-28 -20.667 -56 -36.334 -84 -47.001
s-58.667 -16 -92 -16c-30 0 -57 6.33301 -81 19s-42.667 29.667 -56 51s-20 44.666 -20 69.999c0 42.667 10.833 76.5 32.5 101.5s50.834 45 87.501 60s92.334 33.167 167.001 54.5l30 9v4c0 61.333 -28 92 -84 92c-27.333 0 -56.666 -6 -87.999 -18
s-67.333 -31.333 -108 -58l-33 120c45.333 26 91.5 46.333 138.5 61s96.833 22 149.5 22c64 0 113.167 -17.333 147.5 -52s51.5 -94 51.5 -178v-190c0 -14.667 3 -25.167 9 -31.5s15.667 -9.5 29 -9.5c12.667 0 25.334 1.66699 38.001 5l6 -118
c-18.667 -4.66699 -38 -8 -58 -10c-26 -22 -45.833 -43 -59.5 -63s-20.5 -37.667 -20.5 -53c0 -10 3.16699 -17.667 9.5 -23s14.833 -8 25.5 -8c20.667 0 43.667 10.667 69 32zM224.496 126.002c7 -6 18.167 -8.99902 33.5 -8.99902c28 0 61 12 99 36v106l-15 -5
c-50 -18 -83.833 -33.833 -101.5 -47.5s-26.5 -30.834 -26.5 -51.501c0 -13.333 3.5 -23 10.5 -29z" />
    <glyph glyph-name="Cacute" unicode="&#x106;" horiz-adv-x="682" 
d="M216 36.5c-57.333 32.333 -100.169 75.333 -128.502 129s-42.5 112.167 -42.5 175.5c0 62.667 14.833 120.667 44.5 174s73.834 96 132.501 128s129.334 48 212.001 48c77.333 0 145.333 -15 204 -45l-36 -126c-24.667 12.667 -50.334 22.834 -77.001 30.501
s-57 11.5 -91 11.5c-43.333 0 -80.833 -9.83301 -112.5 -29.5s-55.667 -46.334 -72 -80.001s-24.5 -71.167 -24.5 -112.5c0 -65.333 17.333 -118.833 52 -160.5s84.334 -62.5 149.001 -62.5c55.333 0 115 13.667 179 41l34 -123c-27.333 -14 -60 -25.333 -98 -34
s-76.333 -13 -115 -13c-82.667 0 -152.667 16.167 -210 48.5zM476.997 912h185l-179 -172h-147z" />
    <glyph glyph-name="cacute" unicode="&#x107;" horiz-adv-x="552" 
d="M172 26.5c-44.667 25.667 -77.832 60.666 -99.499 104.999s-32.5 94.833 -32.5 151.5c0 54.667 11 104.334 33 149.001s56.333 80.5 103 107.5s106 40.5 178 40.5c26 0 54 -3 84 -9s54.333 -13.667 73 -23l-33 -120c-44.667 18 -86 27 -124 27
c-44 0 -78 -14.5 -102 -43.5s-36 -71.5 -36 -127.5s10.667 -98.5 32 -127.5s51.666 -43.5 90.999 -43.5c26.667 0 51 4 73 12s47 20 75 36l47 -110c-23.333 -18 -52.166 -33 -86.499 -45s-70.5 -18 -108.5 -18c-66.667 0 -122.334 12.833 -167.001 38.5zM349.002 841.999
h187l-150 -212h-134z" />
    <glyph glyph-name="Ccaron" unicode="&#x10c;" horiz-adv-x="682" 
d="M216 36.5c-57.333 32.333 -100.169 75.333 -128.502 129s-42.5 112.167 -42.5 175.5c0 62.667 14.833 120.667 44.5 174s73.834 96 132.501 128s129.334 48 212.001 48c77.333 0 145.333 -15 204 -45l-36 -126c-24.667 12.667 -50.334 22.834 -77.001 30.501
s-57 11.5 -91 11.5c-43.333 0 -80.833 -9.83301 -112.5 -29.5s-55.667 -46.334 -72 -80.001s-24.5 -71.167 -24.5 -112.5c0 -65.333 17.333 -118.833 52 -160.5s84.334 -62.5 149.001 -62.5c55.333 0 115 13.667 179 41l34 -123c-27.333 -14 -60 -25.333 -98 -34
s-76.333 -13 -115 -13c-82.667 0 -152.667 16.167 -210 48.5zM650.997 912l-149 -172h-166l-149 172h165l67 -88l67 88h165z" />
    <glyph glyph-name="ccaron" unicode="&#x10d;" horiz-adv-x="552" 
d="M172 26.5c-44.667 25.667 -77.832 60.666 -99.499 104.999s-32.5 94.833 -32.5 151.5c0 54.667 11 104.334 33 149.001s56.333 80.5 103 107.5s106 40.5 178 40.5c26 0 54 -3 84 -9s54.333 -13.667 73 -23l-33 -120c-44.667 18 -86 27 -124 27
c-44 0 -78 -14.5 -102 -43.5s-36 -71.5 -36 -127.5s10.667 -98.5 32 -127.5s51.666 -43.5 90.999 -43.5c26.667 0 51 4 73 12s47 20 75 36l47 -110c-23.333 -18 -52.166 -33 -86.499 -45s-70.5 -18 -108.5 -18c-66.667 0 -122.334 12.833 -167.001 38.5zM537.002 839.999
l-115 -210h-172l-115 210h134l67 -108l67 108h134z" />
    <glyph glyph-name="Dcaron" unicode="&#x10e;" horiz-adv-x="777" 
d="M568 636c54 -29.333 94.833 -69.667 122.5 -121s41.5 -109.333 41.5 -174c0 -66 -13.833 -124.833 -41.5 -176.5s-68.5 -92 -122.5 -121s-119.333 -43.5 -196 -43.5h-282v680h282c76.667 0 142 -14.667 196 -44zM504.5 184.999c31.667 38.667 47.5 90.333 47.5 155
c0 64 -15.833 115.5 -47.5 154.5s-75.834 58.5 -132.501 58.5h-102v-426h102c56.667 0 100.834 19.333 132.501 58zM595 911.998l-149 -172h-166l-149 172h165l67 -88l67 88h165z" />
    <glyph glyph-name="dcaron" unicode="&#x10f;" horiz-adv-x="695" 
d="M615 800v-799.999h-129l-16 42c-48 -36 -102 -54 -162 -54c-52.667 0 -99.167 11.167 -139.5 33.5s-71.833 55.5 -94.5 99.5s-34 98 -34 162c0 105.333 29.667 181.166 89 227.499s138.333 69.5 237 69.5c25.333 0 50.333 -2.33301 75 -7v227h174zM328 113.001
c22.667 0 42.833 2.33203 60.5 6.99902s35.167 12.334 52.5 23.001v305c-22 4.66699 -43.333 7 -64 7c-54.667 0 -95.167 -14.167 -121.5 -42.5s-39.5 -71.5 -39.5 -129.5c0 -113.333 37.333 -170 112 -170zM666.999 573c16.667 17.333 28.667 35.3311 36 53.998
s11 39.667 11 63c0 37.333 -9.33301 74 -28 110h155c9.33301 -32 14 -62.667 14 -92c0 -41.333 -13.5 -79.166 -40.5 -113.499s-60.5 -62.166 -100.5 -83.499z" />
    <glyph glyph-name="Dcroat" unicode="&#x110;" horiz-adv-x="777" 
d="M568 636c54 -29.333 94.833 -69.667 122.5 -121s41.5 -109.333 41.5 -174c0 -66 -13.833 -124.833 -41.5 -176.5s-68.5 -92 -122.5 -121s-119.333 -43.5 -196 -43.5h-282v299h-87v122h87v259h282c76.667 0 142 -14.667 196 -44zM504.5 184.999
c31.667 38.667 47.5 90.333 47.5 155c0 64 -15.833 115.5 -47.5 154.5s-75.834 58.5 -132.501 58.5h-102v-132h123v-122h-123v-172h102c56.667 0 100.834 19.333 132.501 58z" />
    <glyph glyph-name="dcroat" unicode="&#x111;" horiz-adv-x="695" 
d="M692 624l-77 0.000976562v-624h-129l-16 42c-48 -36 -102 -54 -162 -54c-52.667 0 -99.167 11.167 -139.5 33.5s-71.833 55.5 -94.5 99.5s-34 98 -34 162c0 105.333 29.667 181.166 89 227.499s138.333 69.5 237 69.5c25.333 0 50.333 -2.33301 75 -7v51h-162v122h162v54
h174v-54h77v-122zM328 113.001c22.667 0 42.833 2.33203 60.5 6.99902s35.167 12.334 52.5 23.001v305c-22 4.66699 -43.333 7 -64 7c-54.667 0 -95.167 -14.167 -121.5 -42.5s-39.5 -71.5 -39.5 -129.5c0 -113.333 37.333 -170 112 -170z" />
    <glyph glyph-name="Emacron" unicode="&#x112;" horiz-adv-x="601" 
d="M551 125v-125h-461v680h441v-125h-261v-133h221v-125h-221v-172h281zM114 890h400v-122h-400v122z" />
    <glyph glyph-name="emacron" unicode="&#x113;" horiz-adv-x="616" 
d="M247 147c20 -22.667 50.6699 -33.998 92.0029 -33.998c30.667 0 59.167 5.5 85.5 16.5s56.5 27.5 90.5 49.5l47 -110c-35.333 -28.667 -70.333 -49.334 -105 -62.001s-74.334 -19 -119.001 -19c-66 0 -121.333 12.833 -166 38.5s-77.834 60.667 -99.501 105
s-32.5 94.833 -32.5 151.5c0 90 25.333 162 76 216s124.667 81 222 81c77.333 0 136.166 -20.833 176.499 -62.5s60.833 -100.834 61.5 -177.501c0 -30 -4.33301 -59.333 -13 -88h-351c3.33301 -47.333 15 -82.333 35 -105zM407.003 365.002
c0.666992 4 1.00098 9.33398 1.00098 16.001c-0.666992 27.333 -8 48.166 -22 62.499s-33.333 21.5 -58 21.5c-58.667 0 -95.334 -33.333 -110.001 -100h189zM126.004 822.003h400v-122h-400v122z" />
    <glyph glyph-name="Edotaccent" unicode="&#x116;" horiz-adv-x="601" 
d="M551 125v-125h-461v680h441v-125h-261v-133h221v-125h-221v-172h281zM255.5 764.5c-16.333 16.333 -24.5 35.833 -24.5 58.5s8.16699 42.167 24.5 58.5s35.833 24.5 58.5 24.5s42.167 -8.16699 58.5 -24.5s24.5 -35.833 24.5 -58.5s-8.16699 -42.167 -24.5 -58.5
s-35.833 -24.5 -58.5 -24.5s-42.167 8.16699 -58.5 24.5z" />
    <glyph glyph-name="edotaccent" unicode="&#x117;" horiz-adv-x="616" 
d="M247 147c20 -22.667 50.6699 -33.998 92.0029 -33.998c30.667 0 59.167 5.5 85.5 16.5s56.5 27.5 90.5 49.5l47 -110c-35.333 -28.667 -70.333 -49.334 -105 -62.001s-74.334 -19 -119.001 -19c-66 0 -121.333 12.833 -166 38.5s-77.834 60.667 -99.501 105
s-32.5 94.833 -32.5 151.5c0 90 25.333 162 76 216s124.667 81 222 81c77.333 0 136.166 -20.833 176.499 -62.5s60.833 -100.834 61.5 -177.501c0 -30 -4.33301 -59.333 -13 -88h-351c3.33301 -47.333 15 -82.333 35 -105zM407.003 365.002
c0.666992 4 1.00098 9.33398 1.00098 16.001c-0.666992 27.333 -8 48.166 -22 62.499s-33.333 21.5 -58 21.5c-58.667 0 -95.334 -33.333 -110.001 -100h189zM262.004 670.003c-18 18 -27 39.333 -27 64s9 46 27 64s39.333 27 64 27s46 -9 64 -27s27 -39.333 27 -64
s-9 -46 -27 -64s-39.333 -27 -64 -27s-46 9 -64 27z" />
    <glyph glyph-name="Eogonek" unicode="&#x118;" horiz-adv-x="601" 
d="M551 125v-125h-461v680h441v-125h-261v-133h221v-125h-221v-172h281zM296.5 -244.5c-25 21 -37.501 50.167 -37.501 87.5c0 29.333 9.33301 59.666 28 90.999s44.334 58.333 77.001 81h135c-33.333 -26 -58.833 -50.667 -76.5 -74s-26.5 -43.666 -26.5 -60.999
c0 -10 3.16699 -17.667 9.5 -23s14.833 -8 25.5 -8c20.667 0 43.667 10.667 69 32l44 -96c-13.333 -15.333 -34 -29.333 -62 -42s-56.667 -19 -86 -19c-41.333 0 -74.5 10.5 -99.5 31.5z" />
    <glyph glyph-name="eogonek" unicode="&#x119;" horiz-adv-x="616" 
d="M247 147c20 -22.667 50.667 -34 92 -34c30.667 0 59.167 5.5 85.5 16.5s56.5 27.5 90.5 49.5l47 -110c-30 -24 -58.667 -42 -86 -54h1c-33.333 -26 -58.833 -50.667 -76.5 -74s-26.5 -43.666 -26.5 -60.999c0 -10 3.16699 -17.667 9.5 -23s14.833 -8 25.5 -8
c20.667 0 43.667 10.667 69 32l44 -96c-13.333 -15.333 -34 -29.333 -62 -42s-56.667 -19 -86 -19c-41.333 0 -74.5 10.5 -99.5 31.5s-37.5 50.167 -37.5 87.5c0 24 6.33301 48.833 19 74.5s30.334 49.5 53.001 71.5c-88.667 5.33301 -155.667 35 -201 89
s-68 122.333 -68 205c0 90 25.333 162 76 216s124.667 81 222 81c77.333 0 136.166 -20.833 176.499 -62.5s60.833 -100.834 61.5 -177.501c0 -30 -4.33301 -59.333 -13 -88h-351c3.33301 -47.333 15 -82.333 35 -105zM407 365c0.666992 4 1.00098 9.33398 1.00098 16.001
c-0.666992 27.333 -8 48.166 -22 62.499s-33.333 21.5 -58 21.5c-58.667 0 -95.334 -33.333 -110.001 -100h189z" />
    <glyph glyph-name="Ecaron" unicode="&#x11a;" horiz-adv-x="601" 
d="M551 125v-125h-461v680h441v-125h-261v-133h221v-125h-221v-172h281zM546 912l-149 -172h-166l-149 172h165l67 -88l67 88h165z" />
    <glyph glyph-name="ecaron" unicode="&#x11b;" horiz-adv-x="616" 
d="M247 147c20 -22.667 50.6699 -33.998 92.0029 -33.998c30.667 0 59.167 5.5 85.5 16.5s56.5 27.5 90.5 49.5l47 -110c-35.333 -28.667 -70.333 -49.334 -105 -62.001s-74.334 -19 -119.001 -19c-66 0 -121.333 12.833 -166 38.5s-77.834 60.667 -99.501 105
s-32.5 94.833 -32.5 151.5c0 90 25.333 162 76 216s124.667 81 222 81c77.333 0 136.166 -20.833 176.499 -62.5s60.833 -100.834 61.5 -177.501c0 -30 -4.33301 -59.333 -13 -88h-351c3.33301 -47.333 15 -82.333 35 -105zM407.003 365.002
c0.666992 4 1.00098 9.33398 1.00098 16.001c-0.666992 27.333 -8 48.166 -22 62.499s-33.333 21.5 -58 21.5c-58.667 0 -95.334 -33.333 -110.001 -100h189zM527.004 840.003l-115 -210h-172l-115 210h134l67 -108l67 108h134z" />
    <glyph glyph-name="Gbreve" unicode="&#x11e;" horiz-adv-x="711" 
d="M666 336l-0.00390625 -301c-32 -14 -69.167 -25.333 -111.5 -34s-85.166 -13 -128.499 -13c-82.667 0 -152.667 16.167 -210 48.5s-100.166 75.333 -128.499 129s-42.5 112.167 -42.5 175.5c0 62.667 14.833 120.667 44.5 174s73.834 96 132.501 128
s129.334 48 212.001 48c77.333 0 145.333 -15 204 -45l-36 -126c-24.667 12.667 -50.334 22.834 -77.001 30.501s-57 11.5 -91 11.5c-43.333 0 -80.833 -9.83301 -112.5 -29.5s-55.667 -46.334 -72 -80.001s-24.5 -71.167 -24.5 -112.5c0 -65.333 17.333 -118.833 52 -160.5
s84.334 -62.5 149.001 -62.5c20.667 0 42.667 1.66699 66 5v214h174zM273.996 778.5c-35.333 32.333 -53.6699 76.5 -55.0029 132.5l127 1c1.33301 -22.667 8.5 -39.5 21.5 -50.5s30.167 -16.5 51.5 -16.5s38.5 5.5 51.5 16.5s20.167 27.833 21.5 50.5l127 -2
c-1.33301 -56 -19.666 -100 -54.999 -132s-83.666 -48 -144.999 -48s-109.666 16.167 -144.999 48.5z" />
    <glyph glyph-name="gbreve" unicode="&#x11f;" horiz-adv-x="630" 
d="M627 444l-99 12.999c8.66699 -20 13 -42 13 -66c0 -34 -9 -65.667 -27 -95s-45 -52.833 -81 -70.5s-79.667 -26.5 -131 -26.5c-20 0 -37.667 1.33301 -53 4c-15.333 -16.667 -23 -30.667 -23 -42s3.33301 -19.5 10 -24.5s19 -7.5 37 -7.5h149
c61.333 0 109.333 -12.667 144 -38s52 -59.666 52 -102.999s-14.833 -82.833 -44.5 -118.5s-70.5 -64 -122.5 -85s-109.667 -31.5 -173 -31.5c-60.667 0 -109.834 7.33301 -147.501 22s-64.667 33.667 -81 57s-24.5 48.333 -24.5 75c0 24 7.16699 46.167 21.5 66.5
s34.833 40.5 61.5 60.5c-18 10 -31.333 22.5 -40 37.5s-13 30.833 -13 47.5c0 40 30 80.333 90 121c-26.667 17.333 -47 39 -61 65s-21 54 -21 84c0 34 9 65.5 27 94.5s45 52.333 81 70s79.667 26.5 131 26.5c34.667 0 65.334 -4 92.001 -12h233v-124zM355 333.499
c13.333 13 20 31.833 20 56.5s-6.5 43.334 -19.5 56.001s-30.833 19 -53.5 19c-22 0 -39.667 -6.33301 -53 -19s-20 -31.334 -20 -56.001s6.66699 -43.5 20 -56.5s31 -19.5 53 -19.5s39.667 6.5 53 19.5zM380 3.99902h-137h-11c-27.333 -29.333 -41 -57.333 -41 -84
c0 -28 29 -42 87 -42c32 0 61.333 4.16699 88 12.5s47.667 19 63 32s23 26.167 23 39.5c0 28 -24 42 -72 42zM176.5 680.999c-33 35.333 -50.167 88.334 -51.5 159.001l117 2c1.33301 -32.667 8.5 -57.334 21.5 -74.001s30.167 -25 51.5 -25s38.5 8.33301 51.5 25
s20.167 41.667 21.5 75l117 -3c-1.33301 -70.667 -18.5 -123.667 -51.5 -159s-79.167 -53 -138.5 -53s-105.5 17.667 -138.5 53z" />
    <glyph glyph-name="Gcommaaccent" unicode="&#x122;" horiz-adv-x="711" 
d="M666 336l-0.00390625 -301c-32 -14 -69.167 -25.333 -111.5 -34s-85.166 -13 -128.499 -13c-82.667 0 -152.667 16.167 -210 48.5s-100.166 75.333 -128.499 129s-42.5 112.167 -42.5 175.5c0 62.667 14.833 120.667 44.5 174s73.834 96 132.501 128
s129.334 48 212.001 48c77.333 0 145.333 -15 204 -45l-36 -126c-24.667 12.667 -50.334 22.834 -77.001 30.501s-57 11.5 -91 11.5c-43.333 0 -80.833 -9.83301 -112.5 -29.5s-55.667 -46.334 -72 -80.001s-24.5 -71.167 -24.5 -112.5c0 -65.333 17.333 -118.833 52 -160.5
s84.334 -62.5 149.001 -62.5c20.667 0 42.667 1.66699 66 5v214h174zM323.996 -188c51.333 0.666992 76.999 14.998 76.999 42.998c0 10 -4 18.333 -12 25s-20.667 10.334 -38 11.001l34 82c50 -4.66699 86.333 -17.167 109 -37.5s34 -44.833 34 -73.5
c0 -37.333 -16.167 -67.666 -48.5 -90.999s-76.166 -35.333 -131.499 -36z" />
    <glyph glyph-name="gcommaaccent" unicode="&#x123;" horiz-adv-x="630" 
d="M627 444l-99 12.999c8.66699 -20 13 -42 13 -66c0 -34 -9 -65.667 -27 -95s-45 -52.833 -81 -70.5s-79.667 -26.5 -131 -26.5c-20 0 -37.667 1.33301 -53 4c-15.333 -16.667 -23 -30.667 -23 -42s3.33301 -19.5 10 -24.5s19 -7.5 37 -7.5h149
c61.333 0 109.333 -12.667 144 -38s52 -59.666 52 -102.999s-14.833 -82.833 -44.5 -118.5s-70.5 -64 -122.5 -85s-109.667 -31.5 -173 -31.5c-60.667 0 -109.834 7.33301 -147.501 22s-64.667 33.667 -81 57s-24.5 48.333 -24.5 75c0 24 7.16699 46.167 21.5 66.5
s34.833 40.5 61.5 60.5c-18 10 -31.333 22.5 -40 37.5s-13 30.833 -13 47.5c0 40 30 80.333 90 121c-26.667 17.333 -47 39 -61 65s-21 54 -21 84c0 34 9 65.5 27 94.5s45 52.333 81 70s79.667 26.5 131 26.5c34.667 0 65.334 -4 92.001 -12h233v-124zM355 333.499
c13.333 13 20 31.833 20 56.5s-6.5 43.334 -19.5 56.001s-30.833 19 -53.5 19c-22 0 -39.667 -6.33301 -53 -19s-20 -31.334 -20 -56.001s6.66699 -43.5 20 -56.5s31 -19.5 53 -19.5s39.667 6.5 53 19.5zM380 3.99902h-137h-11c-27.333 -29.333 -41 -57.333 -41 -84
c0 -28 29 -42 87 -42c32 0 61.333 4.16699 88 12.5s47.667 19 63 32s23 26.167 23 39.5c0 28 -24 42 -72 42zM251 665.499c-22.667 20.333 -33.999 44.835 -33.999 73.502c0 37.333 16.167 67.666 48.5 90.999s76.166 35.333 131.499 36l24 -77
c-51.333 -0.666992 -77 -15 -77 -43c0 -10 4 -18.333 12 -25s20.667 -10.334 38 -11.001l-34 -82c-50 4.66699 -86.333 17.167 -109 37.5z" />
    <glyph glyph-name="Hbar" unicode="&#x126;" horiz-adv-x="819" 
d="M816 494h-87v-494h-180v296h-279v-296h-180v494h-87v122h87v64h180v-64h279v64h180v-64h87v-122zM549 494h-279v-71h279v71z" />
    <glyph glyph-name="hbar" unicode="&#x127;" horiz-adv-x="687" 
d="M569.5 521c28.333 -39.333 42.5 -96 42.5 -170v-351h-174v329c0 46.667 -5.5 79 -16.5 97s-32.167 27 -63.5 27c-34 0 -68.667 -11.333 -104 -34v-419h-174v624h-77v122h77v54h174v-54h162v-122h-162v-88c55.333 29.333 109.333 44 162 44
c74 0 125.167 -19.667 153.5 -59z" />
    <glyph glyph-name="Itilde" unicode="&#x128;" horiz-adv-x="360" 
d="M90 680h180v-680h-180v680zM-20 734c3.33301 54.667 16.3291 97.832 38.9961 129.499s51.334 47.5 86.001 47.5c12.667 0 25 -2.16699 37 -6.5s26 -10.5 42 -18.5c14.667 -7.33301 26.334 -12.666 35.001 -15.999s17.334 -5 26.001 -5c18 0 31.667 18.667 41 56l94 -4
c-3.33301 -50.667 -16.666 -92.834 -39.999 -126.501s-51.666 -50.5 -84.999 -50.5c-14 0 -27.333 2.33301 -40 7s-28 11.334 -46 20.001c-12.667 6.66699 -23 11.5 -31 14.5s-15.667 4.5 -23 4.5c-9.33301 0 -17.333 -4.33301 -24 -13s-12.334 -23 -17.001 -43z" />
    <glyph glyph-name="itilde" unicode="&#x129;" horiz-adv-x="334" 
d="M80 568h174v-568h-174v568zM-33 664c3.33301 54.667 16.3291 97.832 38.9961 129.499s51.334 47.5 86.001 47.5c12.667 0 25 -2.16699 37 -6.5s26 -10.5 42 -18.5c14.667 -7.33301 26.334 -12.666 35.001 -15.999s17.334 -5 26.001 -5c18 0 31.667 18.667 41 56l94 -4
c-3.33301 -50.667 -16.666 -92.834 -39.999 -126.501s-51.666 -50.5 -84.999 -50.5c-14 0 -27.333 2.33301 -40 7s-28 11.334 -46 20.001c-12.667 6.66699 -23 11.5 -31 14.5s-15.667 4.5 -23 4.5c-9.33301 0 -17.333 -4.5 -24 -13.5s-12.334 -23.167 -17.001 -42.5z" />
    <glyph glyph-name="Imacron" unicode="&#x12a;" horiz-adv-x="360" 
d="M90 680h180v-680h-180v680zM-20 890h400v-122h-400v122z" />
    <glyph glyph-name="imacron" unicode="&#x12b;" horiz-adv-x="334" 
d="M80 568h174v-568h-174v568zM-33 822h400v-122h-400v122z" />
    <glyph glyph-name="Iogonek" unicode="&#x12e;" horiz-adv-x="360" 
d="M289 -215c-13.333 -15.333 -34.001 -29.333 -62.001 -42s-56.667 -19 -86 -19c-41.333 0 -74.5 10.5 -99.5 31.5s-37.5 50.167 -37.5 87.5c0 26 7.5 53.167 22.5 81.5s36.167 53.833 63.5 76.5v679h180v-680h-45c-27.333 -23.333 -48.166 -45.333 -62.499 -66
s-21.5 -38.667 -21.5 -54c0 -10 3.16699 -17.667 9.5 -23s14.833 -8 25.5 -8c20.667 0 43.667 10.667 69 32z" />
    <glyph glyph-name="iogonek" unicode="&#x12f;" horiz-adv-x="334" 
d="M96.5 673.5c-19.667 19.667 -29.5 43.167 -29.5 70.5s9.83301 50.833 29.5 70.5s43.167 29.5 70.5 29.5s50.833 -9.83301 70.5 -29.5s29.5 -43.167 29.5 -70.5s-9.83301 -50.833 -29.5 -70.5s-43.167 -29.5 -70.5 -29.5s-50.833 9.83301 -70.5 29.5zM80 568
l173.998 0.000976562v-568h-69c-27.333 -23.333 -48.166 -45.333 -62.499 -66s-21.5 -38.667 -21.5 -54c0 -10 3.16699 -17.667 9.5 -23s14.833 -8 25.5 -8c20.667 0 43.667 10.667 69 32l44 -96c-13.333 -15.333 -34 -29.333 -62 -42s-56.667 -19 -86 -19
c-41.333 0 -74.5 10.5 -99.5 31.5s-37.5 50.167 -37.5 87.5c0 29.333 9.33301 59.666 28 90.999s44.334 58.333 77.001 81h11v553z" />
    <glyph glyph-name="Idotaccent" unicode="&#x130;" horiz-adv-x="360" 
d="M90 680h180v-680h-180v680zM121.5 764.5c-16.333 16.333 -24.5 35.833 -24.5 58.5s8.16699 42.167 24.5 58.5s35.833 24.5 58.5 24.5s42.167 -8.16699 58.5 -24.5s24.5 -35.833 24.5 -58.5s-8.16699 -42.167 -24.5 -58.5s-35.833 -24.5 -58.5 -24.5
s-42.167 8.16699 -58.5 24.5z" />
    <glyph glyph-name="dotlessi" unicode="&#x131;" horiz-adv-x="334" 
d="M80 568h174v-568h-174v568z" />
    <glyph glyph-name="IJ" unicode="&#x132;" horiz-adv-x="720" 
d="M90 680h180v-680h-180v680zM291 -231l10.999 125.999c26.667 -3.33301 48.667 -5 66 -5c28.667 0 49.5 8.33301 62.5 25s19.5 42.334 19.5 77.001v688h180v-690c0 -73.333 -19.167 -129.833 -57.5 -169.5s-96.166 -59.5 -173.499 -59.5c-28 0 -64 2.66699 -108 8z" />
    <glyph glyph-name="ij" unicode="&#x133;" horiz-adv-x="668" 
d="M96.5 673.5c-19.667 19.667 -29.5 43.167 -29.5 70.5s9.83301 50.833 29.5 70.5s43.167 29.5 70.5 29.5s50.833 -9.83301 70.5 -29.5s29.5 -43.167 29.5 -70.5s-9.83301 -50.833 -29.5 -70.5s-43.167 -29.5 -70.5 -29.5s-50.833 9.83301 -70.5 29.5zM80 568h174v-568
h-174v568zM430.5 673.5c-19.667 19.667 -29.5 43.167 -29.5 70.5s9.83301 50.833 29.5 70.5s43.167 29.5 70.5 29.5s50.833 -9.83301 70.5 -29.5s29.5 -43.167 29.5 -70.5s-9.83301 -50.833 -29.5 -70.5s-43.167 -29.5 -70.5 -29.5s-50.833 9.83301 -70.5 29.5zM252 -231
l11.001 122.002c26.667 -3.33301 49 -5 67 -5c28 0 49 8.16699 63 24.5s21 40.166 21 71.499v586h174v-588c0 -70.667 -18.833 -124.834 -56.5 -162.501s-94.834 -56.5 -171.501 -56.5c-28 0 -64 2.66699 -108 8z" />
    <glyph glyph-name="Jcircumflex" unicode="&#x134;" horiz-adv-x="360" 
d="M-69 -231l10.999 125.999c26.667 -3.33301 48.667 -5 66 -5c28.667 0 49.5 8.33301 62.5 25s19.5 42.334 19.5 77.001v688h180v-690c0 -73.333 -19.167 -129.833 -57.5 -169.5s-96.166 -59.5 -173.499 -59.5c-28 0 -64 2.66699 -108 8zM246.999 739.999l-67 88l-67 -88
h-165l149 172h166l149 -172h-165z" />
    <glyph glyph-name="jcircumflex" unicode="&#x135;" horiz-adv-x="334" 
d="M-82 -231l11.001 122.002c26.667 -3.33301 49 -5 67 -5c28 0 49 8.16699 63 24.5s21 40.166 21 71.499v586h174v-588c0 -70.667 -18.833 -124.834 -56.5 -162.501s-94.834 -56.5 -171.501 -56.5c-28 0 -64 2.66699 -108 8zM234.001 630.002l-67 108l-67 -108h-134
l115 210h172l115 -210h-134z" />
    <glyph glyph-name="Kcommaaccent" unicode="&#x136;" horiz-adv-x="739" 
d="M517 0l-247 344v-344h-180v680h180v-295l232 295h207l-271 -313l296 -367h-217zM289 -188c51.333 0.666992 76.999 14.998 76.999 42.998c0 10 -4 18.333 -12 25s-20.667 10.334 -38 11.001l34 82c50 -4.66699 86.333 -17.167 109 -37.5s34 -44.833 34 -73.5
c0 -37.333 -16.167 -67.666 -48.5 -90.999s-76.166 -35.333 -131.499 -36z" />
    <glyph glyph-name="kcommaaccent" unicode="&#x137;" horiz-adv-x="640" 
d="M446 0l-192 286v-286h-174v800h174v-468l167 236h178l-191 -260l227 -308h-189zM254 -188c51.333 0.666992 76.999 14.998 76.999 42.998c0 10 -4 18.333 -12 25s-20.667 10.334 -38 11.001l34 82c50 -4.66699 86.333 -17.167 109 -37.5s34 -44.833 34 -73.5
c0 -37.333 -16.167 -67.666 -48.5 -90.999s-76.166 -35.333 -131.499 -36z" />
    <glyph glyph-name="kgreenlandic" unicode="&#x138;" horiz-adv-x="640" 
d="M446 0l-192 286v-286h-174v568h174v-236l167 236h178l-191 -260l227 -308h-189z" />
    <glyph glyph-name="Lacute" unicode="&#x139;" horiz-adv-x="561" 
d="M551 125v-125h-461v680h180v-555h281zM238 912h185l-179 -172h-147z" />
    <glyph glyph-name="lacute" unicode="&#x13a;" horiz-adv-x="334" 
d="M80 800h174v-800h-174v800zM180 1032h187l-150 -212h-134z" />
    <glyph glyph-name="Lcommaaccent" unicode="&#x13b;" horiz-adv-x="561" 
d="M551 125v-125h-461v680h180v-555h281zM231 -188c51.333 0.666992 76.999 14.998 76.999 42.998c0 10 -4 18.333 -12 25s-20.667 10.334 -38 11.001l34 82c50 -4.66699 86.333 -17.167 109 -37.5s34 -44.833 34 -73.5c0 -37.333 -16.167 -67.666 -48.5 -90.999
s-76.166 -35.333 -131.499 -36z" />
    <glyph glyph-name="lcommaaccent" unicode="&#x13c;" horiz-adv-x="334" 
d="M80 800h174v-800h-174v800zM66 -188c51.333 0.666992 76.999 14.998 76.999 42.998c0 10 -4 18.333 -12 25s-20.667 10.334 -38 11.001l34 82c50 -4.66699 86.333 -17.167 109 -37.5s34 -44.833 34 -73.5c0 -37.333 -16.167 -67.666 -48.5 -90.999
s-76.166 -35.333 -131.499 -36z" />
    <glyph glyph-name="Lcaron" unicode="&#x13d;" horiz-adv-x="561" 
d="M551 125v-125h-461v680h180v-555h281zM354 453c16.667 17.333 28.667 35.3311 36 53.998s11 39.667 11 63c0 37.333 -9.33301 74 -28 110h155c9.33301 -32 14 -62.667 14 -92c0 -41.333 -13.5 -79.166 -40.5 -113.499s-60.5 -62.166 -100.5 -83.499z" />
    <glyph glyph-name="lcaron" unicode="&#x13e;" horiz-adv-x="334" 
d="M80 800h174v-800h-174v800zM306 573c16.667 17.333 28.667 35.3311 36 53.998s11 39.667 11 63c0 37.333 -9.33301 74 -28 110h155c9.33301 -32 14 -62.667 14 -92c0 -41.333 -13.5 -79.166 -40.5 -113.499s-60.5 -62.166 -100.5 -83.499z" />
    <glyph glyph-name="Ldot" unicode="&#x13f;" horiz-adv-x="561" 
d="M551 125v-125h-461v680h180v-555h281zM377 290c-20.667 20.667 -31 45.334 -31 74.001c0 29.333 10.333 54.166 31 74.499s45.334 30.5 74.001 30.5c29.333 0 54.166 -10.167 74.499 -30.5s30.5 -45.166 30.5 -74.499c0 -28.667 -10.167 -53.334 -30.5 -74.001
s-45.166 -31 -74.499 -31c-28.667 0 -53.334 10.333 -74.001 31z" />
    <glyph glyph-name="ldot" unicode="&#x140;" horiz-adv-x="334" 
d="M408.5 338.5c20.333 -20.333 30.5 -45.166 30.5 -74.499c0 -28.667 -10.167 -53.334 -30.5 -74.001s-45.166 -31 -74.499 -31c-16 0 -31 3.33301 -45 10s-25.667 15.667 -35 27v-196h-174v800h174v-468c9.33301 11.333 21 20.333 35 27s29 10 45 10
c29.333 0 54.166 -10.167 74.499 -30.5z" />
    <glyph glyph-name="Lslash" unicode="&#x141;" horiz-adv-x="561" 
d="M551 125v-125h-461v172l-42 -27l-67 106l109 69v360h180v-246l160 101l67 -106l-227 -144v-160h281z" />
    <glyph glyph-name="lslash" unicode="&#x142;" horiz-adv-x="334" 
d="M254 412v-412h-174v287l-48 -34l-72 98l120 86v363h174v-238l48 34l72 -98z" />
    <glyph glyph-name="Nacute" unicode="&#x143;" horiz-adv-x="819" 
d="M729 680v-680l-162 -1l-310 426l13 -221v-204h-180v680h162l310 -423l-13 218v205h180zM466 912h185l-179 -172h-147z" />
    <glyph glyph-name="nacute" unicode="&#x144;" horiz-adv-x="687" 
d="M569.5 521c28.333 -39.333 42.5 -96 42.5 -170v-351h-174v329c0 46.667 -5.5 79 -16.5 97s-32.167 27 -63.5 27c-34 0 -68.667 -11.333 -104 -34v-419h-174v568h129l18 -47c65.333 39.333 128.333 59 189 59c74 0 125.167 -19.667 153.5 -59zM360 842h187l-150 -212h-134
z" />
    <glyph glyph-name="Ncommaaccent" unicode="&#x145;" horiz-adv-x="819" 
d="M729 680v-680l-162 -1l-310 426l13 -221v-204h-180v680h162l310 -423l-13 218v205h180zM307 -188c51.333 0.666992 76.999 14.998 76.999 42.998c0 10 -4 18.333 -12 25s-20.667 10.334 -38 11.001l34 82c50 -4.66699 86.333 -17.167 109 -37.5s34 -44.833 34 -73.5
c0 -37.333 -16.167 -67.666 -48.5 -90.999s-76.166 -35.333 -131.499 -36z" />
    <glyph glyph-name="ncommaaccent" unicode="&#x146;" horiz-adv-x="687" 
d="M569.5 521c28.333 -39.333 42.5 -96 42.5 -170v-351h-174v329c0 46.667 -5.5 79 -16.5 97s-32.167 27 -63.5 27c-34 0 -68.667 -11.333 -104 -34v-419h-174v568h129l18 -47c65.333 39.333 128.333 59 189 59c74 0 125.167 -19.667 153.5 -59zM246 -188
c51.333 0.666992 76.999 14.998 76.999 42.998c0 10 -4 18.333 -12 25s-20.667 10.334 -38 11.001l34 82c50 -4.66699 86.333 -17.167 109 -37.5s34 -44.833 34 -73.5c0 -37.333 -16.167 -67.666 -48.5 -90.999s-76.166 -35.333 -131.499 -36z" />
    <glyph glyph-name="Ncaron" unicode="&#x147;" horiz-adv-x="819" 
d="M729 680v-680l-162 -1l-310 426l13 -221v-204h-180v680h162l310 -423l-13 218v205h180zM640 912l-149 -172h-166l-149 172h165l67 -88l67 88h165z" />
    <glyph glyph-name="ncaron" unicode="&#x148;" horiz-adv-x="687" 
d="M569.5 521c28.333 -39.333 42.5 -96 42.5 -170v-351h-174v329c0 46.667 -5.5 79 -16.5 97s-32.167 27 -63.5 27c-34 0 -68.667 -11.333 -104 -34v-419h-174v568h129l18 -47c65.333 39.333 128.333 59 189 59c74 0 125.167 -19.667 153.5 -59zM548 840l-115 -210h-172
l-115 210h134l67 -108l67 108h134z" />
    <glyph glyph-name="Omacron" unicode="&#x14c;" horiz-adv-x="828" 
d="M213.5 35.5c-55.667 31.667 -97.667 74.166 -126 127.499s-42.5 112.333 -42.5 177s14.167 123.667 42.5 177s70.333 95.666 126 126.999s122.5 47 200.5 47s144.833 -15.833 200.5 -47.5s97.667 -74 126 -127s42.5 -111.833 42.5 -176.5
c0 -65.333 -14.167 -124.666 -42.5 -177.999s-70.333 -95.666 -126 -126.999s-122.5 -47 -200.5 -47s-144.833 15.833 -200.5 47.5zM515.5 145.999c28.333 19.333 50.0039 45.833 65.0039 79.5s22.5 71.834 22.5 114.501c0 64.667 -16.833 117.834 -50.5 159.501
s-79.834 62.5 -138.501 62.5s-104.834 -20.833 -138.501 -62.5s-50.5 -94.834 -50.5 -159.501c0 -42.667 7.5 -80.834 22.5 -114.501s36.667 -60.167 65 -79.5s62.166 -29 101.499 -29s73.166 9.66699 101.499 29zM214.004 889.999h400v-122h-400v122z" />
    <glyph glyph-name="omacron" unicode="&#x14d;" horiz-adv-x="678" 
d="M174 26c-44.667 25.333 -78.167 60.332 -100.5 104.999s-33.5 95.334 -33.5 152.001c0 90 25.5 162 76.5 216s125.167 81 222.5 81c64 0 118.5 -13.5 163.5 -40.5s78.833 -62.833 101.5 -107.5s34 -93.667 34 -147s-11.333 -102.5 -34 -147.5
s-56.5 -81.167 -101.5 -108.5s-99.5 -41 -163.5 -41c-65.333 0 -120.333 12.667 -165 38zM433 154.999c19.333 28 29 71 29 129s-9.66699 101 -29 129s-50.666 42 -93.999 42s-74.666 -14 -93.999 -42s-29 -71 -29 -129s9.66699 -101 29 -129s50.666 -42 93.999 -42
s74.666 14 93.999 42zM139 821.999h400v-122h-400v122z" />
    <glyph glyph-name="Ohungarumlaut" unicode="&#x150;" horiz-adv-x="828" 
d="M213.5 35.5c-55.667 31.667 -97.667 74.166 -126 127.499s-42.5 112.333 -42.5 177s14.167 123.667 42.5 177s70.333 95.666 126 126.999s122.5 47 200.5 47s144.833 -15.833 200.5 -47.5s97.667 -74 126 -127s42.5 -111.833 42.5 -176.5
c0 -65.333 -14.167 -124.666 -42.5 -177.999s-70.333 -95.666 -126 -126.999s-122.5 -47 -200.5 -47s-144.833 15.833 -200.5 47.5zM515.5 145.999c28.333 19.333 50.0039 45.833 65.0039 79.5s22.5 71.834 22.5 114.501c0 64.667 -16.833 117.834 -50.5 159.501
s-79.834 62.5 -138.501 62.5s-104.834 -20.833 -138.501 -62.5s-50.5 -94.834 -50.5 -159.501c0 -42.667 7.5 -80.834 22.5 -114.501s36.667 -60.167 65 -79.5s62.166 -29 101.499 -29s73.166 9.66699 101.499 29zM387.004 911.999h165l-179 -172h-127zM597.004 911.999h165
l-179 -172h-127z" />
    <glyph glyph-name="ohungarumlaut" unicode="&#x151;" horiz-adv-x="678" 
d="M174 26c-44.667 25.333 -78.167 60.332 -100.5 104.999s-33.5 95.334 -33.5 152.001c0 90 25.5 162 76.5 216s125.167 81 222.5 81c64 0 118.5 -13.5 163.5 -40.5s78.833 -62.833 101.5 -107.5s34 -93.667 34 -147s-11.333 -102.5 -34 -147.5
s-56.5 -81.167 -101.5 -108.5s-99.5 -41 -163.5 -41c-65.333 0 -120.333 12.667 -165 38zM433 154.999c19.333 28 29 71 29 129s-9.66699 101 -29 129s-50.666 42 -93.999 42s-74.666 -14 -93.999 -42s-29 -71 -29 -129s9.66699 -101 29 -129s50.666 -42 93.999 -42
s74.666 14 93.999 42zM272 841.999h157l-150 -212h-104zM482 841.999h157l-150 -212h-104z" />
    <glyph glyph-name="OE" unicode="&#x152;" horiz-adv-x="1018" 
d="M968 125v-124.999h-563c-76.667 0 -142 14.667 -196 44s-94.833 69.666 -122.5 120.999s-41.5 109.333 -41.5 174c0 66 13.833 124.833 41.5 176.5s68.5 92 122.5 121s119.333 43.5 196 43.5h543v-125h-261v-133h221v-125h-221v-172h281zM507 127.001v426.001h-102
c-56.667 0 -100.834 -19.333 -132.501 -58s-47.5 -90.334 -47.5 -155.001c0 -64 15.833 -115.5 47.5 -154.5s75.834 -58.5 132.501 -58.5h102z" />
    <glyph glyph-name="oe" unicode="&#x153;" horiz-adv-x="1038" 
d="M669 147c20 -22.667 50.6689 -34 92.002 -34c30.667 0 59.167 5.5 85.5 16.5s56.5 27.5 90.5 49.5l47 -110c-35.333 -28.667 -70.333 -49.334 -105 -62.001s-74.334 -19 -119.001 -19c-92 0 -164 25 -216 75c-24.667 -24 -54.334 -42.5 -89.001 -55.5
s-73.334 -19.5 -116.001 -19.5c-65.333 0 -120.333 12.667 -165 38s-78.167 60.333 -100.5 105s-33.5 95.334 -33.5 152.001c0 58.667 11.5 110.334 34.5 155.001s56.833 79.5 101.5 104.5s99 37.5 163 37.5c42.667 0 81.334 -6.5 116.001 -19.5
s64.334 -31.167 89.001 -54.5c52.667 49.333 124.667 74 216 74c77.333 0 136.166 -20.833 176.499 -62.5s60.833 -100.834 61.5 -177.501c0 -30 -4.33301 -59.333 -13 -88h-351c3.33301 -47.333 15 -82.333 35 -105zM829.002 365
c0.666992 4 1.00098 9.33398 1.00098 16.001c-0.666992 27.333 -8 48.166 -22 62.499s-33.333 21.5 -58 21.5c-58.667 0 -95.334 -33.333 -110.001 -100h189zM433.003 155.001c19.333 28 29 71 29 129s-9.66699 101 -29 129s-50.666 42 -93.999 42s-74.666 -14 -93.999 -42
s-29 -71 -29 -129s9.66699 -101 29 -129s50.666 -42 93.999 -42s74.666 14 93.999 42z" />
    <glyph glyph-name="Racute" unicode="&#x154;" horiz-adv-x="742" 
d="M366 250h-96v-250h-180v680h272c97.333 0 168.333 -16.5 213 -49.5s67 -84.833 67 -155.5c0 -92 -33.667 -153.667 -101 -185l191 -290h-208zM270 375l92 -0.000976562c35.333 0 60.833 7.33301 76.5 22s23.5 37.334 23.5 68.001c0 32 -7.66699 55 -23 69s-41 21 -77 21
h-92v-180zM406 911.999h185l-179 -172h-147z" />
    <glyph glyph-name="racute" unicode="&#x155;" horiz-adv-x="472" 
d="M442 412c-34.667 0 -66.333 -2 -95 -6s-59.667 -12 -93 -24v-382h-174v568h129l26 -67c34.667 28 68.667 48 102 60s68.333 18 105 18v-167zM268.001 842h187l-150 -212h-134z" />
    <glyph glyph-name="Rcommaaccent" unicode="&#x156;" horiz-adv-x="742" 
d="M366 250h-96v-250h-180v680h272c97.333 0 168.333 -16.5 213 -49.5s67 -84.833 67 -155.5c0 -92 -33.667 -153.667 -101 -185l191 -290h-208zM270 375l92 -0.000976562c35.333 0 60.833 7.33301 76.5 22s23.5 37.334 23.5 68.001c0 32 -7.66699 55 -23 69s-41 21 -77 21
h-92v-180zM277 -188.001c51.333 0.666992 76.999 14.998 76.999 42.998c0 10 -4 18.333 -12 25s-20.667 10.334 -38 11.001l34 82c50 -4.66699 86.333 -17.167 109 -37.5s34 -44.833 34 -73.5c0 -37.333 -16.167 -67.666 -48.5 -90.999s-76.166 -35.333 -131.499 -36z" />
    <glyph glyph-name="rcommaaccent" unicode="&#x157;" horiz-adv-x="472" 
d="M442 412c-34.667 0 -66.333 -2 -95 -6s-59.667 -12 -93 -24v-382h-174v568h129l26 -67c34.667 28 68.667 48 102 60s68.333 18 105 18v-167zM65.001 -188c51.333 0.666992 76.999 14.998 76.999 42.998c0 10 -4 18.333 -12 25s-20.667 10.334 -38 11.001l34 82
c50 -4.66699 86.333 -17.167 109 -37.5s34 -44.833 34 -73.5c0 -37.333 -16.167 -67.666 -48.5 -90.999s-76.166 -35.333 -131.499 -36z" />
    <glyph glyph-name="Rcaron" unicode="&#x158;" horiz-adv-x="742" 
d="M366 250h-96v-250h-180v680h272c97.333 0 168.333 -16.5 213 -49.5s67 -84.833 67 -155.5c0 -92 -33.667 -153.667 -101 -185l191 -290h-208zM270 375l92 -0.000976562c35.333 0 60.833 7.33301 76.5 22s23.5 37.334 23.5 68.001c0 32 -7.66699 55 -23 69s-41 21 -77 21
h-92v-180zM580 911.999l-149 -172h-166l-149 172h165l67 -88l67 88h165z" />
    <glyph glyph-name="rcaron" unicode="&#x159;" horiz-adv-x="472" 
d="M442 412c-34.667 0 -66.333 -2 -95 -6s-59.667 -12 -93 -24v-382h-174v568h129l26 -67c34.667 28 68.667 48 102 60s68.333 18 105 18v-167zM456.001 840l-115 -210h-172l-115 210h134l67 -108l67 108h134z" />
    <glyph glyph-name="Sacute" unicode="&#x15a;" horiz-adv-x="614" 
d="M145 0.5c-41.333 8.33301 -77.002 19.833 -107.002 34.5l34 123c37.333 -14 71.666 -24.333 102.999 -31s63.333 -10 96 -10c36 0 66.167 5.83301 90.5 17.5s36.5 29.167 36.5 52.5c0 15.333 -5.66699 28.666 -17 39.999s-25.666 21 -42.999 29
s-41.666 17.667 -72.999 29c-43.333 16 -78.833 31 -106.5 45s-51.334 33.333 -71.001 58s-29.5 55.334 -29.5 92.001c0 66 25.667 117.667 77 155s121 56 209 56c34.667 0 69.834 -4 105.501 -12s67.167 -19 94.5 -33l-35 -122c-29.333 12.667 -56.666 22.167 -81.999 28.5
s-51 9.5 -77 9.5c-34.667 0 -62.667 -6.16699 -84 -18.5s-32 -29.5 -32 -51.5c0 -18.667 10 -34 30 -46s51.667 -26 95 -42c44 -16.667 80.5 -32.5 109.5 -47.5s53.833 -35.5 74.5 -61.5s31 -58 31 -96c0 -66.667 -25.667 -118.5 -77 -155.5s-126 -55.5 -224 -55.5
c-44 0 -86.667 4.16699 -128 12.5zM382.998 912h185l-179 -172h-147z" />
    <glyph glyph-name="sacute" unicode="&#x15b;" horiz-adv-x="550" 
d="M134 -1.5c-36 7 -67.3311 15.8301 -93.998 26.4971l33 120c62 -21.333 117.667 -32 167 -32c65.333 0 98 16 98 48c0 14 -8.33301 25.833 -25 35.5s-43 20.834 -79 33.501c-38 13.333 -69.167 25.833 -93.5 37.5s-45.333 27.834 -63 48.501s-26.5 46.334 -26.5 77.001
c0 61.333 22.5 107.833 67.5 139.5s107.5 47.5 187.5 47.5c30 0 61.167 -2.83301 93.5 -8.5s60.166 -13.5 83.499 -23.5l-33 -120c-52 18 -98.333 27 -139 27c-58.667 0 -88 -13.667 -88 -41c0 -14 7.66699 -25.333 23 -34s40.333 -18.667 75 -30
c38.667 -12.667 70.667 -25 96 -37s47.166 -29.333 65.499 -52s27.5 -52 27.5 -88c0 -58.667 -22.667 -104.167 -68 -136.5s-112 -48.5 -200 -48.5c-36 0 -72 3.5 -108 10.5zM302.002 841.997h187l-150 -212h-134z" />
    <glyph glyph-name="Scedilla" unicode="&#x15e;" horiz-adv-x="614" 
d="M521.5 63.5c-35 -35 -86.835 -57.8301 -155.502 -68.4971l-20 -38c25.333 -3.33301 46.5 -12.833 63.5 -28.5s25.5 -34.5 25.5 -56.5c0 -18.667 -6 -36.834 -18 -54.501s-32.333 -32.5 -61 -44.5s-66 -18 -112 -18l-22 77c33.333 0 56 2.83301 68 8.5
s18 13.834 18 24.501c0 7.33301 -3 13.166 -9 17.499s-14 6.5 -24 6.5c-8.66699 0 -17.667 -1.66699 -27 -5l-31 43l33 61c-40 1.33301 -78.667 6.16602 -116 14.499s-69.333 19.166 -96 32.499l34 123c37.333 -14 71.666 -24.333 102.999 -31s63.333 -10 96 -10
c36 0 66.167 5.83301 90.5 17.5s36.5 29.167 36.5 52.5c0 15.333 -5.66699 28.666 -17 39.999s-25.666 21 -42.999 29s-41.666 17.667 -72.999 29c-43.333 16 -78.833 31 -106.5 45s-51.334 33.333 -71.001 58s-29.5 55.334 -29.5 92.001c0 66 25.667 117.667 77 155
s121 56 209 56c34.667 0 69.834 -4 105.501 -12s67.167 -19 94.5 -33l-35 -122c-29.333 12.667 -56.666 22.167 -81.999 28.5s-51 9.5 -77 9.5c-34.667 0 -62.667 -6.16699 -84 -18.5s-32 -29.5 -32 -51.5c0 -18.667 10 -34 30 -46s51.667 -26 95 -42
c44 -16.667 80.5 -32.5 109.5 -47.5s53.833 -35.5 74.5 -61.5s31 -58 31 -96c0 -55.333 -17.5 -100.5 -52.5 -135.5z" />
    <glyph glyph-name="scedilla" unicode="&#x15f;" horiz-adv-x="550" 
d="M457 48.5c-35.333 -31.667 -87.666 -50.835 -156.999 -57.502l-18 -34c25.333 -3.33301 46.5 -12.833 63.5 -28.5s25.5 -34.5 25.5 -56.5c0 -18.667 -6 -36.834 -18 -54.501s-32.333 -32.5 -61 -44.5s-66 -18 -112 -18l-22 77c33.333 0 56 2.83301 68 8.5
s18 13.834 18 24.501c0 7.33301 -3 13.166 -9 17.499s-14 6.5 -24 6.5c-8.66699 0 -17.667 -1.66699 -27 -5l-31 43l35 64c-53.333 4.66699 -102.666 16 -147.999 34l33 120c62 -21.333 117.667 -32 167 -32c65.333 0 98 16 98 48c0 14 -8.33301 25.833 -25 35.5
s-43 20.834 -79 33.501c-38 13.333 -69.167 25.833 -93.5 37.5s-45.333 27.834 -63 48.501s-26.5 46.334 -26.5 77.001c0 61.333 22.5 107.833 67.5 139.5s107.5 47.5 187.5 47.5c30 0 61.167 -2.83301 93.5 -8.5s60.166 -13.5 83.499 -23.5l-33 -120
c-52 18 -98.333 27 -139 27c-58.667 0 -88 -13.667 -88 -41c0 -14 7.66699 -25.333 23 -34s40.333 -18.667 75 -30c38.667 -12.667 70.667 -25 96 -37s47.166 -29.333 65.499 -52s27.5 -52 27.5 -88c0 -51.333 -17.667 -92.833 -53 -124.5z" />
    <glyph glyph-name="Scaron" unicode="&#x160;" horiz-adv-x="614" 
d="M145 0.5c-41.333 8.33301 -77.002 19.833 -107.002 34.5l34 123c37.333 -14 71.666 -24.333 102.999 -31s63.333 -10 96 -10c36 0 66.167 5.83301 90.5 17.5s36.5 29.167 36.5 52.5c0 15.333 -5.66699 28.666 -17 39.999s-25.666 21 -42.999 29
s-41.666 17.667 -72.999 29c-43.333 16 -78.833 31 -106.5 45s-51.334 33.333 -71.001 58s-29.5 55.334 -29.5 92.001c0 66 25.667 117.667 77 155s121 56 209 56c34.667 0 69.834 -4 105.501 -12s67.167 -19 94.5 -33l-35 -122c-29.333 12.667 -56.666 22.167 -81.999 28.5
s-51 9.5 -77 9.5c-34.667 0 -62.667 -6.16699 -84 -18.5s-32 -29.5 -32 -51.5c0 -18.667 10 -34 30 -46s51.667 -26 95 -42c44 -16.667 80.5 -32.5 109.5 -47.5s53.833 -35.5 74.5 -61.5s31 -58 31 -96c0 -66.667 -25.667 -118.5 -77 -155.5s-126 -55.5 -224 -55.5
c-44 0 -86.667 4.16699 -128 12.5zM556.998 912l-149 -172h-166l-149 172h165l67 -88l67 88h165z" />
    <glyph glyph-name="scaron" unicode="&#x161;" horiz-adv-x="550" 
d="M134 -1.5c-36 7 -67.3311 15.8301 -93.998 26.4971l33 120c62 -21.333 117.667 -32 167 -32c65.333 0 98 16 98 48c0 14 -8.33301 25.833 -25 35.5s-43 20.834 -79 33.501c-38 13.333 -69.167 25.833 -93.5 37.5s-45.333 27.834 -63 48.501s-26.5 46.334 -26.5 77.001
c0 61.333 22.5 107.833 67.5 139.5s107.5 47.5 187.5 47.5c30 0 61.167 -2.83301 93.5 -8.5s60.166 -13.5 83.499 -23.5l-33 -120c-52 18 -98.333 27 -139 27c-58.667 0 -88 -13.667 -88 -41c0 -14 7.66699 -25.333 23 -34s40.333 -18.667 75 -30
c38.667 -12.667 70.667 -25 96 -37s47.166 -29.333 65.499 -52s27.5 -52 27.5 -88c0 -58.667 -22.667 -104.167 -68 -136.5s-112 -48.5 -200 -48.5c-36 0 -72 3.5 -108 10.5zM490.002 839.997l-115 -210h-172l-115 210h134l67 -108l67 108h134z" />
    <glyph glyph-name="Tcaron" unicode="&#x164;" horiz-adv-x="590" 
d="M570 553h-185v-553h-180v553h-185v127h550v-127zM527 912l-149 -172h-166l-149 172h165l67 -88l67 88h165z" />
    <glyph glyph-name="tcaron" unicode="&#x165;" horiz-adv-x="484" 
d="M462 37c-20 -14 -43.832 -24.833 -71.499 -32.5s-54.5 -11.5 -80.5 -11.5c-70.667 0 -123.334 15.5 -158.001 46.5s-52 75.5 -52 133.5v272h-85v73l107 43l48 153h104v-146h160v-123h-160v-230c0 -35.333 5.66699 -60.333 17 -75s28.333 -22 51 -22
c29.333 0 60.333 8.66699 93 26zM316.001 667c16.667 17.333 28.667 35.3311 36 53.998s11 39.667 11 63c0 37.333 -9.33301 74 -28 110h155c9.33301 -32 14 -62.667 14 -92c0 -41.333 -13.5 -79.166 -40.5 -113.499s-60.5 -62.166 -100.5 -83.499z" />
    <glyph glyph-name="Umacron" unicode="&#x16a;" horiz-adv-x="799" 
d="M162 63.5c-54.667 50.333 -82 119.833 -82 208.5v408h180v-407c0 -54.667 11.833 -94.334 35.5 -119.001s58.5 -37 104.5 -37c45.333 0 79.833 12.333 103.5 37s35.5 64.334 35.5 119.001v407h180v-406c0 -89.333 -27.333 -159.333 -82 -210s-133.667 -76 -237 -76
c-104 0 -183.333 25.167 -238 75.5zM200 890h400v-122h-400v122z" />
    <glyph glyph-name="umacron" unicode="&#x16b;" horiz-adv-x="687" 
d="M607 568v-568h-129l-18 47c-65.333 -39.333 -128.333 -59 -189 -59c-74 0 -125.167 19.667 -153.5 59s-42.5 96 -42.5 170v351h174v-329c0 -46.667 5.5 -79 16.5 -97s32.167 -27 63.5 -27c34 0 68.667 11.333 104 34v419h174zM138 822h400v-122h-400v122z" />
    <glyph glyph-name="Uring" unicode="&#x16e;" horiz-adv-x="799" 
d="M162 63.5c-54.667 50.333 -82 119.833 -82 208.5v408h180v-407c0 -54.667 11.833 -94.334 35.5 -119.001s58.5 -37 104.5 -37c45.333 0 79.833 12.333 103.5 37s35.5 64.334 35.5 119.001v407h180v-406c0 -89.333 -27.333 -159.333 -82 -210s-133.667 -76 -237 -76
c-104 0 -183.333 25.167 -238 75.5zM286.5 761c-27 20.667 -40.5 47.334 -40.5 80.001s13.5 59.334 40.5 80.001s64.833 31 113.5 31s86.5 -10.333 113.5 -31s40.5 -47.334 40.5 -80.001s-13.5 -59.334 -40.5 -80.001s-64.833 -31 -113.5 -31s-86.5 10.333 -113.5 31z
M442 841c0 22 -14.001 33.001 -42.001 33.001c-13.333 0 -23.666 -2.83301 -30.999 -8.5s-11 -13.834 -11 -24.501c0 -22 14 -33 42 -33s42 11 42 33z" />
    <glyph glyph-name="uring" unicode="&#x16f;" horiz-adv-x="687" 
d="M607 568v-568h-129l-18 47c-65.333 -39.333 -128.333 -59 -189 -59c-74 0 -125.167 19.667 -153.5 59s-42.5 96 -42.5 170v351h174v-329c0 -46.667 5.5 -79 16.5 -97s32.167 -27 63.5 -27c34 0 68.667 11.333 104 34v419h174zM255.5 642
c-23 11.333 -40.333 26.333 -52 45s-17.5 38.334 -17.5 59.001s5.83301 40.334 17.5 59.001s29 33.667 52 45s50.5 17 82.5 17s59.5 -5.66699 82.5 -17s40.333 -26.333 52 -45s17.5 -38.334 17.5 -59.001s-5.83301 -40.334 -17.5 -59.001s-29 -33.667 -52 -45
s-50.5 -17 -82.5 -17s-59.5 5.66699 -82.5 17zM372 711.5c8.66699 9 13 20.5 13 34.5s-4.33301 25.5 -13 34.5s-20 13.5 -34 13.5s-25.333 -4.5 -34 -13.5s-13 -20.5 -13 -34.5s4.33301 -25.5 13 -34.5s20 -13.5 34 -13.5s25.333 4.5 34 13.5z" />
    <glyph glyph-name="Uhungarumlaut" unicode="&#x170;" horiz-adv-x="799" 
d="M162 63.5c-54.667 50.333 -82 119.833 -82 208.5v408h180v-407c0 -54.667 11.833 -94.334 35.5 -119.001s58.5 -37 104.5 -37c45.333 0 79.833 12.333 103.5 37s35.5 64.334 35.5 119.001v407h180v-406c0 -89.333 -27.333 -159.333 -82 -210s-133.667 -76 -237 -76
c-104 0 -183.333 25.167 -238 75.5zM373 912h165l-179 -172h-127zM583 912h165l-179 -172h-127z" />
    <glyph glyph-name="uhungarumlaut" unicode="&#x171;" horiz-adv-x="687" 
d="M607 568v-568h-129l-18 47c-65.333 -39.333 -128.333 -59 -189 -59c-74 0 -125.167 19.667 -153.5 59s-42.5 96 -42.5 170v351h174v-329c0 -46.667 5.5 -79 16.5 -97s32.167 -27 63.5 -27c34 0 68.667 11.333 104 34v419h174zM271 842h157l-150 -212h-104zM481 842h157
l-150 -212h-104z" />
    <glyph glyph-name="Uogonek" unicode="&#x172;" horiz-adv-x="799" 
d="M719 680v-406.004c0 -69.333 -16.5 -127.166 -49.5 -173.499s-81.167 -78.5 -144.5 -96.5c-59.333 -49.333 -89 -90.666 -89 -123.999c0 -10 3.16699 -17.667 9.5 -23s14.833 -8 25.5 -8c20.667 0 43.667 10.667 69 32l44 -96c-13.333 -15.333 -34 -29.333 -62 -42
s-56.667 -19 -86 -19c-41.333 0 -74.5 10.5 -99.5 31.5s-37.5 50.167 -37.5 87.5c0 24 6.33301 48.833 19 74.5s30.334 49.5 53.001 71.5c-94.667 4.66699 -166.834 31.834 -216.501 81.501s-74.5 116.834 -74.5 201.501v408h180v-407
c0 -54.667 11.833 -94.334 35.5 -119.001s58.5 -37 104.5 -37c45.333 0 79.833 12.333 103.5 37s35.5 64.334 35.5 119.001v407h180z" />
    <glyph glyph-name="uogonek" unicode="&#x173;" horiz-adv-x="687" 
d="M652 -215c-13.333 -15.333 -34.002 -29.332 -62.002 -41.999s-56.667 -19 -86 -19c-41.333 0 -74.5 10.5 -99.5 31.5s-37.5 50.167 -37.5 87.5c0 29.333 9.33301 59.666 28 90.999s44.334 58.333 77.001 81l-12 32c-65.333 -39.333 -128.333 -59 -189 -59
c-74 0 -125.167 19.667 -153.5 59s-42.5 96 -42.5 170v351h174v-329c0 -46.667 5.5 -79 16.5 -97s32.167 -27 63.5 -27c34 0 68.667 11.333 104 34v419h174v-568h-19c-27.333 -23.333 -48.166 -45.333 -62.499 -66s-21.5 -38.667 -21.5 -54c0 -10 3.16699 -17.667 9.5 -23
s14.833 -8 25.5 -8c20.667 0 43.667 10.667 69 32z" />
    <glyph glyph-name="Ydieresis" unicode="&#x178;" horiz-adv-x="692" 
d="M436 274v-274h-180v271l-251 409h189l152 -278l154 278h187zM158.5 764.5c-16.333 16.333 -24.5 35.833 -24.5 58.5s8.16699 42.167 24.5 58.5s35.833 24.5 58.5 24.5s42.167 -8.16699 58.5 -24.5s24.5 -35.833 24.5 -58.5s-8.16699 -42.167 -24.5 -58.5
s-35.833 -24.5 -58.5 -24.5s-42.167 8.16699 -58.5 24.5zM416.5 764.5c-16.333 16.333 -24.5 35.833 -24.5 58.5s8.16699 42.167 24.5 58.5s35.833 24.5 58.5 24.5s42.167 -8.16699 58.5 -24.5s24.5 -35.833 24.5 -58.5s-8.16699 -42.167 -24.5 -58.5
s-35.833 -24.5 -58.5 -24.5s-42.167 8.16699 -58.5 24.5z" />
    <glyph glyph-name="Zacute" unicode="&#x179;" horiz-adv-x="709" 
d="M679 127v-127h-629v99l384 454h-371v127h602v-107l-383 -446h397zM423 912h185l-179 -172h-147z" />
    <glyph glyph-name="zacute" unicode="&#x17a;" horiz-adv-x="558" 
d="M528 123v-123h-503v95l293 350h-278v123h478v-95l-293 -350h303zM297 842h187l-150 -212h-134z" />
    <glyph glyph-name="Zdotaccent" unicode="&#x17b;" horiz-adv-x="709" 
d="M679 127v-127h-629v99l384 454h-371v127h602v-107l-383 -446h397zM306.5 764.5c-16.333 16.333 -24.5 35.833 -24.5 58.5s8.16699 42.167 24.5 58.5s35.833 24.5 58.5 24.5s42.167 -8.16699 58.5 -24.5s24.5 -35.833 24.5 -58.5s-8.16699 -42.167 -24.5 -58.5
s-35.833 -24.5 -58.5 -24.5s-42.167 8.16699 -58.5 24.5z" />
    <glyph glyph-name="zdotaccent" unicode="&#x17c;" horiz-adv-x="558" 
d="M528 123v-123h-503v95l293 350h-278v123h478v-95l-293 -350h303zM220 670c-18 18 -27 39.333 -27 64s9 46 27 64s39.333 27 64 27s46 -9 64 -27s27 -39.333 27 -64s-9 -46 -27 -64s-39.333 -27 -64 -27s-46 9 -64 27z" />
    <glyph glyph-name="Zcaron" unicode="&#x17d;" horiz-adv-x="709" 
d="M679 127v-127h-629v99l384 454h-371v127h602v-107l-383 -446h397zM597 912l-149 -172h-166l-149 172h165l67 -88l67 88h165z" />
    <glyph glyph-name="zcaron" unicode="&#x17e;" horiz-adv-x="558" 
d="M528 123v-123h-503v95l293 350h-278v123h478v-95l-293 -350h303zM485 840l-115 -210h-172l-115 210h134l67 -108l67 108h134z" />
    <glyph glyph-name="florin" unicode="&#x192;" 
d="M397 462l169.003 -0.000976562v-122h-179l-41 -513h-173l41 513h-98v122h108l1 14c7.33301 94.667 33.166 161.334 77.499 200.001s104.166 58 179.499 58c34 0 69.333 -4.33301 106 -13l-39 -116c-18.667 3.33301 -34.334 5 -47.001 5c-33.333 0 -58 -10.167 -74 -30.5
s-26 -55.5 -30 -105.5z" />
    <glyph glyph-name="Scommaaccent" unicode="&#x218;" horiz-adv-x="614" 
d="M145 0.5c-41.333 8.33301 -77.002 19.833 -107.002 34.5l34 123c37.333 -14 71.666 -24.333 102.999 -31s63.333 -10 96 -10c36 0 66.167 5.83301 90.5 17.5s36.5 29.167 36.5 52.5c0 15.333 -5.66699 28.666 -17 39.999s-25.666 21 -42.999 29
s-41.666 17.667 -72.999 29c-43.333 16 -78.833 31 -106.5 45s-51.334 33.333 -71.001 58s-29.5 55.334 -29.5 92.001c0 66 25.667 117.667 77 155s121 56 209 56c34.667 0 69.834 -4 105.501 -12s67.167 -19 94.5 -33l-35 -122c-29.333 12.667 -56.666 22.167 -81.999 28.5
s-51 9.5 -77 9.5c-34.667 0 -62.667 -6.16699 -84 -18.5s-32 -29.5 -32 -51.5c0 -18.667 10 -34 30 -46s51.667 -26 95 -42c44 -16.667 80.5 -32.5 109.5 -47.5s53.833 -35.5 74.5 -61.5s31 -58 31 -96c0 -66.667 -25.667 -118.5 -77 -155.5s-126 -55.5 -224 -55.5
c-44 0 -86.667 4.16699 -128 12.5zM214.998 -188c51.333 0.666992 76.999 14.998 76.999 42.998c0 10 -4 18.333 -12 25s-20.667 10.334 -38 11.001l34 82c50 -4.66699 86.333 -17.167 109 -37.5s34 -44.833 34 -73.5c0 -37.333 -16.167 -67.666 -48.5 -90.999
s-76.166 -35.333 -131.499 -36z" />
    <glyph glyph-name="scommaaccent" unicode="&#x219;" horiz-adv-x="550" 
d="M134 -1.5c-36 7 -67.3311 15.8301 -93.998 26.4971l33 120c62 -21.333 117.667 -32 167 -32c65.333 0 98 16 98 48c0 14 -8.33301 25.833 -25 35.5s-43 20.834 -79 33.501c-38 13.333 -69.167 25.833 -93.5 37.5s-45.333 27.834 -63 48.501s-26.5 46.334 -26.5 77.001
c0 61.333 22.5 107.833 67.5 139.5s107.5 47.5 187.5 47.5c30 0 61.167 -2.83301 93.5 -8.5s60.166 -13.5 83.499 -23.5l-33 -120c-52 18 -98.333 27 -139 27c-58.667 0 -88 -13.667 -88 -41c0 -14 7.66699 -25.333 23 -34s40.333 -18.667 75 -30
c38.667 -12.667 70.667 -25 96 -37s47.166 -29.333 65.499 -52s27.5 -52 27.5 -88c0 -58.667 -22.667 -104.167 -68 -136.5s-112 -48.5 -200 -48.5c-36 0 -72 3.5 -108 10.5zM151.002 -188.003c51.333 0.666992 76.999 14.998 76.999 42.998c0 10 -4 18.333 -12 25
s-20.667 10.334 -38 11.001l34 82c50 -4.66699 86.333 -17.167 109 -37.5s34 -44.833 34 -73.5c0 -37.333 -16.167 -67.666 -48.5 -90.999s-76.166 -35.333 -131.499 -36z" />
    <glyph glyph-name="uni021A" unicode="&#x21a;" horiz-adv-x="590" 
d="M570 553h-185v-553h-180v553h-185v127h550v-127zM194 -188c51.333 0.666992 76.999 14.998 76.999 42.998c0 10 -4 18.333 -12 25s-20.667 10.334 -38 11.001l34 82c50 -4.66699 86.333 -17.167 109 -37.5s34 -44.833 34 -73.5c0 -37.333 -16.167 -67.666 -48.5 -90.999
s-76.166 -35.333 -131.499 -36z" />
    <glyph glyph-name="uni021B" unicode="&#x21b;" horiz-adv-x="484" 
d="M462 37c-20 -14 -43.832 -24.833 -71.499 -32.5s-54.5 -11.5 -80.5 -11.5c-70.667 0 -123.334 15.5 -158.001 46.5s-52 75.5 -52 133.5v272h-85v73l107 43l48 153h104v-146h160v-123h-160v-230c0 -35.333 5.66699 -60.333 17 -75s28.333 -22 51 -22
c29.333 0 60.333 8.66699 93 26zM159.001 -188c51.333 0.666992 76.999 14.998 76.999 42.998c0 10 -4 18.333 -12 25s-20.667 10.334 -38 11.001l34 82c50 -4.66699 86.333 -17.167 109 -37.5s34 -44.833 34 -73.5c0 -37.333 -16.167 -67.666 -48.5 -90.999
s-76.166 -35.333 -131.499 -36z" />
    <glyph glyph-name="uni0237" unicode="&#x237;" horiz-adv-x="334" 
d="M-82 -231l11.001 122.002c26.667 -3.33301 49 -5 67 -5c28 0 49 8.16699 63 24.5s21 40.166 21 71.499v586h174v-588c0 -70.667 -18.833 -124.834 -56.5 -162.501s-94.834 -56.5 -171.501 -56.5c-28 0 -64 2.66699 -108 8z" />
    <glyph glyph-name="circumflex" unicode="&#x2c6;" horiz-adv-x="500" 
d="M317 590l-67 108l-67 -108h-134l115 210h172l115 -210h-134z" />
    <glyph glyph-name="caron" unicode="&#x2c7;" horiz-adv-x="500" 
d="M451 800l-115 -210h-172l-115 210h134l67 -108l67 108h134z" />
    <glyph glyph-name="breve" unicode="&#x2d8;" horiz-adv-x="500" 
d="M111.5 641c-33 35.333 -50.167 88.334 -51.5 159.001l117 2c1.33301 -32.667 8.5 -57.334 21.5 -74.001s30.167 -25 51.5 -25s38.5 8.33301 51.5 25s20.167 41.667 21.5 75l117 -3c-1.33301 -70.667 -18.5 -123.667 -51.5 -159s-79.167 -53 -138.5 -53
s-105.5 17.667 -138.5 53z" />
    <glyph glyph-name="dotaccent" unicode="&#x2d9;" horiz-adv-x="500" 
d="M186 670c-18 18 -27 39.333 -27 64s9 46 27 64s39.333 27 64 27s46 -9 64 -27s27 -39.333 27 -64s-9 -46 -27 -64s-39.333 -27 -64 -27s-46 9 -64 27z" />
    <glyph glyph-name="ring" unicode="&#x2da;" horiz-adv-x="500" 
d="M167.5 622c-23 11.333 -40.333 26.333 -52 45s-17.5 38.334 -17.5 59.001s5.83301 40.334 17.5 59.001s29 33.667 52 45s50.5 17 82.5 17s59.5 -5.66699 82.5 -17s40.333 -26.333 52 -45s17.5 -38.334 17.5 -59.001s-5.83301 -40.334 -17.5 -59.001s-29 -33.667 -52 -45
s-50.5 -17 -82.5 -17s-59.5 5.66699 -82.5 17zM284 691.5c8.66699 9 13 20.5 13 34.5s-4.33301 25.5 -13 34.5s-20 13.5 -34 13.5s-25.333 -4.5 -34 -13.5s-13 -20.5 -13 -34.5s4.33301 -25.5 13 -34.5s20 -13.5 34 -13.5s25.333 4.5 34 13.5z" />
    <glyph glyph-name="ogonek" unicode="&#x2db;" horiz-adv-x="500" 
d="M166.5 -244.5c-25 21 -37.501 50.167 -37.501 87.5c0 29.333 9.33301 59.666 28 90.999s44.334 58.333 77.001 81h135c-33.333 -26 -58.833 -50.667 -76.5 -74s-26.5 -43.666 -26.5 -60.999c0 -10 3.16699 -17.667 9.5 -23s14.833 -8 25.5 -8
c20.667 0 43.667 10.667 69 32l44 -96c-13.333 -15.333 -34 -29.333 -62 -42s-56.667 -19 -86 -19c-41.333 0 -74.5 10.5 -99.5 31.5z" />
    <glyph glyph-name="tilde" unicode="&#x2dc;" horiz-adv-x="500" 
d="M50 624c3.33301 54.667 16.3291 97.832 38.9961 129.499s51.334 47.5 86.001 47.5c12.667 0 25 -2.16699 37 -6.5s26 -10.5 42 -18.5c14.667 -7.33301 26.334 -12.666 35.001 -15.999s17.334 -5 26.001 -5c18 0 31.667 18.667 41 56l94 -4
c-3.33301 -50.667 -16.666 -92.834 -39.999 -126.501s-51.666 -50.5 -84.999 -50.5c-14 0 -27.333 2.33301 -40 7s-28 11.334 -46 20.001c-12.667 6.66699 -23 11.5 -31 14.5s-15.667 4.5 -23 4.5c-9.33301 0 -17.333 -4.5 -24 -13.5s-12.334 -23.167 -17.001 -42.5z" />
    <glyph glyph-name="hungarumlaut" unicode="&#x2dd;" horiz-adv-x="500" 
d="M130 802h157l-150 -212h-104zM340 802h157l-150 -212h-104z" />
    <glyph glyph-name="uni0326" unicode="&#x326;" horiz-adv-x="500" 
d="M-356 -188c51.333 0.666992 76.999 14.998 76.999 42.998c0 10 -4 18.333 -12 25s-20.667 10.334 -38 11.001l34 82c50 -4.66699 86.333 -17.167 109 -37.5s34 -44.833 34 -73.5c0 -37.333 -16.167 -67.666 -48.5 -90.999s-76.166 -35.333 -131.499 -36z" />
    <glyph glyph-name="Omega" unicode="&#x3a9;" horiz-adv-x="842" 
d="M763 240c-22.667 -43.333 -53.667 -80.334 -93 -111.001v-4h130v-125h-337v114c53.333 42 92.333 83.333 117 124s37 87.667 37 141c0 57.333 -17.833 102.833 -53.5 136.5s-83.167 50.5 -142.5 50.5s-106.833 -16.833 -142.5 -50.5s-53.5 -79.167 -53.5 -136.5
c0 -53.333 12.333 -100.333 37 -141s63.667 -82 117 -124v-114h-337v125h131v4c-39.333 32 -70.5 69.333 -93.5 112s-34.5 88.334 -34.5 137.001c0 60 15.333 114 46 162s74.5 85.833 131.5 113.5s123.167 41.5 198.5 41.5s141.5 -13.833 198.5 -41.5
s100.833 -65.5 131.5 -113.5s46 -102 46 -162c0 -48.667 -11.333 -94.667 -34 -138z" />
    <glyph glyph-name="mu" unicode="&#x3bc;" horiz-adv-x="687" 
d="M607 568l0.000976562 -568h-129l-18 47c-65.333 -39.333 -128.333 -59 -189 -59c-18.667 0 -34.334 1.33301 -47.001 4l25 -229h-174v805h174v-329c0 -46.667 5.5 -79 16.5 -97s32.167 -27 63.5 -27c34 0 68.667 11.333 104 34v419h174z" />
    <glyph glyph-name="pi" unicode="&#x3c0;" horiz-adv-x="746" 
d="M601 445v-285c0 -14.667 3 -25.167 9 -31.5s16 -9.5 30 -9.5c12 0 24.333 1.66699 37 5l6 -118c-35.333 -8.66699 -72.666 -13 -111.999 -13c-44.667 0 -79.834 10.5 -105.501 31.5s-38.5 58.5 -38.5 112.5v308h-102l-43 -445h-174l43 445h-126v123h667v-123h-91z" />
    <glyph glyph-name="uni0901" unicode="&#x901;" horiz-adv-x="0" 
d="M-298.5 771.5c-45 29.667 -79.167 68.167 -102.5 115.5l102 70c39.333 -68 90.333 -102 153 -102s113.667 34 153 102l102 -70c-25.333 -48.667 -60 -87.5 -104 -116.5s-94.333 -43.5 -151 -43.5s-107.5 14.833 -152.5 44.5zM-216.5 1099.5
c19.667 19.667 43.167 29.5 70.5 29.5s50.833 -9.83301 70.5 -29.5s29.5 -43.167 29.5 -70.5s-9.83301 -50.833 -29.5 -70.5s-43.167 -29.5 -70.5 -29.5s-50.833 9.83301 -70.5 29.5s-29.5 43.167 -29.5 70.5s9.83301 50.833 29.5 70.5z" />
    <glyph glyph-name="uni0902" unicode="&#x902;" horiz-adv-x="0" 
d="M-213.5 881.5c19.667 19.667 43.167 29.5 70.5 29.5s50.833 -9.83301 70.5 -29.5s29.5 -43.167 29.5 -70.5s-9.83301 -50.833 -29.5 -70.5s-43.167 -29.5 -70.5 -29.5s-50.833 9.83301 -70.5 29.5s-29.5 43.167 -29.5 70.5s9.83301 50.833 29.5 70.5z" />
    <glyph glyph-name="uni0903" unicode="&#x903;" horiz-adv-x="426" 
d="M139 401c-20.667 20.667 -31 45.334 -31 74.001c0 29.333 10.333 54.166 31 74.499s45.334 30.5 74.001 30.5c29.333 0 54.166 -10.167 74.499 -30.5s30.5 -45.166 30.5 -74.499c0 -28.667 -10.167 -53.334 -30.5 -74.001s-45.166 -31 -74.499 -31
c-28.667 0 -53.334 10.333 -74.001 31zM139 85c-20.667 20.667 -31 45.334 -31 74.001c0 29.333 10.333 54.166 31 74.499s45.334 30.5 74.001 30.5c29.333 0 54.166 -10.167 74.499 -30.5s30.5 -45.166 30.5 -74.499c0 -28.667 -10.167 -53.334 -30.5 -74.001
s-45.166 -31 -74.499 -31c-28.667 0 -53.334 10.333 -74.001 31z" />
    <glyph glyph-name="uni0904" unicode="&#x904;" horiz-adv-x="891" 
d="M891 549l-89.001 -0.00195312v-549h-159v205c-27.333 -10 -54.333 -15 -81 -15c-7.33301 0 -17.666 0.666992 -30.999 2v-14c0 -33.333 -9 -63.833 -27 -91.5s-43.833 -49.5 -77.5 -65.5s-72.834 -24 -117.501 -24c-66 0 -124.167 17.5 -174.5 52.5
s-95.166 79.833 -134.499 134.5l77 99c33.333 -46 70 -83.833 110 -113.5s78.667 -44.5 116 -44.5c21.333 0 38.166 6.5 50.499 19.5s18.5 30.833 18.5 53.5c0 32 -10 60.333 -30 85c-32.667 -8 -71.334 -13 -116.001 -15l-40 129c50.667 4 88.667 10 114 18
s41.666 18 48.999 30s11 27.333 11 46c0 20.667 -6.16699 37.834 -18.5 51.501s-30.5 20.5 -54.5 20.5c-35.333 0 -84.333 -25.333 -147 -76l-66 120c34.667 26 68.834 46.667 102.501 62s67.834 23 102.501 23c42 0 81.333 -8.66699 118 -26s66.167 -42.833 88.5 -76.5
s33.5 -74.167 33.5 -121.5c0 -53.333 -19.333 -96.333 -58 -129c35.333 -13.333 69 -20 101 -20c30 0 57 5.66699 81 17v213h-110v128h117v3c0 19.333 -5.16699 35.833 -15.5 49.5s-28.166 20.5 -53.499 20.5c-24 0 -61.333 -2 -112 -6c-48 -4 -83 -6 -105 -6
c-54 0 -95.833 11.333 -125.5 34s-44.5 55 -44.5 97c0 21.333 4 43.833 12 67.5s18.333 44.167 31 61.5l143 -33c-18.667 -21.333 -28 -42.666 -28 -63.999c0 -22.667 11 -34 33 -34c20.667 0 53.667 2 99 6c44 4 76.333 6 97 6c73.333 0 129.5 -18.333 168.5 -55
s58.5 -85 58.5 -145v-2h83v-128z" />
    <glyph glyph-name="uni0905" unicode="&#x905;" horiz-adv-x="891" 
d="M891 549l-89 -0.000976562v-549h-159v205c-27.333 -10 -54.333 -15 -81 -15c-7.33301 0 -17.666 0.666992 -30.999 2v-14c0 -33.333 -9 -63.833 -27 -91.5s-43.833 -49.5 -77.5 -65.5s-72.834 -24 -117.501 -24c-66 0 -124.167 17.5 -174.5 52.5
s-95.166 79.833 -134.499 134.5l77 99c33.333 -46 70 -83.833 110 -113.5s78.667 -44.5 116 -44.5c21.333 0 38.166 6.5 50.499 19.5s18.5 30.833 18.5 53.5c0 32 -10 60.333 -30 85c-32.667 -8 -71.334 -13 -116.001 -15l-40 129c50.667 4 88.667 10 114 18
s41.666 18 48.999 30s11 27.333 11 46c0 20.667 -6.16699 37.834 -18.5 51.501s-30.5 20.5 -54.5 20.5c-35.333 0 -84.333 -25.333 -147 -76l-66 120c34.667 26 68.834 46.667 102.501 62s67.834 23 102.501 23c42 0 81.333 -8.66699 118 -26s66.167 -42.833 88.5 -76.5
s33.5 -74.167 33.5 -121.5c0 -53.333 -19.333 -96.333 -58 -129c35.333 -13.333 69 -20 101 -20c30 0 57 5.66699 81 17v213h-110v128h358v-128z" />
    <glyph glyph-name="uni0906" unicode="&#x906;" horiz-adv-x="1228" 
d="M1228 549l-89 -0.000976562v-549h-159v549h-178v-549h-159v205c-27.333 -10 -54.333 -15 -81 -15c-7.33301 0 -17.666 0.666992 -30.999 2v-14c0 -33.333 -9 -63.833 -27 -91.5s-43.833 -49.5 -77.5 -65.5s-72.834 -24 -117.501 -24c-66 0 -124.167 17.5 -174.5 52.5
s-95.166 79.833 -134.499 134.5l77 99c33.333 -46 70 -83.833 110 -113.5s78.667 -44.5 116 -44.5c21.333 0 38.166 6.5 50.499 19.5s18.5 30.833 18.5 53.5c0 32 -10 60.333 -30 85c-32.667 -8 -71.334 -13 -116.001 -15l-40 129c50.667 4 88.667 10 114 18
s41.666 18 48.999 30s11 27.333 11 46c0 20.667 -6.16699 37.834 -18.5 51.501s-30.5 20.5 -54.5 20.5c-35.333 0 -84.333 -25.333 -147 -76l-66 120c34.667 26 68.834 46.667 102.501 62s67.834 23 102.501 23c42 0 81.333 -8.66699 118 -26s66.167 -42.833 88.5 -76.5
s33.5 -74.167 33.5 -121.5c0 -53.333 -19.333 -96.333 -58 -129c35.333 -13.333 69 -20 101 -20c30 0 57 5.66699 81 17v213h-110v128h695v-128z" />
    <glyph glyph-name="uni0907" unicode="&#x907;" horiz-adv-x="560" 
d="M211.5 374c-4.33301 -6 -6.5 -13.668 -6.5 -23.001c0 -22 18.333 -33 55 -33c25.333 0 54.666 3 87.999 9s62.333 13.667 87 23c26 -18 48.5 -43 67.5 -75s28.5 -65 28.5 -99c0 -55.333 -18 -101.833 -54 -139.5s-83.667 -61.5 -143 -71.5l97 -142l-143 -75l-94 219
c-44.667 8.66699 -81 23 -109 43s-42 42.333 -42 67c0 26 13.667 48 41 66s63.666 27.333 108.999 28l56 -82c3.33301 -0.666992 8 -1 14 -1c30.667 0 56.5 7.5 77.5 22.5s31.5 33.5 31.5 55.5c0 12 -3.33301 24.667 -10 38c-33.333 -10 -66.666 -15 -99.999 -15
c-47.333 0 -87.166 7.5 -119.499 22.5s-56.5 34.833 -72.5 59.5s-24 52.334 -24 83.001c0 44.667 13.667 82 41 112s65 45 113 45h96v38h-316v128h580v-128h-106v-166h-229c-4.66699 0 -9.16699 -3 -13.5 -9z" />
    <glyph glyph-name="uni0908" unicode="&#x908;" horiz-adv-x="560" 
d="M211.5 374c-4.33301 -6 -6.50195 -13.667 -6.50195 -23c0 -22 18.333 -33 55 -33c25.333 0 54.666 3 87.999 9s62.333 13.667 87 23c26 -18 48.5 -43 67.5 -75s28.5 -65 28.5 -99c0 -55.333 -18 -101.833 -54 -139.5s-83.667 -61.5 -143 -71.5l97 -142l-143 -75l-94 219
c-44.667 8.66699 -81 23 -109 43s-42 42.333 -42 67c0 26 13.667 48 41 66s63.666 27.333 108.999 28l56 -82c3.33301 -0.666992 8 -1 14 -1c30.667 0 56.5 7.5 77.5 22.5s31.5 33.5 31.5 55.5c0 12 -3.33301 24.667 -10 38c-33.333 -10 -66.666 -15 -99.999 -15
c-47.333 0 -87.166 7.5 -119.499 22.5s-56.5 34.833 -72.5 59.5s-24 52.334 -24 83.001c0 44.667 13.667 82 41 112s65 45 113 45h96v38h-316v128h285c-24.667 24.667 -43.5 50.5 -56.5 77.5s-19.5 56.833 -19.5 89.5c0 48.667 17.667 88.5 53 119.5s86.333 46.5 153 46.5
c24.667 0 48.334 -3.33301 71.001 -10s42.334 -15 59.001 -25l-36 -109c-24 11.333 -47 17 -69 17c-48 0 -72 -24.667 -72 -74c0 -24 7 -46.333 21 -67s33.333 -42.334 58 -65.001h133v-128h-106v-166h-229c-4.66699 0 -9.16699 -3 -13.5 -9z" />
    <glyph glyph-name="uni0909" unicode="&#x909;" horiz-adv-x="607" 
d="M607 549l-91.001 0.000976562c12 -26 18 -54.667 18 -86c0 -52 -22.667 -94.667 -68 -128c50 -52.667 75 -109.334 75 -170.001c0 -36 -9.5 -68.167 -28.5 -96.5s-46.167 -50.666 -81.5 -66.999s-76 -24.5 -122 -24.5c-116 0 -219 69.667 -309 209l77 99
c34 -52 70.833 -95 110.5 -129s78.167 -51 115.5 -51c24 0 43.167 7.5 57.5 22.5s21.5 34.167 21.5 57.5c0 37.333 -12.333 70.333 -37 99c-43.333 -10 -89.666 -15.333 -138.999 -16l-40 129c60 3.33301 105.333 9.33301 136 18s50.5 18.667 59.5 30s13.5 25 13.5 41
c0 12 -3.5 23.667 -10.5 35s-17.167 20.666 -30.5 27.999h-354v128h627v-128z" />
    <glyph glyph-name="uni090A" unicode="&#x90a;" horiz-adv-x="874" 
d="M534 463c0 -52 -22.668 -94.665 -68.001 -127.998c10 -10 17.333 -18 22 -24c62 58 119.667 87 173 87c38.667 0 72.334 -8 101.001 -24s50.5 -37.167 65.5 -63.5s22.5 -54.5 22.5 -84.5c0 -44 -9 -86.333 -27 -127s-41.333 -78.334 -70 -113.001l-151 83
c28 34.667 49.833 65.167 65.5 91.5s23.5 50.166 23.5 71.499c0 11.333 -3.5 20.333 -10.5 27s-16.5 10 -28.5 10c-30.667 0 -68.334 -25.667 -113.001 -77c1.33301 -12 2 -21 2 -27c0 -36 -9.5 -68.167 -28.5 -96.5s-46.167 -50.666 -81.5 -66.999s-76 -24.5 -122 -24.5
c-116 0 -219 69.667 -309 209l77 99c34 -52 70.833 -95 110.5 -129s78.167 -51 115.5 -51c24 0 43.167 7.5 57.5 22.5s21.5 34.167 21.5 57.5c0 37.333 -12.333 70.333 -37 99c-43.333 -10 -89.666 -15.333 -138.999 -16l-40 129c60 3.33301 105.333 9.33301 136 18
s50.5 18.667 59.5 30s13.5 25 13.5 41c0 12 -3.5 23.667 -10.5 35s-17.167 20.666 -30.5 27.999h-354v128h894v-128h-358c12 -26 18 -54.667 18 -86z" />
    <glyph glyph-name="uni090B" unicode="&#x90b;" horiz-adv-x="908" 
d="M956 -44c-19.333 -14 -42.1689 -25.499 -68.502 -34.499s-54.833 -13.5 -85.5 -13.5c-38.667 0 -72.834 7.16699 -102.501 21.5s-52.667 33.833 -69 58.5s-24.5 52.334 -24.5 83.001c0 56.667 29 106 87 148l-16 36c-38 -14 -76 -21 -114 -21
c-6.66699 0 -11.667 0.333008 -15 1v-235h-159v164l-217 -163l-96 127l291 184c-24.667 17.333 -47.167 29.5 -67.5 36.5s-41.166 10.5 -62.499 10.5c-16.667 0 -36.5 -4.33301 -59.5 -13s-49.167 -20 -78.5 -34l-76 136c70.667 26.667 142 40 214 40
c25.333 0 50 -3.5 74 -10.5s50 -19.5 78 -37.5v109h-409v128h928v-128h-360v-185c4 -0.666992 9.66699 -1 17 -1c20.667 0 41.334 3.33301 62.001 10l-34 79c13.333 19.333 29.833 34.666 49.5 45.999s40.167 17 61.5 17c34.667 0 61.667 -10.5 81 -31.5
s29 -46.167 29 -75.5c0 -32.667 -11.667 -62.334 -35 -89.001l78 -160c-40 -10 -69.333 -22.5 -88 -37.5s-28 -30.833 -28 -47.5c0 -12.667 5.16699 -22.167 15.5 -28.5s24.833 -9.5 43.5 -9.5c16.667 0 34.834 2.83301 54.501 8.5s35.5 13.167 47.5 22.5z" />
    <glyph glyph-name="uni090C" unicode="&#x90c;" horiz-adv-x="822" 
d="M856 -92c-27.333 -20.667 -54.6709 -36.9971 -82.0039 -48.9971s-60.333 -18 -99 -18c-35.333 0 -68 6.5 -98 19.5s-53.833 31.833 -71.5 56.5s-26.5 53.667 -26.5 87c0 29.333 7.83301 56.5 23.5 81.5s38.5 54.167 68.5 87.5c24 27.333 41.333 48.833 52 64.5
s16 31.834 16 48.501c0 14.667 -4.5 26.167 -13.5 34.5s-21.5 12.5 -37.5 12.5c-27.333 0 -52 -15.5 -74 -46.5s-39.333 -73.167 -52 -126.5l-159 29c8.66699 47.333 23.334 89.666 44.001 126.999c-24 22.667 -50 34 -78 34c-19.333 0 -36.5 -7 -51.5 -21
s-22.5 -33.667 -22.5 -59c0 -40.667 11.833 -78.834 35.5 -114.501s61.834 -77.167 114.501 -124.5l-90 -91c-66 53.333 -119 110.166 -159 170.499s-60 118.833 -60 175.5c0 61.333 19.833 109 59.5 143s90.834 51 153.501 51c35.333 0 66.833 -8 94.5 -24
s50.5 -35.667 68.5 -59c28 25.333 59 43 93 53v99h-525v128h842v-128h-158v-98c41.333 -13.333 74 -36 98 -68s36 -66.333 36 -103c0 -26 -8.33301 -51.667 -25 -77s-40 -54.333 -70 -87c-23.333 -26 -40.666 -47 -51.999 -63s-17 -31 -17 -45
c0 -12.667 4.83301 -22.334 14.5 -29.001s22.5 -10 38.5 -10c18.667 0 38.667 4.83301 60 14.5s41 22.167 59 37.5z" />
    <glyph glyph-name="uni090D" unicode="&#x90d;" horiz-adv-x="714" 
d="M688.5 -56c19 -22.667 28.501 -44.001 28.501 -64.001c0 -26.667 -5.83301 -51.834 -17.5 -75.501s-30.834 -49.167 -57.501 -76.5l-133 66c12.667 15.333 22 28.833 28 40.5s9 23.5 9 35.5s-6.16699 24.167 -18.5 36.5s-31.833 27.5 -58.5 45.5l-226 153
c-48 32.667 -82.333 63.834 -103 93.501s-31 65.834 -31 108.501v242h-129v128h734v-128h-100v-210c0 -38.667 -12.167 -69.667 -36.5 -93s-53.166 -42.666 -86.499 -57.999l-124 94c29.333 11.333 51.333 24 66 38s22 31.667 22 53v176h-187v-239
c0 -27.333 4.66699 -48.333 14 -63s26.666 -30.667 51.999 -48l266 -181c40 -26.667 69.5 -51.334 88.5 -74.001zM204.501 771.499c-45 29.667 -79.167 68.167 -102.5 115.5l102 70c39.333 -68 90.333 -102 153 -102s113.667 34 153 102l102 -70
c-25.333 -48.667 -60 -87.5 -104 -116.5s-94.333 -43.5 -151 -43.5s-107.5 14.833 -152.5 44.5z" />
    <glyph glyph-name="uni090E" unicode="&#x90e;" horiz-adv-x="714" 
d="M688.5 -56c19 -22.667 28.5 -44.002 28.5 -64.002c0 -26.667 -5.83301 -51.834 -17.5 -75.501s-30.834 -49.167 -57.501 -76.5l-133 66c12.667 15.333 22 28.833 28 40.5s9 23.5 9 35.5s-6.16699 24.167 -18.5 36.5s-31.833 27.5 -58.5 45.5l-226 153
c-48 32.667 -82.333 63.834 -103 93.501s-31 65.834 -31 108.501v242h-129v128h480v3c0 19.333 -5.16699 35.833 -15.5 49.5s-28.166 20.5 -53.499 20.5c-24 0 -61.333 -2 -112 -6c-48 -4 -83 -6 -105 -6c-54 0 -95.833 11.333 -125.5 34s-44.5 55 -44.5 97
c0 21.333 4 43.833 12 67.5s18.333 44.167 31 61.5l143 -33c-18.667 -21.333 -28 -42.666 -28 -63.999c0 -22.667 11 -34 33 -34c20.667 0 53.667 2 99 6c44 4 76.333 6 97 6c73.333 0 129.5 -18.333 168.5 -55s58.5 -85 58.5 -145v-2h96v-128h-100v-210
c0 -38.667 -12.167 -69.667 -36.5 -93s-53.166 -42.666 -86.499 -57.999l-124 94c29.333 11.333 51.333 24 66 38s22 31.667 22 53v176h-187v-239c0 -27.333 4.66699 -48.333 14 -63s26.666 -30.667 51.999 -48l266 -181c40 -26.667 69.5 -51.334 88.5 -74.001z" />
    <glyph glyph-name="uni090F" unicode="&#x90f;" horiz-adv-x="714" 
d="M688.5 -56c19 -22.667 28.501 -44.001 28.501 -64.001c0 -26.667 -5.83301 -51.834 -17.5 -75.501s-30.834 -49.167 -57.501 -76.5l-133 66c12.667 15.333 22 28.833 28 40.5s9 23.5 9 35.5s-6.16699 24.167 -18.5 36.5s-31.833 27.5 -58.5 45.5l-226 153
c-48 32.667 -82.333 63.834 -103 93.501s-31 65.834 -31 108.501v242h-129v128h734v-128h-100v-210c0 -38.667 -12.167 -69.667 -36.5 -93s-53.166 -42.666 -86.499 -57.999l-124 94c29.333 11.333 51.333 24 66 38s22 31.667 22 53v176h-187v-239
c0 -27.333 4.66699 -48.333 14 -63s26.666 -30.667 51.999 -48l266 -181c40 -26.667 69.5 -51.334 88.5 -74.001z" />
    <glyph glyph-name="uni0910" unicode="&#x910;" horiz-adv-x="714" 
d="M688.5 -56c19 -22.667 28.502 -44.001 28.502 -64.001c0 -26.667 -5.83301 -51.834 -17.5 -75.501s-30.834 -49.167 -57.501 -76.5l-133 66c12.667 15.333 22 28.833 28 40.5s9 23.5 9 35.5s-6.16699 24.167 -18.5 36.5s-31.833 27.5 -58.5 45.5l-226 153
c-48 32.667 -82.333 63.834 -103 93.501s-31 65.834 -31 108.501v242h-129v128h459l-21 48c-20 46 -42.167 79.833 -66.5 101.5s-53.5 32.5 -87.5 32.5c-32.667 0 -64.334 -4 -95.001 -12l-27 120c36 14.667 76.333 22 121 22c66 0 121.833 -19.667 167.5 -59
s88.167 -102.333 127.5 -189l29 -64h127v-128h-100v-210c0 -38.667 -12.167 -69.667 -36.5 -93s-53.166 -42.666 -86.499 -57.999l-124 94c29.333 11.333 51.333 24 66 38s22 31.667 22 53v176h-187v-239c0 -27.333 4.66699 -48.333 14 -63s26.666 -30.667 51.999 -48
l266 -181c40 -26.667 69.5 -51.334 88.5 -74.001z" />
    <glyph glyph-name="uni0911" unicode="&#x911;" horiz-adv-x="1228" 
d="M1228 549l-89 -0.000976562v-549h-159v549h-178v-549h-159v205c-27.333 -10 -54.333 -15 -81 -15c-7.33301 0 -17.666 0.666992 -30.999 2v-14c0 -33.333 -9 -63.833 -27 -91.5s-43.833 -49.5 -77.5 -65.5s-72.834 -24 -117.501 -24c-66 0 -124.167 17.5 -174.5 52.5
s-95.166 79.833 -134.499 134.5l77 99c33.333 -46 70 -83.833 110 -113.5s78.667 -44.5 116 -44.5c21.333 0 38.166 6.5 50.499 19.5s18.5 30.833 18.5 53.5c0 32 -10 60.333 -30 85c-32.667 -8 -71.334 -13 -116.001 -15l-40 129c50.667 4 88.667 10 114 18
s41.666 18 48.999 30s11 27.333 11 46c0 20.667 -6.16699 37.834 -18.5 51.501s-30.5 20.5 -54.5 20.5c-35.333 0 -84.333 -25.333 -147 -76l-66 120c34.667 26 68.834 46.667 102.501 62s67.834 23 102.501 23c42 0 81.333 -8.66699 118 -26s66.167 -42.833 88.5 -76.5
s33.5 -74.167 33.5 -121.5c0 -53.333 -19.333 -96.333 -58 -129c35.333 -13.333 69 -20 101 -20c30 0 57 5.66699 81 17v213h-110v128h695v-128zM906.5 771.499c-45 29.667 -79.167 68.167 -102.5 115.5l102 70c39.333 -68 90.333 -102 153 -102s113.667 34 153 102l102 -70
c-25.333 -48.667 -60 -87.5 -104 -116.5s-94.333 -43.5 -151 -43.5s-107.5 14.833 -152.5 44.5z" />
    <glyph glyph-name="uni0912" unicode="&#x912;" horiz-adv-x="1228" 
d="M1228 549l-89.001 -0.00195312v-549h-159v549h-178v-549h-159v205c-27.333 -10 -54.333 -15 -81 -15c-7.33301 0 -17.666 0.666992 -30.999 2v-14c0 -33.333 -9 -63.833 -27 -91.5s-43.833 -49.5 -77.5 -65.5s-72.834 -24 -117.501 -24c-66 0 -124.167 17.5 -174.5 52.5
s-95.166 79.833 -134.499 134.5l77 99c33.333 -46 70 -83.833 110 -113.5s78.667 -44.5 116 -44.5c21.333 0 38.166 6.5 50.499 19.5s18.5 30.833 18.5 53.5c0 32 -10 60.333 -30 85c-32.667 -8 -71.334 -13 -116.001 -15l-40 129c50.667 4 88.667 10 114 18
s41.666 18 48.999 30s11 27.333 11 46c0 20.667 -6.16699 37.834 -18.5 51.501s-30.5 20.5 -54.5 20.5c-35.333 0 -84.333 -25.333 -147 -76l-66 120c34.667 26 68.834 46.667 102.501 62s67.834 23 102.501 23c42 0 81.333 -8.66699 118 -26s66.167 -42.833 88.5 -76.5
s33.5 -74.167 33.5 -121.5c0 -53.333 -19.333 -96.333 -58 -129c35.333 -13.333 69 -20 101 -20c30 0 57 5.66699 81 17v213h-110v128h455v3c0 19.333 -5.16699 35.833 -15.5 49.5s-28.166 20.5 -53.499 20.5c-24 0 -61.333 -2 -112 -6c-48 -4 -83 -6 -105 -6
c-54 0 -95.833 11.333 -125.5 34s-44.5 55 -44.5 97c0 21.333 4 43.833 12 67.5s18.333 44.167 31 61.5l143 -33c-18.667 -21.333 -28 -42.666 -28 -63.999c0 -22.667 11 -34 33 -34c20.667 0 53.667 2 99 6c44 4 76.333 6 97 6c73.333 0 129.5 -18.333 168.5 -55
s58.5 -85 58.5 -145v-2h82v-128z" />
    <glyph glyph-name="uni0913" unicode="&#x913;" horiz-adv-x="1228" 
d="M1228 549l-88.999 -0.000976562v-549h-159v549h-178v-549h-159v205c-27.333 -10 -54.333 -15 -81 -15c-7.33301 0 -17.666 0.666992 -30.999 2v-14c0 -33.333 -9 -63.833 -27 -91.5s-43.833 -49.5 -77.5 -65.5s-72.834 -24 -117.501 -24c-66 0 -124.167 17.5 -174.5 52.5
s-95.166 79.833 -134.499 134.5l77 99c33.333 -46 70 -83.833 110 -113.5s78.667 -44.5 116 -44.5c21.333 0 38.166 6.5 50.499 19.5s18.5 30.833 18.5 53.5c0 32 -10 60.333 -30 85c-32.667 -8 -71.334 -13 -116.001 -15l-40 129c50.667 4 88.667 10 114 18
s41.666 18 48.999 30s11 27.333 11 46c0 20.667 -6.16699 37.834 -18.5 51.501s-30.5 20.5 -54.5 20.5c-35.333 0 -84.333 -25.333 -147 -76l-66 120c34.667 26 68.834 46.667 102.501 62s67.834 23 102.501 23c42 0 81.333 -8.66699 118 -26s66.167 -42.833 88.5 -76.5
s33.5 -74.167 33.5 -121.5c0 -53.333 -19.333 -96.333 -58 -129c35.333 -13.333 69 -20 101 -20c30 0 57 5.66699 81 17v213h-110v128h434l-21 48c-20 46 -42.167 79.833 -66.5 101.5s-53.5 32.5 -87.5 32.5c-32.667 0 -64.334 -4 -95.001 -12l-27 120
c36 14.667 76.333 22 121 22c66 0 121.833 -19.667 167.5 -59s88.167 -102.333 127.5 -189l29 -64h113v-128z" />
    <glyph glyph-name="uni0914" unicode="&#x914;" horiz-adv-x="1228" 
d="M1228 549l-89 -0.000976562v-549h-159v549h-178v-549h-159v205c-27.333 -10 -54.333 -15 -81 -15c-7.33301 0 -17.666 0.666992 -30.999 2v-14c0 -33.333 -9 -63.833 -27 -91.5s-43.833 -49.5 -77.5 -65.5s-72.834 -24 -117.501 -24c-66 0 -124.167 17.5 -174.5 52.5
s-95.166 79.833 -134.499 134.5l77 99c33.333 -46 70 -83.833 110 -113.5s78.667 -44.5 116 -44.5c21.333 0 38.166 6.5 50.499 19.5s18.5 30.833 18.5 53.5c0 32 -10 60.333 -30 85c-32.667 -8 -71.334 -13 -116.001 -15l-40 129c50.667 4 88.667 10 114 18
s41.666 18 48.999 30s11 27.333 11 46c0 20.667 -6.16699 37.834 -18.5 51.501s-30.5 20.5 -54.5 20.5c-35.333 0 -84.333 -25.333 -147 -76l-66 120c34.667 26 68.834 46.667 102.501 62s67.834 23 102.501 23c42 0 81.333 -8.66699 118 -26s66.167 -42.833 88.5 -76.5
s33.5 -74.167 33.5 -121.5c0 -53.333 -19.333 -96.333 -58 -129c35.333 -13.333 69 -20 101 -20c30 0 57 5.66699 81 17v213h-110v128h390l-18 26c-14 20 -30.667 35.167 -50 45.5s-40.333 15.5 -63 15.5c-36 0 -71 -7.33301 -105 -22l-27 120c40 21.333 83.667 32 131 32
s92.666 -16.333 135.999 -49c-17.333 32.667 -32.166 57.5 -44.499 74.5s-25.5 29.167 -39.5 36.5s-31 11 -51 11c-25.333 0 -50.333 -4 -75 -12l-27 120c35.333 14.667 75.666 22 120.999 22c44.667 0 83.334 -11 116.001 -33s63.667 -58.167 93 -108.5
s61.333 -121.833 96 -214.5l24 -64h88v-128z" />
    <glyph glyph-name="uni0915" unicode="&#x915;" horiz-adv-x="884" 
d="M527 549l-0.000976562 -137.997c46 31.333 90.667 47 134 47c40.667 0 76 -8.83301 106 -26.5s53 -40.5 69 -68.5s24 -57 24 -87c0 -86.667 -32.333 -173.334 -97 -260.001l-151 83c27.333 38 49 72 65 102s24 57 24 81c0 14.667 -4.33301 26.167 -13 34.5
s-20.667 12.5 -36 12.5c-22 0 -43.167 -6.33301 -63.5 -19s-40.833 -30.334 -61.5 -53.001v-257h-159v136c-46 -30 -91.333 -45 -136 -45c-41.333 0 -77.666 8.66699 -108.999 26s-55.5 40.666 -72.5 69.999s-25.5 62 -25.5 98c0 35.333 8.16699 68.333 24.5 99
s39.5 55 69.5 73s64.667 27 104 27c30 0 57.5 -4.16699 82.5 -12.5s45.833 -18.833 62.5 -31.5v109h-388v128h904v-128h-357zM312.499 239.503c20.333 13 38.832 29.834 55.499 50.501v2c-15.333 19.333 -33.166 34.666 -53.499 45.999s-40.5 17 -60.5 17
s-36.667 -6.66699 -50 -20s-20 -30 -20 -50c0 -18.667 6.16699 -34.167 18.5 -46.5s28.833 -18.5 49.5 -18.5c20 0 40.167 6.5 60.5 19.5z" />
    <glyph glyph-name="uni0916" unicode="&#x916;" horiz-adv-x="936" 
d="M936 549h-88.999v-560h-159v65c-40.667 -27.333 -85 -48.5 -133 -63.5s-94 -22.5 -138 -22.5c-69.333 0 -132.333 17.667 -189 53s-101.334 85.5 -134.001 150.5s-49 139.833 -49 224.5l1 30l137 20l-1 -36c0 -11.333 0.666992 -27 2 -47c6 -4 13.667 -6 23 -6
c10 0 19.333 6 28 18s13 29.333 13 52c0 40 -14 80.667 -42 122h-226v128h956v-128zM688.001 549l-322.003 -0.000976562c27.333 -41.333 41 -87.333 41 -138c0 -40 -7.66699 -73.667 -23 -101s-35 -47.666 -59 -60.999s-48.667 -20 -74 -20c-14 0 -26.333 2 -37 6
c20 -47.333 48.167 -82.166 84.5 -104.499s75.833 -33.5 118.5 -33.5c46.667 0 93.334 8 140.001 24s90.334 39.667 131.001 71v20c-14 -10.667 -28.5 -18.5 -43.5 -23.5s-31.833 -7.5 -50.5 -7.5c-33.333 0 -62.666 7.33301 -87.999 22s-45 33.5 -59 56.5
s-21 47.167 -21 72.5c0 32.667 7.66699 61.667 23 87s35.833 45.166 61.5 59.499s53.167 21.5 82.5 21.5c37.333 0 69 -12 95 -36v85zM618.998 385.999c-14.667 0 -26.5 -4.33301 -35.5 -13s-13.5 -19.667 -13.5 -33c0 -14 4.33301 -25 13 -33s20.334 -12 35.001 -12
c25.333 0 48.666 14.667 69.999 44c-20 31.333 -43 47 -69 47z" />
    <glyph glyph-name="uni0917" unicode="&#x917;" horiz-adv-x="698" 
d="M698 549l-88.998 -0.00292969v-549h-158v549h-146v-279c0 -44 -10 -77.5 -30 -100.5s-49 -34.5 -87 -34.5c-24.667 0 -47.834 6.83301 -69.501 20.5s-38.834 32.334 -51.501 56.001s-19 49.834 -19 78.501c0 18.667 3 38.334 9 59.001h90v200h-167v128h718v-128z" />
    <glyph glyph-name="uni0918" unicode="&#x918;" horiz-adv-x="759" 
d="M759 549l-89 0.00195312v-549h-159v112c-50 -29.333 -102.667 -44 -158 -44c-43.333 0 -81.833 8.16699 -115.5 24.5s-60 39.666 -79 69.999s-28.5 66.166 -28.5 107.499c0 43.333 14.667 81.333 44 114c-82.667 40.667 -124 86 -124 136c0 7.33301 0.666992 17 2 29h-72
v128h779v-128zM511 549.002l-285.999 0.00195312c-8.66699 -18.667 -13 -35.334 -13 -50.001c0 -21.333 15 -40.333 45 -57c28.667 11.333 57.667 17 87 17c25.333 0 46 -3.66699 62 -11l-9 -124c-12 4 -24.333 6 -37 6c-20.667 0 -37.667 -6.5 -51 -19.5
s-20 -30.833 -20 -53.5c0 -18.667 6.16699 -33.334 18.5 -44.001s27.166 -16 44.499 -16c54.667 0 107.667 22.333 159 67v285z" />
    <glyph glyph-name="uni0919" unicode="&#x919;" horiz-adv-x="818" 
d="M572.5 264.5c19 -30.333 28.499 -61.5 28.499 -93.5c0 -57.333 -21.667 -102.666 -65 -135.999s-104.333 -50 -183 -50c-62.667 0 -121.334 10.667 -176.001 32s-103 51 -145 89l62 102c79.333 -63.333 161.333 -95 246 -95c34.667 0 60.334 4.83301 77.001 14.5
s25 20.834 25 33.501c0 12 -3.66699 23.667 -11 35c-41.333 -8 -81 -12 -119 -12c-52 0 -95.667 7.16699 -131 21.5s-61.666 33.666 -78.999 57.999s-26 51.166 -26 80.499c0 28 6.83301 53.5 20.5 76.5s33.5 41.333 59.5 55s57.333 20.5 94 20.5h116v53h-386v128h838v-128
h-294v-181h-249c-26.667 0 -40 -9 -40 -27c0 -9.33301 6 -16.333 18 -21s31 -7 57 -7c28.667 0 61.5 2 98.5 6s69.167 9.33301 96.5 16c26 -16.667 48.5 -40.167 67.5 -70.5zM794.499 394.5c19.667 -19.667 29.5 -43.167 29.5 -70.5s-9.83301 -50.833 -29.5 -70.5
s-43.167 -29.5 -70.5 -29.5s-50.833 9.83301 -70.5 29.5s-29.5 43.167 -29.5 70.5s9.83301 50.833 29.5 70.5s43.167 29.5 70.5 29.5s50.833 -9.83301 70.5 -29.5z" />
    <glyph glyph-name="uni091A" unicode="&#x91a;" horiz-adv-x="716" 
d="M716 549h-88.999v-549h-159v129c-54.667 -40.667 -113.667 -61 -177 -61c-42.667 0 -80 8 -112 24s-56.5 37.5 -73.5 64.5s-25.5 57.167 -25.5 90.5c0 36.667 11 70.667 33 102h-103v128h376v-118c-47.333 -6.66699 -83.666 -20.5 -108.999 -41.5s-38 -44.5 -38 -70.5
c0 -16 4.66699 -28.333 14 -37s21.666 -13 36.999 -13c24.667 0 52.667 7.16699 84 21.5s62.666 37.833 93.999 70.5v260h-488v128h736v-128z" />
    <glyph glyph-name="uni091B" unicode="&#x91b;" horiz-adv-x="846" 
d="M665 549v-87.999c29.333 -16.667 52.5 -39.667 69.5 -69s25.5 -63.666 25.5 -102.999s-9.66699 -77.333 -29 -114c28.667 -20.667 51 -43.334 67 -68.001s24 -53.667 24 -87c0 -74.667 -24.333 -150.334 -73 -227.001l-153 81c29.333 34 51.166 62.667 65.499 86
s21.5 46.666 21.5 69.999c0 13.333 -8.33301 28.333 -25 45c-42.667 -42 -92.5 -75.5 -149.5 -100.5s-114.5 -37.5 -172.5 -37.5c-73.333 0 -131.666 17.5 -174.999 52.5s-65 82.833 -65 143.5c0 33.333 9 63.666 27 90.999c-66 40.667 -99 84.334 -99 131.001
c0 27.333 7.33301 52.5 22 75.5s36.5 41.5 65.5 55.5s63.5 21 103.5 21c41.333 0 74.333 -5.33301 99 -16l-15 -128c-20 10 -42.333 15 -67 15c-15.333 0 -27.333 -3.66699 -36 -11s-13 -17.666 -13 -30.999c0 -12 7.66699 -25.667 23 -41c32 15.333 65 23 99 23
c25.333 0 46 -3.66699 62 -11l-9 -124c-10.667 4 -22.667 6 -36 6c-21.333 0 -37.833 -6.5 -49.5 -19.5s-17.5 -29.167 -17.5 -48.5c0 -17.333 6.66699 -30.833 20 -40.5s30 -14.5 50 -14.5c38 0 75 8 111 24s67.667 37.333 95 64c-48 28.667 -85.833 57.5 -113.5 86.5
s-41.5 63.167 -41.5 102.5c0 42 11.167 75.5 33.5 100.5s54.5 40.5 96.5 46.5v59h-526v128h866v-128h-181zM550 287.501c10 -11 24.667 -21.833 44 -32.5c4.66699 14 7 29 7 45c0 20 -3.5 35.5 -10.5 46.5s-15.5 16.5 -25.5 16.5c-8 0 -15 -3.66699 -21 -11s-9 -17 -9 -29
c0 -12.667 5 -24.5 15 -35.5z" />
    <glyph glyph-name="uni091C" unicode="&#x91c;" horiz-adv-x="809" 
d="M809 549l-88.999 0.00195312v-549h-159v339h-110c45.333 -44 68 -90 68 -138c0 -32 -7.83301 -60.333 -23.5 -85s-36.5 -43.667 -62.5 -57s-54 -20 -84 -20c-90.667 0 -162 32.167 -214 96.5s-92.333 158.5 -121 282.5l124 34
c16.667 -66.667 35.667 -121.334 57 -164.001s42.333 -73.5 63 -92.5s39 -28.5 55 -28.5c31.333 0 47 18 47 54c0 24 -9.33301 48.667 -28 74s-45.334 53.666 -80.001 84.999l38 87h271v82h-581v128h829v-128z" />
    <glyph glyph-name="uni091D" unicode="&#x91d;" horiz-adv-x="874" 
d="M874 549l-89.002 -0.00195312v-549h-159v168c-24 -8 -47.667 -12 -71 -12c-11.333 0 -19.666 0.333008 -24.999 1c-4 -50 -23.833 -92.167 -59.5 -126.5s-81.167 -56.166 -136.5 -65.499l97 -142l-143 -75l-94 219c-44.667 8.66699 -81 23 -109 43s-42 42.333 -42 67
c0 26 13.667 48 41 66s63.666 27.333 108.999 28l56 -82c3.33301 -0.666992 8 -1 14 -1c30.667 0 56.5 7.5 77.5 22.5s31.5 33.5 31.5 55.5c0 12 -3.33301 24.667 -10 38c-33.333 -10 -66.666 -15 -99.999 -15c-47.333 0 -87.166 7.5 -119.499 22.5s-56.5 34.833 -72.5 59.5
s-24 52.334 -24 83.001c0 44.667 13.667 82 41 112s65 45 113 45h96v38h-316v128h894v-128zM625.998 548.998h-172v-166h-229c-4.66699 0 -9.16699 -3 -13.5 -9s-6.5 -13.667 -6.5 -23c0 -22 18.333 -33 55 -33c25.333 0 54.666 3 87.999 9s62.333 13.667 87 23
c22.667 -16 41.334 -35 56.001 -57c22.667 -5.33301 44 -8 64 -8c28 0 51.667 4.33301 71 13v251z" />
    <glyph glyph-name="uni091E" unicode="&#x91e;" horiz-adv-x="855" 
d="M855 549l-88.9971 0.000976562v-549h-159v228c-22.667 -6 -43.334 -9 -62.001 -9c-9.33301 0 -21 1 -35 3c-16.667 -34.667 -43.334 -62.334 -80.001 -83.001s-78.334 -31 -125.001 -31c-56.667 0 -109.5 18.333 -158.5 55s-97.5 94.667 -145.5 174l93 60
c35.333 -56 68.333 -96.667 99 -122s63.667 -38 99 -38c23.333 0 41.833 5.66699 55.5 17s20.5 25 20.5 41c0 18 -4.83301 32.5 -14.5 43.5s-24.167 16.5 -43.5 16.5c-11.333 0 -20.833 -1.83301 -28.5 -5.5s-17.167 -9.5 -28.5 -17.5l-87 95c24 18 48.333 32 73 42
s52.334 15 83.001 15c46 0 87.5 -11.667 124.5 -35s61.5 -56.333 73.5 -99c13.333 -1.33301 21.666 -2 24.999 -2c23.333 0 44 3 62 9v192h-627v128h875v-128z" />
    <glyph glyph-name="uni091F" unicode="&#x91f;" horiz-adv-x="645" 
d="M287 318c-44 -20.667 -66 -48.999 -66 -84.999c0 -31.333 12.5 -55.166 37.5 -71.499s55.167 -24.5 90.5 -24.5c40 0 76.333 5.66699 109 17s64.667 27.666 96 48.999l58 -115c-42 -27.333 -84 -47.333 -126 -60s-90 -19 -144 -19c-52.667 0 -100 9.16699 -142 27.5
s-75 44.5 -99 78.5s-36 73.333 -36 118c0 66 22.333 119 67 159s114.667 67.333 210 82v75h-362v128h665v-128h-145v-190c-98 -6.66699 -169 -20.334 -213 -41.001z" />
    <glyph glyph-name="uni0920" unicode="&#x920;" horiz-adv-x="694" 
d="M694 549h-194c2.66699 -13.333 4 -24 4 -32c0 -21.333 -3.66699 -42.333 -11 -63c90.667 -64 136 -133.667 136 -209c0 -44.667 -12.833 -85 -38.5 -121s-60.5 -64.167 -104.5 -84.5s-92 -30.5 -144 -30.5c-52.667 0 -100 9.16699 -142 27.5s-75 44.5 -99 78.5
s-36 73.333 -36 118c0 65.333 22.167 118 66.5 158s113.5 67.667 207.5 83c4.66699 15.333 7 29.333 7 42c0 10.667 -1.66699 21.667 -5 33h-361v128h714v-128zM405.5 150.5c19.667 9 35.833 21.666 48.5 37.999s19 35.166 19 56.499c0 23.333 -4.66699 43 -14 59
s-23 31.667 -41 47c-68.667 -9.33301 -118.667 -23.666 -150 -42.999s-47 -44.333 -47 -75c0 -31.333 12 -55.166 36 -71.499s53 -24.5 87 -24.5c21.333 0 41.833 4.5 61.5 13.5z" />
    <glyph glyph-name="uni0921" unicode="&#x921;" horiz-adv-x="630" 
d="M235 341c0 -9.33301 5.99902 -16.333 17.999 -21s31 -7 57 -7c28.667 0 61.5 2 98.5 6s69.167 9.33301 96.5 16c26 -16.667 48.5 -40.167 67.5 -70.5s28.5 -61.5 28.5 -93.5c0 -57.333 -21.667 -102.666 -65 -135.999s-104.333 -50 -183 -50
c-62.667 0 -121.334 10.667 -176.001 32s-103 51 -145 89l62 102c79.333 -63.333 161.333 -95 246 -95c34.667 0 60.334 4.83301 77.001 14.5s25 20.834 25 33.501c0 12 -3.66699 23.667 -11 35c-41.333 -8 -81 -12 -119 -12c-52 0 -95.667 7.16699 -131 21.5
s-61.666 33.666 -78.999 57.999s-26 51.166 -26 80.499c0 28 6.83301 53.5 20.5 76.5s33.5 41.333 59.5 55s57.333 20.5 94 20.5h116v53h-386v128h650v-128h-106v-181h-249c-26.667 0 -40 -9 -40 -27z" />
    <glyph glyph-name="uni0922" unicode="&#x922;" horiz-adv-x="635" 
d="M237 334c-18.667 -19.333 -27.9961 -46.332 -27.9961 -80.999c0 -30 5.16699 -57.5 15.5 -82.5s24.166 -45.5 41.499 -61.5c-7.33301 16.667 -11 34.334 -11 53.001c0 25.333 7.16699 48.166 21.5 68.499s33.166 36 56.499 47s48.666 16.5 75.999 16.5
c31.333 0 60.333 -7 87 -21s47.834 -33.333 63.501 -58s23.5 -52.334 23.5 -83.001c0 -38.667 -10 -72 -30 -100s-45.667 -49 -77 -63s-63.333 -21 -96 -21c-56.667 0 -110.334 13.333 -161.001 40s-91.5 64 -122.5 112s-46.5 102 -46.5 162c0 68 20.5 123.167 61.5 165.5
s101.833 63.5 182.5 63.5h52v58h-366v128h655v-128h-131v-186h-181c-38.667 0 -67.334 -9.66699 -86.001 -29zM393.504 163.001c-6.33301 -8 -9.5 -18.3311 -9.5 -30.998c0 -19.333 4.33301 -37.333 13 -54c18 4.66699 32 12.167 42 22.5s15 22.166 15 35.499
c0 11.333 -3.33301 20.666 -10 27.999s-15 11 -25 11c-10.667 0 -19.167 -4 -25.5 -12z" />
    <glyph glyph-name="uni0923" unicode="&#x923;" horiz-adv-x="809" 
d="M809 549h-88.998v-549h-159v549h-76v-221c0 -60 -18.333 -106.333 -55 -139s-88.334 -49 -155.001 -49s-118.334 16.333 -155.001 49s-55 79 -55 139v221h-85v128h829v-128zM326.002 549h-102v-221c0 -39.333 17 -59 51 -59s51 19.667 51 59v221z" />
    <glyph glyph-name="uni0924" unicode="&#x924;" horiz-adv-x="657" 
d="M657 549h-89.001v-549h-159v338h-133c-22 0 -39.833 -6.5 -53.5 -19.5s-20.5 -30.5 -20.5 -52.5c0 -36.667 10.667 -72.167 32 -106.5s53.333 -72.833 96 -115.5l-98 -84c-51.333 42.667 -95.666 95 -132.999 157s-56 122 -56 180c0 51.333 17.333 92.333 52 123
s88 46 160 46h154v83h-429v128h677v-128z" />
    <glyph glyph-name="uni0925" unicode="&#x925;" horiz-adv-x="740" 
d="M740 549h-89v-549h-159v139c-20.667 -14 -43.667 -24.667 -69 -32s-51.666 -11 -78.999 -11c-71.333 0 -131 21.667 -179 65s-81.667 104.333 -101 183c33.333 10.667 63 22.667 89 36c-36.667 20 -64.834 44.5 -84.501 73.5s-29.5 61.167 -29.5 96.5
c0 44.667 16.333 80.334 49 107.001s74.334 40 125.001 40c36 0 69.5 -6.83301 100.5 -20.5s56.167 -34.834 75.5 -63.501s29 -63.667 29 -105c0 -46 -14.833 -88.667 -44.5 -128s-72.834 -72.666 -129.501 -99.999c18.667 -36.667 52 -55 100 -55
c26 0 51.833 5.66699 77.5 17s49.167 27.666 70.5 48.999v258h-48v128h296v-128zM207 560.5c-6 -5.66699 -9 -14.5 -9 -26.5c0 -26 15.667 -48.667 47 -68c9.33301 18 14 37.667 14 59c0 13.333 -2.66699 24 -8 32s-13 12 -23 12c-8 0 -15 -2.83301 -21 -8.5z" />
    <glyph glyph-name="uni0926" unicode="&#x926;" horiz-adv-x="645" 
d="M246 341c-16.667 -14.667 -25 -33.998 -25 -57.998c0 -23.333 6 -43.333 18 -60s27.5 -29.334 46.5 -38.001s38.5 -13 58.5 -13h12l-29 69c13.333 19.333 29.833 34.666 49.5 45.999s40.167 17 61.5 17c33.333 0 60 -10.167 80 -30.5s30 -45.833 30 -76.5
c0 -32.667 -10.667 -60.667 -32 -84l101 -141l-143 -75l-66 154c-24.667 -4.66699 -46.667 -7 -66 -7c-46.667 0 -91.167 9.66699 -133.5 29s-76.833 47 -103.5 83s-40 78.333 -40 127c0 64 19 114.667 57 152s95 56 171 56h49v58h-362v128h665v-128h-145v-186h-178
c-34 0 -59.333 -7.33301 -76 -22z" />
    <glyph glyph-name="uni0927" unicode="&#x927;" horiz-adv-x="733" 
d="M733 549l-88.998 0.00292969v-549h-159v112c-50 -29.333 -102.667 -44 -158 -44c-43.333 0 -81.833 8.16699 -115.5 24.5s-60 39.666 -79 69.999s-28.5 66.166 -28.5 107.499c0 45.333 15.667 84.666 47 117.999c-74.667 50 -112 105 -112 165
c0 26.667 7.16699 51.667 21.5 75s34.5 42 60.5 56s55.667 21 89 21s60.5 -3.16699 81.5 -9.5s41.5 -14.833 61.5 -25.5l-39 -119c-26 16.667 -50.667 25 -74 25c-12.667 0 -22.834 -3.66699 -30.501 -11s-11.5 -17.666 -11.5 -30.999c0 -12 4.5 -25.5 13.5 -40.5
s22.5 -29.833 40.5 -44.5c20 6.66699 42 10 66 10c25.333 0 46 -3.66699 62 -11l-9 -124c-12 4 -24.333 6 -37 6c-20.667 0 -37.667 -6.5 -51 -19.5s-20 -30.833 -20 -53.5c0 -18.667 6.16699 -33.334 18.5 -44.001s27.166 -16 44.499 -16c54.667 0 107.667 22.333 159 67
v285h-88v128h336v-128z" />
    <glyph glyph-name="uni0928" unicode="&#x928;" horiz-adv-x="658" 
d="M658 549h-88.999v-549h-158v278h-172v-90c-20.667 -6.66699 -41.667 -10 -63 -10c-26.667 0 -50.834 5.16699 -72.501 15.5s-38.5 24.5 -50.5 42.5s-18 37.333 -18 58c0 36 10.833 63.667 32.5 83s52.5 29 92.5 29h251v143h-431v128h678v-128z" />
    <glyph glyph-name="uni0929" unicode="&#x929;" horiz-adv-x="658" 
d="M658 549h-88.999v-549h-158v278h-172v-90c-20.667 -6.66699 -41.667 -10 -63 -10c-26.667 0 -50.834 5.16699 -72.501 15.5s-38.5 24.5 -50.5 42.5s-18 37.333 -18 58c0 36 10.833 63.667 32.5 83s52.5 29 92.5 29h251v143h-431v128h678v-128zM142.501 70.5
c19.667 19.667 43.167 29.5 70.5 29.5s50.833 -9.83301 70.5 -29.5s29.5 -43.167 29.5 -70.5s-9.83301 -50.833 -29.5 -70.5s-43.167 -29.5 -70.5 -29.5s-50.833 9.83301 -70.5 29.5s-29.5 43.167 -29.5 70.5s9.83301 50.833 29.5 70.5z" />
    <glyph glyph-name="uni092A" unicode="&#x92a;" horiz-adv-x="626" 
d="M626 549l-89 0.000976562v-549h-159v171c-35.333 -18.667 -71.666 -28 -108.999 -28c-66.667 0 -117.334 17.167 -152.001 51.5s-52 86.166 -52 155.499v199h-85v128h646v-128zM378 549.001h-154v-205c0 -48 19.333 -72 58 -72c34.667 0 66.667 10 96 30v247z" />
    <glyph glyph-name="uni092B" unicode="&#x92b;" horiz-adv-x="894" 
d="M537 411c46 31.333 90.667 47.002 134 47.002c40.667 0 76 -8.83301 106 -26.5s53 -40.5 69 -68.5s24 -57 24 -87c0 -86.667 -32.333 -173.334 -97 -260.001l-151 83c27.333 38 49 72 65 102s24 57 24 81c0 14.667 -4.33301 26.167 -13 34.5s-20.667 12.5 -36 12.5
c-31.333 0 -73 -20 -125 -60v-269h-159v171c-35.333 -18.667 -71.666 -28 -108.999 -28c-66.667 0 -117.334 17.167 -152.001 51.5s-52 86.166 -52 155.499v199h-85v128h914v-128h-357v-138zM378 302.002v247h-154v-205c0 -48 19.333 -72 58 -72c34.667 0 66.667 10 96 30z
" />
    <glyph glyph-name="uni092C" unicode="&#x92c;" horiz-adv-x="653" 
d="M666 549l-89.001 -0.000976562v-549h-159v130c-55.333 -38.667 -110.333 -58 -165 -58c-47.333 0 -88.166 9.33301 -122.499 28s-60.5 43.834 -78.5 75.501s-27 67.167 -27 106.5c0 40 9 76.667 27 110s44.667 59.833 80 79.5s77 29.5 125 29.5
c31.333 0 61 -5.83301 89 -17.5s52 -26.5 72 -44.5v110h-438v128h686v-128zM417.999 288.999v1c-44.667 54.667 -92.667 82 -144 82l88 -134c21.333 16 40 33 56 51zM204.499 224.499c13.667 -15.667 32.833 -23.5 57.5 -23.5c16 0 32 3 48 9l-94 143
c-21.333 -16 -32 -39 -32 -69c0 -24 6.83301 -43.833 20.5 -59.5z" />
    <glyph glyph-name="uni092D" unicode="&#x92d;" horiz-adv-x="828" 
d="M828 549l-88.999 -0.00195312v-549h-159v190h-161v-73c-28 -9.33301 -55.667 -14 -83 -14c-30 0 -56.667 5.5 -80 16.5s-41.5 25.667 -54.5 44s-19.5 37.833 -19.5 58.5c0 22.667 7.16699 43 21.5 61s33.166 29.333 56.499 34v24c-74 16.667 -129.333 44.334 -166 83.001
s-55 80.667 -55 126c0 46.667 17.167 82.834 51.5 108.501s80.5 38.5 138.5 38.5c126.667 0 190 -66 190 -198v-181h161v231h-102v128h350v-128zM214.001 492.498c10.667 -13 26 -24.833 46 -35.5v64c0 32 -10.333 48 -31 48c-10 0 -17.667 -3.16699 -23 -9.5
s-8 -14.833 -8 -25.5c0 -14.667 5.33301 -28.5 16 -41.5z" />
    <glyph glyph-name="uni092E" unicode="&#x92e;" horiz-adv-x="690" 
d="M690 549h-88.999v-549h-159v210h-171v-73c-28 -9.33301 -55.667 -14 -83 -14c-30 0 -56.667 5.5 -80 16.5s-41.5 25.667 -54.5 44s-19.5 37.833 -19.5 58.5c0 22.667 7.16699 43 21.5 61s33.166 29.333 56.499 34v212h-132v128h710v-128zM442.001 549h-171v-211h171v211z
" />
    <glyph glyph-name="uni092F" unicode="&#x92f;" horiz-adv-x="672" 
d="M672 549l-89.001 -0.000976562v-549h-159v139c-20.667 -14 -43.667 -24.667 -69 -32s-51.666 -11 -78.999 -11c-69.333 0 -128.333 22.833 -177 68.5s-80 109.5 -94 191.5c56 16 96 32 120 48s36 34.667 36 56c0 32.667 -15.333 62.334 -46 89.001h-135v128h692v-128z
M423.999 548.999h-141c22 -27.333 33 -57.666 33 -90.999c0 -34 -11.5 -66.667 -34.5 -98s-56.833 -58 -101.5 -80c22.667 -36.667 54.667 -55 96 -55c26 0 51.833 5.66699 77.5 17s49.167 27.666 70.5 48.999v258z" />
    <glyph glyph-name="uni0930" unicode="&#x930;" horiz-adv-x="476" 
d="M476 549l-110.002 -0.00195312c27.333 -42 41 -88 41 -138c0 -40 -8.16699 -73.667 -24.5 -101s-37.166 -47.666 -62.499 -60.999s-51.666 -20 -78.999 -20c-11.333 0 -22 1 -32 3c12.667 -18.667 28 -36.667 46 -54l140 -133l-92 -92l-107 100
c-48.667 46 -85 88.167 -109 126.5s-39.833 75.5 -47.5 111.5s-12.834 81 -15.501 135l139 20c0.666992 -30.667 2.66699 -58 6 -82c8 -4.66699 17.333 -7 28 -7c12.667 0 24.334 6 35.001 18s16 29.333 16 52c0 40.667 -14 81.334 -42 122.001h-226v128h496v-128z" />
    <glyph glyph-name="uni0931" unicode="&#x931;" horiz-adv-x="476" 
d="M476 549l-110.002 -0.00195312c27.333 -42 41 -88 41 -138c0 -40 -8.16699 -73.667 -24.5 -101s-37.166 -47.666 -62.499 -60.999s-51.666 -20 -78.999 -20c-11.333 0 -22 1 -32 3c12.667 -18.667 28 -36.667 46 -54l140 -133l-92 -92l-107 100
c-48.667 46 -85 88.167 -109 126.5s-39.833 75.5 -47.5 111.5s-12.834 81 -15.501 135l139 20c0.666992 -30.667 2.66699 -58 6 -82c8 -4.66699 17.333 -7 28 -7c12.667 0 24.334 6 35.001 18s16 29.333 16 52c0 40.667 -14 81.334 -42 122.001h-226v128h496v-128z
M29.498 -8.50195c19.667 19.667 43.167 29.5 70.5 29.5s50.833 -9.83301 70.5 -29.5s29.5 -43.167 29.5 -70.5s-9.83301 -50.833 -29.5 -70.5s-43.167 -29.5 -70.5 -29.5s-50.833 9.83301 -70.5 29.5s-29.5 43.167 -29.5 70.5s9.83301 50.833 29.5 70.5z" />
    <glyph glyph-name="uni0932" unicode="&#x932;" horiz-adv-x="847" 
d="M847 549l-89.001 0.00195312v-549h-159v330c-7.33301 2 -14.333 3 -21 3c-25.333 0 -48 -15.5 -68 -46.5s-36 -73.167 -48 -126.5l-159 29c8 48.667 21.667 92 41 130c-22.667 20.667 -47.667 31 -75 31c-19.333 0 -36.5 -7 -51.5 -21s-22.5 -33.667 -22.5 -59
c0 -40.667 11.833 -78.834 35.5 -114.501s61.834 -77.167 114.501 -124.5l-90 -91c-66 53.333 -119 110.166 -159 170.499s-60 118.833 -60 175.5c0 61.333 19.833 109 59.5 143s90.834 51 153.501 51c33.333 0 63.5 -7.16699 90.5 -21.5s49.5 -32.5 67.5 -54.5
c21.333 19.333 44.666 34 69.999 44s51.333 15 78 15c12 0 26.667 -1.33301 44 -4v90h-619v128h867v-128z" />
    <glyph glyph-name="uni0933" unicode="&#x933;" horiz-adv-x="789" 
d="M652 549l0.000976562 -57c38 -16.667 68 -42.5 90 -77.5s33 -76.833 33 -125.5c0 -44 -9.5 -82.5 -28.5 -115.5s-44.333 -58.333 -76 -76s-65.5 -26.5 -101.5 -26.5c-38 0 -69.333 7.5 -94 22.5s-46.667 35.5 -66 61.5c-44 -55.333 -97.333 -83 -160 -83
c-40.667 0 -77.334 8.83301 -110.001 26.5s-58.5 43 -77.5 76s-28.5 71.833 -28.5 116.5c0 45.333 9 84.5 27 117.5s42.667 58.333 74 76s66.333 26.5 105 26.5s70.167 -7.66699 94.5 -23s46.5 -36 66.5 -62c27.333 34.667 58.333 58.667 93 72v51h-513v128h809v-128h-137z
M289.501 224c11.667 15.333 23.166 37.001 34.499 65.001l12 29c-11.333 19.333 -24 34.833 -38 46.5s-31 17.5 -51 17.5c-15.333 0 -28.333 -8.5 -39 -25.5s-16 -38.833 -16 -65.5s5.33301 -48.334 16 -65.001s23.667 -25 39 -25c16.667 0 30.834 7.66699 42.501 23z
M600 225.001c10.667 16.667 16 38.001 16 64.001c0 26.667 -5.33301 48.667 -16 66s-23.667 26 -39 26c-16 0 -30 -7.83301 -42 -23.5s-23.667 -37.834 -35 -66.501l-12 -29c10.667 -18.667 23 -33.667 37 -45s31.333 -17 52 -17c15.333 0 28.333 8.33301 39 25z" />
    <glyph glyph-name="uni0934" unicode="&#x934;" horiz-adv-x="789" 
d="M652 549l0.000976562 -57c38 -16.667 68 -42.5 90 -77.5s33 -76.833 33 -125.5c0 -44 -9.5 -82.5 -28.5 -115.5s-44.333 -58.333 -76 -76s-65.5 -26.5 -101.5 -26.5c-38 0 -69.333 7.5 -94 22.5s-46.667 35.5 -66 61.5c-44 -55.333 -97.333 -83 -160 -83
c-40.667 0 -77.334 8.83301 -110.001 26.5s-58.5 43 -77.5 76s-28.5 71.833 -28.5 116.5c0 45.333 9 84.5 27 117.5s42.667 58.333 74 76s66.333 26.5 105 26.5s70.167 -7.66699 94.5 -23s46.5 -36 66.5 -62c27.333 34.667 58.333 58.667 93 72v51h-513v128h809v-128h-137z
M289.501 224c11.667 15.333 23.166 37.001 34.499 65.001l12 29c-11.333 19.333 -24 34.833 -38 46.5s-31 17.5 -51 17.5c-15.333 0 -28.333 -8.5 -39 -25.5s-16 -38.833 -16 -65.5s5.33301 -48.334 16 -65.001s23.667 -25 39 -25c16.667 0 30.834 7.66699 42.501 23z
M600 225.001c10.667 16.667 16 38.001 16 64.001c0 26.667 -5.33301 48.667 -16 66s-23.667 26 -39 26c-16 0 -30 -7.83301 -42 -23.5s-23.667 -37.834 -35 -66.501l-12 -29c10.667 -18.667 23 -33.667 37 -45s31.333 -17 52 -17c15.333 0 28.333 8.33301 39 25z
M338.5 10.502c19.667 19.667 43.167 29.5 70.5 29.5s50.833 -9.83301 70.5 -29.5s29.5 -43.167 29.5 -70.5s-9.83301 -50.833 -29.5 -70.5s-43.167 -29.5 -70.5 -29.5s-50.833 9.83301 -70.5 29.5s-29.5 43.167 -29.5 70.5s9.83301 50.833 29.5 70.5z" />
    <glyph glyph-name="uni0935" unicode="&#x935;" horiz-adv-x="666" 
d="M666 549l-89.001 -0.000976562v-549h-159v130c-55.333 -38.667 -110.333 -58 -165 -58c-47.333 0 -88.166 9.33301 -122.499 28s-60.5 43.834 -78.5 75.501s-27 67.167 -27 106.5c0 40 9 76.667 27 110s44.667 59.833 80 79.5s77 29.5 125 29.5
c31.333 0 61 -5.83301 89 -17.5s52 -26.5 72 -44.5v110h-438v128h686v-128zM341.999 225.499c28 16.333 53.334 37.5 76.001 63.5v1c-20.667 25.333 -43.334 45.333 -68.001 60s-50.334 22 -77.001 22c-27.333 0 -49 -8.5 -65 -25.5s-24 -37.833 -24 -62.5
c0 -24 6.83301 -43.833 20.5 -59.5s32.834 -23.5 57.501 -23.5c25.333 0 52 8.16699 80 24.5z" />
    <glyph glyph-name="uni0936" unicode="&#x936;" horiz-adv-x="843" 
d="M843 549l-89 0.000976562v-549h-159v549h-113c14 -30.667 21 -66.334 21 -107.001c0 -37.333 -9.66699 -74.666 -29 -111.999s-44.5 -71 -75.5 -101s-63.167 -54 -96.5 -72l115 -163l-143 -75l-94 214c-43.333 4.66699 -79.333 16.834 -108 36.501s-43 42.5 -43 68.5
c0 28.667 13.5 51.5 40.5 68.5s63.5 25.5 109.5 25.5l43 -61c20 9.33301 39 23.666 57 42.999c-53.333 22 -94.833 50.167 -124.5 84.5s-44.5 72.166 -44.5 113.499c0 14.667 1.33301 27 4 37h-134v128h863v-128zM333 525.001c-6.66699 16 -17 23.998 -31 23.998
c-8.66699 0 -16.167 -4 -22.5 -12s-9.5 -19.667 -9.5 -35c0 -16 6.16699 -31.167 18.5 -45.5s28.833 -27.166 49.5 -38.499c3.33301 16.667 5 31.334 5 44.001c0 26 -3.33301 47 -10 63z" />
    <glyph glyph-name="uni0937" unicode="&#x937;" horiz-adv-x="646" 
d="M646 549h-88.999v-549h-159v133c-38.667 -20 -78.334 -30 -119.001 -30c-70 0 -123.167 18.167 -159.5 54.5s-54.5 90.5 -54.5 162.5v229h-85v128h666v-128zM398.001 549h-171l171 -184v184zM292.001 232c18.667 0 36 3 52 9s33 14.333 51 25l-171 183v-135
c0 -54.667 22.667 -82 68 -82z" />
    <glyph glyph-name="uni0938" unicode="&#x938;" horiz-adv-x="797" 
d="M797 549l-88.999 -0.000976562v-549h-159v189c-26 -10.667 -53.667 -16 -83 -16c-34 0 -64.833 5.16699 -92.5 15.5s-53.834 26.833 -78.501 49.5c-18 -6 -36 -9 -54 -9c-11.333 0 -22 1 -32 3c12.667 -18.667 28 -36.667 46 -54l140 -133l-92 -92l-107 100
c-48.667 46 -85 88.167 -109 126.5s-39.833 75.5 -47.5 111.5s-12.834 81 -15.501 135l139 20c0.666992 -30.667 2.66699 -58 6 -82c8 -4.66699 17.333 -7 28 -7c12.667 0 24.334 6 35.001 18s16 29.333 16 52c0 40.667 -14 81.334 -42 122.001h-226v128h817v-128z
M549.001 548.999h-183.001c27.333 -42 41 -88 41 -138c0 -34 -6.66699 -65 -20 -93c24 -10.667 50.333 -16 79 -16c32.667 0 60.334 6 83.001 18v229z" />
    <glyph glyph-name="uni0939" unicode="&#x939;" horiz-adv-x="617" 
d="M232 361.5c-6.66699 -4.33301 -9.99902 -11.502 -9.99902 -21.502c0 -12.667 5 -24 15 -34c34 12 71.333 18 112 18c44 0 82.667 -8.33301 116 -25s59 -39.167 77 -67.5s27 -59.5 27 -93.5c0 -35.333 -13.667 -72 -41 -110l-136 62c12.667 18.667 19 36 19 52
c0 15.333 -5.66699 28.166 -17 38.499s-26.333 15.5 -45 15.5c-26.667 0 -48.334 -7.16699 -65.001 -21.5s-25 -33.166 -25 -56.499c0 -16 6.66699 -33.167 20 -51.5s36.333 -34.166 69 -47.499s75.667 -20 129 -20l-30 -123c-71.333 0 -133 10.833 -185 32.5
s-91.833 52 -119.5 91s-41.5 83.833 -41.5 134.5c0 33.333 10.667 65.333 32 96c-46 36.667 -69 81.334 -69 134.001c0 88 48 132 144 132h146v53h-374v128h637v-128h-105v-181h-244c-17.333 0 -29.333 -2.16699 -36 -6.5z" />
    <glyph glyph-name="uni093A" unicode="&#x93a;" horiz-adv-x="0" 
d="M-248 941h159v-289h-159v289z" />
    <glyph glyph-name="uni093B" unicode="&#x93b;" horiz-adv-x="337" 
d="M337 549h-89v-549h-159v549h-109v128h113v264h159v-264h85v-128z" />
    <glyph glyph-name="uni093C" unicode="&#x93c;" horiz-adv-x="0" 
d="M-70.5 -57.5c19.667 19.667 43.167 29.5 70.5 29.5s50.833 -9.83301 70.5 -29.5s29.5 -43.167 29.5 -70.5s-9.83301 -50.833 -29.5 -70.5s-43.167 -29.5 -70.5 -29.5s-50.833 9.83301 -70.5 29.5s-29.5 43.167 -29.5 70.5s9.83301 50.833 29.5 70.5z" />
    <glyph glyph-name="uni093D" unicode="&#x93d;" horiz-adv-x="610" 
d="M153 26.5c-43.333 27 -81.6689 67.166 -115.002 120.499l96 83c56.667 -77.333 105.667 -116 147 -116c44 0 66 20.667 66 62c0 18 -7.16699 36.833 -21.5 56.5s-35.833 43.834 -64.5 72.501l-53 54c-34 34 -59.167 64.5 -75.5 91.5s-24.5 56.833 -24.5 89.5
c0 40.667 13 73.667 39 99s62.333 38 109 38h282v-128h-232c-11.333 0 -20.666 -1.66699 -27.999 -5s-11 -8.66602 -11 -15.999c0 -9.33301 4.5 -19.833 13.5 -31.5s24.833 -29.167 47.5 -52.5l50 -51c36.667 -37.333 67.167 -74 91.5 -110s36.5 -71.667 36.5 -107
c0 -38.667 -9 -72.334 -27 -101.001s-42.5 -50.667 -73.5 -66s-65.833 -23 -104.5 -23c-55.333 0 -104.666 13.5 -147.999 40.5z" />
    <glyph glyph-name="uni093E" unicode="&#x93e;" horiz-adv-x="337" 
d="M337 549h-89v-549h-159v549h-109v128h357v-128z" />
    <glyph glyph-name="uni093F" unicode="&#x93f;" horiz-adv-x="337" 
d="M209.5 863c-19.667 -16.667 -29.5029 -40.002 -29.5029 -70.002c0 -40 11 -78.667 33 -116h124v-128h-89v-549h-159v549h-109v128h95c-36 53.333 -54 103 -54 149c0 37.333 9.83301 70.833 29.5 100.5s47.334 52.834 83.001 69.501s76.167 25 121.5 25
c67.333 0 133.833 -13.333 199.5 -40s122.834 -56.667 171.501 -90s98.334 -70.666 149.001 -111.999l-71 -83c-68.667 54 -140.167 99.5 -214.5 136.5s-142.833 55.5 -205.5 55.5c-30 0 -54.833 -8.33301 -74.5 -25z" />
    <glyph glyph-name="uni0940" unicode="&#x940;" horiz-adv-x="337" 
d="M337 549h-88.999v-549h-159v549h-109v128h97c-28 68 -53.667 118.667 -77 152s-51 50 -83 50c-21.333 0 -38.666 -6.16699 -51.999 -18.5s-20 -27.833 -20 -46.5c0 -24 10.667 -50 32 -78l-88 -40c-25.333 18.667 -47.333 41.834 -66 69.501s-28 57.5 -28 89.5
c0 29.333 8.16699 55.666 24.5 78.999s38.5 41.5 66.5 54.5s59 19.5 93 19.5c57.333 0 106.666 -14.833 147.999 -44.5s76.166 -68 104.499 -115s55.833 -104.167 82.5 -171.5h123v-128z" />
    <glyph glyph-name="uni0941" unicode="&#x941;" horiz-adv-x="0" 
d="M-457 -190l76.998 93.9971c38.667 -36.667 73.834 -65 105.501 -85s66.834 -30 105.501 -30c18 0 33.333 4.33301 46 13s19 20 19 34s-6.16699 25.167 -18.5 33.5s-27.833 12.5 -46.5 12.5c-32.667 0 -66 -7.33301 -100 -22l-43 116c44 23.333 91.667 35 143 35
c42.667 0 81 -7.16699 115 -21.5s60.667 -34.666 80 -60.999s29 -57.166 29 -92.499s-9.5 -66.166 -28.5 -92.499s-45.5 -46.833 -79.5 -61.5s-72.667 -22 -116 -22c-98.667 0 -194.667 50 -288 150z" />
    <glyph glyph-name="uni0942" unicode="&#x942;" horiz-adv-x="0" 
d="M117 -139l-76.9971 -93.9971c-38.667 36.667 -73.834 65 -105.501 85s-66.834 30 -105.501 30c-18 0 -33.333 -4.33301 -46 -13s-19 -20 -19 -34s6.16699 -25.167 18.5 -33.5s27.833 -12.5 46.5 -12.5c32.667 0 66 7.33301 100 22l43 -116
c-44.667 -23.333 -92.334 -35 -143.001 -35c-42.667 0 -81 7.16699 -115 21.5s-60.667 34.666 -80 60.999s-29 57.166 -29 92.499s9.5 66.166 28.5 92.499s45.5 46.833 79.5 61.5s72.667 22 116 22c98.667 0 194.667 -50 288 -150z" />
    <glyph glyph-name="uni0943" unicode="&#x943;" horiz-adv-x="0" 
d="M-223.5 -274.5c-29.667 14.333 -52.668 33.8311 -69.001 58.498s-24.5 52.334 -24.5 83.001c0 41.333 16 79.333 48 114s80.333 64.334 145 89.001l58 -115c-40 -10 -69.333 -22.5 -88 -37.5s-28 -30.833 -28 -47.5c0 -12.667 5.16699 -22.167 15.5 -28.5
s24.833 -9.5 43.5 -9.5c16.667 0 34.834 2.83301 54.501 8.5s35.5 13.167 47.5 22.5l54 -111c-19.333 -14 -42.166 -25.5 -68.499 -34.5s-54.833 -13.5 -85.5 -13.5c-38.667 0 -72.834 7.16699 -102.501 21.5z" />
    <glyph glyph-name="uni0944" unicode="&#x944;" horiz-adv-x="0" 
d="M131 -449c-19.333 -14 -42.1689 -25.5 -68.502 -34.5s-54.833 -13.5 -85.5 -13.5c-38.667 0 -72.834 7.16699 -102.501 21.5s-52.667 33.833 -69 58.5s-24.5 52.334 -24.5 83.001c0 19.333 3.33301 37 10 53c-34 12.667 -60.5 32.167 -79.5 58.5
s-28.5 56.166 -28.5 89.499c0 41.333 16 79.333 48 114s80.333 64.334 145 89.001l58 -115c-40 -10 -69.333 -22.5 -88 -37.5s-28 -30.833 -28 -47.5c0 -12.667 5.16699 -22.167 15.5 -28.5s24.833 -9.5 43.5 -9.5c16.667 0 34.834 2.83301 54.501 8.5
s35.5 13.167 47.5 22.5l54 -111c-27.333 -20.667 -59.666 -34.667 -96.999 -42c-13.333 -12.667 -20 -26.334 -20 -41.001c0 -12.667 5.16699 -22.167 15.5 -28.5s24.833 -9.5 43.5 -9.5c16.667 0 34.834 2.83301 54.501 8.5s35.5 13.167 47.5 22.5z" />
    <glyph glyph-name="uni0945" unicode="&#x945;" horiz-adv-x="0" 
d="M-298.5 771.5c-45 29.667 -79.167 68.167 -102.5 115.5l102 70c39.333 -68 90.333 -102 153 -102s113.667 34 153 102l102 -70c-25.333 -48.667 -60 -87.5 -104 -116.5s-94.333 -43.5 -151 -43.5s-107.5 14.833 -152.5 44.5z" />
    <glyph glyph-name="uni0946" unicode="&#x946;" horiz-adv-x="0" 
d="M-225 625c7.33301 13.333 10.999 31.666 10.999 54.999c0 19.333 -5.16699 35.833 -15.5 49.5s-28.166 20.5 -53.499 20.5c-24 0 -61.333 -2 -112 -6c-48 -4 -83 -6 -105 -6c-54 0 -95.833 11.333 -125.5 34s-44.5 55 -44.5 97c0 21.333 4 43.833 12 67.5
s18.333 44.167 31 61.5l143 -33c-18.667 -21.333 -28 -42.666 -28 -63.999c0 -22.667 11 -34 33 -34c20.667 0 53.667 2 99 6c44 4 76.333 6 97 6c73.333 0 129.5 -18.333 168.5 -55s58.5 -85 58.5 -145c0 -21.333 -3.66699 -40.333 -11 -57z" />
    <glyph glyph-name="uni0947" unicode="&#x947;" horiz-adv-x="0" 
d="M-282 725c-20 46 -42.166 79.833 -66.499 101.5s-53.5 32.5 -87.5 32.5c-32.667 0 -64.334 -4 -95.001 -12l-27 120c36 14.667 76.333 22 121 22c66 0 121.833 -19.667 167.5 -59s88.167 -102.333 127.5 -189l49 -108h-149z" />
    <glyph glyph-name="uni0948" unicode="&#x948;" horiz-adv-x="0" 
d="M-149 633l5 -9h-125l-54 79c-14 20 -30.667 35.167 -50 45.5s-40.333 15.5 -63 15.5c-36 0 -71 -7.33301 -105 -22l-27 120c40 21.333 83.667 32 131 32s92.666 -16.333 135.999 -49c-17.333 32.667 -32.166 57.5 -44.499 74.5s-25.5 29.167 -39.5 36.5s-31 11 -51 11
c-25.333 0 -50.333 -4 -75 -12l-27 120c35.333 14.667 75.666 22 120.999 22c44.667 0 83.334 -11 116.001 -33s63.667 -58.167 93 -108.5s61.333 -121.833 96 -214.5l41 -108h-78z" />
    <glyph glyph-name="uni0949" unicode="&#x949;" horiz-adv-x="337" 
d="M337 549h-89v-549h-159v549h-109v128h357v-128zM16.5 771.5c-45 29.667 -79.167 68.167 -102.5 115.5l102 70c39.333 -68 90.333 -102 153 -102s113.667 34 153 102l102 -70c-25.333 -48.667 -60 -87.5 -104 -116.5s-94.333 -43.5 -151 -43.5s-107.5 14.833 -152.5 44.5z
" />
    <glyph glyph-name="uni094A" unicode="&#x94a;" horiz-adv-x="337" 
d="M337 549l-89.001 -0.000976562v-549h-159v549h-109v128h117v3c0 19.333 -5.16699 35.833 -15.5 49.5s-28.166 20.5 -53.499 20.5c-24 0 -61.333 -2 -112 -6c-48 -4 -83 -6 -105 -6c-54 0 -95.833 11.333 -125.5 34s-44.5 55 -44.5 97c0 21.333 4 43.833 12 67.5
s18.333 44.167 31 61.5l143 -33c-18.667 -21.333 -28 -42.666 -28 -63.999c0 -22.667 11 -34 33 -34c20.667 0 53.667 2 99 6c44 4 76.333 6 97 6c73.333 0 129.5 -18.333 168.5 -55s58.5 -85 58.5 -145v-2h82v-128z" />
    <glyph glyph-name="uni094B" unicode="&#x94b;" horiz-adv-x="337" 
d="M337 549h-88.999v-549h-159v549h-109v128h96l-21 48c-20 46 -42.167 79.833 -66.5 101.5s-53.5 32.5 -87.5 32.5c-32.667 0 -64.334 -4 -95.001 -12l-27 120c36 14.667 76.333 22 121 22c66 0 121.833 -19.667 167.5 -59s88.167 -102.333 127.5 -189l29 -64h113v-128z
" />
    <glyph glyph-name="uni094C" unicode="&#x94c;" horiz-adv-x="337" 
d="M337 549h-89v-549h-159v549h-109v128h52l-18 26c-14 20 -30.667 35.167 -50 45.5s-40.333 15.5 -63 15.5c-36 0 -71 -7.33301 -105 -22l-27 120c40 21.333 83.667 32 131 32s92.666 -16.333 135.999 -49c-17.333 32.667 -32.166 57.5 -44.499 74.5
s-25.5 29.167 -39.5 36.5s-31 11 -51 11c-25.333 0 -50.333 -4 -75 -12l-27 120c35.333 14.667 75.666 22 120.999 22c44.667 0 83.334 -11 116.001 -33s63.667 -58.167 93 -108.5s61.333 -121.833 96 -214.5l24 -64h88v-128z" />
    </font>
</defs>
</svg>
