<?xml version="1.0" standalone="no"?>
<!DOCTYPE svg PUBLIC "-//W3C//DTD SVG 1.1//EN" "http://www.w3.org/Graphics/SVG/1.1/DTD/svg11.dtd" >
<svg>
<metadata>
Created by FontForge 20090914 at Wed Mar 31 09:49:51 2021
 By www-data
Copyright (c) 2014 Dan Reynolds. Copyright (c) 2014 Mathieu R&#195;&#169;guer.
</metadata>
<defs>
<font id="MartelSans-Light" horiz-adv-x="296" >
  <font-face 
    font-family="Martel Sans Light"
    font-weight="300"
    font-stretch="normal"
    units-per-em="1000"
    panose-1="0 0 4 0 0 0 0 0 0 0"
    ascent="800"
    descent="-200"
    x-height="528"
    cap-height="680"
    bbox="-640.999 -493.994 1435 1058"
    underline-thickness="50"
    underline-position="-50"
    unicode-range="U+000D-U+FB02"
  />
<missing-glyph horiz-adv-x="448" 
d="M449 -200v958h-452v-958h452zM115 349c68.667 12.667 118.001 29.6689 148.001 51.002s45 53.333 45 96c0 37.333 -16.833 67.666 -50.5 90.999s-95.834 35 -186.501 35v59c110.667 0 190.5 -17.333 239.5 -52s73.5 -79.334 73.5 -134.001
c0 -97.333 -69.333 -162.333 -208 -195l-4 -115h-50zM109.501 6.50195c-10.333 10.333 -15.5 22.833 -15.5 37.5s5.16699 27.334 15.5 38.001s22.833 16 37.5 16s27.334 -5.33301 38.001 -16s16 -23.334 16 -38.001s-5.33301 -27.167 -16 -37.5s-23.334 -15.5 -38.001 -15.5
s-27.167 5.16699 -37.5 15.5z" />
    <glyph glyph-name="fi" unicode="fi" horiz-adv-x="677" 
d="M224 528l160 -0.000976562v-57h-160v-471h-75v471h-85v32l85 21v58c0 70.667 14.667 124.834 44 162.501s74.333 56.5 135 56.5c18.667 0 38 -2.66699 58 -8l-11 -58c-14.667 3.33301 -28.667 5 -42 5c-38.667 0 -66.5 -13 -83.5 -39s-25.5 -66.333 -25.5 -121v-52z
M501 722.499c-10 9.66699 -15 21.167 -15 34.5c0 14 5 26 15 36s21.667 15 35 15c14 0 25.833 -5 35.5 -15s14.5 -22 14.5 -36c0 -13.333 -4.83301 -24.833 -14.5 -34.5s-21.5 -14.5 -35.5 -14.5c-13.333 0 -25 4.83301 -35 14.5zM498 527.999h75v-528h-75v528z" />
    <glyph glyph-name="fl" unicode="fl" horiz-adv-x="663" 
d="M224 528l160 -0.000976562v-57h-160v-471h-75v471h-85v32l85 21v58c0 70.667 14.667 124.834 44 162.501s74.333 56.5 135 56.5c18.667 0 38 -2.66699 58 -8l-11 -58c-14.667 3.33301 -28.667 5 -42 5c-38.667 0 -66.5 -13 -83.5 -39s-25.5 -66.333 -25.5 -121v-52z
M491 799.999h75v-800h-75v800z" />
    <glyph glyph-name="f_f" unicode="ff" horiz-adv-x="789" 
d="M224 528l160 -0.000976562v-57h-160v-471h-75v471h-85v32l85 21v58c0 70.667 14.667 124.834 44 162.501s74.333 56.5 135 56.5c18.667 0 38 -2.66699 58 -8l-11 -58c-14.667 3.33301 -28.667 5 -42 5c-38.667 0 -66.5 -13 -83.5 -39s-25.5 -66.333 -25.5 -121v-52z
M619 527.999l160 -0.000976562v-57h-160v-471h-75v471h-85v32l85 21v58c0 70.667 14.667 124.834 44 162.501s74.333 56.5 135 56.5c18.667 0 38 -2.66699 58 -8l-11 -58c-14.667 3.33301 -28.667 5 -42 5c-38.667 0 -66.5 -13 -83.5 -39s-25.5 -66.333 -25.5 -121v-52z" />
    <glyph glyph-name="f_f_i" unicode="ffi" horiz-adv-x="1071" 
d="M224 528l160 -0.000976562v-57h-160v-471h-75v471h-85v32l85 21v58c0 70.667 14.667 124.834 44 162.501s74.333 56.5 135 56.5c18.667 0 38 -2.66699 58 -8l-11 -58c-14.667 3.33301 -28.667 5 -42 5c-38.667 0 -66.5 -13 -83.5 -39s-25.5 -66.333 -25.5 -121v-52z
M619 527.999l160 -0.000976562v-57h-160v-471h-75v471h-85v32l85 21v58c0 70.667 14.667 124.834 44 162.501s74.333 56.5 135 56.5c18.667 0 38 -2.66699 58 -8l-11 -58c-14.667 3.33301 -28.667 5 -42 5c-38.667 0 -66.5 -13 -83.5 -39s-25.5 -66.333 -25.5 -121v-52z
M895 722.498c-10 9.66699 -15 21.167 -15 34.5c0 14 5 26 15 36s21.667 15 35 15c14 0 25.833 -5 35.5 -15s14.5 -22 14.5 -36c0 -13.333 -4.83301 -24.833 -14.5 -34.5s-21.5 -14.5 -35.5 -14.5c-13.333 0 -25 4.83301 -35 14.5zM892 527.998h75v-528h-75v528z" />
    <glyph glyph-name="f_f_l" unicode="ffl" horiz-adv-x="1057" 
d="M224 528l160 -0.000976562v-57h-160v-471h-75v471h-85v32l85 21v58c0 70.667 14.667 124.834 44 162.501s74.333 56.5 135 56.5c18.667 0 38 -2.66699 58 -8l-11 -58c-14.667 3.33301 -28.667 5 -42 5c-38.667 0 -66.5 -13 -83.5 -39s-25.5 -66.333 -25.5 -121v-52z
M619 527.999l160 -0.000976562v-57h-160v-471h-75v471h-85v32l85 21v58c0 70.667 14.667 124.834 44 162.501s74.333 56.5 135 56.5c18.667 0 38 -2.66699 58 -8l-11 -58c-14.667 3.33301 -28.667 5 -42 5c-38.667 0 -66.5 -13 -83.5 -39s-25.5 -66.333 -25.5 -121v-52z
M885 799.998h75v-800h-75v800z" />
    <glyph glyph-name=".notdef" horiz-adv-x="448" 
d="M449 -200v958h-452v-958h452zM115 349c68.667 12.667 118.001 29.6689 148.001 51.002s45 53.333 45 96c0 37.333 -16.833 67.666 -50.5 90.999s-95.834 35 -186.501 35v59c110.667 0 190.5 -17.333 239.5 -52s73.5 -79.334 73.5 -134.001
c0 -97.333 -69.333 -162.333 -208 -195l-4 -115h-50zM109.501 6.50195c-10.333 10.333 -15.5 22.833 -15.5 37.5s5.16699 27.334 15.5 38.001s22.833 16 37.5 16s27.334 -5.33301 38.001 -16s16 -23.334 16 -38.001s-5.33301 -27.167 -16 -37.5s-23.334 -15.5 -38.001 -15.5
s-27.167 5.16699 -37.5 15.5z" />
    <glyph glyph-name="nonmarkingreturn" unicode="&#xd;" horiz-adv-x="106" 
 />
    <glyph glyph-name="space" unicode=" " horiz-adv-x="250" 
 />
    <glyph glyph-name="exclam" unicode="!" horiz-adv-x="268" 
d="M86 680h85l-10 -495h-55zM96.5 6.5c-10.333 10.333 -15.5 22.833 -15.5 37.5s5.16699 27.334 15.5 38.001s22.833 16 37.5 16s27.334 -5.33301 38.001 -16s16 -23.334 16 -38.001s-5.33301 -27.167 -16 -37.5s-23.334 -15.5 -38.001 -15.5s-27.167 5.16699 -37.5 15.5z
" />
    <glyph glyph-name="quotedbl" unicode="&#x22;" horiz-adv-x="451" 
d="M93 746h85l-9 -271h-58zM273 746h85l-9 -271h-58z" />
    <glyph glyph-name="numbersign" unicode="#" horiz-adv-x="643" 
d="M495 429l-55 -178h107l-18 -59h-107l-59 -192h-65l59 192h-161l-59 -192h-65l59 192h-108l18 59h108l55 178h-107l18 59h107l59 192h65l-59 -192h161l59 192h65l-59 -192h108l-17 -59h-109zM430 429h-161l-55 -178h161z" />
    <glyph glyph-name="dollar" unicode="$" horiz-adv-x="529" 
d="M439.5 74c-32.333 -32 -75.168 -51.666 -128.501 -58.999v-92h-71v89c-43.333 2 -80.833 8.5 -112.5 19.5s-61.5 26.833 -89.5 47.5l32 57c46.667 -37.333 103.334 -58 170.001 -62v247c-36 11.333 -66.167 23.166 -90.5 35.499s-44.5 29.833 -60.5 52.5
s-24 51.667 -24 87c0 51.333 17.667 91.333 53 120s81.333 44.667 138 48v90h71v-92c56.667 -6.66699 109.667 -27.667 159 -63l-31 -56c-39.333 30 -82 49.333 -128 58v-236c50.667 -17.333 90.167 -38.333 118.5 -63s42.5 -61 42.5 -109c0 -47.333 -16.167 -87 -48.5 -119
zM170.498 431.501c19.667 -16.333 48.167 -30.833 85.5 -43.5v216c-34 -3.33301 -61.667 -14 -83 -32s-32 -42.333 -32 -73c0 -28.667 9.83301 -51.167 29.5 -67.5zM383.498 118.501c18.333 19.667 27.5 43.5 27.5 71.5c0 27.333 -8.66699 49 -26 65s-42 30 -74 42v-219
c30 7.33301 54.167 20.833 72.5 40.5z" />
    <glyph glyph-name="percent" unicode="%" horiz-adv-x="832" 
d="M642 667l-400 -692l-51 31l400 692zM48.5 318c-26.333 38 -39.5 90 -39.5 156s13.167 118 39.5 156s65.166 57 116.499 57c52 0 91.167 -19 117.5 -57s39.5 -90 39.5 -156s-13.167 -118 -39.5 -156s-65.5 -57 -117.5 -57c-51.333 0 -90.166 19 -116.499 57zM259 474
c0 108.667 -31 163 -93 163c-61.333 0 -92 -54.333 -92 -163c0 -109.333 30.667 -164 92 -164c62 0 93 54.667 93 164zM548.5 46c-26.333 38 -39.5 90 -39.5 156s13.167 118 39.5 156s65.166 57 116.499 57c52 0 91.167 -19 117.5 -57s39.5 -90 39.5 -156
s-13.167 -118 -39.5 -156s-65.5 -57 -117.5 -57c-51.333 0 -90.166 19 -116.499 57zM759 202c0 108.667 -31 163 -93 163c-61.333 0 -92 -54.333 -92 -163c0 -109.333 30.667 -164 92 -164c62 0 93 54.667 93 164z" />
    <glyph glyph-name="ampersand" unicode="&#x26;" horiz-adv-x="718" 
d="M685 1c-16 -6 -35 -8.99805 -57 -8.99805c-26 0 -48.333 5.16699 -67 15.5s-41.667 30.166 -69 59.499l-13 15c-65.333 -64 -136.666 -96 -213.999 -96c-46 0 -85.833 8.16699 -119.5 24.5s-59.167 38.166 -76.5 65.499s-26 57.333 -26 90c0 44.667 12.833 84 38.5 118
s68.834 66 129.501 96c-29.333 34 -49.833 62 -61.5 84s-17.5 47.333 -17.5 76c0 43.333 14.833 79.666 44.5 108.999s72.167 44 127.5 44c35.333 0 65.5 -6.33301 90.5 -19s43.833 -29.5 56.5 -50.5s19 -43.833 19 -68.5c0 -42.667 -11.833 -79.167 -35.5 -109.5
s-62.834 -58.166 -117.501 -83.499l162 -180c43.333 64 80.666 150.667 111.999 260l68 -13c-32 -120 -77.333 -218.667 -136 -296l21 -23c18 -20 33.5 -34.5 46.5 -43.5s26.833 -13.5 41.5 -13.5c14 0 27 2 39 6zM232 607.002c-16 -17.333 -23.999 -39.001 -23.999 -65.001
c0 -24 4.83301 -45.333 14.5 -64s27.5 -42.667 53.5 -72c42.667 20 73 41.333 91 64s27 50.334 27 83.001c0 22 -7.83301 40.833 -23.5 56.5s-37.834 23.5 -66.501 23.5c-32 0 -56 -8.66699 -72 -26zM437.001 128.001l-186 207c-50 -26.667 -84.167 -52.167 -102.5 -76.5
s-27.5 -53.166 -27.5 -86.499c0 -34.667 13 -64.334 39 -89.001s62.333 -37 109 -37c62.667 0 118.667 27.333 168 82z" />
    <glyph glyph-name="quotesingle" unicode="'" horiz-adv-x="271" 
d="M93 746h85l-9 -271h-58z" />
    <glyph glyph-name="parenleft" unicode="(" horiz-adv-x="302" 
d="M105 54.5c-32 72.333 -48 152.172 -48 239.505s16 167.166 48 239.499s72.667 132.5 122 180.5l43 -35c-40.667 -40.667 -73.667 -95.834 -99 -165.501s-38 -142.834 -38 -219.501s12.667 -149.834 38 -219.501s58.333 -124.834 99 -165.501l-43 -35
c-49.333 48 -90 108.167 -122 180.5z" />
    <glyph glyph-name="parenright" unicode=")" horiz-adv-x="302" 
d="M33 -91c40.667 40.667 73.667 95.8281 99 165.495s38 142.834 38 219.501s-12.667 149.834 -38 219.501s-58.333 124.834 -99 165.501l43 35c49.333 -48 90 -108.167 122 -180.5s48 -152.166 48 -239.499s-16 -167.166 -48 -239.499s-72.667 -132.5 -122 -180.5z" />
    <glyph glyph-name="asterisk" unicode="*" horiz-adv-x="481" 
d="M274 462l116 -132l-58 -42l-92 149l-90 -149l-59 42l114 134l-171 40l22 68l163 -66l-14 174h72l-13 -174l160 66l23 -68z" />
    <glyph glyph-name="plus" unicode="+" horiz-adv-x="529" 
d="M496 244h-201v-204h-60v204h-202v58h202v202h60v-202h201v-58z" />
    <glyph glyph-name="comma" unicode="," horiz-adv-x="268" 
d="M43 -117c41.333 28 62.001 68.6689 62.001 122.002c0 26 -4.33301 53 -13 81l75 9c6 -24.667 9 -48 9 -70c0 -40.667 -9.33301 -76.334 -28 -107.001s-44.334 -54.334 -77.001 -71.001z" />
    <glyph glyph-name="hyphen" unicode="-" horiz-adv-x="259" 
d="M20 300h219v-58h-219v58z" />
    <glyph glyph-name="period" unicode="." horiz-adv-x="269" 
d="M96.5 6.5c-10.333 10.333 -15.5 22.833 -15.5 37.5s5.16699 27.334 15.5 38.001s22.833 16 37.5 16s27.334 -5.33301 38.001 -16s16 -23.334 16 -38.001s-5.33301 -27.167 -16 -37.5s-23.334 -15.5 -38.001 -15.5s-27.167 5.16699 -37.5 15.5z" />
    <glyph glyph-name="slash" unicode="/" horiz-adv-x="350" 
d="M279 708h79l-288 -944h-78z" />
    <glyph glyph-name="zero" unicode="0" horiz-adv-x="529" 
d="M88.5 87c-39.667 67.333 -59.5 153.666 -59.5 258.999c0 102 19.833 185.333 59.5 250s98.5 97 176.5 97s136.833 -32.333 176.5 -97s59.5 -148 59.5 -250c0 -105.333 -19.833 -191.666 -59.5 -258.999s-98.5 -101 -176.5 -101s-136.833 33.667 -176.5 101zM383.5 131
c25.667 56.667 38.5 128.334 38.5 215.001c0 82.667 -12.833 151.167 -38.5 205.5s-65.5 81.5 -119.5 81.5s-93.833 -27.167 -119.5 -81.5s-38.5 -122.833 -38.5 -205.5c0 -86.667 12.833 -158.334 38.5 -215.001s65.5 -85 119.5 -85s93.833 28.333 119.5 85z" />
    <glyph glyph-name="one" unicode="1" horiz-adv-x="529" 
d="M476 60v-60h-368v60h145v532l-124 -91l-31 50l168 128v1h64v-620h146z" />
    <glyph glyph-name="two" unicode="2" horiz-adv-x="529" 
d="M40 46l172.999 168.001c60.667 58 103.334 109.5 128.001 154.5s37 87.167 37 126.5c0 42.667 -12.167 76 -36.5 100s-57.5 36 -99.5 36c-34.667 0 -65.5 -7.16699 -92.5 -21.5s-56.5 -39.166 -88.5 -74.499l-33 45c30.667 38 63.834 66.167 99.501 84.5
s75.5 27.5 119.5 27.5c63.333 0 113.833 -17.333 151.5 -52s56.5 -82.334 56.5 -143.001c0 -48.667 -14.333 -98.334 -43 -149.001s-78.334 -109.667 -149.001 -177l-112 -109v-2h334v-60h-445v46z" />
    <glyph glyph-name="three" unicode="3" horiz-adv-x="530" 
d="M438 310c30.667 -30.667 46.0049 -69.334 46.0049 -116.001c0 -39.333 -9.83301 -75.166 -29.5 -107.499s-47.834 -58.166 -84.501 -77.499s-79.334 -29 -128.001 -29c-48 0 -89.5 6.33301 -124.5 19s-66.5 35 -94.5 67l31 49c29.333 -28 58.166 -47.5 86.499 -58.5
s62.166 -16.5 101.499 -16.5c48.667 0 88.334 14 119.001 42s46 64.333 46 109c0 38.667 -13.5 70 -40.5 94s-64.167 36 -111.5 36c-32 0 -65.333 -5.33301 -100 -16l-11 58c53.333 13.333 95.5 26.166 126.5 38.499s55.333 29 73 50s26.5 48.5 26.5 82.5
c0 28 -9.83301 50.833 -29.5 68.5s-45.834 26.5 -78.501 26.5c-63.333 0 -125 -31.333 -185 -94l-33 45c29.333 36 63.166 63.167 101.499 81.5s77.833 27.5 118.5 27.5c55.333 0 99.666 -14 132.999 -42s50 -65.667 50 -113c0 -74 -41.667 -130.333 -125 -169
c46.667 -6 85.334 -24.333 116.001 -55z" />
    <glyph glyph-name="four" unicode="4" horiz-adv-x="528" 
d="M520 188h-113v-188h-77v188h-311v47l319 442l1 3h68v-432h113v-60zM330 248v129l1 192l-130 -184l-98 -137h227z" />
    <glyph glyph-name="five" unicode="5" horiz-adv-x="530" 
d="M389 380c34.667 -17.333 61.002 -41.168 79.002 -71.501s27 -65.166 27 -104.499c0 -42 -10 -80 -30 -114s-48.667 -60.833 -86 -80.5s-81.333 -29.5 -132 -29.5c-45.333 0 -85.333 6.33301 -120 19s-65.667 35 -93 67l31 49c29.333 -28 57.666 -47.5 84.999 -58.5
s59.666 -16.5 96.999 -16.5c52 0 93.5 14.5 124.5 43.5s46.5 68.5 46.5 118.5c0 44 -13.5 79 -40.5 105s-65.167 39 -114.5 39c-51.333 0 -105 -11.667 -161 -35l-24 14l28 355h371v-61h-302l-17 -230c36 11.333 72 17 108 17c47.333 0 88.333 -8.66699 123 -26z" />
    <glyph glyph-name="six" unicode="6" horiz-adv-x="529" 
d="M395.5 377.5c31.667 -19 55.832 -43.835 72.499 -74.502s25 -62.667 25 -96c0 -39.333 -9.16699 -76 -27.5 -110s-44.666 -61.167 -78.999 -81.5s-74.833 -30.5 -121.5 -30.5c-68.667 0 -123.834 23.333 -165.501 70s-62.5 113.334 -62.5 200.001
c0 110.667 34.833 204 104.5 280s165.167 128.667 286.5 158l20 -57c-91.333 -25.333 -164.333 -61.666 -219 -108.999s-89.667 -108.333 -105 -183c21.333 19.333 45.833 34.5 73.5 45.5s56.5 16.5 86.5 16.5c42.667 0 79.834 -9.5 111.501 -28.5zM376.498 90.498
c25.667 30.333 38.499 68.5 38.499 114.5c0 40 -12 73.5 -36 100.5s-57 40.5 -99 40.5c-68.667 0 -123.667 -31 -165 -93v-3c0 -66.667 13.5 -117.5 40.5 -152.5s63.5 -52.5 109.5 -52.5c48.667 0 85.834 15.167 111.501 45.5z" />
    <glyph glyph-name="seven" unicode="7" horiz-adv-x="529" 
d="M417 618v2h-390v60h476v-48l-365 -632h-88z" />
    <glyph glyph-name="eight" unicode="8" horiz-adv-x="529" 
d="M453.5 279c25 -30 37.5 -66.668 37.5 -110.001c0 -53.333 -19 -97.166 -57 -131.499s-94.333 -51.5 -169 -51.5c-50 0 -92 8.33301 -126 25s-59.167 38.667 -75.5 66s-24.5 57.333 -24.5 90c0 82 47 143.333 141 184c-42.667 20.667 -73.5 44.334 -92.5 71.001
s-28.5 58.667 -28.5 96c0 32 7.66699 61.333 23 88s38.5 47.834 69.5 63.501s68.833 23.5 113.5 23.5s82.5 -7.66699 113.5 -23s54.167 -35.5 69.5 -60.5s23 -52.5 23 -82.5c0 -40.667 -10.167 -74.334 -30.5 -101.001s-53.5 -50.334 -99.5 -71.001
c50 -20.667 87.5 -46 112.5 -76zM171.5 434.499c23 -21.667 56.5 -40.167 100.5 -55.5c44 16 75.167 36 93.5 60s27.5 52.667 27.5 86c0 30 -10.833 55.5 -32.5 76.5s-53.5 31.5 -95.5 31.5c-42.667 0 -74.667 -10.833 -96 -32.5s-32 -48.5 -32 -80.5
c0 -35.333 11.5 -63.833 34.5 -85.5zM377 80.999c24 23.333 36 52.335 36 87.002c0 40 -13.333 71.167 -40 93.5s-67.667 43.166 -123 62.499c-42 -14.667 -74.667 -35.334 -98 -62.001s-35 -57.667 -35 -93c0 -34 12.167 -63 36.5 -87s61.5 -36 111.5 -36
c50.667 0 88 11.667 112 35z" />
    <glyph glyph-name="nine" unicode="9" horiz-adv-x="529" 
d="M383.5 662c34.333 -20.667 61.1689 -51.168 80.502 -91.501s29 -89.166 29 -146.499c0 -111.333 -34.667 -204.833 -104 -280.5s-165 -128.5 -287 -158.5l-20 57c91.333 26 164.333 62.667 219 110s89.667 108.333 105 183c-21.333 -20 -45.666 -35.5 -72.999 -46.5
s-56.333 -16.5 -87 -16.5c-42.667 0 -79.834 9.5 -111.501 28.5s-55.834 43.833 -72.501 74.5s-25 63 -25 97c0 39.333 9.16699 76 27.5 110s44.666 61 78.999 81s74.833 30 121.5 30c44.667 0 84.167 -10.333 118.5 -31zM415.003 424.999l0.000976562 3
c0 66.667 -13.5 117.5 -40.5 152.5s-63.5 52.5 -109.5 52.5c-48.667 0 -85.834 -15.167 -111.501 -45.5s-38.5 -68.5 -38.5 -114.5c0 -40 12 -73.333 36 -100s57 -40 99 -40c69.333 0 124.333 30.667 165 92z" />
    <glyph glyph-name="colon" unicode=":" horiz-adv-x="268" 
d="M96.5 402c-10.333 10.667 -15.502 23.334 -15.502 38.001s5.16699 27.334 15.5 38.001s22.833 16 37.5 16s27.334 -5.33301 38.001 -16s16 -23.334 16 -38.001s-5.16699 -27.334 -15.5 -38.001s-23.166 -16 -38.499 -16c-14.667 0 -27.167 5.33301 -37.5 16zM96.498 6.5
c-10.333 10.333 -15.5 22.833 -15.5 37.5s5.16699 27.334 15.5 38.001s22.833 16 37.5 16s27.334 -5.33301 38.001 -16s16 -23.334 16 -38.001s-5.33301 -27.167 -16 -37.5s-23.334 -15.5 -38.001 -15.5s-27.167 5.16699 -37.5 15.5z" />
    <glyph glyph-name="semicolon" unicode=";" horiz-adv-x="268" 
d="M96.5 402c-10.333 10.667 -15.502 23.334 -15.502 38.001s5.16699 27.334 15.5 38.001s22.833 16 37.5 16s27.334 -5.33301 38.001 -16s16 -23.334 16 -38.001s-5.16699 -27.334 -15.5 -38.001s-23.166 -16 -38.499 -16c-14.667 0 -27.167 5.33301 -37.5 16zM42.998 -117
c40.667 26.667 61.001 66.001 61.001 118.001c0 24 -4 49.333 -12 76l75 10c6 -24 9 -46.333 9 -67c0 -39.333 -9.33301 -73.833 -28 -103.5s-44.334 -52.834 -77.001 -69.501z" />
    <glyph glyph-name="less" unicode="&#x3c;" horiz-adv-x="529" 
d="M496 452l-392 -180l392 -180v-64l-463 218v53l463 217v-64z" />
    <glyph glyph-name="equal" unicode="=" horiz-adv-x="529" 
d="M33 402h463v-58h-463v58zM33 202h463v-58h-463v58z" />
    <glyph glyph-name="greater" unicode="&#x3e;" horiz-adv-x="529" 
d="M496 298v-53l-463 -217v64l392 180l-392 180v64z" />
    <glyph glyph-name="question" unicode="?" horiz-adv-x="450" 
d="M115 349c68.667 12.667 118.001 29.6689 148.001 51.002s45 53.333 45 96c0 37.333 -16.833 67.666 -50.5 90.999s-95.834 35 -186.501 35v59c110.667 0 190.5 -17.333 239.5 -52s73.5 -79.334 73.5 -134.001c0 -97.333 -69.333 -162.333 -208 -195l-4 -115h-50z
M109.501 6.50195c-10.333 10.333 -15.5 22.833 -15.5 37.5s5.16699 27.334 15.5 38.001s22.833 16 37.5 16s27.334 -5.33301 38.001 -16s16 -23.334 16 -38.001s-5.33301 -27.167 -16 -37.5s-23.334 -15.5 -38.001 -15.5s-27.167 5.16699 -37.5 15.5z" />
    <glyph glyph-name="at" unicode="@" horiz-adv-x="833" 
d="M296.5 224.5c15.667 16.333 38.3311 30.499 67.998 42.499s71.5 25.333 125.5 40v28c0 22.667 -4.33301 41 -13 55s-25 21 -49 21c-22 0 -42 -4.83301 -60 -14.5s-38.667 -27.834 -62 -54.501l-32 44c47.333 54 100 81 158 81c43.333 0 74.333 -11 93 -33s28 -56 28 -102
v-176c0 -20.667 11 -31 33 -31c20.667 0 40.667 7.16699 60 21.5s35 36.333 47 66s18 66.167 18 109.5c0 49.333 -12.5 93 -37.5 131s-58.667 67.5 -101 88.5s-88.5 31.5 -138.5 31.5c-61.333 0 -115.666 -13.167 -162.999 -39.5s-84 -63.666 -110 -111.999
s-39 -104.5 -39 -168.5c0 -58.667 13.333 -110.834 40 -156.501s62.667 -81 108 -106s94.333 -37.5 147 -37.5c39.333 0 75.5 5.5 108.5 16.5s67.167 28.5 102.5 52.5l27 -46c-40 -28 -78.167 -48.333 -114.5 -61s-77.833 -19 -124.5 -19
c-61.333 0 -119.666 14.5 -174.999 43.5s-100 70.667 -134 125s-51 117.5 -51 189.5c0 73.333 16.333 138.333 49 195s77.5 100.834 134.5 132.501s121.5 47.5 193.5 47.5c66 0 125.167 -13.167 177.5 -39.5s93.166 -62.666 122.499 -108.999s44 -98.833 44 -157.5
c0 -53.333 -9.5 -98.833 -28.5 -136.5s-43.667 -66.167 -74 -85.5s-62.166 -29 -95.499 -29c-22 0 -40.5 5 -55.5 15s-25.167 23.333 -30.5 40c-44.667 -36.667 -85.667 -55 -123 -55c-28.667 0 -52 8.33301 -70 25s-27 38.334 -27 65.001
c0 25.333 7.83301 46.166 23.5 62.499zM378.997 126.999c16.667 0 33.667 4.33398 51 13.001s37.333 22 60 40v75c-58 -16 -98.167 -30.333 -120.5 -43s-33.5 -28.334 -33.5 -47.001c0 -25.333 14.333 -38 43 -38z" />
    <glyph glyph-name="A" unicode="A" horiz-adv-x="643" 
d="M460 220h-280l-82 -220h-77l264 689h71l265 -689h-79zM437 280l-117 314l-118 -314h235z" />
    <glyph glyph-name="B" unicode="B" horiz-adv-x="623" 
d="M538 298c24.667 -30 37 -66.668 37 -110.001c0 -56.667 -20.667 -102.167 -62 -136.5s-100.333 -51.5 -177 -51.5h-221v680h221c67.333 0 119 -15.5 155 -46.5s54 -73.5 54 -127.5c0 -35.333 -9.83301 -66.166 -29.5 -92.499s-47.834 -44.833 -84.501 -55.5
c46.667 -10 82.334 -30 107.001 -60zM193 619.999v-232.999h143c41.333 0 73.5 10.333 96.5 31s34.5 49 34.5 85c0 39.333 -11.167 68.666 -33.5 87.999s-54.833 29 -97.5 29h-143zM455 96c28 24 42 56.667 42 98c0 44.667 -13.667 78 -41 100s-67.333 33 -120 33h-143v-267
h143c51.333 0 91 12 119 36z" />
    <glyph glyph-name="C" unicode="C" horiz-adv-x="695" 
d="M208 34c-50.667 32.667 -88.4961 75.9971 -113.496 129.997s-37.5 113 -37.5 177s13.167 122.667 39.5 176s65.666 96 117.999 128s116.166 48 191.499 48c45.333 0 88 -7.66699 128 -23s73.333 -37 100 -65l-37 -50c-21.333 23.333 -49.333 42 -84 56
s-70.334 21 -107.001 21c-57.333 0 -106.333 -12.667 -147 -38s-71.5 -60.166 -92.5 -104.499s-31.5 -94.166 -31.5 -149.499c0 -56.667 10 -107.167 30 -151.5s49.333 -79.333 88 -105s85.667 -38.5 141 -38.5c84 0 156.667 34.333 218 103l34 -49
c-30 -33.333 -66.333 -60.666 -109 -81.999s-90.334 -32 -143.001 -32c-73.333 0 -135.333 16.333 -186 49z" />
    <glyph glyph-name="D" unicode="D" horiz-adv-x="728" 
d="M523.5 636c49 -29.333 85.834 -69.667 110.501 -121s37 -109.333 37 -174c0 -66.667 -12.333 -125.667 -37 -177s-61.334 -91.5 -110.001 -120.5s-108 -43.5 -178 -43.5h-231v680h231c69.333 0 128.5 -14.667 177.5 -44zM529.001 135.499
c43.333 50.333 65 118.5 65 204.5c0 84.667 -21.667 152.5 -65 203.5s-104.333 76.5 -183 76.5h-153v-560h153c78.667 0 139.667 25.167 183 75.5z" />
    <glyph glyph-name="E" unicode="E" horiz-adv-x="583" 
d="M525 60v-60h-410v680h390v-60h-312v-230h272v-60h-272v-270h332z" />
    <glyph glyph-name="F" unicode="F" horiz-adv-x="533" 
d="M193 620v-245h272v-61h-272v-314h-78v680h390v-60h-312z" />
    <glyph glyph-name="G" unicode="G" horiz-adv-x="713" 
d="M635 315l0.00292969 -276.002c-25.333 -16 -58.833 -29 -100.5 -39s-88.5 -15 -140.5 -15c-73.333 0 -135.333 16.333 -186 49s-88.5 76 -113.5 130s-37.5 113 -37.5 177s13.167 122.667 39.5 176s65.666 96 117.999 128s116.166 48 191.499 48
c45.333 0 88 -7.66699 128 -23s73.333 -37 100 -65l-37 -50c-21.333 23.333 -49.333 42 -84 56s-70.334 21 -107.001 21c-57.333 0 -106.333 -12.667 -147 -38s-71.5 -60.166 -92.5 -104.499s-31.5 -94.166 -31.5 -149.499c0 -56.667 10 -107.167 30 -151.5
s49.333 -79.333 88 -105s85.667 -38.5 141 -38.5c64 0 119.333 8.33301 166 25v245h75z" />
    <glyph glyph-name="H" unicode="H" horiz-adv-x="766" 
d="M652 680v-680h-78v330h-381v-330h-78v680h78v-290h381v290h78z" />
    <glyph glyph-name="I" unicode="I" horiz-adv-x="307" 
d="M115 680h78v-680h-78v680z" />
    <glyph glyph-name="J" unicode="J" horiz-adv-x="307" 
d="M-47 -236l11 60c15.333 -3.33301 29.666 -5 42.999 -5c38.667 0 66.334 13 83.001 39s25 66.333 25 121v701h78v-703c0 -71.333 -14.833 -126 -44.5 -164s-75.167 -57 -136.5 -57c-18 0 -37.667 2.66699 -59 8z" />
    <glyph glyph-name="K" unicode="K" horiz-adv-x="674" 
d="M115 680h78v-680h-78v680zM645 0h-95l-337 355v20l297 305h92l-309 -312z" />
    <glyph glyph-name="L" unicode="L" horiz-adv-x="559" 
d="M525 60v-60h-410v680h78v-620h332z" />
    <glyph glyph-name="M" unicode="M" horiz-adv-x="869" 
d="M755 680v-680h-77v247l3 304l-221 -323h-50l-221 324l3 -305v-247h-77v680h68l252 -368l252 368h68z" />
    <glyph glyph-name="N" unicode="N" horiz-adv-x="766" 
d="M652 680v-680l-67 -1l-396 552l4 -240v-311h-78v680h66l396 -553l-3 272v281h78z" />
    <glyph glyph-name="O" unicode="O" horiz-adv-x="769" 
d="M205.5 31.5c-49 31.667 -86 74.335 -111 128.002s-37.5 113.167 -37.5 178.5s12.5 125 37.5 179s62 96.833 111 128.5s108.5 47.5 178.5 47.5c69.333 0 128.666 -15.833 177.999 -47.5s86.5 -74.334 111.5 -128.001s37.5 -112.834 37.5 -177.501
c0 -66 -12.5 -126 -37.5 -180s-62.167 -96.833 -111.5 -128.5s-108.666 -47.5 -177.999 -47.5c-70 0 -129.5 15.833 -178.5 47.5zM518.5 83.001c37.667 25.333 66.167 60.333 85.5 105s29 95 29 151s-9.66699 106.167 -29 150.5s-47.833 79.166 -85.5 104.499
s-82.5 38 -134.5 38s-96.833 -12.667 -134.5 -38s-66.167 -60.166 -85.5 -104.499s-29 -94.5 -29 -150.5s9.66699 -106.333 29 -151s47.833 -79.667 85.5 -105s82.5 -38 134.5 -38s96.833 12.667 134.5 38z" />
    <glyph glyph-name="P" unicode="P" horiz-adv-x="605" 
d="M514.5 627c40.333 -35.333 60.501 -82.667 60.501 -142c0 -61.333 -20 -109.5 -60 -144.5s-99 -52.5 -177 -52.5h-145v-288h-78v680h223c77.333 0 136.166 -17.667 176.499 -53zM456.501 381.999c27 22.667 40.499 56.667 40.499 102c0 42 -13.667 75.167 -41 99.5
s-66.666 36.5 -117.999 36.5h-145v-272h145c52 0 91.5 11.333 118.5 34z" />
    <glyph glyph-name="Q" unicode="Q" horiz-adv-x="769" 
d="M849 -196c-37.333 -28.667 -75 -42.998 -113 -42.998c-63.333 0 -123.666 33.667 -180.999 101l-107 127c-22 -3.33301 -43.333 -5 -64 -5c-70 0 -129.5 15.833 -178.5 47.5s-86 74.334 -111 128.001s-37.5 113.167 -37.5 178.5s12.5 125 37.5 179s62 96.833 111 128.5
s108.5 47.5 178.5 47.5c69.333 0 128.666 -15.833 177.999 -47.5s86.5 -74.334 111.5 -128.001s37.5 -112.834 37.5 -177.501c0 -75.333 -16 -142.333 -48 -201s-78.333 -101.334 -139 -128.001l83 -98c49.333 -57.333 94 -86 134 -86c31.333 0 62 11 92 33zM164 188.002
c19.333 -44.667 47.833 -79.667 85.5 -105s82.5 -38 134.5 -38s96.833 12.667 134.5 38s66.167 60.333 85.5 105s29 95 29 151s-9.66699 106.167 -29 150.5s-47.833 79.166 -85.5 104.499s-82.5 38 -134.5 38s-96.833 -12.667 -134.5 -38s-66.167 -60.166 -85.5 -104.499
s-29 -94.5 -29 -150.5s9.66699 -106.333 29 -151z" />
    <glyph glyph-name="R" unicode="R" horiz-adv-x="671" 
d="M320 308h-127v-308h-78v680h221c74 0 130.667 -16.667 170 -50s59 -78 59 -134c0 -48.667 -13.833 -88.5 -41.5 -119.5s-68.167 -50.833 -121.5 -59.5l227 -317h-90zM193 368l143 0.000976562c100.667 0 151 42 151 126c0 39.333 -13 70.166 -39 92.499
s-63.333 33.5 -112 33.5h-143v-252z" />
    <glyph glyph-name="S" unicode="S" horiz-adv-x="587" 
d="M158 0.5c-36 11 -69.9971 27.833 -101.997 50.5l32 58c52.667 -42.667 120 -64 202 -64c47.333 0 86.333 11.833 117 35.5s46 56.167 46 97.5c0 24.667 -7.33301 45.334 -22 62.001s-32.834 30 -54.501 40s-51.167 21.667 -88.5 35c-44 15.333 -79.667 29.833 -107 43.5
s-50.5 32.667 -69.5 57s-28.5 55.5 -28.5 93.5c0 59.333 20.5 104.833 61.5 136.5s93.5 47.5 157.5 47.5c42 0 80 -5.5 114 -16.5s66 -27.5 96 -49.5l-31 -57c-52.667 41.333 -112 62 -178 62c-41.333 0 -75.5 -10.167 -102.5 -30.5s-40.5 -50.166 -40.5 -89.499
c0 -24 7.16699 -44.167 21.5 -60.5s32.166 -29.5 53.499 -39.5s50.666 -21.667 87.999 -35c44.667 -16 80.667 -30.833 108 -44.5s50.666 -32.834 69.999 -57.501s29 -56.334 29 -95.001c0 -39.333 -10.167 -73.833 -30.5 -103.5s-48.666 -52.5 -84.999 -68.5
s-77.833 -24 -124.5 -24c-52 0 -96 5.5 -132 16.5z" />
    <glyph glyph-name="T" unicode="T" horiz-adv-x="623" 
d="M586 620h-235v-620h-78v620h-237v60h550v-60z" />
    <glyph glyph-name="U" unicode="U" horiz-adv-x="746" 
d="M226.5 18c-40.333 22.667 -70.6689 53.999 -91.002 93.999s-30.5 86.333 -30.5 139v429h78v-428c0 -65.333 16.5 -116.166 49.5 -152.499s80.167 -54.5 141.5 -54.5c60.667 0 107.5 18.167 140.5 54.5s49.5 87.166 49.5 152.499v428h78v-427
c0 -53.333 -10.167 -100.166 -30.5 -140.499s-50.666 -71.833 -90.999 -94.5s-89.166 -34 -146.499 -34c-58 0 -107.167 11.333 -147.5 34z" />
    <glyph glyph-name="V" unicode="V" horiz-adv-x="662" 
d="M632 680l-264 -688h-72l-265 688h79l223 -594l222 594h77z" />
    <glyph glyph-name="W" unicode="W" horiz-adv-x="1010" 
d="M980 680l-219 -688h-72l-189 574l-189 -574h-71l-209 688h79l167 -590l191 590h65l193 -589l175 589h79z" />
    <glyph glyph-name="X" unicode="X" horiz-adv-x="697" 
d="M563 0l-214 300l-215 -300h-94l258 352l-240 328h93l198 -277l197 277h93l-240 -328l258 -352h-94z" />
    <glyph glyph-name="Y" unicode="Y" horiz-adv-x="639" 
d="M359 278v-278h-78v275l-251 405h87l203 -340l205 340h85z" />
    <glyph glyph-name="Z" unicode="Z" horiz-adv-x="660" 
d="M605 60v-60h-530v43l425 577h-412v60h503v-51l-419 -569h433z" />
    <glyph glyph-name="bracketleft" unicode="[" horiz-adv-x="311" 
d="M73 695h165v-49l-90 -10v-704l90 -10v-49h-165v822z" />
    <glyph glyph-name="backslash" unicode="\" horiz-adv-x="350" 
d="M-8 708h79l287 -944h-78z" />
    <glyph glyph-name="bracketright" unicode="]" horiz-adv-x="311" 
d="M73 -76l90 8v704l-90 8v51h165v-822h-165v51z" />
    <glyph glyph-name="asciicircum" unicode="^" horiz-adv-x="529" 
d="M348 165l-83 166l-84 -166h-65l114 224h69l114 -224h-65z" />
    <glyph glyph-name="underscore" unicode="_" horiz-adv-x="500" 
d="M0 -186h500v-58h-500v58z" />
    <glyph glyph-name="grave" unicode="`" horiz-adv-x="500" 
d="M161 800h80l97 -210h-60z" />
    <glyph glyph-name="a" unicode="a" horiz-adv-x="545" 
d="M524 0c-23.333 -8.66699 -45.668 -13.334 -67.001 -14.001c-56 0 -86 25 -90 75c-65.333 -50.667 -124 -76 -176 -76c-41.333 0 -75.166 11.833 -101.499 35.5s-39.5 53.834 -39.5 90.501c0 32.667 9.16699 60 27.5 82s43.833 40.333 76.5 55s76.334 29.667 131.001 45
l81 23v45c0 83.333 -30.667 125 -92 125c-34 0 -64.833 -7 -92.5 -21s-58.834 -40.667 -93.501 -80l-37 45c69.333 78 147 117 233 117c56.667 0 97.167 -14.5 121.5 -43.5s36.5 -77.5 36.5 -145.5v-272c0 -14.667 2.5 -25.167 7.5 -31.5s13.167 -9.5 24.5 -9.5
c12 0 26.333 3.66699 43 11zM145.998 61.5c14 -11 32.667 -16.499 56 -16.499c24.667 0 49.5 6.16699 74.5 18.5s54.833 31.166 89.5 56.499v143l-63 -19c-66 -19.333 -112.167 -38.333 -138.5 -57s-39.5 -42.667 -39.5 -72c0 -24.667 7 -42.5 21 -53.5z" />
    <glyph glyph-name="b" unicode="b" horiz-adv-x="588" 
d="M437.5 516c32.333 -21.333 57.5 -52.333 75.5 -93s27 -89 27 -145c0 -64 -11 -118.167 -33 -162.5s-52.333 -77.5 -91 -99.5s-82.667 -33 -132 -33c-47.333 0 -91.333 12.667 -132 38l-13 -22h-43v801h75v-309c46 38 97.333 57 154 57c42.667 0 80.167 -10.667 112.5 -32
zM418 106c30 42.667 44.999 100.001 44.999 172.001c0 72.667 -13.667 125.667 -41 159s-60.666 50 -99.999 50c-29.333 0 -55.166 -4.33301 -77.499 -13s-46.833 -23.334 -73.5 -44.001v-360c31.333 -18.667 67.666 -28 108.999 -28c62 0 108 21.333 138 64z" />
    <glyph glyph-name="c" unicode="c" horiz-adv-x="517" 
d="M160 19c-37.333 25.333 -65.332 59.334 -83.999 102.001s-28 90 -28 142s9.5 99.5 28.5 142.5s48.167 77.333 87.5 103s87.333 38.5 144 38.5c33.333 0 65 -6 95 -18s55 -28.333 75 -49l-32 -54c-17.333 18.667 -38.333 33.667 -63 45s-49.667 17 -75 17
c-58 0 -103 -20.667 -135 -62s-48 -95.333 -48 -162s15.167 -120.5 45.5 -161.5s72.833 -61.5 127.5 -61.5c33.333 0 63 7.16699 89 21.5s50 34.166 72 59.499l31 -47c-22 -27.333 -49.333 -49.833 -82 -67.5s-69.334 -26.5 -110.001 -26.5
c-54.667 0 -100.667 12.667 -138 38z" />
    <glyph glyph-name="d" unicode="d" horiz-adv-x="588" 
d="M491 800v-800.001h-59l-9 45c-47.333 -42.667 -101 -64 -161 -64c-42 0 -79.167 10.667 -111.5 32s-57.5 52.5 -75.5 93.5s-27 89.833 -27 146.5c0 96.667 24 169.834 72 219.501s112 74.5 192 74.5c38 0 72.667 -6.33301 104 -19v272h75zM166 92.499
c27.333 -33.667 60.667 -50.5 100 -50.5c28.667 0 54.167 4.5 76.5 13.5s46.833 24.167 73.5 45.5v368c-27.333 12.667 -61 19 -101 19c-64 0 -111.667 -21.167 -143 -63.5s-47 -99.5 -47 -171.5c0 -73.333 13.667 -126.833 41 -160.5z" />
    <glyph glyph-name="e" unicode="e" horiz-adv-x="546" 
d="M495 78c-54.667 -64.667 -120.667 -97 -198 -97c-54 0 -99.667 12.667 -137 38s-65.333 59.5 -84 102.5s-28 90.167 -28 141.5c0 52.667 9.33301 100.5 28 143.5s46.667 77.167 84 102.5s83 38 137 38c36.667 0 70 -7.5 100 -22.5s53.667 -37 71 -66
s26 -63.167 26 -102.5c0 -16.667 -2 -35 -6 -55h-362c-1.33301 -16 -2 -28 -2 -36c0 -67.333 15 -121.5 45 -162.5s73 -61.5 129 -61.5c34 0 64.333 7.5 91 22.5s51.667 35.5 75 61.5zM193.5 454.5c-27 -23.667 -46.168 -55.833 -57.501 -96.5h283v7
c0 40 -12.167 70.833 -36.5 92.5s-53.166 32.5 -86.499 32.5c-41.333 0 -75.5 -11.833 -102.5 -35.5z" />
    <glyph glyph-name="f" unicode="f" horiz-adv-x="395" 
d="M224 528l160 -0.000976562v-57h-160v-471h-75v471h-85v32l85 21v58c0 70.667 14.667 124.834 44 162.501s74.333 56.5 135 56.5c18.667 0 38 -2.66699 58 -8l-11 -58c-14.667 3.33301 -28.667 5 -42 5c-38.667 0 -66.5 -13 -83.5 -39s-25.5 -66.333 -25.5 -121v-52z" />
    <glyph glyph-name="g" unicode="g" horiz-adv-x="548" 
d="M537 470l-122 10.998c23.333 -29.333 35 -64.666 35 -105.999c0 -32 -7 -61.333 -21 -88s-35.333 -48 -64 -64s-63.334 -24 -104.001 -24c-25.333 0 -47.333 3 -66 9c-22 -19.333 -37.5 -34.666 -46.5 -45.999s-13.5 -23.666 -13.5 -36.999
c0 -15.333 5.66699 -26.333 17 -33s29.666 -10 54.999 -10h173c46.667 0 82.834 -11.5 108.501 -34.5s38.5 -53.833 38.5 -92.5c0 -37.333 -12.667 -71.333 -38 -102s-60.166 -54.834 -104.499 -72.501s-93.833 -26.5 -148.5 -26.5c-70.667 0 -121.5 13 -152.5 39
s-46.5 58.667 -46.5 98c0 28 6.83301 52.167 20.5 72.5s35.5 42.5 65.5 66.5c-40 14 -60 41 -60 81c0 20 6 38.833 18 56.5s32.667 38.834 62 63.501c-23.333 15.333 -41.166 35.5 -53.499 60.5s-18.5 52.167 -18.5 81.5c0 31.333 7 60.166 21 86.499s35.333 47.5 64 63.5
s63.667 24 105 24c35.333 0 66.666 -6.33301 93.999 -19h182v-58zM344.5 288.998c20.333 22 30.501 50.333 30.501 85c0 34 -10 61.833 -30 83.5s-48 32.5 -84 32.5c-35.333 0 -63.166 -10.833 -83.499 -32.5s-30.5 -49.5 -30.5 -83.5c0 -34.667 10.167 -63 30.5 -85
s48.166 -33 83.499 -33s63.166 11 83.499 33zM371.001 18.998l-169.999 -0.000976562h-12c-26.667 -20.667 -46.834 -40.667 -60.501 -60s-20.5 -40.666 -20.5 -63.999c0 -29.333 11.167 -50.333 33.5 -63s53.833 -19 94.5 -19c41.333 0 78.833 6.5 112.5 19.5
s60.167 29.833 79.5 50.5s29 41.667 29 63c0 48.667 -28.667 73 -86 73z" />
    <glyph glyph-name="h" unicode="h" horiz-adv-x="595" 
d="M471.5 503c21 -29.333 31.5029 -71.668 31.5029 -127.001v-376h-75v370c0 40.667 -6.83301 70.167 -20.5 88.5s-36.834 27.5 -69.501 27.5c-25.333 0 -51.333 -6.16699 -78 -18.5s-56.334 -31.166 -89.001 -56.499v-411h-75v800h75v-326
c63.333 48.667 124.666 73 183.999 73c56.667 0 95.5 -14.667 116.5 -44z" />
    <glyph glyph-name="i" unicode="i" horiz-adv-x="282" 
d="M106 722.5c-10 9.66699 -15 21.167 -15 34.5c0 14 5 26 15 36s21.667 15 35 15c14 0 25.833 -5 35.5 -15s14.5 -22 14.5 -36c0 -13.333 -4.83301 -24.833 -14.5 -34.5s-21.5 -14.5 -35.5 -14.5c-13.333 0 -25 4.83301 -35 14.5zM103 528h75v-528h-75v528z" />
    <glyph glyph-name="j" unicode="j" horiz-adv-x="268" 
d="M102 722.5c-10 9.66699 -15 21.167 -15 34.5c0 14 5 26 15 36s21.667 15 35 15c14 0 25.833 -5 35.5 -15s14.5 -22 14.5 -36c0 -13.333 -4.83301 -24.833 -14.5 -34.5s-21.5 -14.5 -35.5 -14.5c-13.333 0 -25 4.83301 -35 14.5zM-65 -236l11 58.001
c14.667 -3.33301 28.667 -5 42 -5c38.667 0 66.5 13 83.5 39s25.5 66.333 25.5 121v551h75v-553c0 -70.667 -14.667 -124.834 -44 -162.501s-74 -56.5 -134 -56.5c-18 0 -37.667 2.66699 -59 8z" />
    <glyph glyph-name="k" unicode="k" horiz-adv-x="549" 
d="M96 800h75v-800h-75v800zM524 0h-88l-240 279v20l206 229h84l-216 -236z" />
    <glyph glyph-name="l" unicode="l" horiz-adv-x="268" 
d="M96 800h75v-800h-75v800z" />
    <glyph glyph-name="m" unicode="m" horiz-adv-x="893" 
d="M772 503.5c20 -29 30.001 -71.501 30.001 -127.501v-376h-75v370c0 40.667 -6.16699 70.167 -18.5 88.5s-33.5 27.5 -63.5 27.5c-24 0 -48.333 -6.16699 -73 -18.5s-53.334 -31.166 -86.001 -56.499c0.666992 -7.33301 1 -19 1 -35v-376h-75v370
c0 40.667 -6.16699 70.167 -18.5 88.5s-33.5 27.5 -63.5 27.5c-24 0 -48.167 -6 -72.5 -18s-53.166 -31 -86.499 -57v-411h-75v528h59l11 -57c65.333 50.667 125.666 76 180.999 76c36.667 0 65.167 -7 85.5 -21s34.833 -34 43.5 -60c66.667 54 128.667 81 186 81
c53.333 0 90 -14.5 110 -43.5z" />
    <glyph glyph-name="n" unicode="n" horiz-adv-x="595" 
d="M472.5 503c21 -29.333 31.502 -71.668 31.502 -127.001v-376h-75v370c0 40.667 -6.83301 70.167 -20.5 88.5s-36.834 27.5 -69.501 27.5c-26 0 -52.333 -6.16699 -79 -18.5s-56.334 -31.166 -89.001 -56.499v-411h-75v528h59l11 -57c64.667 50.667 128 76 190 76
c56.667 0 95.5 -14.667 116.5 -44z" />
    <glyph glyph-name="o" unicode="o" horiz-adv-x="596" 
d="M160.5 19c-37.667 25.333 -65.834 59.499 -84.501 102.499s-28 90.167 -28 141.5c0 52.667 9.33301 100.5 28 143.5s46.834 77.167 84.501 102.5s83.5 38 137.5 38s99.667 -12.833 137 -38.5s65.333 -60 84 -103s28 -89.833 28 -140.5
c0 -51.333 -9.33301 -98.666 -28 -141.999s-46.667 -77.833 -84 -103.5s-83 -38.5 -137 -38.5s-99.833 12.667 -137.5 38zM425 101.999c30 40.667 45 94.667 45 162c0 66.667 -15 120.667 -45 162s-72.667 62 -128 62c-54.667 0 -97 -20.667 -127 -62s-45 -95.333 -45 -162
c0 -67.333 14.833 -121.333 44.5 -162s72.167 -61 127.5 -61s98 20.333 128 61z" />
    <glyph glyph-name="p" unicode="p" horiz-adv-x="588" 
d="M437.5 515c32.333 -21.333 57.5 -52.333 75.5 -93s27 -89 27 -145c0 -64.667 -11.167 -119.167 -33.5 -163.5s-53.5 -77.5 -93.5 -99.5s-86 -33 -138 -33c-38 0 -72.667 7 -104 21v-238h-75v767h59l9 -46c46 41.333 99.667 62 161 62c42.667 0 80.167 -10.667 112.5 -32z
M415.5 104.5c31 42.333 46.499 100.167 46.499 173.5c0 72.667 -13.5 125.5 -40.5 158.5s-60.167 49.5 -99.5 49.5c-29.333 0 -55.166 -4.33301 -77.499 -13s-46.833 -23 -73.5 -43v-367c29.333 -14.667 63.333 -22 102 -22c64 0 111.5 21.167 142.5 63.5z" />
    <glyph glyph-name="q" unicode="q" horiz-adv-x="588" 
d="M491 531l-0.000976562 -768h-75v275c-46 -38 -97.333 -57 -154 -57c-42 0 -79.167 10.667 -111.5 32s-57.5 52.5 -75.5 93.5s-27 89.5 -27 145.5c0 64 10.833 118.167 32.5 162.5s51.834 77.5 90.501 99.5s82.667 33 132 33c47.333 0 91.333 -12.667 132 -38l14 22h42z
M342.999 55.5c22 9 46.334 23.834 73.001 44.501v361c-30.667 18 -66.667 27 -108 27c-62 0 -108 -21.333 -138 -64s-45 -100 -45 -172c0 -72.667 13.667 -125.834 41 -159.501s60.666 -50.5 99.999 -50.5c29.333 0 55 4.5 77 13.5z" />
    <glyph glyph-name="r" unicode="r" horiz-adv-x="390" 
d="M359 477c-31.333 0 -61.667 -6 -91 -18s-61.666 -34.333 -96.999 -67v-392h-75v528h59l14 -72c32.667 33.333 64.167 56.833 94.5 70.5s62.166 20.5 95.499 20.5v-70z" />
    <glyph glyph-name="s" unicode="s" horiz-adv-x="478" 
d="M130 -6c-29.333 8.66699 -56.667 22.001 -82 40.001l26 56c41.333 -32.667 95 -49 161 -49c36 0 65.167 8.66699 87.5 26s33.5 41.666 33.5 72.999c0 18 -5.5 33 -16.5 45s-24.5 22 -40.5 30s-38.333 17.333 -67 28c-34.667 12.667 -62.834 24.5 -84.501 35.5
s-40.167 26.333 -55.5 46s-23 44.834 -23 75.501c0 47.333 16.5 83.666 49.5 108.999s75.5 38 127.5 38c64 0 120 -17.333 168 -52l-25 -55c-42.667 32 -90 48 -142 48c-31.333 0 -56.666 -7 -75.999 -21s-29 -35 -29 -63c0 -18 5.5 -33.167 16.5 -45.5
s24.5 -22.333 40.5 -30s38.333 -16.5 67 -26.5c36 -13.333 64.5 -25.5 85.5 -36.5s39.167 -26.5 54.5 -46.5s23 -45.667 23 -77c0 -49.333 -17.833 -88.5 -53.5 -117.5s-82.5 -43.5 -140.5 -43.5c-40.667 0 -75.667 4.33301 -105 13z" />
    <glyph glyph-name="t" unicode="t" horiz-adv-x="418" 
d="M382 17c-34.667 -20.667 -69.668 -31 -105.001 -31c-54.667 0 -95.167 15.5 -121.5 46.5s-39.5 75.5 -39.5 133.5v305h-85v32l91 23l23 125h46v-123h160v-57h-160v-296c0 -44.667 7.16699 -77.167 21.5 -97.5s37.833 -30.5 70.5 -30.5c15.333 0 28.833 2 40.5 6
s26.834 10.333 45.501 19z" />
    <glyph glyph-name="u" unicode="u" horiz-adv-x="595" 
d="M498 528l-0.000976562 -528h-59l-11 58c-64.667 -51.333 -127.667 -77 -189 -77c-56.667 0 -95.5 14.667 -116.5 44s-31.5 72 -31.5 128v375h75v-370c0 -40.667 6.83301 -70 20.5 -88s36.834 -27 69.501 -27c26 0 52.5 6 79.5 18s56.167 30.667 87.5 56v411h75z" />
    <glyph glyph-name="v" unicode="v" horiz-adv-x="516" 
d="M498 528l-206 -536h-67l-207 536h78l163 -437l163 437h76z" />
    <glyph glyph-name="w" unicode="w" horiz-adv-x="797" 
d="M778 528l-166 -536h-67l-146 435l-147 -435h-67l-167 536h78l124 -435l147 435h64l149 -435l122 435h76z" />
    <glyph glyph-name="x" unicode="x" horiz-adv-x="556" 
d="M440 0l-163 227l-163 -227h-88l203 276l-184 252h89l145 -203l145 203h87l-184 -252l204 -276h-91z" />
    <glyph glyph-name="y" unicode="y" horiz-adv-x="528" 
d="M510 528l-230 -602c-22.667 -60.667 -50 -104.667 -82 -132s-71.333 -41 -118 -41c-21.333 0 -42 3.66699 -62 11l11 61c17.333 -5.33301 33.333 -8 48 -8c32.667 0 60 10 82 30s43.333 57.333 64 112l14 37l-207 532h78l165 -435l161 435h76z" />
    <glyph glyph-name="z" unicode="z" horiz-adv-x="501" 
d="M455 58v-58h-409v39l311 432h-300v57h388v-43l-307 -427h317z" />
    <glyph glyph-name="braceleft" unicode="{" horiz-adv-x="311" 
d="M100 7c0 21.333 3 49.333 9 84c6.66699 40 10 71.667 10 95s-8.5 40.833 -25.5 52.5s-43.5 19.5 -79.5 23.5v52c35.333 3.33301 61.5 11 78.5 23s25.5 29.333 25.5 52s-3.33301 54.667 -10 96c-6 34.667 -9 62.667 -9 84c0 92 57.667 137.333 173 136v-55
c-66.667 0.666992 -100 -22 -100 -68c0 -30.667 3.33301 -65.334 10 -104.001c6 -30 9 -56 9 -78c0 -27.333 -6.66699 -50.666 -20 -69.999s-32.333 -33 -57 -41v-2c25.333 -8 44.5 -21.5 57.5 -40.5s19.5 -42.833 19.5 -71.5c0 -22 -3 -48 -9 -78
c-6.66699 -38.667 -10 -73 -10 -103c0 -45.333 33.333 -68 100 -68v-56c-114.667 0 -172 45.667 -172 137z" />
    <glyph glyph-name="bar" unicode="|" horiz-adv-x="348" 
d="M135 807h78v-1043h-78v1043z" />
    <glyph glyph-name="braceright" unicode="}" horiz-adv-x="311" 
d="M39 -74c66.667 -0.666992 100.001 22.001 100.001 68.001c0 30 -3.33301 64.333 -10 103c-6 30 -9 56.333 -9 79c0 27.333 6.66699 50.666 20 69.999s32.333 33 57 41v2c-25.333 8 -44.5 21.5 -57.5 40.5s-19.5 42.833 -19.5 71.5c0 22 3 48 9 78
c6.66699 38.667 10 73 10 103c0 45.333 -33.333 68 -100 68v56c50.667 0 92 -9.83301 124 -29.5s48 -55.5 48 -107.5c0 -21.333 -3 -49.333 -9 -84c-6.66699 -41.333 -10 -73 -10 -95c0 -23.333 8.66699 -41 26 -53s43.666 -19.667 78.999 -23v-52
c-35.333 -3.33301 -61.5 -11 -78.5 -23s-25.5 -29.333 -25.5 -52s3.33301 -54.667 10 -96c6 -34.667 9 -62.667 9 -84c0 -92 -57.667 -137.333 -173 -136v55z" />
    <glyph glyph-name="asciitilde" unicode="~" horiz-adv-x="529" 
d="M11 247c22 28.667 45.5 52.001 70.5 70.001s54.5 27 88.5 27c20 0 38 -3.33301 54 -10s33.667 -16 53 -28c18 -10.667 32.833 -18.5 44.5 -23.5s24.5 -7.5 38.5 -7.5c43.333 0 82 24 116 72l42 -38c-23.333 -29.333 -47 -52.666 -71 -69.999s-53 -26 -87 -26
c-18 0 -34 3 -48 9s-32 15 -54 27c-18 11.333 -33.5 19.666 -46.5 24.999s-26.833 8 -41.5 8c-24 0 -45.5 -6.83301 -64.5 -20.5s-36.833 -31.834 -53.5 -54.501z" />
    <glyph glyph-name="DEL" horiz-adv-x="106" 
 />
    <glyph glyph-name="uni00A0" unicode="&#xa0;" horiz-adv-x="250" 
 />
    <glyph glyph-name="exclamdown" unicode="&#xa1;" horiz-adv-x="268" 
d="M182 -142h-85l10 495h55zM171.5 531.5c10.333 -10.333 15.5 -22.833 15.5 -37.5s-5.16699 -27.334 -15.5 -38.001s-22.833 -16 -37.5 -16s-27.334 5.33301 -38.001 16s-16 23.334 -16 38.001s5.33301 27.167 16 37.5s23.334 15.5 38.001 15.5s27.167 -5.16699 37.5 -15.5
z" />
    <glyph glyph-name="cent" unicode="&#xa2;" horiz-adv-x="529" 
d="M322 61l-0.00195312 -138.002h-71v139c-69.333 9.33301 -122.333 39.666 -159 90.999s-55 113 -55 185c0 70 18.167 130.5 54.5 181.5s89.5 82.167 159.5 93.5v141h71v-138c31.333 -2 61.5 -9.66699 90.5 -23s52.833 -30.666 71.5 -51.999l-32 -52
c-15.333 18.667 -34.666 33.834 -57.999 45.501s-47.333 18.834 -72 21.501v-435c52 6.66699 99.667 36 143 88l32 -49c-49.333 -59.333 -107.666 -92.333 -174.999 -99zM150.498 196.498c23.667 -38.333 57.167 -62.5 100.5 -72.5v426
c-43.333 -11.333 -76.833 -36 -100.5 -74s-35.5 -83.667 -35.5 -137c0 -56.667 11.833 -104.167 35.5 -142.5z" />
    <glyph glyph-name="sterling" unicode="&#xa3;" horiz-adv-x="529" 
d="M472 59l0.000976562 -58.999h-420v43c42 36 73 68.333 93 97s30 56 30 82c0 28.667 -8 59 -24 91h-102v59h73c-18.667 43.333 -28 88 -28 134c0 34.667 8.16699 66.167 24.5 94.5s39.833 50.833 70.5 67.5s66.667 25 108 25c66 -0.666992 121.333 -25.667 166 -75
l-34 -45c-18.667 18.667 -37.834 33 -57.501 43s-43.167 15.333 -70.5 16c-42 0 -74.167 -12.167 -96.5 -36.5s-33.5 -55.166 -33.5 -92.499c0 -26 3 -48.833 9 -68.5s14.333 -40.5 25 -62.5h210v-59h-182c12.667 -30 19 -60.333 19 -91
c0 -28.667 -7.5 -55.834 -22.5 -81.501s-37.833 -52.834 -68.5 -81.501h311z" />
    <glyph glyph-name="currency" unicode="&#xa4;" horiz-adv-x="529" 
d="M403 176l48 -48.999l-44 -45l-48 48c-26.667 -18 -58 -27 -94 -27s-67.333 9 -94 27l-48 -48l-45 45l49 49c-17.333 27.333 -26 58.666 -26 93.999c0 34 8.33301 65 25 93l-48 48l45 45l46 -47c28 19.333 60 29 96 29c35.333 0 67.333 -9.33301 96 -28l46 46l45 -45
l-48 -48c16.667 -28 25 -58.333 25 -91c0 -36.667 -8.66699 -68.667 -26 -96zM340 188.001c19.333 22 29 49.667 29 83c0 32.667 -9.66699 60 -29 82s-44.333 33 -75 33c-30 0 -54.833 -11 -74.5 -33s-29.5 -49.333 -29.5 -82c0 -33.333 9.83301 -61 29.5 -83
s44.5 -33 74.5 -33c30.667 0 55.667 11 75 33z" />
    <glyph glyph-name="yen" unicode="&#xa5;" horiz-adv-x="529" 
d="M329 427h131v-59h-158v-68h158v-59h-158v-241h-76v241h-160v59h160v68h-160v59h132l-159 253h84l142 -241l142 241h82z" />
    <glyph glyph-name="brokenbar" unicode="&#xa6;" horiz-adv-x="348" 
d="M135 807h78v-408h-78v408zM135 172h78v-408h-78v408z" />
    <glyph glyph-name="section" unicode="&#xa7;" horiz-adv-x="603" 
d="M486 22c0 -52.667 -17.8291 -93.1709 -53.4961 -121.504s-82.5 -42.5 -140.5 -42.5c-34.667 0 -65.834 4.5 -93.501 13.5s-54.167 22.167 -79.5 39.5l26 55c44 -32.667 93 -49 147 -49c35.333 0 64.333 8.5 87 25.5s34 42.5 34 76.5
c0 24.667 -10.167 43.834 -30.5 57.501s-51.5 28.167 -93.5 43.5c-34.667 12.667 -62.834 24.5 -84.501 35.5s-40.167 26.167 -55.5 45.5s-23 44 -23 74c0 28.667 7.5 54.5 22.5 77.5s36.5 44.167 64.5 63.5c-47.333 28 -71 67.333 -71 118c0 48 16.5 84.667 49.5 110
s75.5 38 127.5 38c64 0 120.333 -17.333 169 -52l-26 -56c-42 32.667 -89.333 49 -142 49c-30.667 0 -55.834 -7.16699 -75.501 -21.5s-29.5 -35.166 -29.5 -62.499c0 -18 5.5 -33.167 16.5 -45.5s24.5 -22.5 40.5 -30.5s38 -17.333 66 -28
c36 -13.333 64.667 -25.666 86 -36.999s39.666 -27.166 54.999 -47.499s23 -46.5 23 -78.5c0 -52 -27 -97.333 -81 -136c43.333 -28 65 -66 65 -114zM215.504 233.996c11 -12 24.833 -21.833 41.5 -29.5s39.334 -16.5 68.001 -26.5l30 -11c49.333 28 74 62.333 74 103
c0 18.667 -5.66699 34.334 -17 47.001s-25.333 23 -42 31s-39.334 17.333 -68.001 28l-26 10c-51.333 -28.667 -77 -64.334 -77 -107.001c0 -18 5.5 -33 16.5 -45z" />
    <glyph glyph-name="dieresis" unicode="&#xa8;" horiz-adv-x="500" 
d="M119.5 722c-9.66699 9.33301 -14.498 20.333 -14.498 33c0 13.333 4.66699 24.833 14 34.5s20.666 14.5 33.999 14.5s24.833 -4.83301 34.5 -14.5s14.5 -21.167 14.5 -34.5c0 -12.667 -4.83301 -23.667 -14.5 -33s-21.167 -14 -34.5 -14
c-12.667 0 -23.834 4.66699 -33.501 14zM313.502 722c-9.66699 9.33301 -14.498 20.333 -14.498 33c0 13.333 4.66699 24.833 14 34.5s20.666 14.5 33.999 14.5s24.833 -4.83301 34.5 -14.5s14.5 -21.167 14.5 -34.5c0 -12.667 -4.83301 -23.667 -14.5 -33
s-21.167 -14 -34.5 -14c-12.667 0 -23.834 4.66699 -33.501 14z" />
    <glyph glyph-name="copyright" unicode="&#xa9;" horiz-adv-x="819" 
d="M231.5 33c-53.667 32 -96.167 75.333 -127.5 130s-47 114.667 -47 180c0 63.333 15.667 121.833 47 175.5s73.833 96.167 127.5 127.5s112.834 47 177.501 47s124 -15.667 178 -47s96.5 -73.833 127.5 -127.5s46.5 -112.167 46.5 -175.5
c0 -65.333 -15.5 -125.333 -46.5 -180s-73.5 -98 -127.5 -130s-113.333 -48 -178 -48s-123.834 16 -177.501 48zM557 76.5c44.667 27.667 80 65 106 112s39 98.5 39 154.5c0 54.667 -13 105 -39 151s-61.333 82.333 -106 109s-94 40 -148 40s-103.5 -13.333 -148.5 -40
s-80.333 -63 -106 -109s-38.5 -96.333 -38.5 -151c0 -56 12.833 -107.5 38.5 -154.5s61 -84.333 106 -112s94.5 -41.5 148.5 -41.5s103.333 13.833 148 41.5zM320 184c-26.667 16.667 -47.1631 38.668 -61.4961 66.001s-21.5 57 -21.5 89s7.33301 61.667 22 89
s36 49.166 64 65.499s60.667 24.5 98 24.5c24.667 0 47.667 -4.33301 69 -13s39.666 -20.667 54.999 -36l-29 -37c-10.667 10.667 -24.334 19.334 -41.001 26.001s-33.667 10 -51 10c-37.333 0 -67.833 -12.333 -91.5 -37s-35.5 -55.334 -35.5 -92.001
c0 -37.333 11.167 -68.333 33.5 -93s51.166 -37 86.499 -37c43.333 0 78.666 16 105.999 48l28 -36c-16 -18 -35.667 -32.833 -59 -44.5s-49.333 -17.5 -78 -17.5c-36 0 -67.333 8.33301 -94 25z" />
    <glyph glyph-name="ordfeminine" unicode="&#xaa;" horiz-adv-x="342" 
d="M52 485.5c14.667 15.667 35.665 28.833 62.998 39.5s64 22 110 34v24c0 19.333 -3.66699 35 -11 47s-21.666 18 -42.999 18c-20 0 -38.333 -4.16699 -55 -12.5s-35.334 -23.5 -56.001 -45.5l-30 37c46 47.333 95.333 71 148 71c39.333 0 67.5 -9.5 84.5 -28.5
s25.5 -49.5 25.5 -91.5v-155c0 -14 5 -21 15 -21c6 0 12.333 2 19 6l6 -48c-15.333 -6 -30 -9 -44 -9c-33.333 0 -52.666 15 -57.999 45c-38.667 -30.667 -75 -46 -109 -46c-25.333 0 -46.166 7.16699 -62.499 21.5s-24.5 32.166 -24.5 53.499
c0 24.667 7.33301 44.834 22 60.501zM103.998 406.499c7.33301 -5.66699 16.334 -8.49902 27.001 -8.49902c13.333 0 27.333 3.66699 42 11s32 18.666 52 33.999v73c-48.667 -12.667 -82.834 -25.167 -102.501 -37.5s-29.5 -28.5 -29.5 -48.5
c0 -10 3.66699 -17.833 11 -23.5zM30.999 259h286v-53h-286v53z" />
    <glyph glyph-name="guillemotleft" unicode="&#xab;" horiz-adv-x="542" 
d="M42 259l190 211l49 -42l-152 -169l152 -170l-49 -41zM263 259l190 211l49 -42l-152 -169l152 -170l-49 -41z" />
    <glyph glyph-name="logicalnot" unicode="&#xac;" horiz-adv-x="529" 
d="M496 302v-262h-60v204h-403v58h463z" />
    <glyph glyph-name="uni00AD" unicode="&#xad;" horiz-adv-x="600" 
d="M20 300h219v-58h-219v58z" />
    <glyph glyph-name="registered" unicode="&#xae;" horiz-adv-x="371" 
d="M263 681c23.333 -13.333 41.666 -31.666 54.999 -54.999s20 -49 20 -77c0 -27.333 -6.66699 -52.666 -20 -75.999s-31.666 -41.666 -54.999 -54.999s-49 -20 -77 -20c-27.333 0 -52.666 6.66699 -75.999 20s-41.833 31.666 -55.5 54.999s-20.5 48.666 -20.5 75.999
c0 28 6.83301 53.667 20.5 77s32.167 41.666 55.5 54.999s48.666 20 75.999 20c28 0 53.667 -6.66699 77 -20zM268.5 465c23 23.333 34.5 51.333 34.5 84c0 33.333 -11.5 61.833 -34.5 85.5s-50.5 35.5 -82.5 35.5s-59.5 -11.833 -82.5 -35.5s-34.5 -52.167 -34.5 -85.5
c0 -32.667 11.5 -60.667 34.5 -84s50.5 -35 82.5 -35s59.5 11.667 82.5 35zM221 531l37 -52h-42l-31 45h-19v-45h-36v142h59c18.667 0 33 -4.5 43 -13.5s15 -20.5 15 -34.5c0 -20 -8.66699 -34 -26 -42zM166 553h21c14.667 0 22 6.66699 22 20c0 5.33301 -2 9.83301 -6 13.5
s-9.33301 5.5 -16 5.5h-21v-39z" />
    <glyph glyph-name="macron" unicode="&#xaf;" horiz-adv-x="500" 
d="M99 782h301v-56h-301v56z" />
    <glyph glyph-name="degree" unicode="&#xb0;" horiz-adv-x="444" 
d="M135.5 393.5c-24.333 15 -43 35.002 -56 60.002s-19.5 52.167 -19.5 81.5s6.5 56.666 19.5 81.999s31.667 45.666 56 60.999s53.166 23 86.499 23s62.333 -7.66699 87 -23s43.5 -35.5 56.5 -60.5s19.5 -51.833 19.5 -80.5c0 -30 -6.5 -57.667 -19.5 -83
s-31.833 -45.5 -56.5 -60.5s-53.667 -22.5 -87 -22.5s-62.166 7.5 -86.499 22.5zM297 453.002c19.333 22 29 49.667 29 83c0 32.667 -9.66699 60.167 -29 82.5s-44.333 33.5 -75 33.5c-30 0 -54.833 -11.167 -74.5 -33.5s-29.5 -49.833 -29.5 -82.5
c0 -33.333 9.83301 -61 29.5 -83s44.5 -33 74.5 -33c30.667 0 55.667 11 75 33z" />
    <glyph glyph-name="plusminus" unicode="&#xb1;" horiz-adv-x="529" 
d="M496 335v-56h-201v-160h-60v160h-202v56h202v169h60v-169h201zM33 57h463v-57h-463v57z" />
    <glyph glyph-name="uni00B2" unicode="&#xb2;" horiz-adv-x="331" 
d="M158 880c42 0 74.666 -11.002 97.999 -33.002s35 -50.667 35 -86c0 -29.333 -8.5 -58 -25.5 -86s-46.833 -62.333 -89.5 -103l-58 -55v-1h184v-51h-270v44l104 96c34.667 32.667 58.834 60.834 72.501 84.501s20.5 46.5 20.5 68.5c0 22.667 -6.5 40.334 -19.5 53.001
s-30.5 19 -52.5 19c-19.333 0 -37 -4.5 -53 -13.5s-33.667 -23.833 -53 -44.5l-28 38c37.333 46.667 82.333 70 135 70z" />
    <glyph glyph-name="uni00B3" unicode="&#xb3;" horiz-adv-x="332" 
d="M280 649.5c18 -18.333 26.998 -41.1689 26.998 -68.502c0 -36 -14 -66.167 -42 -90.5s-65.667 -36.5 -113 -36.5c-28.667 0 -53.5 3.83301 -74.5 11.5s-40.5 21.5 -58.5 41.5l27 40c17.333 -16.667 34 -28.334 50 -35.001s35 -10 57 -10c26.667 0 48.5 7.5 65.5 22.5
s25.5 34.167 25.5 57.5c0 21.333 -7.16699 38.5 -21.5 51.5s-34.5 19.5 -60.5 19.5c-20.667 0 -41 -3.66699 -61 -11l-10 47c32 8 56.833 15.333 74.5 22s31.667 15.834 42 27.501s15.5 26.834 15.5 45.501c0 14 -5.33301 25.333 -16 34s-25.334 13 -44.001 13
c-17.333 0 -35.166 -4.16699 -53.499 -12.5s-35.5 -21.5 -51.5 -39.5l-27 33c18.667 22 39.834 38.833 63.501 50.5s47.834 17.5 72.501 17.5c36 0 64.667 -8.5 86 -25.5s32 -39.833 32 -68.5c0 -22 -6.5 -41.667 -19.5 -59s-30.5 -31.333 -52.5 -42
c26.667 -5.33301 49 -17.166 67 -35.499z" />
    <glyph glyph-name="acute" unicode="&#xb4;" horiz-adv-x="500" 
d="M259 802h80l-117 -212h-60z" />
    <glyph glyph-name="paragraph" unicode="&#xb6;" horiz-adv-x="592" 
d="M479 -25c0 -70.667 -14.8301 -124.832 -44.4971 -162.499s-74.834 -56.5 -135.501 -56.5c-18 0 -37.667 2.66699 -59 8l11 59c14.667 -3.33301 28.667 -5 42 -5c38.667 0 66.5 13 83.5 39s25.5 66 25.5 120v223h-104c-86 0 -152.167 21.833 -198.5 65.5
s-69.5 102.167 -69.5 175.5c0 45.333 10.167 86.166 30.5 122.499s50.666 64.833 90.999 85.5s89.166 31 146.499 31h181v-705z" />
    <glyph glyph-name="periodcentered" unicode="&#xb7;" horiz-adv-x="268" 
d="M96.5 231.5c-10.333 10.333 -15.5 22.833 -15.5 37.5s5.16699 27.334 15.5 38.001s22.833 16 37.5 16s27.334 -5.33301 38.001 -16s16 -23.334 16 -38.001s-5.33301 -27.167 -16 -37.5s-23.334 -15.5 -38.001 -15.5s-27.167 5.16699 -37.5 15.5z" />
    <glyph glyph-name="cedilla" unicode="&#xb8;" horiz-adv-x="500" 
d="M310.5 -84c13.667 -11.333 20.501 -26 20.501 -44c0 -50 -42 -86.667 -126 -110l-21 37c33.333 12 56 23.167 68 33.5s18 21.5 18 33.5c0 16.667 -10 25 -30 25c-10.667 0 -23.334 -3.33301 -38.001 -10l-31 30l53 98h54l-41 -79c7.33301 2 14.666 3 21.999 3
c20.667 0 37.834 -5.66699 51.501 -17z" />
    <glyph glyph-name="uni00B9" unicode="&#xb9;" horiz-adv-x="331" 
d="M297 516v-51h-224v51h81v286l-69 -48l-25 42l104 77h52v-357h81z" />
    <glyph glyph-name="ordmasculine" unicode="&#xba;" horiz-adv-x="370" 
d="M68.5 650c27 34 65.5 51 115.5 51c50.667 0 89.5 -16.833 116.5 -50.5s40.5 -74.834 40.5 -123.501c0 -50 -13.5 -91.833 -40.5 -125.5s-65.833 -50.5 -116.5 -50.5c-50 0 -88.5 16.833 -115.5 50.5s-40.5 74.834 -40.5 123.501c0 49.333 13.5 91 40.5 125zM254 616.5
c-16 23 -39 34.5 -69 34.5c-29.333 0 -52 -11.5 -68 -34.5s-24 -53.167 -24 -90.5c0 -38 8 -68.5 24 -91.5s38.667 -34.5 68 -34.5c30 0 53 11.5 69 34.5s24 53.5 24 91.5c0 37.333 -8 67.5 -24 90.5zM327 259v-53h-285v53h285z" />
    <glyph glyph-name="guillemotright" unicode="&#xbb;" horiz-adv-x="542" 
d="M40 90l152 169l-152 170l49 41l190 -211l-190 -211zM261 90l152 169l-152 170l49 41l190 -211l-190 -211z" />
    <glyph glyph-name="onequarter" unicode="&#xbc;" horiz-adv-x="848" 
d="M687 667l-400 -692l-51 31l400 692zM297 323v-51h-224v51h81v286l-69 -48l-25 42l104 77h52v-357h81zM843 104h-66v-106h-62v106h-190v37l192 267h60v-254h66v-50zM715 154v72l1 99l-69 -96l-53 -75h121z" />
    <glyph glyph-name="onehalf" unicode="&#xbd;" horiz-adv-x="877" 
d="M687 667l-400 -692l-51 31l400 692zM297 323v-51h-224v51h81v286l-69 -48l-25 42l104 77h52v-357h81zM704 415c42 0 74.666 -11.002 97.999 -33.002s35 -50.667 35 -86c0 -29.333 -8.5 -58 -25.5 -86s-46.833 -62.333 -89.5 -103l-58 -55v-1h184v-51h-270v44l104 96
c34.667 32.667 58.834 60.834 72.501 84.501s20.5 46.5 20.5 68.5c0 22.667 -6.5 40.334 -19.5 53.001s-30.5 19 -52.5 19c-19.333 0 -37 -4.5 -53 -13.5s-33.667 -23.833 -53 -44.5l-28 38c37.333 46.667 82.333 70 135 70z" />
    <glyph glyph-name="threequarters" unicode="&#xbe;" horiz-adv-x="802" 
d="M642 667l-400 -692l-51 31l400 692zM280 456.5c18 -18.333 26.998 -41.1689 26.998 -68.502c0 -36 -14 -66.167 -42 -90.5s-65.667 -36.5 -113 -36.5c-28.667 0 -53.5 3.83301 -74.5 11.5s-40.5 21.5 -58.5 41.5l27 40c17.333 -16.667 34 -28.334 50 -35.001
s35 -10 57 -10c26.667 0 48.5 7.5 65.5 22.5s25.5 34.167 25.5 57.5c0 21.333 -7.16699 38.5 -21.5 51.5s-34.5 19.5 -60.5 19.5c-20.667 0 -41 -3.66699 -61 -11l-10 47c32 8 56.833 15.333 74.5 22s31.667 15.834 42 27.501s15.5 26.834 15.5 45.501
c0 14 -5.33301 25.333 -16 34s-25.334 13 -44.001 13c-17.333 0 -35.166 -4.16699 -53.499 -12.5s-35.5 -21.5 -51.5 -39.5l-27 33c18.667 22 39.834 38.833 63.501 50.5s47.834 17.5 72.501 17.5c36 0 64.667 -8.5 86 -25.5s32 -39.833 32 -68.5
c0 -22 -6.5 -41.667 -19.5 -59s-30.5 -31.333 -52.5 -42c26.667 -5.33301 49 -17.166 67 -35.499zM796.998 103.997h-66v-106h-62v106h-190v37l192 267h60v-254h66v-50zM668.998 153.997v72l1 99l-69 -96l-53 -75h121z" />
    <glyph glyph-name="questiondown" unicode="&#xbf;" horiz-adv-x="450" 
d="M339 189c-68.667 -12.667 -118.001 -29.6689 -148.001 -51.002s-45 -53.333 -45 -96c0 -37.333 16.833 -67.666 50.5 -90.999s95.834 -35 186.501 -35v-59c-110.667 0 -190.5 17.333 -239.5 52s-73.5 79.334 -73.5 134.001c0 97.333 69.333 162.333 208 195l4 115h50z
M344.499 531.498c10.333 -10.333 15.5 -22.833 15.5 -37.5s-5.16699 -27.334 -15.5 -38.001s-22.833 -16 -37.5 -16s-27.334 5.33301 -38.001 16s-16 23.334 -16 38.001s5.33301 27.167 16 37.5s23.334 15.5 38.001 15.5s27.167 -5.16699 37.5 -15.5z" />
    <glyph glyph-name="Agrave" unicode="&#xc0;" horiz-adv-x="643" 
d="M460 220h-280l-82 -220h-77l264 689h71l265 -689h-79zM437 280l-117 314l-118 -314h235zM158 887h78l121 -147h-64z" />
    <glyph glyph-name="Aacute" unicode="&#xc1;" horiz-adv-x="643" 
d="M460 220h-280l-82 -220h-77l264 689h71l265 -689h-79zM437 280l-117 314l-118 -314h235zM409 887h78l-134 -147h-65z" />
    <glyph glyph-name="Acircumflex" unicode="&#xc2;" horiz-adv-x="643" 
d="M460 220h-280l-82 -220h-77l264 689h71l265 -689h-79zM437 280l-117 314l-118 -314h235zM415 740l-93 109l-93 -109h-69l123 147h78l123 -147h-69z" />
    <glyph glyph-name="Atilde" unicode="&#xc3;" horiz-adv-x="643" 
d="M460 220h-280l-82 -220h-77l264 689h71l265 -689h-79zM437 280l-117 314l-118 -314h235zM159 752c3.33301 43.333 13.332 76.833 29.999 100.5s38.667 35.5 66 35.5c16.667 0 30.5 -3.83301 41.5 -11.5s23.5 -19.5 37.5 -35.5c10 -12 18.833 -21 26.5 -27
s16.5 -9 26.5 -9c14 0 24.667 6.5 32 19.5s13 34.833 17 65.5l49 -4c-3.33301 -42.667 -13.333 -76 -30 -100s-38.667 -36 -66 -36c-18 0 -32.833 4.16699 -44.5 12.5s-24.5 20.5 -38.5 36.5c-9.33301 11.333 -17.666 19.833 -24.999 25.5s-15.333 8.5 -24 8.5
c-14 0 -24.667 -6.33301 -32 -19s-13 -34.667 -17 -66z" />
    <glyph glyph-name="Adieresis" unicode="&#xc4;" horiz-adv-x="643" 
d="M460 220h-280l-82 -220h-77l264 689h71l265 -689h-79zM437 280l-117 314l-118 -314h235zM192 786.5c-9.33301 9 -14 19.833 -14 32.5s4.66699 23.667 14 33s20.333 14 33 14c13.333 0 24.5 -4.5 33.5 -13.5s13.5 -20.167 13.5 -33.5c0 -12.667 -4.66699 -23.5 -14 -32.5
s-20.333 -13.5 -33 -13.5s-23.667 4.5 -33 13.5zM386 786.5c-9.33301 9 -14 19.833 -14 32.5s4.66699 23.667 14 33s20.333 14 33 14c13.333 0 24.5 -4.5 33.5 -13.5s13.5 -20.167 13.5 -33.5c0 -12.667 -4.66699 -23.5 -14 -32.5s-20.333 -13.5 -33 -13.5
s-23.667 4.5 -33 13.5z" />
    <glyph glyph-name="Aring" unicode="&#xc5;" horiz-adv-x="643" 
d="M460 220h-280l-82 -220h-77l264 689h71l265 -689h-79zM437 280l-117 314l-118 -314h235zM250.5 762c-17 16 -25.5 35.333 -25.5 58s8.5 42.167 25.5 58.5s40.833 24.5 71.5 24.5s54.5 -8.16699 71.5 -24.5s25.5 -35.833 25.5 -58.5s-8.5 -42 -25.5 -58
s-40.833 -24 -71.5 -24s-54.5 8 -71.5 24zM355 792c8 7.33301 12 16.666 12 27.999c0 12 -4 21.667 -12 29s-19 11 -33 11c-13.333 0 -24 -3.66699 -32 -11s-12 -17 -12 -29c0 -11.333 4 -20.666 12 -27.999s18.667 -11 32 -11c14 0 25 3.66699 33 11z" />
    <glyph glyph-name="AE" unicode="&#xc6;" horiz-adv-x="985" 
d="M927 60v-60h-410v291h-221l-193 -291h-85l461 680h428v-60h-312v-257h272v-60h-272v-243h332zM517 351v272l-181 -272h181z" />
    <glyph glyph-name="Ccedilla" unicode="&#xc7;" horiz-adv-x="695" 
d="M547.5 22.5c-37.667 -20.333 -79.8301 -32.5 -126.497 -36.5l-29 -56c7.33301 2 14.666 3 21.999 3c20.667 0 37.834 -5.66699 51.501 -17s20.5 -26 20.5 -44c0 -50 -42 -86.667 -126 -110l-21 37c33.333 12 56 23.167 68 33.5s18 21.5 18 33.5c0 16.667 -10 25 -30 25
c-10.667 0 -23.334 -3.33301 -38.001 -10l-31 30l40 75c-67.333 4 -124.166 22.667 -170.499 56s-81 76.166 -104 128.499s-34.5 109.166 -34.5 170.499c0 64 13.167 122.667 39.5 176s65.666 96 117.999 128s116.166 48 191.499 48c45.333 0 88 -7.66699 128 -23
s73.333 -37 100 -65l-37 -50c-21.333 23.333 -49.333 42 -84 56s-70.334 21 -107.001 21c-57.333 0 -106.333 -12.667 -147 -38s-71.5 -60.166 -92.5 -104.499s-31.5 -94.166 -31.5 -149.499c0 -56.667 10 -107.167 30 -151.5s49.333 -79.333 88 -105
s85.667 -38.5 141 -38.5c84 0 156.667 34.333 218 103l34 -49c-28 -30.667 -60.833 -56.167 -98.5 -76.5z" />
    <glyph glyph-name="Egrave" unicode="&#xc8;" horiz-adv-x="583" 
d="M525 60v-60h-410v680h390v-60h-312v-230h272v-60h-272v-270h332zM150 887h78l121 -147h-64z" />
    <glyph glyph-name="Eacute" unicode="&#xc9;" horiz-adv-x="583" 
d="M525 60v-60h-410v680h390v-60h-312v-230h272v-60h-272v-270h332zM401 887h78l-134 -147h-65z" />
    <glyph glyph-name="Ecircumflex" unicode="&#xca;" horiz-adv-x="583" 
d="M525 60v-60h-410v680h390v-60h-312v-230h272v-60h-272v-270h332zM407 740l-93 109l-93 -109h-69l123 147h78l123 -147h-69z" />
    <glyph glyph-name="Edieresis" unicode="&#xcb;" horiz-adv-x="583" 
d="M525 60v-60h-410v680h390v-60h-312v-230h272v-60h-272v-270h332zM184 786.5c-9.33301 9 -14 19.833 -14 32.5s4.66699 23.667 14 33s20.333 14 33 14c13.333 0 24.5 -4.5 33.5 -13.5s13.5 -20.167 13.5 -33.5c0 -12.667 -4.66699 -23.5 -14 -32.5
s-20.333 -13.5 -33 -13.5s-23.667 4.5 -33 13.5zM378 786.5c-9.33301 9 -14 19.833 -14 32.5s4.66699 23.667 14 33s20.333 14 33 14c13.333 0 24.5 -4.5 33.5 -13.5s13.5 -20.167 13.5 -33.5c0 -12.667 -4.66699 -23.5 -14 -32.5s-20.333 -13.5 -33 -13.5
s-23.667 4.5 -33 13.5z" />
    <glyph glyph-name="Igrave" unicode="&#xcc;" horiz-adv-x="307" 
d="M115 680h78v-680h-78v680zM-10 887h78l121 -147h-64z" />
    <glyph glyph-name="Iacute" unicode="&#xcd;" horiz-adv-x="307" 
d="M115 680h78v-680h-78v680zM241 887h78l-134 -147h-65z" />
    <glyph glyph-name="Icircumflex" unicode="&#xce;" horiz-adv-x="307" 
d="M115 680h78v-680h-78v680zM247 740l-93 109l-93 -109h-69l123 147h78l123 -147h-69z" />
    <glyph glyph-name="Idieresis" unicode="&#xcf;" horiz-adv-x="307" 
d="M115 680h78v-680h-78v680zM24 786.5c-9.33301 9 -14 19.833 -14 32.5s4.66699 23.667 14 33s20.333 14 33 14c13.333 0 24.5 -4.5 33.5 -13.5s13.5 -20.167 13.5 -33.5c0 -12.667 -4.66699 -23.5 -14 -32.5s-20.333 -13.5 -33 -13.5s-23.667 4.5 -33 13.5zM218 786.5
c-9.33301 9 -14 19.833 -14 32.5s4.66699 23.667 14 33s20.333 14 33 14c13.333 0 24.5 -4.5 33.5 -13.5s13.5 -20.167 13.5 -33.5c0 -12.667 -4.66699 -23.5 -14 -32.5s-20.333 -13.5 -33 -13.5s-23.667 4.5 -33 13.5z" />
    <glyph glyph-name="Eth" unicode="&#xd0;" horiz-adv-x="728" 
d="M523.5 636c49 -29.333 85.834 -69.667 110.501 -121s37 -109.333 37 -174c0 -66.667 -12.333 -125.667 -37 -177s-61.334 -91.5 -110.001 -120.5s-108 -43.5 -178 -43.5h-231v315h-112v57h112v308h231c69.333 0 128.5 -14.667 177.5 -44zM529.001 135.499
c43.333 50.333 65 118.5 65 204.5c0 84.667 -21.667 152.5 -65 203.5s-104.333 76.5 -183 76.5h-153v-248h200v-57h-200v-255h153c78.667 0 139.667 25.167 183 75.5z" />
    <glyph glyph-name="Ntilde" unicode="&#xd1;" horiz-adv-x="766" 
d="M652 680v-680l-67 -1l-396 552l4 -240v-311h-78v680h66l396 -553l-3 272v281h78zM220 752c3.33301 43.333 13.332 76.833 29.999 100.5s38.667 35.5 66 35.5c16.667 0 30.5 -3.83301 41.5 -11.5s23.5 -19.5 37.5 -35.5c10 -12 18.833 -21 26.5 -27s16.5 -9 26.5 -9
c14 0 24.667 6.5 32 19.5s13 34.833 17 65.5l49 -4c-3.33301 -42.667 -13.333 -76 -30 -100s-38.667 -36 -66 -36c-18 0 -32.833 4.16699 -44.5 12.5s-24.5 20.5 -38.5 36.5c-9.33301 11.333 -17.666 19.833 -24.999 25.5s-15.333 8.5 -24 8.5
c-14 0 -24.667 -6.33301 -32 -19s-13 -34.667 -17 -66z" />
    <glyph glyph-name="Ograve" unicode="&#xd2;" horiz-adv-x="769" 
d="M205.5 31.5c-49 31.667 -86 74.335 -111 128.002s-37.5 113.167 -37.5 178.5s12.5 125 37.5 179s62 96.833 111 128.5s108.5 47.5 178.5 47.5c69.333 0 128.666 -15.833 177.999 -47.5s86.5 -74.334 111.5 -128.001s37.5 -112.834 37.5 -177.501
c0 -66 -12.5 -126 -37.5 -180s-62.167 -96.833 -111.5 -128.5s-108.666 -47.5 -177.999 -47.5c-70 0 -129.5 15.833 -178.5 47.5zM518.5 83.001c37.667 25.333 66.167 60.333 85.5 105s29 95 29 151s-9.66699 106.167 -29 150.5s-47.833 79.166 -85.5 104.499
s-82.5 38 -134.5 38s-96.833 -12.667 -134.5 -38s-66.167 -60.166 -85.5 -104.499s-29 -94.5 -29 -150.5s9.66699 -106.333 29 -151s47.833 -79.667 85.5 -105s82.5 -38 134.5 -38s96.833 12.667 134.5 38zM220 887.001h78l121 -147h-64z" />
    <glyph glyph-name="Oacute" unicode="&#xd3;" horiz-adv-x="769" 
d="M205.5 31.5c-49 31.667 -86 74.335 -111 128.002s-37.5 113.167 -37.5 178.5s12.5 125 37.5 179s62 96.833 111 128.5s108.5 47.5 178.5 47.5c69.333 0 128.666 -15.833 177.999 -47.5s86.5 -74.334 111.5 -128.001s37.5 -112.834 37.5 -177.501
c0 -66 -12.5 -126 -37.5 -180s-62.167 -96.833 -111.5 -128.5s-108.666 -47.5 -177.999 -47.5c-70 0 -129.5 15.833 -178.5 47.5zM518.5 83.001c37.667 25.333 66.167 60.333 85.5 105s29 95 29 151s-9.66699 106.167 -29 150.5s-47.833 79.166 -85.5 104.499
s-82.5 38 -134.5 38s-96.833 -12.667 -134.5 -38s-66.167 -60.166 -85.5 -104.499s-29 -94.5 -29 -150.5s9.66699 -106.333 29 -151s47.833 -79.667 85.5 -105s82.5 -38 134.5 -38s96.833 12.667 134.5 38zM471 887.001h78l-134 -147h-65z" />
    <glyph glyph-name="Ocircumflex" unicode="&#xd4;" horiz-adv-x="769" 
d="M205.5 31.5c-49 31.667 -86 74.335 -111 128.002s-37.5 113.167 -37.5 178.5s12.5 125 37.5 179s62 96.833 111 128.5s108.5 47.5 178.5 47.5c69.333 0 128.666 -15.833 177.999 -47.5s86.5 -74.334 111.5 -128.001s37.5 -112.834 37.5 -177.501
c0 -66 -12.5 -126 -37.5 -180s-62.167 -96.833 -111.5 -128.5s-108.666 -47.5 -177.999 -47.5c-70 0 -129.5 15.833 -178.5 47.5zM518.5 83.001c37.667 25.333 66.167 60.333 85.5 105s29 95 29 151s-9.66699 106.167 -29 150.5s-47.833 79.166 -85.5 104.499
s-82.5 38 -134.5 38s-96.833 -12.667 -134.5 -38s-66.167 -60.166 -85.5 -104.499s-29 -94.5 -29 -150.5s9.66699 -106.333 29 -151s47.833 -79.667 85.5 -105s82.5 -38 134.5 -38s96.833 12.667 134.5 38zM477 740.001l-93 109l-93 -109h-69l123 147h78l123 -147h-69z" />
    <glyph glyph-name="Otilde" unicode="&#xd5;" horiz-adv-x="769" 
d="M205.5 31.5c-49 31.667 -86 74.335 -111 128.002s-37.5 113.167 -37.5 178.5s12.5 125 37.5 179s62 96.833 111 128.5s108.5 47.5 178.5 47.5c69.333 0 128.666 -15.833 177.999 -47.5s86.5 -74.334 111.5 -128.001s37.5 -112.834 37.5 -177.501
c0 -66 -12.5 -126 -37.5 -180s-62.167 -96.833 -111.5 -128.5s-108.666 -47.5 -177.999 -47.5c-70 0 -129.5 15.833 -178.5 47.5zM518.5 83.001c37.667 25.333 66.167 60.333 85.5 105s29 95 29 151s-9.66699 106.167 -29 150.5s-47.833 79.166 -85.5 104.499
s-82.5 38 -134.5 38s-96.833 -12.667 -134.5 -38s-66.167 -60.166 -85.5 -104.499s-29 -94.5 -29 -150.5s9.66699 -106.333 29 -151s47.833 -79.667 85.5 -105s82.5 -38 134.5 -38s96.833 12.667 134.5 38zM221 752.001c3.33301 43.333 13.332 76.833 29.999 100.5
s38.667 35.5 66 35.5c16.667 0 30.5 -3.83301 41.5 -11.5s23.5 -19.5 37.5 -35.5c10 -12 18.833 -21 26.5 -27s16.5 -9 26.5 -9c14 0 24.667 6.5 32 19.5s13 34.833 17 65.5l49 -4c-3.33301 -42.667 -13.333 -76 -30 -100s-38.667 -36 -66 -36
c-18 0 -32.833 4.16699 -44.5 12.5s-24.5 20.5 -38.5 36.5c-9.33301 11.333 -17.666 19.833 -24.999 25.5s-15.333 8.5 -24 8.5c-14 0 -24.667 -6.33301 -32 -19s-13 -34.667 -17 -66z" />
    <glyph glyph-name="Odieresis" unicode="&#xd6;" horiz-adv-x="769" 
d="M205.5 31.5c-49 31.667 -86 74.335 -111 128.002s-37.5 113.167 -37.5 178.5s12.5 125 37.5 179s62 96.833 111 128.5s108.5 47.5 178.5 47.5c69.333 0 128.666 -15.833 177.999 -47.5s86.5 -74.334 111.5 -128.001s37.5 -112.834 37.5 -177.501
c0 -66 -12.5 -126 -37.5 -180s-62.167 -96.833 -111.5 -128.5s-108.666 -47.5 -177.999 -47.5c-70 0 -129.5 15.833 -178.5 47.5zM518.5 83.001c37.667 25.333 66.167 60.333 85.5 105s29 95 29 151s-9.66699 106.167 -29 150.5s-47.833 79.166 -85.5 104.499
s-82.5 38 -134.5 38s-96.833 -12.667 -134.5 -38s-66.167 -60.166 -85.5 -104.499s-29 -94.5 -29 -150.5s9.66699 -106.333 29 -151s47.833 -79.667 85.5 -105s82.5 -38 134.5 -38s96.833 12.667 134.5 38zM254 786.501c-9.33301 9 -14 19.833 -14 32.5
s4.66699 23.667 14 33s20.333 14 33 14c13.333 0 24.5 -4.5 33.5 -13.5s13.5 -20.167 13.5 -33.5c0 -12.667 -4.66699 -23.5 -14 -32.5s-20.333 -13.5 -33 -13.5s-23.667 4.5 -33 13.5zM448 786.501c-9.33301 9 -14 19.833 -14 32.5s4.66699 23.667 14 33s20.333 14 33 14
c13.333 0 24.5 -4.5 33.5 -13.5s13.5 -20.167 13.5 -33.5c0 -12.667 -4.66699 -23.5 -14 -32.5s-20.333 -13.5 -33 -13.5s-23.667 4.5 -33 13.5z" />
    <glyph glyph-name="multiply" unicode="&#xd7;" horiz-adv-x="529" 
d="M409 88l-144 144l-144 -144l-41 41l144 144l-143 142l41 41l143 -142l143 143l41 -41l-143 -143l144 -144z" />
    <glyph glyph-name="Oslash" unicode="&#xd8;" horiz-adv-x="809" 
d="M691.5 471.5c13 -41.667 19.499 -85.5 19.499 -131.5c0 -66 -12.5 -126 -37.5 -180s-62.167 -96.833 -111.5 -128.5s-108.666 -47.5 -177.999 -47.5c-84 0 -153.667 23.333 -209 70l-73 -84l-43 37l76 87c-25.333 31.333 -44.666 68 -57.999 110s-20 86.667 -20 134
c0 65.333 12.5 125 37.5 179s62 96.833 111 128.5s108.5 47.5 178.5 47.5c85.333 0 155.666 -24 210.999 -72l72 82l42 -37l-75 -85c25.333 -31.333 44.5 -67.833 57.5 -109.5zM183.999 150l366 418.999c-44 42 -99.333 63 -166 63c-52 0 -96.833 -12.667 -134.5 -38
s-66.167 -60.166 -85.5 -104.499s-29 -94.5 -29 -150.5c0 -74 16.333 -137 49 -189zM518.499 82.999c37.667 25.333 66.167 60.333 85.5 105s29 95 29 151c0 73.333 -16 135 -48 185l-364 -418c42 -40.667 96.333 -61 163 -61c52 0 96.833 12.667 134.5 38z" />
    <glyph glyph-name="Ugrave" unicode="&#xd9;" horiz-adv-x="746" 
d="M226.5 18c-40.333 22.667 -70.6689 53.999 -91.002 93.999s-30.5 86.333 -30.5 139v429h78v-428c0 -65.333 16.5 -116.166 49.5 -152.499s80.167 -54.5 141.5 -54.5c60.667 0 107.5 18.167 140.5 54.5s49.5 87.166 49.5 152.499v428h78v-427
c0 -53.333 -10.167 -100.166 -30.5 -140.499s-50.666 -71.833 -90.999 -94.5s-89.166 -34 -146.499 -34c-58 0 -107.167 11.333 -147.5 34zM209.997 886.999h78l121 -147h-64z" />
    <glyph glyph-name="Uacute" unicode="&#xda;" horiz-adv-x="746" 
d="M226.5 18c-40.333 22.667 -70.6689 53.999 -91.002 93.999s-30.5 86.333 -30.5 139v429h78v-428c0 -65.333 16.5 -116.166 49.5 -152.499s80.167 -54.5 141.5 -54.5c60.667 0 107.5 18.167 140.5 54.5s49.5 87.166 49.5 152.499v428h78v-427
c0 -53.333 -10.167 -100.166 -30.5 -140.499s-50.666 -71.833 -90.999 -94.5s-89.166 -34 -146.499 -34c-58 0 -107.167 11.333 -147.5 34zM460.997 886.999h78l-134 -147h-65z" />
    <glyph glyph-name="Ucircumflex" unicode="&#xdb;" horiz-adv-x="746" 
d="M226.5 18c-40.333 22.667 -70.6689 53.999 -91.002 93.999s-30.5 86.333 -30.5 139v429h78v-428c0 -65.333 16.5 -116.166 49.5 -152.499s80.167 -54.5 141.5 -54.5c60.667 0 107.5 18.167 140.5 54.5s49.5 87.166 49.5 152.499v428h78v-427
c0 -53.333 -10.167 -100.166 -30.5 -140.499s-50.666 -71.833 -90.999 -94.5s-89.166 -34 -146.499 -34c-58 0 -107.167 11.333 -147.5 34zM466.997 739.999l-93 109l-93 -109h-69l123 147h78l123 -147h-69z" />
    <glyph glyph-name="Udieresis" unicode="&#xdc;" horiz-adv-x="746" 
d="M226.5 18c-40.333 22.667 -70.6689 53.999 -91.002 93.999s-30.5 86.333 -30.5 139v429h78v-428c0 -65.333 16.5 -116.166 49.5 -152.499s80.167 -54.5 141.5 -54.5c60.667 0 107.5 18.167 140.5 54.5s49.5 87.166 49.5 152.499v428h78v-427
c0 -53.333 -10.167 -100.166 -30.5 -140.499s-50.666 -71.833 -90.999 -94.5s-89.166 -34 -146.499 -34c-58 0 -107.167 11.333 -147.5 34zM243.997 786.499c-9.33301 9 -14 19.833 -14 32.5s4.66699 23.667 14 33s20.333 14 33 14c13.333 0 24.5 -4.5 33.5 -13.5
s13.5 -20.167 13.5 -33.5c0 -12.667 -4.66699 -23.5 -14 -32.5s-20.333 -13.5 -33 -13.5s-23.667 4.5 -33 13.5zM437.997 786.499c-9.33301 9 -14 19.833 -14 32.5s4.66699 23.667 14 33s20.333 14 33 14c13.333 0 24.5 -4.5 33.5 -13.5s13.5 -20.167 13.5 -33.5
c0 -12.667 -4.66699 -23.5 -14 -32.5s-20.333 -13.5 -33 -13.5s-23.667 4.5 -33 13.5z" />
    <glyph glyph-name="Yacute" unicode="&#xdd;" horiz-adv-x="639" 
d="M359 278v-278h-78v275l-251 405h87l203 -340l205 340h85zM407 887h78l-134 -147h-65z" />
    <glyph glyph-name="Thorn" unicode="&#xde;" horiz-adv-x="652" 
d="M514.5 493c40.333 -35.333 60.501 -82.667 60.501 -142c0 -61.333 -20 -109.5 -60 -144.5s-99 -52.5 -177 -52.5h-145v-154h-78v680h78v-134h145c77.333 0 136.166 -17.667 176.499 -53zM456.501 247.999c27 22.667 40.499 56.667 40.499 102
c0 42 -13.667 75.167 -41 99.5s-66.666 36.5 -117.999 36.5h-145v-272h145c52 0 91.5 11.333 118.5 34z" />
    <glyph glyph-name="germandbls" unicode="&#xdf;" horiz-adv-x="592" 
d="M230 19l25.998 56.0029c32 -22.667 68.667 -34 110 -34c30 0 54.833 8.66699 74.5 26s29.5 41.333 29.5 72c0 27.333 -8 49 -24 65s-40 33.667 -72 53c-24.667 14.667 -44.167 27.5 -58.5 38.5s-26.666 25.5 -36.999 43.5s-15.5 39.667 -15.5 65c0 31.333 7.5 57 22.5 77
s36.833 41.333 65.5 64c24.667 19.333 43.167 36.833 55.5 52.5s18.5 34.5 18.5 56.5c0 28 -9.66699 49.333 -29 64s-46.666 22 -81.999 22c-48 0 -83.833 -13.167 -107.5 -39.5s-35.5 -66.833 -35.5 -121.5v-579h-75v581c0 70 18.833 124.167 56.5 162.5
s92.167 57.5 163.5 57.5c58 0 103.167 -13.167 135.5 -39.5s48.5 -62.5 48.5 -108.5c0 -22.667 -4.16699 -42.334 -12.5 -59.001s-18.5 -30.834 -30.5 -42.501s-28 -25.167 -48 -40.5c-25.333 -20 -43.833 -37 -55.5 -51s-17.5 -31 -17.5 -51
c0 -22 6.83301 -39.667 20.5 -53s35.167 -28.333 64.5 -45c26 -14.667 47 -28.5 63 -41.5s29.833 -29.833 41.5 -50.5s17.5 -46.334 17.5 -77.001c0 -32 -8 -60.333 -24 -85s-37.333 -43.5 -64 -56.5s-55.667 -19.5 -87 -19.5c-53.333 0 -99.333 12.667 -138 38z" />
    <glyph glyph-name="agrave" unicode="&#xe0;" horiz-adv-x="545" 
d="M524 0c-23.333 -8.66699 -45.668 -13.334 -67.001 -14.001c-56 0 -86 25 -90 75c-65.333 -50.667 -124 -76 -176 -76c-41.333 0 -75.166 11.833 -101.499 35.5s-39.5 53.834 -39.5 90.501c0 32.667 9.16699 60 27.5 82s43.833 40.333 76.5 55s76.334 29.667 131.001 45
l81 23v45c0 83.333 -30.667 125 -92 125c-34 0 -64.833 -7 -92.5 -21s-58.834 -40.667 -93.501 -80l-37 45c69.333 78 147 117 233 117c56.667 0 97.167 -14.5 121.5 -43.5s36.5 -77.5 36.5 -145.5v-272c0 -14.667 2.5 -25.167 7.5 -31.5s13.167 -9.5 24.5 -9.5
c12 0 26.333 3.66699 43 11zM145.998 61.5c14 -11 32.667 -16.499 56 -16.499c24.667 0 49.5 6.16699 74.5 18.5s54.833 31.166 89.5 56.499v143l-63 -19c-66 -19.333 -112.167 -38.333 -138.5 -57s-39.5 -42.667 -39.5 -72c0 -24.667 7 -42.5 21 -53.5zM122.998 807.001h80
l97 -210h-60z" />
    <glyph glyph-name="aacute" unicode="&#xe1;" horiz-adv-x="545" 
d="M524 0c-23.333 -8.66699 -45.668 -13.334 -67.001 -14.001c-56 0 -86 25 -90 75c-65.333 -50.667 -124 -76 -176 -76c-41.333 0 -75.166 11.833 -101.499 35.5s-39.5 53.834 -39.5 90.501c0 32.667 9.16699 60 27.5 82s43.833 40.333 76.5 55s76.334 29.667 131.001 45
l81 23v45c0 83.333 -30.667 125 -92 125c-34 0 -64.833 -7 -92.5 -21s-58.834 -40.667 -93.501 -80l-37 45c69.333 78 147 117 233 117c56.667 0 97.167 -14.5 121.5 -43.5s36.5 -77.5 36.5 -145.5v-272c0 -14.667 2.5 -25.167 7.5 -31.5s13.167 -9.5 24.5 -9.5
c12 0 26.333 3.66699 43 11zM145.998 61.5c14 -11 32.667 -16.499 56 -16.499c24.667 0 49.5 6.16699 74.5 18.5s54.833 31.166 89.5 56.499v143l-63 -19c-66 -19.333 -112.167 -38.333 -138.5 -57s-39.5 -42.667 -39.5 -72c0 -24.667 7 -42.5 21 -53.5zM328.998 809.001h80
l-117 -212h-60z" />
    <glyph glyph-name="acircumflex" unicode="&#xe2;" horiz-adv-x="545" 
d="M524 0c-23.333 -8.66699 -45.668 -13.334 -67.001 -14.001c-56 0 -86 25 -90 75c-65.333 -50.667 -124 -76 -176 -76c-41.333 0 -75.166 11.833 -101.499 35.5s-39.5 53.834 -39.5 90.501c0 32.667 9.16699 60 27.5 82s43.833 40.333 76.5 55s76.334 29.667 131.001 45
l81 23v45c0 83.333 -30.667 125 -92 125c-34 0 -64.833 -7 -92.5 -21s-58.834 -40.667 -93.501 -80l-37 45c69.333 78 147 117 233 117c56.667 0 97.167 -14.5 121.5 -43.5s36.5 -77.5 36.5 -145.5v-272c0 -14.667 2.5 -25.167 7.5 -31.5s13.167 -9.5 24.5 -9.5
c12 0 26.333 3.66699 43 11zM145.998 61.5c14 -11 32.667 -16.499 56 -16.499c24.667 0 49.5 6.16699 74.5 18.5s54.833 31.166 89.5 56.499v143l-63 -19c-66 -19.333 -112.167 -38.333 -138.5 -57s-39.5 -42.667 -39.5 -72c0 -24.667 7 -42.5 21 -53.5zM350.998 597.001
l-84 154l-83 -154h-60l107 210h73l106 -210h-59z" />
    <glyph glyph-name="atilde" unicode="&#xe3;" horiz-adv-x="545" 
d="M524 0c-23.333 -8.66699 -45.668 -13.334 -67.001 -14.001c-56 0 -86 25 -90 75c-65.333 -50.667 -124 -76 -176 -76c-41.333 0 -75.166 11.833 -101.499 35.5s-39.5 53.834 -39.5 90.501c0 32.667 9.16699 60 27.5 82s43.833 40.333 76.5 55s76.334 29.667 131.001 45
l81 23v45c0 83.333 -30.667 125 -92 125c-34 0 -64.833 -7 -92.5 -21s-58.834 -40.667 -93.501 -80l-37 45c69.333 78 147 117 233 117c56.667 0 97.167 -14.5 121.5 -43.5s36.5 -77.5 36.5 -145.5v-272c0 -14.667 2.5 -25.167 7.5 -31.5s13.167 -9.5 24.5 -9.5
c12 0 26.333 3.66699 43 11zM145.998 61.5c14 -11 32.667 -16.499 56 -16.499c24.667 0 49.5 6.16699 74.5 18.5s54.833 31.166 89.5 56.499v143l-63 -19c-66 -19.333 -112.167 -38.333 -138.5 -57s-39.5 -42.667 -39.5 -72c0 -24.667 7 -42.5 21 -53.5zM103.998 640.001
c3.33301 43.333 13.332 76.833 29.999 100.5s38.667 35.5 66 35.5c16.667 0 30.5 -3.83301 41.5 -11.5s23.5 -19.5 37.5 -35.5c10 -12 18.833 -21 26.5 -27s16.5 -9 26.5 -9c14 0 24.667 6.5 32 19.5s13 34.833 17 65.5l49 -4c-3.33301 -42.667 -13.333 -76 -30 -100
s-38.667 -36 -66 -36c-18 0 -32.833 4.16699 -44.5 12.5s-24.5 20.5 -38.5 36.5c-9.33301 11.333 -17.666 19.833 -24.999 25.5s-15.333 8.5 -24 8.5c-14 0 -24.667 -6.33301 -32 -19s-13 -34.667 -17 -66z" />
    <glyph glyph-name="adieresis" unicode="&#xe4;" horiz-adv-x="545" 
d="M524 0c-23.333 -8.66699 -45.668 -13.334 -67.001 -14.001c-56 0 -86 25 -90 75c-65.333 -50.667 -124 -76 -176 -76c-41.333 0 -75.166 11.833 -101.499 35.5s-39.5 53.834 -39.5 90.501c0 32.667 9.16699 60 27.5 82s43.833 40.333 76.5 55s76.334 29.667 131.001 45
l81 23v45c0 83.333 -30.667 125 -92 125c-34 0 -64.833 -7 -92.5 -21s-58.834 -40.667 -93.501 -80l-37 45c69.333 78 147 117 233 117c56.667 0 97.167 -14.5 121.5 -43.5s36.5 -77.5 36.5 -145.5v-272c0 -14.667 2.5 -25.167 7.5 -31.5s13.167 -9.5 24.5 -9.5
c12 0 26.333 3.66699 43 11zM145.998 61.5c14 -11 32.667 -16.499 56 -16.499c24.667 0 49.5 6.16699 74.5 18.5s54.833 31.166 89.5 56.499v143l-63 -19c-66 -19.333 -112.167 -38.333 -138.5 -57s-39.5 -42.667 -39.5 -72c0 -24.667 7 -42.5 21 -53.5zM136.498 722.001
c-9.66699 9.33301 -14.498 20.333 -14.498 33c0 13.333 4.66699 24.833 14 34.5s20.666 14.5 33.999 14.5s24.833 -4.83301 34.5 -14.5s14.5 -21.167 14.5 -34.5c0 -12.667 -4.83301 -23.667 -14.5 -33s-21.167 -14 -34.5 -14c-12.667 0 -23.834 4.66699 -33.501 14z
M330.5 722.001c-9.66699 9.33301 -14.498 20.333 -14.498 33c0 13.333 4.66699 24.833 14 34.5s20.666 14.5 33.999 14.5s24.833 -4.83301 34.5 -14.5s14.5 -21.167 14.5 -34.5c0 -12.667 -4.83301 -23.667 -14.5 -33s-21.167 -14 -34.5 -14
c-12.667 0 -23.834 4.66699 -33.501 14z" />
    <glyph glyph-name="aring" unicode="&#xe5;" horiz-adv-x="545" 
d="M524 0c-23.333 -8.66699 -45.668 -13.334 -67.001 -14.001c-56 0 -86 25 -90 75c-65.333 -50.667 -124 -76 -176 -76c-41.333 0 -75.166 11.833 -101.499 35.5s-39.5 53.834 -39.5 90.501c0 32.667 9.16699 60 27.5 82s43.833 40.333 76.5 55s76.334 29.667 131.001 45
l81 23v45c0 83.333 -30.667 125 -92 125c-34 0 -64.833 -7 -92.5 -21s-58.834 -40.667 -93.501 -80l-37 45c69.333 78 147 117 233 117c56.667 0 97.167 -14.5 121.5 -43.5s36.5 -77.5 36.5 -145.5v-272c0 -14.667 2.5 -25.167 7.5 -31.5s13.167 -9.5 24.5 -9.5
c12 0 26.333 3.66699 43 11zM145.998 61.5c14 -11 32.667 -16.499 56 -16.499c24.667 0 49.5 6.16699 74.5 18.5s54.833 31.166 89.5 56.499v143l-63 -19c-66 -19.333 -112.167 -38.333 -138.5 -57s-39.5 -42.667 -39.5 -72c0 -24.667 7 -42.5 21 -53.5zM183.998 629.001
c-20 21.333 -30 46.666 -30 75.999c0 28.667 10 53.667 30 75s47.667 32 83 32s63.166 -10.5 83.499 -31.5s30.5 -46.167 30.5 -75.5s-10.167 -54.666 -30.5 -75.999s-48.166 -32 -83.499 -32s-63 10.667 -83 32zM311.998 657.001c11.333 12.667 17 28.667 17 48
s-5.5 35.166 -16.5 47.499s-26.167 18.5 -45.5 18.5s-34.5 -6.16699 -45.5 -18.5s-16.5 -28.166 -16.5 -47.499s5.66699 -35.333 17 -48s26.333 -19 45 -19s33.667 6.33301 45 19z" />
    <glyph glyph-name="ae" unicode="&#xe6;" horiz-adv-x="865" 
d="M814 81c-56 -66.667 -121.668 -99.999 -197.001 -99.999c-48 0 -89.5 10.167 -124.5 30.5s-62.833 48.166 -83.5 83.499c-82.667 -73.333 -155.334 -110 -218.001 -110c-41.333 0 -75.166 11.833 -101.499 35.5s-39.5 53.834 -39.5 90.501c0 32.667 9.16699 60 27.5 82
s43.833 40.333 76.5 55s76.334 29.667 131.001 45l81 22v46c0 83.333 -30.667 125 -92 125c-34 0 -64.833 -7 -92.5 -21s-58.834 -40.667 -93.501 -80l-37 45c69.333 78 147 117 233 117c39.333 0 70.333 -7 93 -21s39 -36.667 49 -68c21.333 28 48 49.833 80 65.5
s69 23.5 111 23.5c36.667 0 69.834 -7.5 99.501 -22.5s53.167 -37 70.5 -66s26 -63.167 26 -102.5c0 -16.667 -2 -35 -6 -55h-362c-1.33301 -16 -2 -28 -2 -36c0 -67.333 15 -121.5 45 -162.5s73 -61.5 129 -61.5c34 0 64.167 7.66699 90.5 23s51.5 36.666 75.5 63.999z
M512.499 454.501c-27 -23.667 -46.168 -55.833 -57.501 -96.5h283v7c0 40 -12.167 70.833 -36.5 92.5s-53.166 32.5 -86.499 32.5c-41.333 0 -75.5 -11.833 -102.5 -35.5zM285.498 68.002c28.333 15.333 62.501 39 102.501 71c-13.333 38.667 -20 80 -20 124l-65 -19
c-66 -19.333 -112.167 -38.333 -138.5 -57s-39.5 -42.667 -39.5 -72c0 -24.667 7 -42.5 21 -53.5s32.667 -16.5 56 -16.5c27.333 0 55.166 7.66699 83.499 23z" />
    <glyph glyph-name="ccedilla" unicode="&#xe7;" horiz-adv-x="517" 
d="M416.5 11.5c-29 -17 -61.499 -26.8301 -97.499 -29.4971l-27 -52c7.33301 2 14.666 3 21.999 3c20.667 0 37.834 -5.66699 51.501 -17s20.5 -26 20.5 -44c0 -50 -42 -86.667 -126 -110l-21 37c33.333 12 56 23.167 68 33.5s18 21.5 18 33.5c0 16.667 -10 25 -30 25
c-10.667 0 -23.334 -3.33301 -38.001 -10l-31 30l39 72c-47.333 5.33301 -87.333 21.166 -120 47.499s-57 59.666 -73 99.999s-24 84.5 -24 132.5c0 52 9.5 99.5 28.5 142.5s48.167 77.333 87.5 103s87.333 38.5 144 38.5c33.333 0 65 -6 95 -18s55 -28.333 75 -49l-32 -54
c-17.333 18.667 -38.333 33.667 -63 45s-49.667 17 -75 17c-58 0 -103 -20.667 -135 -62s-48 -95.333 -48 -162s15.167 -120.5 45.5 -161.5s72.833 -61.5 127.5 -61.5c33.333 0 63 7.16699 89 21.5s50 34.166 72 59.499l31 -47c-20 -25.333 -44.5 -46.5 -73.5 -63.5z" />
    <glyph glyph-name="egrave" unicode="&#xe8;" horiz-adv-x="546" 
d="M495 78c-54.667 -64.667 -120.667 -97 -198 -97c-54 0 -99.667 12.667 -137 38s-65.333 59.5 -84 102.5s-28 90.167 -28 141.5c0 52.667 9.33301 100.5 28 143.5s46.667 77.167 84 102.5s83 38 137 38c36.667 0 70 -7.5 100 -22.5s53.667 -37 71 -66
s26 -63.167 26 -102.5c0 -16.667 -2 -35 -6 -55h-362c-1.33301 -16 -2 -28 -2 -36c0 -67.333 15 -121.5 45 -162.5s73 -61.5 129 -61.5c34 0 64.333 7.5 91 22.5s51.667 35.5 75 61.5zM193.5 454.5c-27 -23.667 -46.168 -55.833 -57.501 -96.5h283v7
c0 40 -12.167 70.833 -36.5 92.5s-53.166 32.5 -86.499 32.5c-41.333 0 -75.5 -11.833 -102.5 -35.5zM141.999 807.001h80l97 -210h-60z" />
    <glyph glyph-name="eacute" unicode="&#xe9;" horiz-adv-x="546" 
d="M495 78c-54.667 -64.667 -120.667 -97 -198 -97c-54 0 -99.667 12.667 -137 38s-65.333 59.5 -84 102.5s-28 90.167 -28 141.5c0 52.667 9.33301 100.5 28 143.5s46.667 77.167 84 102.5s83 38 137 38c36.667 0 70 -7.5 100 -22.5s53.667 -37 71 -66
s26 -63.167 26 -102.5c0 -16.667 -2 -35 -6 -55h-362c-1.33301 -16 -2 -28 -2 -36c0 -67.333 15 -121.5 45 -162.5s73 -61.5 129 -61.5c34 0 64.333 7.5 91 22.5s51.667 35.5 75 61.5zM193.5 454.5c-27 -23.667 -46.168 -55.833 -57.501 -96.5h283v7
c0 40 -12.167 70.833 -36.5 92.5s-53.166 32.5 -86.499 32.5c-41.333 0 -75.5 -11.833 -102.5 -35.5zM347.999 809.001h80l-117 -212h-60z" />
    <glyph glyph-name="ecircumflex" unicode="&#xea;" horiz-adv-x="546" 
d="M495 78c-54.667 -64.667 -120.667 -97 -198 -97c-54 0 -99.667 12.667 -137 38s-65.333 59.5 -84 102.5s-28 90.167 -28 141.5c0 52.667 9.33301 100.5 28 143.5s46.667 77.167 84 102.5s83 38 137 38c36.667 0 70 -7.5 100 -22.5s53.667 -37 71 -66
s26 -63.167 26 -102.5c0 -16.667 -2 -35 -6 -55h-362c-1.33301 -16 -2 -28 -2 -36c0 -67.333 15 -121.5 45 -162.5s73 -61.5 129 -61.5c34 0 64.333 7.5 91 22.5s51.667 35.5 75 61.5zM193.5 454.5c-27 -23.667 -46.168 -55.833 -57.501 -96.5h283v7
c0 40 -12.167 70.833 -36.5 92.5s-53.166 32.5 -86.499 32.5c-41.333 0 -75.5 -11.833 -102.5 -35.5zM369.999 597.001l-84 154l-83 -154h-60l107 210h73l106 -210h-59z" />
    <glyph glyph-name="edieresis" unicode="&#xeb;" horiz-adv-x="546" 
d="M495 78c-54.667 -64.667 -120.667 -97 -198 -97c-54 0 -99.667 12.667 -137 38s-65.333 59.5 -84 102.5s-28 90.167 -28 141.5c0 52.667 9.33301 100.5 28 143.5s46.667 77.167 84 102.5s83 38 137 38c36.667 0 70 -7.5 100 -22.5s53.667 -37 71 -66
s26 -63.167 26 -102.5c0 -16.667 -2 -35 -6 -55h-362c-1.33301 -16 -2 -28 -2 -36c0 -67.333 15 -121.5 45 -162.5s73 -61.5 129 -61.5c34 0 64.333 7.5 91 22.5s51.667 35.5 75 61.5zM193.5 454.5c-27 -23.667 -46.168 -55.833 -57.501 -96.5h283v7
c0 40 -12.167 70.833 -36.5 92.5s-53.166 32.5 -86.499 32.5c-41.333 0 -75.5 -11.833 -102.5 -35.5zM155.499 722.001c-9.66699 9.33301 -14.498 20.333 -14.498 33c0 13.333 4.66699 24.833 14 34.5s20.666 14.5 33.999 14.5s24.833 -4.83301 34.5 -14.5
s14.5 -21.167 14.5 -34.5c0 -12.667 -4.83301 -23.667 -14.5 -33s-21.167 -14 -34.5 -14c-12.667 0 -23.834 4.66699 -33.501 14zM349.501 722.001c-9.66699 9.33301 -14.498 20.333 -14.498 33c0 13.333 4.66699 24.833 14 34.5s20.666 14.5 33.999 14.5
s24.833 -4.83301 34.5 -14.5s14.5 -21.167 14.5 -34.5c0 -12.667 -4.83301 -23.667 -14.5 -33s-21.167 -14 -34.5 -14c-12.667 0 -23.834 4.66699 -33.501 14z" />
    <glyph glyph-name="igrave" unicode="&#xec;" horiz-adv-x="282" 
d="M103 528h75v-528h-75v528zM-3 807h80l97 -210h-60z" />
    <glyph glyph-name="iacute" unicode="&#xed;" horiz-adv-x="282" 
d="M103 528h75v-528h-75v528zM203 809h80l-117 -212h-60z" />
    <glyph glyph-name="icircumflex" unicode="&#xee;" horiz-adv-x="282" 
d="M103 528h75v-528h-75v528zM225 597l-84 154l-83 -154h-60l107 210h73l106 -210h-59z" />
    <glyph glyph-name="idieresis" unicode="&#xef;" horiz-adv-x="282" 
d="M103 528h75v-528h-75v528zM10.5 722c-9.66699 9.33301 -14.498 20.333 -14.498 33c0 13.333 4.66699 24.833 14 34.5s20.666 14.5 33.999 14.5s24.833 -4.83301 34.5 -14.5s14.5 -21.167 14.5 -34.5c0 -12.667 -4.83301 -23.667 -14.5 -33s-21.167 -14 -34.5 -14
c-12.667 0 -23.834 4.66699 -33.501 14zM204.502 722c-9.66699 9.33301 -14.498 20.333 -14.498 33c0 13.333 4.66699 24.833 14 34.5s20.666 14.5 33.999 14.5s24.833 -4.83301 34.5 -14.5s14.5 -21.167 14.5 -34.5c0 -12.667 -4.83301 -23.667 -14.5 -33
s-21.167 -14 -34.5 -14c-12.667 0 -23.834 4.66699 -33.501 14z" />
    <glyph glyph-name="eth" unicode="&#xf0;" horiz-adv-x="622" 
d="M499 514c31.333 -70.667 47.001 -144.665 47.001 -221.998c0 -62 -10.333 -116.5 -31 -163.5s-49.334 -83.333 -86.001 -109s-78.667 -38.5 -126 -38.5c-55.333 0 -102.166 12.667 -140.499 38s-67 59.166 -86 101.499s-28.5 89.166 -28.5 140.499
c0 50.667 9.66699 97.167 29 139.5s47.666 76.166 84.999 101.499s82 38 134 38c48 0 91 -13.667 129 -41c-28 63.333 -69.667 117.333 -125 162l-144 -79l-24 47l120 66c-40 24.667 -85.667 44.334 -137 59.001l34 50c61.333 -16.667 117 -41.667 167 -75l132 72l23 -47
l-109 -59c60 -50 105.667 -110.333 137 -181zM424.001 106.502c30 43.667 45 104.5 45 182.5c0 30 -2.66699 61.667 -8 95c-42.667 64 -97.667 96 -165 96c-54 0 -96 -20 -126 -60s-45 -93 -45 -159c0 -63.333 15.333 -115.833 46 -157.5s74.667 -62.5 132 -62.5
c50.667 0 91 21.833 121 65.5z" />
    <glyph glyph-name="ntilde" unicode="&#xf1;" horiz-adv-x="595" 
d="M472.5 503c21 -29.333 31.502 -71.668 31.502 -127.001v-376h-75v370c0 40.667 -6.83301 70.167 -20.5 88.5s-36.834 27.5 -69.501 27.5c-26 0 -52.333 -6.16699 -79 -18.5s-56.334 -31.166 -89.001 -56.499v-411h-75v528h59l11 -57c64.667 50.667 128 76 190 76
c56.667 0 95.5 -14.667 116.5 -44zM135.002 639.998c3.33301 43.333 13.332 76.833 29.999 100.5s38.667 35.5 66 35.5c16.667 0 30.5 -3.83301 41.5 -11.5s23.5 -19.5 37.5 -35.5c10 -12 18.833 -21 26.5 -27s16.5 -9 26.5 -9c14 0 24.667 6.5 32 19.5s13 34.833 17 65.5
l49 -4c-3.33301 -42.667 -13.333 -76 -30 -100s-38.667 -36 -66 -36c-18 0 -32.833 4.16699 -44.5 12.5s-24.5 20.5 -38.5 36.5c-9.33301 11.333 -17.666 19.833 -24.999 25.5s-15.333 8.5 -24 8.5c-14 0 -24.667 -6.33301 -32 -19s-13 -34.667 -17 -66z" />
    <glyph glyph-name="ograve" unicode="&#xf2;" horiz-adv-x="596" 
d="M160.5 19c-37.667 25.333 -65.834 59.499 -84.501 102.499s-28 90.167 -28 141.5c0 52.667 9.33301 100.5 28 143.5s46.834 77.167 84.501 102.5s83.5 38 137.5 38s99.667 -12.833 137 -38.5s65.333 -60 84 -103s28 -89.833 28 -140.5
c0 -51.333 -9.33301 -98.666 -28 -141.999s-46.667 -77.833 -84 -103.5s-83 -38.5 -137 -38.5s-99.833 12.667 -137.5 38zM425 101.999c30 40.667 45 94.667 45 162c0 66.667 -15 120.667 -45 162s-72.667 62 -128 62c-54.667 0 -97 -20.667 -127 -62s-45 -95.333 -45 -162
c0 -67.333 14.833 -121.333 44.5 -162s72.167 -61 127.5 -61s98 20.333 128 61zM154 806.999h80l97 -210h-60z" />
    <glyph glyph-name="oacute" unicode="&#xf3;" horiz-adv-x="596" 
d="M160.5 19c-37.667 25.333 -65.834 59.499 -84.501 102.499s-28 90.167 -28 141.5c0 52.667 9.33301 100.5 28 143.5s46.834 77.167 84.501 102.5s83.5 38 137.5 38s99.667 -12.833 137 -38.5s65.333 -60 84 -103s28 -89.833 28 -140.5
c0 -51.333 -9.33301 -98.666 -28 -141.999s-46.667 -77.833 -84 -103.5s-83 -38.5 -137 -38.5s-99.833 12.667 -137.5 38zM425 101.999c30 40.667 45 94.667 45 162c0 66.667 -15 120.667 -45 162s-72.667 62 -128 62c-54.667 0 -97 -20.667 -127 -62s-45 -95.333 -45 -162
c0 -67.333 14.833 -121.333 44.5 -162s72.167 -61 127.5 -61s98 20.333 128 61zM360 808.999h80l-117 -212h-60z" />
    <glyph glyph-name="ocircumflex" unicode="&#xf4;" horiz-adv-x="596" 
d="M160.5 19c-37.667 25.333 -65.834 59.499 -84.501 102.499s-28 90.167 -28 141.5c0 52.667 9.33301 100.5 28 143.5s46.834 77.167 84.501 102.5s83.5 38 137.5 38s99.667 -12.833 137 -38.5s65.333 -60 84 -103s28 -89.833 28 -140.5
c0 -51.333 -9.33301 -98.666 -28 -141.999s-46.667 -77.833 -84 -103.5s-83 -38.5 -137 -38.5s-99.833 12.667 -137.5 38zM425 101.999c30 40.667 45 94.667 45 162c0 66.667 -15 120.667 -45 162s-72.667 62 -128 62c-54.667 0 -97 -20.667 -127 -62s-45 -95.333 -45 -162
c0 -67.333 14.833 -121.333 44.5 -162s72.167 -61 127.5 -61s98 20.333 128 61zM382 596.999l-84 154l-83 -154h-60l107 210h73l106 -210h-59z" />
    <glyph glyph-name="otilde" unicode="&#xf5;" horiz-adv-x="596" 
d="M160.5 19c-37.667 25.333 -65.834 59.499 -84.501 102.499s-28 90.167 -28 141.5c0 52.667 9.33301 100.5 28 143.5s46.834 77.167 84.501 102.5s83.5 38 137.5 38s99.667 -12.833 137 -38.5s65.333 -60 84 -103s28 -89.833 28 -140.5
c0 -51.333 -9.33301 -98.666 -28 -141.999s-46.667 -77.833 -84 -103.5s-83 -38.5 -137 -38.5s-99.833 12.667 -137.5 38zM425 101.999c30 40.667 45 94.667 45 162c0 66.667 -15 120.667 -45 162s-72.667 62 -128 62c-54.667 0 -97 -20.667 -127 -62s-45 -95.333 -45 -162
c0 -67.333 14.833 -121.333 44.5 -162s72.167 -61 127.5 -61s98 20.333 128 61zM135 639.999c3.33301 43.333 13.332 76.833 29.999 100.5s38.667 35.5 66 35.5c16.667 0 30.5 -3.83301 41.5 -11.5s23.5 -19.5 37.5 -35.5c10 -12 18.833 -21 26.5 -27s16.5 -9 26.5 -9
c14 0 24.667 6.5 32 19.5s13 34.833 17 65.5l49 -4c-3.33301 -42.667 -13.333 -76 -30 -100s-38.667 -36 -66 -36c-18 0 -32.833 4.16699 -44.5 12.5s-24.5 20.5 -38.5 36.5c-9.33301 11.333 -17.666 19.833 -24.999 25.5s-15.333 8.5 -24 8.5
c-14 0 -24.667 -6.33301 -32 -19s-13 -34.667 -17 -66z" />
    <glyph glyph-name="odieresis" unicode="&#xf6;" horiz-adv-x="596" 
d="M160.5 19c-37.667 25.333 -65.834 59.499 -84.501 102.499s-28 90.167 -28 141.5c0 52.667 9.33301 100.5 28 143.5s46.834 77.167 84.501 102.5s83.5 38 137.5 38s99.667 -12.833 137 -38.5s65.333 -60 84 -103s28 -89.833 28 -140.5
c0 -51.333 -9.33301 -98.666 -28 -141.999s-46.667 -77.833 -84 -103.5s-83 -38.5 -137 -38.5s-99.833 12.667 -137.5 38zM425 101.999c30 40.667 45 94.667 45 162c0 66.667 -15 120.667 -45 162s-72.667 62 -128 62c-54.667 0 -97 -20.667 -127 -62s-45 -95.333 -45 -162
c0 -67.333 14.833 -121.333 44.5 -162s72.167 -61 127.5 -61s98 20.333 128 61zM167.5 721.999c-9.66699 9.33301 -14.498 20.333 -14.498 33c0 13.333 4.66699 24.833 14 34.5s20.666 14.5 33.999 14.5s24.833 -4.83301 34.5 -14.5s14.5 -21.167 14.5 -34.5
c0 -12.667 -4.83301 -23.667 -14.5 -33s-21.167 -14 -34.5 -14c-12.667 0 -23.834 4.66699 -33.501 14zM361.502 721.999c-9.66699 9.33301 -14.498 20.333 -14.498 33c0 13.333 4.66699 24.833 14 34.5s20.666 14.5 33.999 14.5s24.833 -4.83301 34.5 -14.5
s14.5 -21.167 14.5 -34.5c0 -12.667 -4.83301 -23.667 -14.5 -33s-21.167 -14 -34.5 -14c-12.667 0 -23.834 4.66699 -33.501 14z" />
    <glyph glyph-name="divide" unicode="&#xf7;" horiz-adv-x="529" 
d="M226.5 428.5c-10.333 10.333 -15.5 22.833 -15.5 37.5s5.16699 27.334 15.5 38.001s22.833 16 37.5 16s27.334 -5.33301 38.001 -16s16 -23.334 16 -38.001s-5.33301 -27.167 -16 -37.5s-23.334 -15.5 -38.001 -15.5s-27.167 5.16699 -37.5 15.5zM33 302h463v-58h-463v58
zM226.5 42.5c-10.333 10.333 -15.5 22.833 -15.5 37.5s5.16699 27.334 15.5 38.001s22.833 16 37.5 16s27.334 -5.33301 38.001 -16s16 -23.334 16 -38.001s-5.33301 -27.167 -16 -37.5s-23.334 -15.5 -38.001 -15.5s-27.167 5.16699 -37.5 15.5z" />
    <glyph glyph-name="oslash" unicode="&#xf8;" horiz-adv-x="596" 
d="M532 371.5c10 -33.667 14.999 -69.168 14.999 -106.501c0 -51.333 -9.33301 -98.666 -28 -141.999s-46.667 -77.833 -84 -103.5s-83 -38.5 -137 -38.5c-62 0 -113.667 17 -155 51l-49 -60l-39 29l53 66c-20 25.333 -35 55 -45 89s-15 69.667 -15 107
c0 52.667 9.33301 100.5 28 143.5s46.834 77.167 84.501 102.5s83.5 38 137.5 38c61.333 0 113 -17.333 155 -52l48 60l39 -29l-53 -66c20 -25.333 35 -54.833 45 -88.5zM154.999 124.999l256 318c-30 30 -68 45 -114 45c-54.667 0 -97 -20.667 -127 -62
s-45 -95.333 -45 -162c0 -54.667 10 -101 30 -139zM424.999 101.999c30 40.667 45.001 94.667 45.001 162c0 55.333 -10 101.333 -30 138l-255 -317c29.333 -29.333 66.666 -44 111.999 -44c55.333 0 98 20.333 128 61z" />
    <glyph glyph-name="ugrave" unicode="&#xf9;" horiz-adv-x="595" 
d="M498 528l-0.000976562 -528h-59l-11 58c-64.667 -51.333 -127.667 -77 -189 -77c-56.667 0 -95.5 14.667 -116.5 44s-31.5 72 -31.5 128v375h75v-370c0 -40.667 6.83301 -70 20.5 -88s36.834 -27 69.501 -27c26 0 52.5 6 79.5 18s56.167 30.667 87.5 56v411h75z
M152.999 807h80l97 -210h-60z" />
    <glyph glyph-name="uacute" unicode="&#xfa;" horiz-adv-x="595" 
d="M498 528l-0.000976562 -528h-59l-11 58c-64.667 -51.333 -127.667 -77 -189 -77c-56.667 0 -95.5 14.667 -116.5 44s-31.5 72 -31.5 128v375h75v-370c0 -40.667 6.83301 -70 20.5 -88s36.834 -27 69.501 -27c26 0 52.5 6 79.5 18s56.167 30.667 87.5 56v411h75z
M358.999 809h80l-117 -212h-60z" />
    <glyph glyph-name="ucircumflex" unicode="&#xfb;" horiz-adv-x="595" 
d="M498 528l-0.000976562 -528h-59l-11 58c-64.667 -51.333 -127.667 -77 -189 -77c-56.667 0 -95.5 14.667 -116.5 44s-31.5 72 -31.5 128v375h75v-370c0 -40.667 6.83301 -70 20.5 -88s36.834 -27 69.501 -27c26 0 52.5 6 79.5 18s56.167 30.667 87.5 56v411h75z
M380.999 597l-84 154l-83 -154h-60l107 210h73l106 -210h-59z" />
    <glyph glyph-name="udieresis" unicode="&#xfc;" horiz-adv-x="595" 
d="M498 528l-0.000976562 -528h-59l-11 58c-64.667 -51.333 -127.667 -77 -189 -77c-56.667 0 -95.5 14.667 -116.5 44s-31.5 72 -31.5 128v375h75v-370c0 -40.667 6.83301 -70 20.5 -88s36.834 -27 69.501 -27c26 0 52.5 6 79.5 18s56.167 30.667 87.5 56v411h75z
M166.499 722c-9.66699 9.33301 -14.498 20.333 -14.498 33c0 13.333 4.66699 24.833 14 34.5s20.666 14.5 33.999 14.5s24.833 -4.83301 34.5 -14.5s14.5 -21.167 14.5 -34.5c0 -12.667 -4.83301 -23.667 -14.5 -33s-21.167 -14 -34.5 -14
c-12.667 0 -23.834 4.66699 -33.501 14zM360.501 722c-9.66699 9.33301 -14.498 20.333 -14.498 33c0 13.333 4.66699 24.833 14 34.5s20.666 14.5 33.999 14.5s24.833 -4.83301 34.5 -14.5s14.5 -21.167 14.5 -34.5c0 -12.667 -4.83301 -23.667 -14.5 -33
s-21.167 -14 -34.5 -14c-12.667 0 -23.834 4.66699 -33.501 14z" />
    <glyph glyph-name="yacute" unicode="&#xfd;" horiz-adv-x="528" 
d="M510 528l-230 -602c-22.667 -60.667 -50 -104.667 -82 -132s-71.333 -41 -118 -41c-21.333 0 -42 3.66699 -62 11l11 61c17.333 -5.33301 33.333 -8 48 -8c32.667 0 60 10 82 30s43.333 57.333 64 112l14 37l-207 532h78l165 -435l161 435h76zM331 809h80l-117 -212h-60z
" />
    <glyph glyph-name="thorn" unicode="&#xfe;" horiz-adv-x="588" 
d="M437.5 515c32.333 -21.333 57.501 -52.166 75.501 -92.499s27 -88.5 27 -144.5c0 -64.667 -11 -119.334 -33 -164.001s-52.167 -78 -90.5 -100s-82.5 -33 -132.5 -33c-41.333 0 -79 9.33301 -113 28v-245h-75v1036h75v-309c45.333 37.333 96.666 56 153.999 56
c42.667 0 80.167 -10.667 112.5 -32zM418.001 104.5c30 42.333 44.998 100.167 44.998 173.5c0 72 -13.667 124.667 -41 158s-60.666 50 -99.999 50c-29.333 0 -55.166 -4.33301 -77.499 -13s-46.833 -23 -73.5 -43v-360c30.667 -19.333 67 -29 109 -29
c62 0 108 21.167 138 63.5z" />
    <glyph glyph-name="ydieresis" unicode="&#xff;" horiz-adv-x="528" 
d="M510 528l-230 -602c-22.667 -60.667 -50 -104.667 -82 -132s-71.333 -41 -118 -41c-21.333 0 -42 3.66699 -62 11l11 61c17.333 -5.33301 33.333 -8 48 -8c32.667 0 60 10 82 30s43.333 57.333 64 112l14 37l-207 532h78l165 -435l161 435h76zM138.5 722
c-9.66699 9.33301 -14.498 20.333 -14.498 33c0 13.333 4.66699 24.833 14 34.5s20.666 14.5 33.999 14.5s24.833 -4.83301 34.5 -14.5s14.5 -21.167 14.5 -34.5c0 -12.667 -4.83301 -23.667 -14.5 -33s-21.167 -14 -34.5 -14c-12.667 0 -23.834 4.66699 -33.501 14z
M332.502 722c-9.66699 9.33301 -14.498 20.333 -14.498 33c0 13.333 4.66699 24.833 14 34.5s20.666 14.5 33.999 14.5s24.833 -4.83301 34.5 -14.5s14.5 -21.167 14.5 -34.5c0 -12.667 -4.83301 -23.667 -14.5 -33s-21.167 -14 -34.5 -14
c-12.667 0 -23.834 4.66699 -33.501 14z" />
    <glyph glyph-name="Amacron" unicode="&#x100;" horiz-adv-x="643" 
d="M460 220h-280l-82 -220h-77l264 689h71l265 -689h-79zM437 280l-117 314l-118 -314h235zM171 849h301v-56h-301v56z" />
    <glyph glyph-name="amacron" unicode="&#x101;" horiz-adv-x="545" 
d="M524 0c-23.333 -8.66699 -45.668 -13.334 -67.001 -14.001c-56 0 -86 25 -90 75c-65.333 -50.667 -124 -76 -176 -76c-41.333 0 -75.166 11.833 -101.499 35.5s-39.5 53.834 -39.5 90.501c0 32.667 9.16699 60 27.5 82s43.833 40.333 76.5 55s76.334 29.667 131.001 45
l81 23v45c0 83.333 -30.667 125 -92 125c-34 0 -64.833 -7 -92.5 -21s-58.834 -40.667 -93.501 -80l-37 45c69.333 78 147 117 233 117c56.667 0 97.167 -14.5 121.5 -43.5s36.5 -77.5 36.5 -145.5v-272c0 -14.667 2.5 -25.167 7.5 -31.5s13.167 -9.5 24.5 -9.5
c12 0 26.333 3.66699 43 11zM145.998 61.5c14 -11 32.667 -16.499 56 -16.499c24.667 0 49.5 6.16699 74.5 18.5s54.833 31.166 89.5 56.499v143l-63 -19c-66 -19.333 -112.167 -38.333 -138.5 -57s-39.5 -42.667 -39.5 -72c0 -24.667 7 -42.5 21 -53.5zM115.998 789.001
h301v-56h-301v56z" />
    <glyph glyph-name="Abreve" unicode="&#x102;" horiz-adv-x="643" 
d="M460 220h-280l-82 -220h-77l264 689h71l265 -689h-79zM437 280l-117 314l-118 -314h235zM219.5 800.5c-25 26.333 -38.168 62.166 -39.501 107.499l53 2c2 -33.333 10.667 -58.333 26 -75s36.333 -25 63 -25s47.834 8.33301 63.501 25s24.5 41.667 26.5 75l53 -2
c-1.33301 -45.333 -14.5 -81.166 -39.5 -107.499s-59.5 -39.5 -103.5 -39.5c-43.333 0 -77.5 13.167 -102.5 39.5z" />
    <glyph glyph-name="abreve" unicode="&#x103;" horiz-adv-x="545" 
d="M524 0c-23.333 -8.66699 -45.668 -13.334 -67.001 -14.001c-56 0 -86 25 -90 75c-65.333 -50.667 -124 -76 -176 -76c-41.333 0 -75.166 11.833 -101.499 35.5s-39.5 53.834 -39.5 90.501c0 32.667 9.16699 60 27.5 82s43.833 40.333 76.5 55s76.334 29.667 131.001 45
l81 23v45c0 83.333 -30.667 125 -92 125c-34 0 -64.833 -7 -92.5 -21s-58.834 -40.667 -93.501 -80l-37 45c69.333 78 147 117 233 117c56.667 0 97.167 -14.5 121.5 -43.5s36.5 -77.5 36.5 -145.5v-272c0 -14.667 2.5 -25.167 7.5 -31.5s13.167 -9.5 24.5 -9.5
c12 0 26.333 3.66699 43 11zM145.998 61.5c14 -11 32.667 -16.499 56 -16.499c24.667 0 49.5 6.16699 74.5 18.5s54.833 31.166 89.5 56.499v143l-63 -19c-66 -19.333 -112.167 -38.333 -138.5 -57s-39.5 -42.667 -39.5 -72c0 -24.667 7 -42.5 21 -53.5zM164.998 663.501
c-24.667 29 -37.667 69.5 -39 121.5l51 2c2 -39.333 10.833 -68.833 26.5 -88.5s36.834 -29.5 63.501 -29.5c26 0 46.833 9.83301 62.5 29.5s24.5 49.167 26.5 88.5l51 -2c-0.666992 -52 -13.334 -92.5 -38.001 -121.5s-58.667 -43.5 -102 -43.5s-77.333 14.5 -102 43.5z
" />
    <glyph glyph-name="Aogonek" unicode="&#x104;" horiz-adv-x="643" 
d="M638 -193c-11.333 -14.667 -26 -26.6689 -44 -36.002s-37 -14 -57 -14c-30.667 0 -55 8.33301 -73 25s-27 39.667 -27 69c0 26.667 8.66699 53.667 26 81s42.333 54 75 80l-78 208h-280l-82 -220h-77l264 689h71l265 -689h-28c-32 -27.333 -55.5 -52.166 -70.5 -74.499
s-22.5 -44.166 -22.5 -65.499c0 -15.333 4 -26.833 12 -34.5s19.333 -11.5 34 -11.5c21.333 0 42.333 10.333 63 31zM437 279.998l-117 314l-118 -314h235z" />
    <glyph glyph-name="aogonek" unicode="&#x105;" horiz-adv-x="545" 
d="M477 -155l28.999 -38.002c-11.333 -14.667 -26 -26.667 -44 -36s-37 -14 -57 -14c-30.667 0 -55 8.33301 -73 25s-27 39.667 -27 69c0 50.667 30 101.334 90 152.001c-16.667 12.667 -26 32 -28 58c-65.333 -50.667 -124 -76 -176 -76
c-41.333 0 -75.166 11.833 -101.499 35.5s-39.5 53.834 -39.5 90.501c0 32.667 9.16699 60 27.5 82s43.833 40.333 76.5 55s76.334 29.667 131.001 45l81 23v45c0 83.333 -30.667 125 -92 125c-34 0 -64.833 -7 -92.5 -21s-58.834 -40.667 -93.501 -80l-37 45
c69.333 78 147 117 233 117c56.667 0 97.167 -14.5 121.5 -43.5s36.5 -77.5 36.5 -145.5v-272c0 -14.667 2.5 -25.167 7.5 -31.5s13.167 -9.5 24.5 -9.5c12 0 26.333 3.66699 43 11l7 -56c-23.333 -8.66699 -45.666 -13.334 -66.999 -14.001h-11
c-26.667 -24 -46.334 -46.167 -59.001 -66.5s-19 -40.166 -19 -59.499c0 -15.333 4 -26.833 12 -34.5s19.333 -11.5 34 -11.5c21.333 0 42.333 10.333 63 31zM145.999 61.498c14 -11 32.667 -16.499 56 -16.499c24.667 0 49.5 6.16699 74.5 18.5s54.833 31.166 89.5 56.499
v143l-63 -19c-66 -19.333 -112.167 -38.333 -138.5 -57s-39.5 -42.667 -39.5 -72c0 -24.667 7 -42.5 21 -53.5z" />
    <glyph glyph-name="Cacute" unicode="&#x106;" horiz-adv-x="695" 
d="M208 34c-50.667 32.667 -88.4961 75.9971 -113.496 129.997s-37.5 113 -37.5 177s13.167 122.667 39.5 176s65.666 96 117.999 128s116.166 48 191.499 48c45.333 0 88 -7.66699 128 -23s73.333 -37 100 -65l-37 -50c-21.333 23.333 -49.333 42 -84 56
s-70.334 21 -107.001 21c-57.333 0 -106.333 -12.667 -147 -38s-71.5 -60.166 -92.5 -104.499s-31.5 -94.166 -31.5 -149.499c0 -56.667 10 -107.167 30 -151.5s49.333 -79.333 88 -105s85.667 -38.5 141 -38.5c84 0 156.667 34.333 218 103l34 -49
c-30 -33.333 -66.333 -60.666 -109 -81.999s-90.334 -32 -143.001 -32c-73.333 0 -135.333 16.333 -186 49zM481.004 886.997h78l-134 -147h-65z" />
    <glyph glyph-name="cacute" unicode="&#x107;" horiz-adv-x="517" 
d="M160 19c-37.333 25.333 -65.332 59.334 -83.999 102.001s-28 90 -28 142s9.5 99.5 28.5 142.5s48.167 77.333 87.5 103s87.333 38.5 144 38.5c33.333 0 65 -6 95 -18s55 -28.333 75 -49l-32 -54c-17.333 18.667 -38.333 33.667 -63 45s-49.667 17 -75 17
c-58 0 -103 -20.667 -135 -62s-48 -95.333 -48 -162s15.167 -120.5 45.5 -161.5s72.833 -61.5 127.5 -61.5c33.333 0 63 7.16699 89 21.5s50 34.166 72 59.499l31 -47c-22 -27.333 -49.333 -49.833 -82 -67.5s-69.334 -26.5 -110.001 -26.5
c-54.667 0 -100.667 12.667 -138 38zM368.001 809.001h80l-117 -212h-60z" />
    <glyph glyph-name="Ccaron" unicode="&#x10c;" horiz-adv-x="695" 
d="M208 34c-50.667 32.667 -88.4961 75.9971 -113.496 129.997s-37.5 113 -37.5 177s13.167 122.667 39.5 176s65.666 96 117.999 128s116.166 48 191.499 48c45.333 0 88 -7.66699 128 -23s73.333 -37 100 -65l-37 -50c-21.333 23.333 -49.333 42 -84 56
s-70.334 21 -107.001 21c-57.333 0 -106.333 -12.667 -147 -38s-71.5 -60.166 -92.5 -104.499s-31.5 -94.166 -31.5 -149.499c0 -56.667 10 -107.167 30 -151.5s49.333 -79.333 88 -105s85.667 -38.5 141 -38.5c84 0 156.667 34.333 218 103l34 -49
c-30 -33.333 -66.333 -60.666 -109 -81.999s-90.334 -32 -143.001 -32c-73.333 0 -135.333 16.333 -186 49zM556.004 886.997l-123 -147h-78l-123 147h69l93 -109l93 109h69z" />
    <glyph glyph-name="ccaron" unicode="&#x10d;" horiz-adv-x="517" 
d="M160 19c-37.333 25.333 -65.332 59.334 -83.999 102.001s-28 90 -28 142s9.5 99.5 28.5 142.5s48.167 77.333 87.5 103s87.333 38.5 144 38.5c33.333 0 65 -6 95 -18s55 -28.333 75 -49l-32 -54c-17.333 18.667 -38.333 33.667 -63 45s-49.667 17 -75 17
c-58 0 -103 -20.667 -135 -62s-48 -95.333 -48 -162s15.167 -120.5 45.5 -161.5s72.833 -61.5 127.5 -61.5c33.333 0 63 7.16699 89 21.5s50 34.166 72 59.499l31 -47c-22 -27.333 -49.333 -49.833 -82 -67.5s-69.334 -26.5 -110.001 -26.5
c-54.667 0 -100.667 12.667 -138 38zM449.001 807.001l-106 -210h-73l-107 210h60l83 -154l84 154h59z" />
    <glyph glyph-name="Dcaron" unicode="&#x10e;" horiz-adv-x="728" 
d="M523.5 636c49 -29.333 85.834 -69.667 110.501 -121s37 -109.333 37 -174c0 -66.667 -12.333 -125.667 -37 -177s-61.334 -91.5 -110.001 -120.5s-108 -43.5 -178 -43.5h-231v680h231c69.333 0 128.5 -14.667 177.5 -44zM529.001 135.499
c43.333 50.333 65 118.5 65 204.5c0 84.667 -21.667 152.5 -65 203.5s-104.333 76.5 -183 76.5h-153v-560h153c78.667 0 139.667 25.167 183 75.5zM517.001 886.999l-123 -147h-78l-123 147h69l93 -109l93 109h69z" />
    <glyph glyph-name="dcaron" unicode="&#x10f;" horiz-adv-x="588" 
d="M491 800v-800.001h-59l-9 45c-47.333 -42.667 -101 -64 -161 -64c-42 0 -79.167 10.667 -111.5 32s-57.5 52.5 -75.5 93.5s-27 89.833 -27 146.5c0 96.667 24 169.834 72 219.501s112 74.5 192 74.5c38 0 72.667 -6.33301 104 -19v272h75zM166 92.499
c27.333 -33.667 60.667 -50.5 100 -50.5c28.667 0 54.167 4.5 76.5 13.5s46.833 24.167 73.5 45.5v368c-27.333 12.667 -61 19 -101 19c-64 0 -111.667 -21.167 -143 -63.5s-47 -99.5 -47 -171.5c0 -73.333 13.667 -126.833 41 -160.5zM527.001 605.999
c40.667 28.667 61 70.332 61 124.999c0 21.333 -4.33301 44.333 -13 69h65c6.66699 -22 10 -44 10 -66c0 -35.333 -9 -67.666 -27 -96.999s-41.333 -51.333 -70 -66z" />
    <glyph glyph-name="Dcroat" unicode="&#x110;" horiz-adv-x="728" 
d="M523.5 636c49 -29.333 85.834 -69.667 110.501 -121s37 -109.333 37 -174c0 -66.667 -12.333 -125.667 -37 -177s-61.334 -91.5 -110.001 -120.5s-108 -43.5 -178 -43.5h-231v315h-112v57h112v308h231c69.333 0 128.5 -14.667 177.5 -44zM529.001 135.499
c43.333 50.333 65 118.5 65 204.5c0 84.667 -21.667 152.5 -65 203.5s-104.333 76.5 -183 76.5h-153v-248h200v-57h-200v-255h153c78.667 0 139.667 25.167 183 75.5z" />
    <glyph glyph-name="dcroat" unicode="&#x111;" horiz-adv-x="588" 
d="M587 628l-96 -0.000976562v-628h-59l-9 45c-47.333 -42.667 -101 -64 -161 -64c-42 0 -79.167 10.667 -111.5 32s-57.5 52.5 -75.5 93.5s-27 89.833 -27 146.5c0 96.667 24 169.834 72 219.501s112 74.5 192 74.5c38 0 72.667 -6.33301 104 -19v100h-158v56h158v116h75
v-116h96v-56zM166 92.499c27.333 -33.667 60.667 -50.5 100 -50.5c28.667 0 54.167 4.5 76.5 13.5s46.833 24.167 73.5 45.5v368c-27.333 12.667 -61 19 -101 19c-64 0 -111.667 -21.167 -143 -63.5s-47 -99.5 -47 -171.5c0 -73.333 13.667 -126.833 41 -160.5z" />
    <glyph glyph-name="Emacron" unicode="&#x112;" horiz-adv-x="583" 
d="M525 60v-60h-410v680h390v-60h-312v-230h272v-60h-272v-270h332zM163 849h301v-56h-301v56z" />
    <glyph glyph-name="emacron" unicode="&#x113;" horiz-adv-x="546" 
d="M495 78c-54.667 -64.667 -120.667 -97 -198 -97c-54 0 -99.667 12.667 -137 38s-65.333 59.5 -84 102.5s-28 90.167 -28 141.5c0 52.667 9.33301 100.5 28 143.5s46.667 77.167 84 102.5s83 38 137 38c36.667 0 70 -7.5 100 -22.5s53.667 -37 71 -66
s26 -63.167 26 -102.5c0 -16.667 -2 -35 -6 -55h-362c-1.33301 -16 -2 -28 -2 -36c0 -67.333 15 -121.5 45 -162.5s73 -61.5 129 -61.5c34 0 64.333 7.5 91 22.5s51.667 35.5 75 61.5zM193.5 454.5c-27 -23.667 -46.168 -55.833 -57.501 -96.5h283v7
c0 40 -12.167 70.833 -36.5 92.5s-53.166 32.5 -86.499 32.5c-41.333 0 -75.5 -11.833 -102.5 -35.5zM134.999 789.001h301v-56h-301v56z" />
    <glyph glyph-name="Edotaccent" unicode="&#x116;" horiz-adv-x="583" 
d="M525 60v-60h-410v680h390v-60h-312v-230h272v-60h-272v-270h332zM281 786c-9.33301 9.33301 -14 19.998 -14 31.998c0 12.667 4.66699 23.834 14 33.501s20.333 14.5 33 14.5s23.667 -4.66699 33 -14s14 -20.666 14 -33.999c0 -12 -4.66699 -22.667 -14 -32
s-20.333 -14 -33 -14s-23.667 4.66699 -33 14z" />
    <glyph glyph-name="edotaccent" unicode="&#x117;" horiz-adv-x="546" 
d="M495 78c-54.667 -64.667 -120.667 -97 -198 -97c-54 0 -99.667 12.667 -137 38s-65.333 59.5 -84 102.5s-28 90.167 -28 141.5c0 52.667 9.33301 100.5 28 143.5s46.667 77.167 84 102.5s83 38 137 38c36.667 0 70 -7.5 100 -22.5s53.667 -37 71 -66
s26 -63.167 26 -102.5c0 -16.667 -2 -35 -6 -55h-362c-1.33301 -16 -2 -28 -2 -36c0 -67.333 15 -121.5 45 -162.5s73 -61.5 129 -61.5c34 0 64.333 7.5 91 22.5s51.667 35.5 75 61.5zM193.5 454.5c-27 -23.667 -46.168 -55.833 -57.501 -96.5h283v7
c0 40 -12.167 70.833 -36.5 92.5s-53.166 32.5 -86.499 32.5c-41.333 0 -75.5 -11.833 -102.5 -35.5zM252.499 722.001c-9.66699 9.33301 -14.498 20.333 -14.498 33c0 13.333 4.66699 24.833 14 34.5s20.666 14.5 33.999 14.5s24.833 -4.83301 34.5 -14.5
s14.5 -21.167 14.5 -34.5c0 -12.667 -4.83301 -23.667 -14.5 -33s-21.167 -14 -34.5 -14c-12.667 0 -23.834 4.66699 -33.501 14z" />
    <glyph glyph-name="Eogonek" unicode="&#x118;" horiz-adv-x="583" 
d="M525 60v-60h-410v680h390v-60h-312v-230h272v-60h-272v-270h332zM362 -218c-18 16.667 -27 39.668 -27 69.001c0 27.333 9 55 27 83s44 55 78 81h69c-38 -31.333 -66 -59.333 -84 -84s-27 -48.334 -27 -71.001c0 -15.333 4 -26.833 12 -34.5s19.333 -11.5 34 -11.5
c21.333 0 42.333 10.333 63 31l29 -38c-11.333 -14.667 -26 -26.667 -44 -36s-37 -14 -57 -14c-30.667 0 -55 8.33301 -73 25z" />
    <glyph glyph-name="eogonek" unicode="&#x119;" horiz-adv-x="546" 
d="M332 -72c-16.667 -23.333 -24.999 -46 -24.999 -68c0 -15.333 4 -26.833 12 -34.5s19.333 -11.5 34 -11.5c21.333 0 42.333 10.333 63 31l29 -38c-11.333 -14.667 -26 -26.667 -44 -36s-37 -14 -57 -14c-30.667 0 -55 8.33301 -73 25s-27 39.667 -27 69
c0 42.667 22 86 66 130h-13c-54 0 -99.667 12.667 -137 38s-65.333 59.5 -84 102.5s-28 90.167 -28 141.5c0 52.667 9.33301 100.5 28 143.5s46.667 77.167 84 102.5s83 38 137 38c36.667 0 70 -7.5 100 -22.5s53.667 -37 71 -66s26 -63.167 26 -102.5
c0 -16.667 -2 -35 -6 -55h-362c-1.33301 -16 -2 -28 -2 -36c0 -67.333 15 -121.5 45 -162.5s73 -61.5 129 -61.5c34 0 64.333 7.5 91 22.5s51.667 35.5 75 61.5l31 -47c-27.333 -32 -56 -55.333 -86 -70c-34.667 -30 -60.334 -56.667 -77.001 -80zM193.501 454.5
c-27 -23.667 -46.168 -55.833 -57.501 -96.5h283v7c0 40 -12.167 70.833 -36.5 92.5s-53.166 32.5 -86.499 32.5c-41.333 0 -75.5 -11.833 -102.5 -35.5z" />
    <glyph glyph-name="Ecaron" unicode="&#x11a;" horiz-adv-x="583" 
d="M525 60v-60h-410v680h390v-60h-312v-230h272v-60h-272v-270h332zM476 887l-123 -147h-78l-123 147h69l93 -109l93 109h69z" />
    <glyph glyph-name="ecaron" unicode="&#x11b;" horiz-adv-x="546" 
d="M495 78c-54.667 -64.667 -120.667 -97 -198 -97c-54 0 -99.667 12.667 -137 38s-65.333 59.5 -84 102.5s-28 90.167 -28 141.5c0 52.667 9.33301 100.5 28 143.5s46.667 77.167 84 102.5s83 38 137 38c36.667 0 70 -7.5 100 -22.5s53.667 -37 71 -66
s26 -63.167 26 -102.5c0 -16.667 -2 -35 -6 -55h-362c-1.33301 -16 -2 -28 -2 -36c0 -67.333 15 -121.5 45 -162.5s73 -61.5 129 -61.5c34 0 64.333 7.5 91 22.5s51.667 35.5 75 61.5zM193.5 454.5c-27 -23.667 -46.168 -55.833 -57.501 -96.5h283v7
c0 40 -12.167 70.833 -36.5 92.5s-53.166 32.5 -86.499 32.5c-41.333 0 -75.5 -11.833 -102.5 -35.5zM428.999 807.001l-106 -210h-73l-107 210h60l83 -154l84 154h59z" />
    <glyph glyph-name="Gbreve" unicode="&#x11e;" horiz-adv-x="713" 
d="M635 315l0.00292969 -276.002c-25.333 -16 -58.833 -29 -100.5 -39s-88.5 -15 -140.5 -15c-73.333 0 -135.333 16.333 -186 49s-88.5 76 -113.5 130s-37.5 113 -37.5 177s13.167 122.667 39.5 176s65.666 96 117.999 128s116.166 48 191.499 48
c45.333 0 88 -7.66699 128 -23s73.333 -37 100 -65l-37 -50c-21.333 23.333 -49.333 42 -84 56s-70.334 21 -107.001 21c-57.333 0 -106.333 -12.667 -147 -38s-71.5 -60.166 -92.5 -104.499s-31.5 -94.166 -31.5 -149.499c0 -56.667 10 -107.167 30 -151.5
s49.333 -79.333 88 -105s85.667 -38.5 141 -38.5c64 0 119.333 8.33301 166 25v245h75zM290.503 800.498c-25 26.333 -38.168 62.166 -39.501 107.499l53 2c2 -33.333 10.667 -58.333 26 -75s36.333 -25 63 -25s47.834 8.33301 63.501 25s24.5 41.667 26.5 75l53 -2
c-1.33301 -45.333 -14.5 -81.166 -39.5 -107.499s-59.5 -39.5 -103.5 -39.5c-43.333 0 -77.5 13.167 -102.5 39.5z" />
    <glyph glyph-name="gbreve" unicode="&#x11f;" horiz-adv-x="548" 
d="M537 470l-122 10.998c23.333 -29.333 35 -64.666 35 -105.999c0 -32 -7 -61.333 -21 -88s-35.333 -48 -64 -64s-63.334 -24 -104.001 -24c-25.333 0 -47.333 3 -66 9c-22 -19.333 -37.5 -34.666 -46.5 -45.999s-13.5 -23.666 -13.5 -36.999
c0 -15.333 5.66699 -26.333 17 -33s29.666 -10 54.999 -10h173c46.667 0 82.834 -11.5 108.501 -34.5s38.5 -53.833 38.5 -92.5c0 -37.333 -12.667 -71.333 -38 -102s-60.166 -54.834 -104.499 -72.501s-93.833 -26.5 -148.5 -26.5c-70.667 0 -121.5 13 -152.5 39
s-46.5 58.667 -46.5 98c0 28 6.83301 52.167 20.5 72.5s35.5 42.5 65.5 66.5c-40 14 -60 41 -60 81c0 20 6 38.833 18 56.5s32.667 38.834 62 63.501c-23.333 15.333 -41.166 35.5 -53.499 60.5s-18.5 52.167 -18.5 81.5c0 31.333 7 60.166 21 86.499s35.333 47.5 64 63.5
s63.667 24 105 24c35.333 0 66.666 -6.33301 93.999 -19h182v-58zM344.5 288.998c20.333 22 30.501 50.333 30.501 85c0 34 -10 61.833 -30 83.5s-48 32.5 -84 32.5c-35.333 0 -63.166 -10.833 -83.499 -32.5s-30.5 -49.5 -30.5 -83.5c0 -34.667 10.167 -63 30.5 -85
s48.166 -33 83.499 -33s63.166 11 83.499 33zM371.001 18.998l-169.999 -0.000976562h-12c-26.667 -20.667 -46.834 -40.667 -60.501 -60s-20.5 -40.666 -20.5 -63.999c0 -29.333 11.167 -50.333 33.5 -63s53.833 -19 94.5 -19c41.333 0 78.833 6.5 112.5 19.5
s60.167 29.833 79.5 50.5s29 41.667 29 63c0 48.667 -28.667 73 -86 73zM172.002 663.497c-24.667 29 -37.667 69.5 -39 121.5l51 2c2 -39.333 10.833 -68.833 26.5 -88.5s36.834 -29.5 63.501 -29.5c26 0 46.833 9.83301 62.5 29.5s24.5 49.167 26.5 88.5l51 -2
c-0.666992 -52 -13.334 -92.5 -38.001 -121.5s-58.667 -43.5 -102 -43.5s-77.333 14.5 -102 43.5z" />
    <glyph glyph-name="Gcommaaccent" unicode="&#x122;" horiz-adv-x="713" 
d="M635 315l0.00292969 -276.002c-25.333 -16 -58.833 -29 -100.5 -39s-88.5 -15 -140.5 -15c-73.333 0 -135.333 16.333 -186 49s-88.5 76 -113.5 130s-37.5 113 -37.5 177s13.167 122.667 39.5 176s65.666 96 117.999 128s116.166 48 191.499 48
c45.333 0 88 -7.66699 128 -23s73.333 -37 100 -65l-37 -50c-21.333 23.333 -49.333 42 -84 56s-70.334 21 -107.001 21c-57.333 0 -106.333 -12.667 -147 -38s-71.5 -60.166 -92.5 -104.499s-31.5 -94.166 -31.5 -149.499c0 -56.667 10 -107.167 30 -151.5
s49.333 -79.333 88 -105s85.667 -38.5 141 -38.5c64 0 119.333 8.33301 166 25v245h75zM336.003 -204.002c26 9.33301 44.166 18.6699 54.499 28.0029s15.5 20.666 15.5 33.999c0 9.33301 -3.83301 17.166 -11.5 23.499s-20.5 10.833 -38.5 13.5l18 44
c32.667 -4 56.334 -13 71.001 -27s22 -31 22 -51c0 -22.667 -8.83301 -42.834 -26.5 -60.501s-45.5 -31.5 -83.5 -41.5z" />
    <glyph glyph-name="gcommaaccent" unicode="&#x123;" horiz-adv-x="548" 
d="M537 470l-122 10.998c23.333 -29.333 35 -64.666 35 -105.999c0 -32 -7 -61.333 -21 -88s-35.333 -48 -64 -64s-63.334 -24 -104.001 -24c-25.333 0 -47.333 3 -66 9c-22 -19.333 -37.5 -34.666 -46.5 -45.999s-13.5 -23.666 -13.5 -36.999
c0 -15.333 5.66699 -26.333 17 -33s29.666 -10 54.999 -10h173c46.667 0 82.834 -11.5 108.501 -34.5s38.5 -53.833 38.5 -92.5c0 -37.333 -12.667 -71.333 -38 -102s-60.166 -54.834 -104.499 -72.501s-93.833 -26.5 -148.5 -26.5c-70.667 0 -121.5 13 -152.5 39
s-46.5 58.667 -46.5 98c0 28 6.83301 52.167 20.5 72.5s35.5 42.5 65.5 66.5c-40 14 -60 41 -60 81c0 20 6 38.833 18 56.5s32.667 38.834 62 63.501c-23.333 15.333 -41.166 35.5 -53.499 60.5s-18.5 52.167 -18.5 81.5c0 31.333 7 60.166 21 86.499s35.333 47.5 64 63.5
s63.667 24 105 24c35.333 0 66.666 -6.33301 93.999 -19h182v-58zM344.5 288.998c20.333 22 30.501 50.333 30.501 85c0 34 -10 61.833 -30 83.5s-48 32.5 -84 32.5c-35.333 0 -63.166 -10.833 -83.499 -32.5s-30.5 -49.5 -30.5 -83.5c0 -34.667 10.167 -63 30.5 -85
s48.166 -33 83.499 -33s63.166 11 83.499 33zM371.001 18.998l-169.999 -0.000976562h-12c-26.667 -20.667 -46.834 -40.667 -60.501 -60s-20.5 -40.666 -20.5 -63.999c0 -29.333 11.167 -50.333 33.5 -63s53.833 -19 94.5 -19c41.333 0 78.833 6.5 112.5 19.5
s60.167 29.833 79.5 50.5s29 41.667 29 63c0 48.667 -28.667 73 -86 73zM231.002 644.997c-14.667 14 -21.999 31 -21.999 51c0 48.667 36.667 82.667 110 102l21 -37c-26.667 -8.66699 -45 -17.834 -55 -27.501s-15 -21.167 -15 -34.5
c0 -9.33301 3.83301 -17.166 11.5 -23.499s20.5 -10.833 38.5 -13.5l-18 -44c-32.667 4 -56.334 13 -71.001 27z" />
    <glyph glyph-name="Hbar" unicode="&#x126;" horiz-adv-x="766" 
d="M765 508h-113v-508h-78v330h-381v-330h-78v508h-112v56h112v116h78v-116h381v116h78v-116h113v-56zM574 508h-381v-118h381v118z" />
    <glyph glyph-name="hbar" unicode="&#x127;" horiz-adv-x="595" 
d="M471.5 503c21 -29.333 31.5029 -71.668 31.5029 -127.001v-376h-75v370c0 40.667 -6.83301 70.167 -20.5 88.5s-36.834 27.5 -69.501 27.5c-25.333 0 -51.333 -6.16699 -78 -18.5s-56.334 -31.166 -89.001 -56.499v-411h-75v628h-95v56h95v116h75v-116h159v-56h-159v-154
c63.333 48.667 124.666 73 183.999 73c56.667 0 95.5 -14.667 116.5 -44z" />
    <glyph glyph-name="Itilde" unicode="&#x128;" horiz-adv-x="307" 
d="M115 680h78v-680h-78v680zM-9 752c3.33301 43.333 13.332 76.833 29.999 100.5s38.667 35.5 66 35.5c16.667 0 30.5 -3.83301 41.5 -11.5s23.5 -19.5 37.5 -35.5c10 -12 18.833 -21 26.5 -27s16.5 -9 26.5 -9c14 0 24.667 6.5 32 19.5s13 34.833 17 65.5l49 -4
c-3.33301 -42.667 -13.333 -76 -30 -100s-38.667 -36 -66 -36c-18 0 -32.833 4.16699 -44.5 12.5s-24.5 20.5 -38.5 36.5c-9.33301 11.333 -17.666 19.833 -24.999 25.5s-15.333 8.5 -24 8.5c-14 0 -24.667 -6.33301 -32 -19s-13 -34.667 -17 -66z" />
    <glyph glyph-name="itilde" unicode="&#x129;" horiz-adv-x="282" 
d="M103 528h75v-528h-75v528zM-22 640c3.33301 43.333 13.332 76.833 29.999 100.5s38.667 35.5 66 35.5c16.667 0 30.5 -3.83301 41.5 -11.5s23.5 -19.5 37.5 -35.5c10 -12 18.833 -21 26.5 -27s16.5 -9 26.5 -9c14 0 24.667 6.5 32 19.5s13 34.833 17 65.5l49 -4
c-3.33301 -42.667 -13.333 -76 -30 -100s-38.667 -36 -66 -36c-18 0 -32.833 4.16699 -44.5 12.5s-24.5 20.5 -38.5 36.5c-9.33301 11.333 -17.666 19.833 -24.999 25.5s-15.333 8.5 -24 8.5c-14 0 -24.667 -6.33301 -32 -19s-13 -34.667 -17 -66z" />
    <glyph glyph-name="Imacron" unicode="&#x12a;" horiz-adv-x="307" 
d="M115 680h78v-680h-78v680zM3 849h301v-56h-301v56z" />
    <glyph glyph-name="imacron" unicode="&#x12b;" horiz-adv-x="282" 
d="M103 528h75v-528h-75v528zM-10 789h301v-56h-301v56z" />
    <glyph glyph-name="Iogonek" unicode="&#x12e;" horiz-adv-x="307" 
d="M215 -193c-11.333 -14.667 -26 -26.6689 -44 -36.002s-37 -14 -57 -14c-30.667 0 -55 8.33301 -73 25s-27 39.667 -27 69c0 26.667 8.66699 53.667 26 81s42.333 54 75 80v668h78v-680h-23c-32 -27.333 -55.5 -52.166 -70.5 -74.499s-22.5 -44.166 -22.5 -65.499
c0 -15.333 4 -26.833 12 -34.5s19.333 -11.5 34 -11.5c21.333 0 42.333 10.333 63 31z" />
    <glyph glyph-name="iogonek" unicode="&#x12f;" horiz-adv-x="282" 
d="M106 722.5c-10 9.66699 -15 21.167 -15 34.5c0 14 5 26 15 36s21.667 15 35 15c14 0 25.833 -5 35.5 -15s14.5 -22 14.5 -36c0 -13.333 -4.83301 -24.833 -14.5 -34.5s-21.5 -14.5 -35.5 -14.5c-13.333 0 -25 4.83301 -35 14.5zM198 -193
c-11.333 -14.667 -26 -26.6689 -44 -36.002s-37 -14 -57 -14c-30.667 0 -55 8.33301 -73 25s-27 39.667 -27 69c0 27.333 9 55 27 83s44 55 78 81h1v513h75v-528h-25c-32 -27.333 -55.5 -52.166 -70.5 -74.499s-22.5 -44.166 -22.5 -65.499c0 -15.333 4 -26.833 12 -34.5
s19.333 -11.5 34 -11.5c21.333 0 42.333 10.333 63 31z" />
    <glyph glyph-name="Idotaccent" unicode="&#x130;" horiz-adv-x="307" 
d="M115 680h78v-680h-78v680zM121 786c-9.33301 9.33301 -14 19.998 -14 31.998c0 12.667 4.66699 23.834 14 33.501s20.333 14.5 33 14.5s23.667 -4.66699 33 -14s14 -20.666 14 -33.999c0 -12 -4.66699 -22.667 -14 -32s-20.333 -14 -33 -14s-23.667 4.66699 -33 14z" />
    <glyph glyph-name="dotlessi" unicode="&#x131;" horiz-adv-x="282" 
d="M103 528h75v-528h-75v528z" />
    <glyph glyph-name="IJ" unicode="&#x132;" horiz-adv-x="615" 
d="M115 680h78v-680h-78v680zM260 -236l11 60c15.333 -3.33301 29.666 -5 42.999 -5c38.667 0 66.334 13 83.001 39s25 66.333 25 121v701h78v-703c0 -71.333 -14.833 -126 -44.5 -164s-75.167 -57 -136.5 -57c-18 0 -37.667 2.66699 -59 8z" />
    <glyph glyph-name="ij" unicode="&#x133;" horiz-adv-x="550" 
d="M106 722.5c-10 9.66699 -15 21.167 -15 34.5c0 14 5 26 15 36s21.667 15 35 15c14 0 25.833 -5 35.5 -15s14.5 -22 14.5 -36c0 -13.333 -4.83301 -24.833 -14.5 -34.5s-21.5 -14.5 -35.5 -14.5c-13.333 0 -25 4.83301 -35 14.5zM103 528h75v-528h-75v528zM384 722.5
c-10 9.66699 -15 21.167 -15 34.5c0 14 5 26 15 36s21.667 15 35 15c14 0 25.833 -5 35.5 -15s14.5 -22 14.5 -36c0 -13.333 -4.83301 -24.833 -14.5 -34.5s-21.5 -14.5 -35.5 -14.5c-13.333 0 -25 4.83301 -35 14.5zM217 -236l11 58.001c14.667 -3.33301 28.667 -5 42 -5
c38.667 0 66.5 13 83.5 39s25.5 66.333 25.5 121v551h75v-553c0 -70.667 -14.667 -124.834 -44 -162.501s-74 -56.5 -134 -56.5c-18 0 -37.667 2.66699 -59 8z" />
    <glyph glyph-name="Jcircumflex" unicode="&#x134;" horiz-adv-x="307" 
d="M-47 -236l11 60c15.333 -3.33301 29.666 -5 42.999 -5c38.667 0 66.334 13 83.001 39s25 66.333 25 121v701h78v-703c0 -71.333 -14.833 -126 -44.5 -164s-75.167 -57 -136.5 -57c-18 0 -37.667 2.66699 -59 8zM247 740l-93 109l-93 -109h-69l123 147h78l123 -147h-69z
" />
    <glyph glyph-name="jcircumflex" unicode="&#x135;" horiz-adv-x="268" 
d="M-65 -236l11 58.001c14.667 -3.33301 28.667 -5 42 -5c38.667 0 66.5 13 83.5 39s25.5 66.333 25.5 121v551h75v-553c0 -70.667 -14.667 -124.834 -44 -162.501s-74 -56.5 -134 -56.5c-18 0 -37.667 2.66699 -59 8zM218 597.001l-84 154l-83 -154h-60l107 210h73
l106 -210h-59z" />
    <glyph glyph-name="Kcommaaccent" unicode="&#x136;" horiz-adv-x="674" 
d="M115 680h78v-680h-78v680zM645 0h-95l-337 355v20l297 305h92l-309 -312zM280 -204c26 9.33301 44.166 18.6699 54.499 28.0029s15.5 20.666 15.5 33.999c0 9.33301 -3.83301 17.166 -11.5 23.499s-20.5 10.833 -38.5 13.5l18 44c32.667 -4 56.334 -13 71.001 -27
s22 -31 22 -51c0 -22.667 -8.83301 -42.834 -26.5 -60.501s-45.5 -31.5 -83.5 -41.5z" />
    <glyph glyph-name="kcommaaccent" unicode="&#x137;" horiz-adv-x="549" 
d="M96 800h75v-800h-75v800zM524 0h-88l-240 279v20l206 229h84l-216 -236zM220 -204c26 9.33301 44.166 18.6699 54.499 28.0029s15.5 20.666 15.5 33.999c0 9.33301 -3.83301 17.166 -11.5 23.499s-20.5 10.833 -38.5 13.5l18 44c32.667 -4 56.334 -13 71.001 -27
s22 -31 22 -51c0 -22.667 -8.83301 -42.834 -26.5 -60.501s-45.5 -31.5 -83.5 -41.5z" />
    <glyph glyph-name="kgreenlandic" unicode="&#x138;" horiz-adv-x="627" 
d="M96 528h75v-528h-75v528zM524 0h-88l-240 279v20l206 229h84l-216 -236z" />
    <glyph glyph-name="Lacute" unicode="&#x139;" horiz-adv-x="559" 
d="M525 60v-60h-410v680h78v-620h332zM247 887h78l-134 -147h-65z" />
    <glyph glyph-name="lacute" unicode="&#x13a;" horiz-adv-x="268" 
d="M96 800h75v-800h-75v800zM197 1032h80l-117 -212h-60z" />
    <glyph glyph-name="Lcommaaccent" unicode="&#x13b;" horiz-adv-x="559" 
d="M525 60v-60h-410v680h78v-620h332zM271 -204c26 9.33301 44.166 18.6699 54.499 28.0029s15.5 20.666 15.5 33.999c0 9.33301 -3.83301 17.166 -11.5 23.499s-20.5 10.833 -38.5 13.5l18 44c32.667 -4 56.334 -13 71.001 -27s22 -31 22 -51
c0 -22.667 -8.83301 -42.834 -26.5 -60.501s-45.5 -31.5 -83.5 -41.5z" />
    <glyph glyph-name="lcommaaccent" unicode="&#x13c;" horiz-adv-x="268" 
d="M96 800h75v-800h-75v800zM73 -204c26 9.33301 44.166 18.6699 54.499 28.0029s15.5 20.666 15.5 33.999c0 9.33301 -3.83301 17.166 -11.5 23.499s-20.5 10.833 -38.5 13.5l18 44c32.667 -4 56.334 -13 71.001 -27s22 -31 22 -51
c0 -22.667 -8.83301 -42.834 -26.5 -60.501s-45.5 -31.5 -83.5 -41.5z" />
    <glyph glyph-name="Lcaron" unicode="&#x13d;" horiz-adv-x="559" 
d="M525 60v-60h-410v680h78v-620h332zM250 486c40.667 28.667 61 70.332 61 124.999c0 21.333 -4.33301 44.333 -13 69h65c6.66699 -22 10 -44 10 -66c0 -35.333 -9 -67.666 -27 -96.999s-41.333 -51.333 -70 -66z" />
    <glyph glyph-name="lcaron" unicode="&#x13e;" horiz-adv-x="268" 
d="M96 800h75v-800h-75v800zM207 606c40.667 28.667 61 70.332 61 124.999c0 21.333 -4.33301 44.333 -13 69h65c6.66699 -22 10 -44 10 -66c0 -35.333 -9 -67.666 -27 -96.999s-41.333 -51.333 -70 -66z" />
    <glyph glyph-name="Ldot" unicode="&#x13f;" horiz-adv-x="559" 
d="M525 60v-60h-410v680h78v-620h332zM379.5 326.5c-10.333 10.333 -15.5 22.833 -15.5 37.5s5.16699 27.334 15.5 38.001s22.833 16 37.5 16s27.334 -5.33301 38.001 -16s16 -23.334 16 -38.001s-5.33301 -27.167 -16 -37.5s-23.334 -15.5 -38.001 -15.5
s-27.167 5.16699 -37.5 15.5z" />
    <glyph glyph-name="ldot" unicode="&#x140;" horiz-adv-x="268" 
d="M96 800h75v-800h-75v800zM229.5 226.5c-10.333 10.333 -15.5 22.833 -15.5 37.5s5.16699 27.334 15.5 38.001s22.833 16 37.5 16s27.334 -5.33301 38.001 -16s16 -23.334 16 -38.001s-5.33301 -27.167 -16 -37.5s-23.334 -15.5 -38.001 -15.5s-27.167 5.16699 -37.5 15.5
z" />
    <glyph glyph-name="Lslash" unicode="&#x141;" horiz-adv-x="559" 
d="M525 60v-60h-410v227l-77 -49l-31 48l108 69v385h78v-335l164 104l31 -48l-195 -124v-217h332z" />
    <glyph glyph-name="lslash" unicode="&#x142;" horiz-adv-x="268" 
d="M171 396v-396h-75v343l-80 -57l-32 45l112 80v389h75v-335l81 58l32 -46z" />
    <glyph glyph-name="Nacute" unicode="&#x143;" horiz-adv-x="766" 
d="M652 680v-680l-67 -1l-396 552l4 -240v-311h-78v680h66l396 -553l-3 272v281h78zM470 887h78l-134 -147h-65z" />
    <glyph glyph-name="nacute" unicode="&#x144;" horiz-adv-x="595" 
d="M472.5 503c21 -29.333 31.502 -71.668 31.502 -127.001v-376h-75v370c0 40.667 -6.83301 70.167 -20.5 88.5s-36.834 27.5 -69.501 27.5c-26 0 -52.333 -6.16699 -79 -18.5s-56.334 -31.166 -89.001 -56.499v-411h-75v528h59l11 -57c64.667 50.667 128 76 190 76
c56.667 0 95.5 -14.667 116.5 -44zM360.002 808.998h80l-117 -212h-60z" />
    <glyph glyph-name="Ncommaaccent" unicode="&#x145;" horiz-adv-x="766" 
d="M652 680v-680l-67 -1l-396 552l4 -240v-311h-78v680h66l396 -553l-3 272v281h78zM322 -204c26 9.33301 44.166 18.6699 54.499 28.0029s15.5 20.666 15.5 33.999c0 9.33301 -3.83301 17.166 -11.5 23.499s-20.5 10.833 -38.5 13.5l18 44c32.667 -4 56.334 -13 71.001 -27
s22 -31 22 -51c0 -22.667 -8.83301 -42.834 -26.5 -60.501s-45.5 -31.5 -83.5 -41.5z" />
    <glyph glyph-name="ncommaaccent" unicode="&#x146;" horiz-adv-x="595" 
d="M472.5 503c21 -29.333 31.502 -71.668 31.502 -127.001v-376h-75v370c0 40.667 -6.83301 70.167 -20.5 88.5s-36.834 27.5 -69.501 27.5c-26 0 -52.333 -6.16699 -79 -18.5s-56.334 -31.166 -89.001 -56.499v-411h-75v528h59l11 -57c64.667 50.667 128 76 190 76
c56.667 0 95.5 -14.667 116.5 -44zM237.002 -204.002c26 9.33301 44.166 18.6699 54.499 28.0029s15.5 20.666 15.5 33.999c0 9.33301 -3.83301 17.166 -11.5 23.499s-20.5 10.833 -38.5 13.5l18 44c32.667 -4 56.334 -13 71.001 -27s22 -31 22 -51
c0 -22.667 -8.83301 -42.834 -26.5 -60.501s-45.5 -31.5 -83.5 -41.5z" />
    <glyph glyph-name="Ncaron" unicode="&#x147;" horiz-adv-x="766" 
d="M652 680v-680l-67 -1l-396 552l4 -240v-311h-78v680h66l396 -553l-3 272v281h78zM545 887l-123 -147h-78l-123 147h69l93 -109l93 109h69z" />
    <glyph glyph-name="ncaron" unicode="&#x148;" horiz-adv-x="595" 
d="M472.5 503c21 -29.333 31.502 -71.668 31.502 -127.001v-376h-75v370c0 40.667 -6.83301 70.167 -20.5 88.5s-36.834 27.5 -69.501 27.5c-26 0 -52.333 -6.16699 -79 -18.5s-56.334 -31.166 -89.001 -56.499v-411h-75v528h59l11 -57c64.667 50.667 128 76 190 76
c56.667 0 95.5 -14.667 116.5 -44zM441.002 806.998l-106 -210h-73l-107 210h60l83 -154l84 154h59z" />
    <glyph glyph-name="Omacron" unicode="&#x14c;" horiz-adv-x="769" 
d="M205.5 31.5c-49 31.667 -86 74.335 -111 128.002s-37.5 113.167 -37.5 178.5s12.5 125 37.5 179s62 96.833 111 128.5s108.5 47.5 178.5 47.5c69.333 0 128.666 -15.833 177.999 -47.5s86.5 -74.334 111.5 -128.001s37.5 -112.834 37.5 -177.501
c0 -66 -12.5 -126 -37.5 -180s-62.167 -96.833 -111.5 -128.5s-108.666 -47.5 -177.999 -47.5c-70 0 -129.5 15.833 -178.5 47.5zM518.5 83.001c37.667 25.333 66.167 60.333 85.5 105s29 95 29 151s-9.66699 106.167 -29 150.5s-47.833 79.166 -85.5 104.499
s-82.5 38 -134.5 38s-96.833 -12.667 -134.5 -38s-66.167 -60.166 -85.5 -104.499s-29 -94.5 -29 -150.5s9.66699 -106.333 29 -151s47.833 -79.667 85.5 -105s82.5 -38 134.5 -38s96.833 12.667 134.5 38zM233 849.001h301v-56h-301v56z" />
    <glyph glyph-name="omacron" unicode="&#x14d;" horiz-adv-x="596" 
d="M160.5 19c-37.667 25.333 -65.834 59.499 -84.501 102.499s-28 90.167 -28 141.5c0 52.667 9.33301 100.5 28 143.5s46.834 77.167 84.501 102.5s83.5 38 137.5 38s99.667 -12.833 137 -38.5s65.333 -60 84 -103s28 -89.833 28 -140.5
c0 -51.333 -9.33301 -98.666 -28 -141.999s-46.667 -77.833 -84 -103.5s-83 -38.5 -137 -38.5s-99.833 12.667 -137.5 38zM425 101.999c30 40.667 45 94.667 45 162c0 66.667 -15 120.667 -45 162s-72.667 62 -128 62c-54.667 0 -97 -20.667 -127 -62s-45 -95.333 -45 -162
c0 -67.333 14.833 -121.333 44.5 -162s72.167 -61 127.5 -61s98 20.333 128 61zM147 788.999h301v-56h-301v56z" />
    <glyph glyph-name="Ohungarumlaut" unicode="&#x150;" horiz-adv-x="769" 
d="M205.5 31.5c-49 31.667 -86 74.335 -111 128.002s-37.5 113.167 -37.5 178.5s12.5 125 37.5 179s62 96.833 111 128.5s108.5 47.5 178.5 47.5c69.333 0 128.666 -15.833 177.999 -47.5s86.5 -74.334 111.5 -128.001s37.5 -112.834 37.5 -177.501
c0 -66 -12.5 -126 -37.5 -180s-62.167 -96.833 -111.5 -128.5s-108.666 -47.5 -177.999 -47.5c-70 0 -129.5 15.833 -178.5 47.5zM518.5 83.001c37.667 25.333 66.167 60.333 85.5 105s29 95 29 151s-9.66699 106.167 -29 150.5s-47.833 79.166 -85.5 104.499
s-82.5 38 -134.5 38s-96.833 -12.667 -134.5 -38s-66.167 -60.166 -85.5 -104.499s-29 -94.5 -29 -150.5s9.66699 -106.333 29 -151s47.833 -79.667 85.5 -105s82.5 -38 134.5 -38s96.833 12.667 134.5 38zM381 887.001h75l-135 -147h-61zM558 887.001h75l-135 -147h-61z
" />
    <glyph glyph-name="ohungarumlaut" unicode="&#x151;" horiz-adv-x="596" 
d="M160.5 19c-37.667 25.333 -65.834 59.499 -84.501 102.499s-28 90.167 -28 141.5c0 52.667 9.33301 100.5 28 143.5s46.834 77.167 84.501 102.5s83.5 38 137.5 38s99.667 -12.833 137 -38.5s65.333 -60 84 -103s28 -89.833 28 -140.5
c0 -51.333 -9.33301 -98.666 -28 -141.999s-46.667 -77.833 -84 -103.5s-83 -38.5 -137 -38.5s-99.833 12.667 -137.5 38zM425 101.999c30 40.667 45 94.667 45 162c0 66.667 -15 120.667 -45 162s-72.667 62 -128 62c-54.667 0 -97 -20.667 -127 -62s-45 -95.333 -45 -162
c0 -67.333 14.833 -121.333 44.5 -162s72.167 -61 127.5 -61s98 20.333 128 61zM286 806.999h75l-117 -210h-55zM446 806.999h75l-117 -210h-55z" />
    <glyph glyph-name="OE" unicode="&#x152;" horiz-adv-x="1004" 
d="M946 60v-59.999h-564c-69.333 0 -128.333 14.667 -177 44s-85.5 69.666 -110.5 120.999s-37.5 109.333 -37.5 174c0 66 12.333 124.833 37 176.5s61.5 92 110.5 121s108.167 43.5 177.5 43.5h544v-60h-312v-230h272v-60h-272v-270h332zM536 60.001v560h-154
c-78.667 0 -139.5 -25.167 -182.5 -75.5s-64.5 -118.5 -64.5 -204.5c0 -84.667 21.5 -152.5 64.5 -203.5s103.833 -76.5 182.5 -76.5h154z" />
    <glyph glyph-name="oe" unicode="&#x153;" horiz-adv-x="968" 
d="M917 81c-56 -66.667 -122.001 -99.999 -198.001 -99.999c-49.333 0 -91.666 10.667 -126.999 32s-63.333 50.666 -84 87.999c-20.667 -37.333 -48.667 -66.666 -84 -87.999s-77.333 -32 -126 -32c-54 0 -99.833 12.667 -137.5 38s-65.834 59.5 -84.501 102.5
s-28 90.167 -28 141.5c0 52.667 9.33301 100.5 28 143.5s46.834 77.167 84.501 102.5s83.5 38 137.5 38c49.333 0 91.5 -10.667 126.5 -32s62.833 -50.666 83.5 -87.999c20 37.333 47.833 66.666 83.5 87.999s78.167 32 127.5 32c36.667 0 70 -7.5 100 -22.5
s53.667 -37 71 -66s26 -63.167 26 -102.5c0 -16.667 -2 -35 -6 -55h-362c-1.33301 -16 -2 -28 -2 -36c0 -67.333 15 -121.5 45 -162.5s73 -61.5 129 -61.5c34 0 64.167 7.66699 90.5 23s51.5 36.666 75.5 63.999zM615.499 454.501
c-27 -23.667 -46.168 -55.833 -57.501 -96.5h283v7c0 40 -12.167 70.833 -36.5 92.5s-53.166 32.5 -86.499 32.5c-41.333 0 -75.5 -11.833 -102.5 -35.5zM424.998 102.002c30 40.667 45 94.667 45 162c0 66.667 -15 120.667 -45 162s-72.667 62 -128 62
c-54.667 0 -97 -20.667 -127 -62s-45 -95.333 -45 -162c0 -67.333 14.833 -121.333 44.5 -162s72.167 -61 127.5 -61s98 20.333 128 61z" />
    <glyph glyph-name="Racute" unicode="&#x154;" horiz-adv-x="671" 
d="M320 308h-127v-308h-78v680h221c74 0 130.667 -16.667 170 -50s59 -78 59 -134c0 -48.667 -13.833 -88.5 -41.5 -119.5s-68.167 -50.833 -121.5 -59.5l227 -317h-90zM193 368l143 0.000976562c100.667 0 151 42 151 126c0 39.333 -13 70.166 -39 92.499
s-63.333 33.5 -112 33.5h-143v-252zM394 887.001h78l-134 -147h-65z" />
    <glyph glyph-name="racute" unicode="&#x155;" horiz-adv-x="390" 
d="M359 477c-31.333 0 -61.667 -6 -91 -18s-61.666 -34.333 -96.999 -67v-392h-75v528h59l14 -72c32.667 33.333 64.167 56.833 94.5 70.5s62.166 20.5 95.499 20.5v-70zM281.999 809h80l-117 -212h-60z" />
    <glyph glyph-name="Rcommaaccent" unicode="&#x156;" horiz-adv-x="671" 
d="M320 308h-127v-308h-78v680h221c74 0 130.667 -16.667 170 -50s59 -78 59 -134c0 -48.667 -13.833 -88.5 -41.5 -119.5s-68.167 -50.833 -121.5 -59.5l227 -317h-90zM193 368l143 0.000976562c100.667 0 151 42 151 126c0 39.333 -13 70.166 -39 92.499
s-63.333 33.5 -112 33.5h-143v-252zM276 -203.999c26 9.33301 44.166 18.6699 54.499 28.0029s15.5 20.666 15.5 33.999c0 9.33301 -3.83301 17.166 -11.5 23.499s-20.5 10.833 -38.5 13.5l18 44c32.667 -4 56.334 -13 71.001 -27s22 -31 22 -51
c0 -22.667 -8.83301 -42.834 -26.5 -60.501s-45.5 -31.5 -83.5 -41.5z" />
    <glyph glyph-name="rcommaaccent" unicode="&#x157;" horiz-adv-x="390" 
d="M359 477c-31.333 0 -61.667 -6 -91 -18s-61.666 -34.333 -96.999 -67v-392h-75v528h59l14 -72c32.667 33.333 64.167 56.833 94.5 70.5s62.166 20.5 95.499 20.5v-70zM69.999 -204c26 9.33301 44.166 18.6699 54.499 28.0029s15.5 20.666 15.5 33.999
c0 9.33301 -3.83301 17.166 -11.5 23.499s-20.5 10.833 -38.5 13.5l18 44c32.667 -4 56.334 -13 71.001 -27s22 -31 22 -51c0 -22.667 -8.83301 -42.834 -26.5 -60.501s-45.5 -31.5 -83.5 -41.5z" />
    <glyph glyph-name="Rcaron" unicode="&#x158;" horiz-adv-x="671" 
d="M320 308h-127v-308h-78v680h221c74 0 130.667 -16.667 170 -50s59 -78 59 -134c0 -48.667 -13.833 -88.5 -41.5 -119.5s-68.167 -50.833 -121.5 -59.5l227 -317h-90zM193 368l143 0.000976562c100.667 0 151 42 151 126c0 39.333 -13 70.166 -39 92.499
s-63.333 33.5 -112 33.5h-143v-252zM469 887.001l-123 -147h-78l-123 147h69l93 -109l93 109h69z" />
    <glyph glyph-name="rcaron" unicode="&#x159;" horiz-adv-x="390" 
d="M359 477c-31.333 0 -61.667 -6 -91 -18s-61.666 -34.333 -96.999 -67v-392h-75v528h59l14 -72c32.667 33.333 64.167 56.833 94.5 70.5s62.166 20.5 95.499 20.5v-70zM362.999 807l-106 -210h-73l-107 210h60l83 -154l84 154h59z" />
    <glyph glyph-name="Sacute" unicode="&#x15a;" horiz-adv-x="587" 
d="M158 0.5c-36 11 -69.9971 27.833 -101.997 50.5l32 58c52.667 -42.667 120 -64 202 -64c47.333 0 86.333 11.833 117 35.5s46 56.167 46 97.5c0 24.667 -7.33301 45.334 -22 62.001s-32.834 30 -54.501 40s-51.167 21.667 -88.5 35c-44 15.333 -79.667 29.833 -107 43.5
s-50.5 32.667 -69.5 57s-28.5 55.5 -28.5 93.5c0 59.333 20.5 104.833 61.5 136.5s93.5 47.5 157.5 47.5c42 0 80 -5.5 114 -16.5s66 -27.5 96 -49.5l-31 -57c-52.667 41.333 -112 62 -178 62c-41.333 0 -75.5 -10.167 -102.5 -30.5s-40.5 -50.166 -40.5 -89.499
c0 -24 7.16699 -44.167 21.5 -60.5s32.166 -29.5 53.499 -39.5s50.666 -21.667 87.999 -35c44.667 -16 80.667 -30.833 108 -44.5s50.666 -32.834 69.999 -57.501s29 -56.334 29 -95.001c0 -39.333 -10.167 -73.833 -30.5 -103.5s-48.666 -52.5 -84.999 -68.5
s-77.833 -24 -124.5 -24c-52 0 -96 5.5 -132 16.5zM383.003 887h78l-134 -147h-65z" />
    <glyph glyph-name="sacute" unicode="&#x15b;" horiz-adv-x="478" 
d="M130 -6c-29.333 8.66699 -56.667 22.001 -82 40.001l26 56c41.333 -32.667 95 -49 161 -49c36 0 65.167 8.66699 87.5 26s33.5 41.666 33.5 72.999c0 18 -5.5 33 -16.5 45s-24.5 22 -40.5 30s-38.333 17.333 -67 28c-34.667 12.667 -62.834 24.5 -84.501 35.5
s-40.167 26.333 -55.5 46s-23 44.834 -23 75.501c0 47.333 16.5 83.666 49.5 108.999s75.5 38 127.5 38c64 0 120 -17.333 168 -52l-25 -55c-42.667 32 -90 48 -142 48c-31.333 0 -56.666 -7 -75.999 -21s-29 -35 -29 -63c0 -18 5.5 -33.167 16.5 -45.5
s24.5 -22.333 40.5 -30s38.333 -16.5 67 -26.5c36 -13.333 64.5 -25.5 85.5 -36.5s39.167 -26.5 54.5 -46.5s23 -45.667 23 -77c0 -49.333 -17.833 -88.5 -53.5 -117.5s-82.5 -43.5 -140.5 -43.5c-40.667 0 -75.667 4.33301 -105 13zM302.999 809.001h80l-117 -212h-60z" />
    <glyph glyph-name="Scedilla" unicode="&#x15e;" horiz-adv-x="587" 
d="M473.5 46c-37.667 -34.667 -87.1631 -54.666 -148.496 -59.999l-29 -56c6.66699 2 14 3 22 3c20.667 0 37.834 -5.66699 51.501 -17s20.5 -26 20.5 -44c0 -50 -42 -86.667 -126 -110l-21 37c33.333 12 56 23.167 68 33.5s18 21.5 18 33.5c0 16.667 -10 25 -30 25
c-10.667 0 -23.334 -3.33301 -38.001 -10l-31 30l40 73c-46 1.33301 -85.667 7.5 -119 18.5s-65 27.167 -95 48.5l32 58c52.667 -42.667 120 -64 202 -64c47.333 0 86.333 11.833 117 35.5s46 56.167 46 97.5c0 24.667 -7.33301 45.334 -22 62.001s-32.834 30 -54.501 40
s-51.167 21.667 -88.5 35c-44 15.333 -79.667 29.833 -107 43.5s-50.5 32.667 -69.5 57s-28.5 55.5 -28.5 93.5c0 59.333 20.5 104.833 61.5 136.5s93.5 47.5 157.5 47.5c42 0 80 -5.5 114 -16.5s66 -27.5 96 -49.5l-31 -57c-52.667 41.333 -112 62 -178 62
c-41.333 0 -75.5 -10.167 -102.5 -30.5s-40.5 -50.166 -40.5 -89.499c0 -24 7.16699 -44.167 21.5 -60.5s32.166 -29.5 53.499 -39.5s50.666 -21.667 87.999 -35c44.667 -16 80.667 -30.833 108 -44.5s50.666 -32.834 69.999 -57.501s29 -56.334 29 -95.001
c0 -54.667 -18.833 -99.334 -56.5 -134.001z" />
    <glyph glyph-name="scedilla" unicode="&#x15f;" horiz-adv-x="478" 
d="M381.5 30c-31.667 -28.667 -73.5 -44.665 -125.5 -47.998l-27 -52c7.33301 2 14.666 3 21.999 3c20.667 0 37.834 -5.66699 51.501 -17s20.5 -26 20.5 -44c0 -50 -42 -86.667 -126 -110l-21 37c33.333 12 56 23.167 68 33.5s18 21.5 18 33.5c0 16.667 -10 25 -30 25
c-10.667 0 -23.334 -3.33301 -38.001 -10l-31 30l38 71c-32 2.66699 -60.167 8.16699 -84.5 16.5s-47.166 20.166 -68.499 35.499l26 56c41.333 -32.667 95 -49 161 -49c36 0 65.167 8.66699 87.5 26s33.5 41.666 33.5 72.999c0 18 -5.5 33 -16.5 45s-24.5 22 -40.5 30
s-38.333 17.333 -67 28c-34.667 12.667 -62.834 24.5 -84.501 35.5s-40.167 26.333 -55.5 46s-23 44.834 -23 75.501c0 47.333 16.5 83.666 49.5 108.999s75.5 38 127.5 38c64 0 120 -17.333 168 -52l-25 -55c-42.667 32 -90 48 -142 48c-31.333 0 -56.666 -7 -75.999 -21
s-29 -35 -29 -63c0 -18 5.5 -33.167 16.5 -45.5s24.5 -22.333 40.5 -30s38.333 -16.5 67 -26.5c36 -13.333 64.5 -25.5 85.5 -36.5s39.167 -26.5 54.5 -46.5s23 -45.667 23 -77c0 -46 -15.833 -83.333 -47.5 -112z" />
    <glyph glyph-name="Scaron" unicode="&#x160;" horiz-adv-x="587" 
d="M158 0.5c-36 11 -69.9971 27.833 -101.997 50.5l32 58c52.667 -42.667 120 -64 202 -64c47.333 0 86.333 11.833 117 35.5s46 56.167 46 97.5c0 24.667 -7.33301 45.334 -22 62.001s-32.834 30 -54.501 40s-51.167 21.667 -88.5 35c-44 15.333 -79.667 29.833 -107 43.5
s-50.5 32.667 -69.5 57s-28.5 55.5 -28.5 93.5c0 59.333 20.5 104.833 61.5 136.5s93.5 47.5 157.5 47.5c42 0 80 -5.5 114 -16.5s66 -27.5 96 -49.5l-31 -57c-52.667 41.333 -112 62 -178 62c-41.333 0 -75.5 -10.167 -102.5 -30.5s-40.5 -50.166 -40.5 -89.499
c0 -24 7.16699 -44.167 21.5 -60.5s32.166 -29.5 53.499 -39.5s50.666 -21.667 87.999 -35c44.667 -16 80.667 -30.833 108 -44.5s50.666 -32.834 69.999 -57.501s29 -56.334 29 -95.001c0 -39.333 -10.167 -73.833 -30.5 -103.5s-48.666 -52.5 -84.999 -68.5
s-77.833 -24 -124.5 -24c-52 0 -96 5.5 -132 16.5zM458.003 887l-123 -147h-78l-123 147h69l93 -109l93 109h69z" />
    <glyph glyph-name="scaron" unicode="&#x161;" horiz-adv-x="478" 
d="M130 -6c-29.333 8.66699 -56.667 22.001 -82 40.001l26 56c41.333 -32.667 95 -49 161 -49c36 0 65.167 8.66699 87.5 26s33.5 41.666 33.5 72.999c0 18 -5.5 33 -16.5 45s-24.5 22 -40.5 30s-38.333 17.333 -67 28c-34.667 12.667 -62.834 24.5 -84.501 35.5
s-40.167 26.333 -55.5 46s-23 44.834 -23 75.501c0 47.333 16.5 83.666 49.5 108.999s75.5 38 127.5 38c64 0 120 -17.333 168 -52l-25 -55c-42.667 32 -90 48 -142 48c-31.333 0 -56.666 -7 -75.999 -21s-29 -35 -29 -63c0 -18 5.5 -33.167 16.5 -45.5
s24.5 -22.333 40.5 -30s38.333 -16.5 67 -26.5c36 -13.333 64.5 -25.5 85.5 -36.5s39.167 -26.5 54.5 -46.5s23 -45.667 23 -77c0 -49.333 -17.833 -88.5 -53.5 -117.5s-82.5 -43.5 -140.5 -43.5c-40.667 0 -75.667 4.33301 -105 13zM383.999 807.001l-106 -210h-73
l-107 210h60l83 -154l84 154h59z" />
    <glyph glyph-name="Tcaron" unicode="&#x164;" horiz-adv-x="623" 
d="M586 620h-235v-620h-78v620h-237v60h550v-60zM473 887l-123 -147h-78l-123 147h69l93 -109l93 109h69z" />
    <glyph glyph-name="tcaron" unicode="&#x165;" horiz-adv-x="418" 
d="M382 17c-34.667 -20.667 -69.668 -31 -105.001 -31c-54.667 0 -95.167 15.5 -121.5 46.5s-39.5 75.5 -39.5 133.5v305h-85v32l91 23l23 125h46v-123h160v-57h-160v-296c0 -44.667 7.16699 -77.167 21.5 -97.5s37.833 -30.5 70.5 -30.5c15.333 0 28.833 2 40.5 6
s26.834 10.333 45.501 19zM224.999 623c40.667 28.667 61 70.332 61 124.999c0 21.333 -4.33301 44.333 -13 69h65c6.66699 -22 10 -44 10 -66c0 -35.333 -9 -67.666 -27 -96.999s-41.333 -51.333 -70 -66z" />
    <glyph glyph-name="Umacron" unicode="&#x16a;" horiz-adv-x="746" 
d="M226.5 18c-40.333 22.667 -70.6689 53.999 -91.002 93.999s-30.5 86.333 -30.5 139v429h78v-428c0 -65.333 16.5 -116.166 49.5 -152.499s80.167 -54.5 141.5 -54.5c60.667 0 107.5 18.167 140.5 54.5s49.5 87.166 49.5 152.499v428h78v-427
c0 -53.333 -10.167 -100.166 -30.5 -140.499s-50.666 -71.833 -90.999 -94.5s-89.166 -34 -146.499 -34c-58 0 -107.167 11.333 -147.5 34zM222.997 848.999h301v-56h-301v56z" />
    <glyph glyph-name="umacron" unicode="&#x16b;" horiz-adv-x="595" 
d="M498 528l-0.000976562 -528h-59l-11 58c-64.667 -51.333 -127.667 -77 -189 -77c-56.667 0 -95.5 14.667 -116.5 44s-31.5 72 -31.5 128v375h75v-370c0 -40.667 6.83301 -70 20.5 -88s36.834 -27 69.501 -27c26 0 52.5 6 79.5 18s56.167 30.667 87.5 56v411h75z
M145.999 789h301v-56h-301v56z" />
    <glyph glyph-name="Uring" unicode="&#x16e;" horiz-adv-x="746" 
d="M226.5 18c-40.333 22.667 -70.6689 53.999 -91.002 93.999s-30.5 86.333 -30.5 139v429h78v-428c0 -65.333 16.5 -116.166 49.5 -152.499s80.167 -54.5 141.5 -54.5c60.667 0 107.5 18.167 140.5 54.5s49.5 87.166 49.5 152.499v428h78v-427
c0 -53.333 -10.167 -100.166 -30.5 -140.499s-50.666 -71.833 -90.999 -94.5s-89.166 -34 -146.499 -34c-58 0 -107.167 11.333 -147.5 34zM302.497 761.999c-17 16 -25.5 35.333 -25.5 58s8.5 42.167 25.5 58.5s40.833 24.5 71.5 24.5s54.5 -8.16699 71.5 -24.5
s25.5 -35.833 25.5 -58.5s-8.5 -42 -25.5 -58s-40.833 -24 -71.5 -24s-54.5 8 -71.5 24zM406.997 791.999c8 7.33301 12 16.666 12 27.999c0 12 -4 21.667 -12 29s-19 11 -33 11c-13.333 0 -24 -3.66699 -32 -11s-12 -17 -12 -29c0 -11.333 4 -20.666 12 -27.999
s18.667 -11 32 -11c14 0 25 3.66699 33 11z" />
    <glyph glyph-name="uring" unicode="&#x16f;" horiz-adv-x="595" 
d="M498 528l-0.000976562 -528h-59l-11 58c-64.667 -51.333 -127.667 -77 -189 -77c-56.667 0 -95.5 14.667 -116.5 44s-31.5 72 -31.5 128v375h75v-370c0 -40.667 6.83301 -70 20.5 -88s36.834 -27 69.501 -27c26 0 52.5 6 79.5 18s56.167 30.667 87.5 56v411h75z
M213.999 629c-20 21.333 -30 46.666 -30 75.999c0 28.667 10 53.667 30 75s47.667 32 83 32s63.166 -10.5 83.499 -31.5s30.5 -46.167 30.5 -75.5s-10.167 -54.666 -30.5 -75.999s-48.166 -32 -83.499 -32s-63 10.667 -83 32zM341.999 657c11.333 12.667 17 28.667 17 48
s-5.5 35.166 -16.5 47.499s-26.167 18.5 -45.5 18.5s-34.5 -6.16699 -45.5 -18.5s-16.5 -28.166 -16.5 -47.499s5.66699 -35.333 17 -48s26.333 -19 45 -19s33.667 6.33301 45 19z" />
    <glyph glyph-name="Uhungarumlaut" unicode="&#x170;" horiz-adv-x="746" 
d="M226.5 18c-40.333 22.667 -70.6689 53.999 -91.002 93.999s-30.5 86.333 -30.5 139v429h78v-428c0 -65.333 16.5 -116.166 49.5 -152.499s80.167 -54.5 141.5 -54.5c60.667 0 107.5 18.167 140.5 54.5s49.5 87.166 49.5 152.499v428h78v-427
c0 -53.333 -10.167 -100.166 -30.5 -140.499s-50.666 -71.833 -90.999 -94.5s-89.166 -34 -146.499 -34c-58 0 -107.167 11.333 -147.5 34zM369.997 886.999h75l-135 -147h-61zM546.997 886.999h75l-135 -147h-61z" />
    <glyph glyph-name="uhungarumlaut" unicode="&#x171;" horiz-adv-x="595" 
d="M498 528l-0.000976562 -528h-59l-11 58c-64.667 -51.333 -127.667 -77 -189 -77c-56.667 0 -95.5 14.667 -116.5 44s-31.5 72 -31.5 128v375h75v-370c0 -40.667 6.83301 -70 20.5 -88s36.834 -27 69.501 -27c26 0 52.5 6 79.5 18s56.167 30.667 87.5 56v411h75z
M284.999 807h75l-117 -210h-55zM444.999 807h75l-117 -210h-55z" />
    <glyph glyph-name="Uogonek" unicode="&#x172;" horiz-adv-x="746" 
d="M642 680l-0.000976562 -427.003c0 -59.333 -12.667 -110.666 -38 -153.999s-62.333 -74.666 -111 -93.999c-34 -28.667 -59 -54.667 -75 -78s-24 -45.666 -24 -66.999c0 -15.333 4 -26.833 12 -34.5s19.333 -11.5 34 -11.5c21.333 0 42.333 10.333 63 31l29 -38
c-11.333 -14.667 -26 -26.667 -44 -36s-37 -14 -57 -14c-30.667 0 -55 8.33301 -73 25s-27 39.667 -27 69c0 44 23.333 88.667 70 134c-6 -0.666992 -15 -1 -27 -1c-58 0 -107.167 11.333 -147.5 34s-70.666 54 -90.999 94s-30.5 86.333 -30.5 139v429h78v-428
c0 -65.333 16.5 -116.166 49.5 -152.499s80.167 -54.5 141.5 -54.5c60.667 0 107.5 18.167 140.5 54.5s49.5 87.166 49.5 152.499v428h78z" />
    <glyph glyph-name="uogonek" unicode="&#x173;" horiz-adv-x="595" 
d="M534 -193c-11.333 -14.667 -26.001 -26.6689 -44.001 -36.002s-37 -14 -57 -14c-30.667 0 -55 8.33301 -73 25s-27 39.667 -27 69c0 54.667 34.333 109 103 163l-8 44c-64.667 -51.333 -127.667 -77 -189 -77c-56.667 0 -95.5 14.667 -116.5 44s-31.5 72 -31.5 128v375
h75v-370c0 -40.667 6.83301 -70 20.5 -88s36.834 -27 69.501 -27c26 0 52.5 6 79.5 18s56.167 30.667 87.5 56v411h75v-513h9l-9 -8v-7h-9c-32 -27.333 -55.5 -52.166 -70.5 -74.499s-22.5 -44.166 -22.5 -65.499c0 -15.333 4 -26.833 12 -34.5s19.333 -11.5 34 -11.5
c21.333 0 42.333 10.333 63 31z" />
    <glyph glyph-name="Ydieresis" unicode="&#x178;" horiz-adv-x="639" 
d="M359 278v-278h-78v275l-251 405h87l203 -340l205 340h85zM190 786.5c-9.33301 9 -14 19.833 -14 32.5s4.66699 23.667 14 33s20.333 14 33 14c13.333 0 24.5 -4.5 33.5 -13.5s13.5 -20.167 13.5 -33.5c0 -12.667 -4.66699 -23.5 -14 -32.5s-20.333 -13.5 -33 -13.5
s-23.667 4.5 -33 13.5zM384 786.5c-9.33301 9 -14 19.833 -14 32.5s4.66699 23.667 14 33s20.333 14 33 14c13.333 0 24.5 -4.5 33.5 -13.5s13.5 -20.167 13.5 -33.5c0 -12.667 -4.66699 -23.5 -14 -32.5s-20.333 -13.5 -33 -13.5s-23.667 4.5 -33 13.5z" />
    <glyph glyph-name="Zacute" unicode="&#x179;" horiz-adv-x="660" 
d="M605 60v-60h-530v43l425 577h-412v60h503v-51l-419 -569h433zM427 887h78l-134 -147h-65z" />
    <glyph glyph-name="zacute" unicode="&#x17a;" horiz-adv-x="501" 
d="M455 58v-58h-409v39l311 432h-300v57h388v-43l-307 -427h317zM313 809h80l-117 -212h-60z" />
    <glyph glyph-name="Zdotaccent" unicode="&#x17b;" horiz-adv-x="660" 
d="M605 60v-60h-530v43l425 577h-412v60h503v-51l-419 -569h433zM307 786c-9.33301 9.33301 -14 19.998 -14 31.998c0 12.667 4.66699 23.834 14 33.501s20.333 14.5 33 14.5s23.667 -4.66699 33 -14s14 -20.666 14 -33.999c0 -12 -4.66699 -22.667 -14 -32
s-20.333 -14 -33 -14s-23.667 4.66699 -33 14z" />
    <glyph glyph-name="zdotaccent" unicode="&#x17c;" horiz-adv-x="501" 
d="M455 58v-58h-409v39l311 432h-300v57h388v-43l-307 -427h317zM217.5 722c-9.66699 9.33301 -14.498 20.333 -14.498 33c0 13.333 4.66699 24.833 14 34.5s20.666 14.5 33.999 14.5s24.833 -4.83301 34.5 -14.5s14.5 -21.167 14.5 -34.5
c0 -12.667 -4.83301 -23.667 -14.5 -33s-21.167 -14 -34.5 -14c-12.667 0 -23.834 4.66699 -33.501 14z" />
    <glyph glyph-name="Zcaron" unicode="&#x17d;" horiz-adv-x="660" 
d="M605 60v-60h-530v43l425 577h-412v60h503v-51l-419 -569h433zM502 887l-123 -147h-78l-123 147h69l93 -109l93 109h69z" />
    <glyph glyph-name="zcaron" unicode="&#x17e;" horiz-adv-x="501" 
d="M455 58v-58h-409v39l311 432h-300v57h388v-43l-307 -427h317zM394 807l-106 -210h-73l-107 210h60l83 -154l84 154h59z" />
    <glyph glyph-name="florin" unicode="&#x192;" horiz-adv-x="529" 
d="M457 373h-175.999l-44 -546h-74l44 546h-101v59h105l4 44c6 76.667 23.333 133.5 52 170.5s72.334 55.5 131.001 55.5c20.667 0 40 -3 58 -9l-16 -57c-13.333 3.33301 -26.333 5 -39 5c-38.667 0 -65.834 -12.833 -81.501 -38.5s-25.834 -68.5 -30.501 -128.5l-3 -42h171
v-59z" />
    <glyph glyph-name="Scommaaccent" unicode="&#x218;" horiz-adv-x="587" 
d="M158 0.5c-36 11 -69.9971 27.833 -101.997 50.5l32 58c52.667 -42.667 120 -64 202 -64c47.333 0 86.333 11.833 117 35.5s46 56.167 46 97.5c0 24.667 -7.33301 45.334 -22 62.001s-32.834 30 -54.501 40s-51.167 21.667 -88.5 35c-44 15.333 -79.667 29.833 -107 43.5
s-50.5 32.667 -69.5 57s-28.5 55.5 -28.5 93.5c0 59.333 20.5 104.833 61.5 136.5s93.5 47.5 157.5 47.5c42 0 80 -5.5 114 -16.5s66 -27.5 96 -49.5l-31 -57c-52.667 41.333 -112 62 -178 62c-41.333 0 -75.5 -10.167 -102.5 -30.5s-40.5 -50.166 -40.5 -89.499
c0 -24 7.16699 -44.167 21.5 -60.5s32.166 -29.5 53.499 -39.5s50.666 -21.667 87.999 -35c44.667 -16 80.667 -30.833 108 -44.5s50.666 -32.834 69.999 -57.501s29 -56.334 29 -95.001c0 -39.333 -10.167 -73.833 -30.5 -103.5s-48.666 -52.5 -84.999 -68.5
s-77.833 -24 -124.5 -24c-52 0 -96 5.5 -132 16.5zM243.003 -204c26 9.33301 44.166 18.6699 54.499 28.0029s15.5 20.666 15.5 33.999c0 9.33301 -3.83301 17.166 -11.5 23.499s-20.5 10.833 -38.5 13.5l18 44c32.667 -4 56.334 -13 71.001 -27s22 -31 22 -51
c0 -22.667 -8.83301 -42.834 -26.5 -60.501s-45.5 -31.5 -83.5 -41.5z" />
    <glyph glyph-name="scommaaccent" unicode="&#x219;" horiz-adv-x="478" 
d="M130 -6c-29.333 8.66699 -56.667 22.001 -82 40.001l26 56c41.333 -32.667 95 -49 161 -49c36 0 65.167 8.66699 87.5 26s33.5 41.666 33.5 72.999c0 18 -5.5 33 -16.5 45s-24.5 22 -40.5 30s-38.333 17.333 -67 28c-34.667 12.667 -62.834 24.5 -84.501 35.5
s-40.167 26.333 -55.5 46s-23 44.834 -23 75.501c0 47.333 16.5 83.666 49.5 108.999s75.5 38 127.5 38c64 0 120 -17.333 168 -52l-25 -55c-42.667 32 -90 48 -142 48c-31.333 0 -56.666 -7 -75.999 -21s-29 -35 -29 -63c0 -18 5.5 -33.167 16.5 -45.5
s24.5 -22.333 40.5 -30s38.333 -16.5 67 -26.5c36 -13.333 64.5 -25.5 85.5 -36.5s39.167 -26.5 54.5 -46.5s23 -45.667 23 -77c0 -49.333 -17.833 -88.5 -53.5 -117.5s-82.5 -43.5 -140.5 -43.5c-40.667 0 -75.667 4.33301 -105 13zM175.999 -203.999
c26 9.33301 44.166 18.6699 54.499 28.0029s15.5 20.666 15.5 33.999c0 9.33301 -3.83301 17.166 -11.5 23.499s-20.5 10.833 -38.5 13.5l18 44c32.667 -4 56.334 -13 71.001 -27s22 -31 22 -51c0 -22.667 -8.83301 -42.834 -26.5 -60.501s-45.5 -31.5 -83.5 -41.5z" />
    <glyph glyph-name="uni021A" unicode="&#x21a;" horiz-adv-x="623" 
d="M586 620h-235v-620h-78v620h-237v60h550v-60zM250 -204c26 9.33301 44.166 18.6699 54.499 28.0029s15.5 20.666 15.5 33.999c0 9.33301 -3.83301 17.166 -11.5 23.499s-20.5 10.833 -38.5 13.5l18 44c32.667 -4 56.334 -13 71.001 -27s22 -31 22 -51
c0 -22.667 -8.83301 -42.834 -26.5 -60.501s-45.5 -31.5 -83.5 -41.5z" />
    <glyph glyph-name="uni021B" unicode="&#x21b;" horiz-adv-x="418" 
d="M382 17c-34.667 -20.667 -69.668 -31 -105.001 -31c-54.667 0 -95.167 15.5 -121.5 46.5s-39.5 75.5 -39.5 133.5v305h-85v32l91 23l23 125h46v-123h160v-57h-160v-296c0 -44.667 7.16699 -77.167 21.5 -97.5s37.833 -30.5 70.5 -30.5c15.333 0 28.833 2 40.5 6
s26.834 10.333 45.501 19zM195.999 -204c26 9.33301 44.166 18.6699 54.499 28.0029s15.5 20.666 15.5 33.999c0 9.33301 -3.83301 17.166 -11.5 23.499s-20.5 10.833 -38.5 13.5l18 44c32.667 -4 56.334 -13 71.001 -27s22 -31 22 -51
c0 -22.667 -8.83301 -42.834 -26.5 -60.501s-45.5 -31.5 -83.5 -41.5z" />
    <glyph glyph-name="uni0237" unicode="&#x237;" horiz-adv-x="268" 
d="M-65 -236l11 58.001c14.667 -3.33301 28.667 -5 42 -5c38.667 0 66.5 13 83.5 39s25.5 66.333 25.5 121v551h75v-553c0 -70.667 -14.667 -124.834 -44 -162.501s-74 -56.5 -134 -56.5c-18 0 -37.667 2.66699 -59 8z" />
    <glyph glyph-name="circumflex" unicode="&#x2c6;" horiz-adv-x="500" 
d="M334 590l-84 154l-83 -154h-60l107 210h73l106 -210h-59z" />
    <glyph glyph-name="caron" unicode="&#x2c7;" horiz-adv-x="500" 
d="M393 800l-106 -210h-73l-107 210h60l83 -154l84 154h59z" />
    <glyph glyph-name="breve" unicode="&#x2d8;" horiz-adv-x="500" 
d="M148 656.5c-24.667 29 -37.667 69.5 -39 121.5l51 2c2 -39.333 10.833 -68.833 26.5 -88.5s36.834 -29.5 63.501 -29.5c26 0 46.833 9.83301 62.5 29.5s24.5 49.167 26.5 88.5l51 -2c-0.666992 -52 -13.334 -92.5 -38.001 -121.5s-58.667 -43.5 -102 -43.5
s-77.333 14.5 -102 43.5z" />
    <glyph glyph-name="dotaccent" unicode="&#x2d9;" horiz-adv-x="500" 
d="M216.5 722c-9.66699 9.33301 -14.498 20.333 -14.498 33c0 13.333 4.66699 24.833 14 34.5s20.666 14.5 33.999 14.5s24.833 -4.83301 34.5 -14.5s14.5 -21.167 14.5 -34.5c0 -12.667 -4.83301 -23.667 -14.5 -33s-21.167 -14 -34.5 -14
c-12.667 0 -23.834 4.66699 -33.501 14z" />
    <glyph glyph-name="ring" unicode="&#x2da;" horiz-adv-x="500" 
d="M167 625c-20 21.333 -30 46.666 -30 75.999c0 28.667 10 53.667 30 75s47.667 32 83 32s63.166 -10.5 83.499 -31.5s30.5 -46.167 30.5 -75.5s-10.167 -54.666 -30.5 -75.999s-48.166 -32 -83.499 -32s-63 10.667 -83 32zM295 653c11.333 12.667 17 28.667 17 48
s-5.5 35.166 -16.5 47.499s-26.167 18.5 -45.5 18.5s-34.5 -6.16699 -45.5 -18.5s-16.5 -28.166 -16.5 -47.499s5.66699 -35.333 17 -48s26.333 -19 45 -19s33.667 6.33301 45 19z" />
    <glyph glyph-name="ogonek" unicode="&#x2db;" horiz-adv-x="500" 
d="M181 -218c-18 16.667 -27 39.668 -27 69.001c0 27.333 9 55 27 83s44 55 78 81h69c-38 -31.333 -66 -59.333 -84 -84s-27 -48.334 -27 -71.001c0 -15.333 4 -26.833 12 -34.5s19.333 -11.5 34 -11.5c21.333 0 42.333 10.333 63 31l29 -38
c-11.333 -14.667 -26 -26.667 -44 -36s-37 -14 -57 -14c-30.667 0 -55 8.33301 -73 25z" />
    <glyph glyph-name="tilde" unicode="&#x2dc;" horiz-adv-x="500" 
d="M87 633c3.33301 43.333 13.332 76.833 29.999 100.5s38.667 35.5 66 35.5c16.667 0 30.5 -3.83301 41.5 -11.5s23.5 -19.5 37.5 -35.5c10 -12 18.833 -21 26.5 -27s16.5 -9 26.5 -9c14 0 24.667 6.5 32 19.5s13 34.833 17 65.5l49 -4
c-3.33301 -42.667 -13.333 -76 -30 -100s-38.667 -36 -66 -36c-18 0 -32.833 4.16699 -44.5 12.5s-24.5 20.5 -38.5 36.5c-9.33301 11.333 -17.666 19.833 -24.999 25.5s-15.333 8.5 -24 8.5c-14 0 -24.667 -6.33301 -32 -19s-13 -34.667 -17 -66z" />
    <glyph glyph-name="hungarumlaut" unicode="&#x2dd;" horiz-adv-x="500" 
d="M184 800h75l-117 -210h-55zM344 800h75l-117 -210h-55z" />
    <glyph glyph-name="uni0326" unicode="&#x326;" horiz-adv-x="501" 
d="M-317 -204c26 9.33301 44.166 18.6699 54.499 28.0029s15.5 20.666 15.5 33.999c0 9.33301 -3.83301 17.166 -11.5 23.499s-20.5 10.833 -38.5 13.5l18 44c32.667 -4 56.334 -13 71.001 -27s22 -31 22 -51c0 -22.667 -8.83301 -42.834 -26.5 -60.501
s-45.5 -31.5 -83.5 -41.5z" />
    <glyph glyph-name="Omega" unicode="&#x3a9;" horiz-adv-x="786" 
d="M680 207.5c-30.667 -51 -73.9971 -99.501 -129.997 -145.501v-2h179v-60h-284v49c70 56.667 121.333 110.667 154 162s49 106 49 164c0 48.667 -10.667 92.667 -32 132s-51.333 70.333 -90 93s-83 34 -133 34s-94.333 -11.333 -133 -34s-68.667 -53.667 -90 -93
s-32 -83.333 -32 -132c0 -58 16.333 -112.667 49 -164s84 -105.333 154 -162v-49h-284v60h180v2c-56.667 46.667 -100.334 95.334 -131.001 146.001s-46 106 -46 166c0 60.667 13.667 115.334 41 164.001s66.166 87 116.499 115s108.833 42 175.5 42
c67.333 0 126.166 -14 176.499 -42s89 -66.333 116 -115s40.5 -103.334 40.5 -164.001c0 -60 -15.333 -115.5 -46 -166.5z" />
    <glyph glyph-name="mu" unicode="&#x3bc;" horiz-adv-x="599" 
d="M502 528v-528h-59l-11 57c-65.333 -50.667 -128 -76 -188 -76c-38.667 0 -68.334 8.66699 -89.001 26l16 -244h-75v765h75v-370c0 -40.667 6.83301 -70 20.5 -88s36.834 -27 69.501 -27c26 0 52.333 6 79 18s55.667 30.667 87 56v411h75z" />
    <glyph glyph-name="pi" unicode="&#x3c0;" horiz-adv-x="654" 
d="M611 12c-31.333 -17.333 -62.332 -26 -92.999 -26c-70 0 -105 38.667 -105 116v369h-177l-45 -471h-75l45 471h-128v57h564v-57h-109v-363c0 -20.667 3.5 -36 10.5 -46s18.5 -15 34.5 -15c11.333 0 21.166 1.5 29.499 4.5s19.5 8.16699 33.5 15.5z" />
    <glyph glyph-name="uni0901" unicode="&#x901;" horiz-adv-x="0" 
d="M-271.5 769.5c-37 23.667 -66.167 53.834 -87.5 90.501l46 34c43.333 -68 99 -102 167 -102s123.667 34 167 102l45 -34c-21.333 -36.667 -50.5 -66.834 -87.5 -90.501s-78.5 -35.5 -124.5 -35.5c-46.667 0 -88.5 11.833 -125.5 35.5zM-189.5 993
c11.667 11.333 25.5 17 41.5 17s29.833 -5.66699 41.5 -17s17.5 -25 17.5 -41s-5.83301 -29.833 -17.5 -41.5s-25.5 -17.5 -41.5 -17.5s-29.833 5.83301 -41.5 17.5s-17.5 25.5 -17.5 41.5s5.83301 29.667 17.5 41z" />
    <glyph glyph-name="uni0902" unicode="&#x902;" horiz-adv-x="0" 
d="M-184.5 831c11.667 11.333 25.5 17 41.5 17s29.833 -5.66699 41.5 -17s17.5 -25 17.5 -41s-5.83301 -29.833 -17.5 -41.5s-25.5 -17.5 -41.5 -17.5s-29.833 5.83301 -41.5 17.5s-17.5 25.5 -17.5 41.5s5.83301 29.667 17.5 41z" />
    <glyph glyph-name="uni0903" unicode="&#x903;" horiz-adv-x="328" 
d="M124.5 402c-10.333 10.667 -15.502 23.334 -15.502 38.001s5.16699 27.334 15.5 38.001s22.833 16 37.5 16s27.334 -5.33301 38.001 -16s16 -23.334 16 -38.001s-5.16699 -27.334 -15.5 -38.001s-23.166 -16 -38.499 -16c-14.667 0 -27.167 5.33301 -37.5 16z
M124.498 69.5c-10.333 10.333 -15.5 22.833 -15.5 37.5s5.16699 27.334 15.5 38.001s22.833 16 37.5 16s27.334 -5.33301 38.001 -16s16 -23.334 16 -38.001s-5.33301 -27.167 -16 -37.5s-23.334 -15.5 -38.001 -15.5s-27.167 5.16699 -37.5 15.5z" />
    <glyph glyph-name="uni0904" unicode="&#x904;" horiz-adv-x="765" 
d="M765 583l-112.999 -0.000976562v-583h-70v293c-11.333 -7.33301 -27 -13.833 -47 -19.5s-40.333 -8.5 -61 -8.5c-18 0 -35.667 2 -53 6c12 -24 18 -49 18 -75c0 -30.667 -7.66699 -58.167 -23 -82.5s-37 -43.5 -65 -57.5s-60 -21 -96 -21c-112 0 -197 70.667 -255 212
l48 35c24.667 -60 54.167 -106.167 88.5 -138.5s73.5 -48.833 117.5 -49.5c34.667 0.666992 62.5 11 83.5 31s31.5 45.333 31.5 76c0 25.333 -6.5 48.166 -19.5 68.499s-32.167 39.5 -57.5 57.5c-30 -8.66699 -61.333 -14 -94 -16l-15 60
c112.667 3.33301 169 43.333 169 120c0 30 -9.66699 55.333 -29 76s-44.666 31 -75.999 31c-43.333 0 -87.666 -17.667 -132.999 -53l-32 54c22 17.333 47.167 31.333 75.5 42s58.166 16 89.499 16s60.166 -6.5 86.499 -19.5s47.666 -32.5 63.999 -58.5
s24.5 -57.667 24.5 -95c0 -55.333 -23.667 -98.666 -71 -129.999h0.5c0.333008 0 0.5 -0.333008 0.5 -1c16 -7.33301 35.333 -13.833 58 -19.5s44 -8.5 64 -8.5c42.667 0 78.667 11.333 108 34v224h-135v59h143c3.33301 12 5 24.667 5 38c0 29.333 -8.66699 54 -26 74
s-46.333 30 -87 30c-24 0 -60 -2 -108 -6c-46.667 -4 -80.334 -6 -101.001 -6c-42.667 0 -75.667 9 -99 27s-35 44 -35 78c0 14.667 2.5 29.667 7.5 45s11.5 29 19.5 41l62 -17c-13.333 -20.667 -20 -41 -20 -61c0 -18 5.33301 -31.333 16 -40s28.334 -13 53.001 -13
c22 0 56.333 2 103 6s80.667 6 102 6c58.667 0 103.667 -15.167 135 -45.5s47 -70.166 47 -119.499c0 -8.66699 -1.33301 -21 -4 -37h105v-59z" />
    <glyph glyph-name="uni0905" unicode="&#x905;" horiz-adv-x="765" 
d="M765 583h-112.999v-583h-70v293c-11.333 -7.33301 -27 -13.833 -47 -19.5s-40.333 -8.5 -61 -8.5c-18 0 -35.667 2 -53 6c12 -24 18 -49 18 -75c0 -30.667 -7.66699 -58.167 -23 -82.5s-37 -43.5 -65 -57.5s-60 -21 -96 -21c-112 0 -197 70.667 -255 212l48 35
c24.667 -60 54.167 -106.167 88.5 -138.5s73.5 -48.833 117.5 -49.5c34.667 0.666992 62.5 11 83.5 31s31.5 45.333 31.5 76c0 25.333 -6.5 48.166 -19.5 68.499s-32.167 39.5 -57.5 57.5c-30 -8.66699 -61.333 -14 -94 -16l-15 60c112.667 3.33301 169 43.333 169 120
c0 30 -9.66699 55.333 -29 76s-44.666 31 -75.999 31c-43.333 0 -87.666 -17.667 -132.999 -53l-32 54c22 17.333 47.167 31.333 75.5 42s58.166 16 89.499 16s60.166 -6.5 86.499 -19.5s47.666 -32.5 63.999 -58.5s24.5 -57.667 24.5 -95
c0 -55.333 -23.667 -98.666 -71 -129.999h0.5c0.333008 0 0.5 -0.333008 0.5 -1c16 -7.33301 35.333 -13.833 58 -19.5s44 -8.5 64 -8.5c42.667 0 78.667 11.333 108 34v224h-135v59h318v-59z" />
    <glyph glyph-name="uni0906" unicode="&#x906;" horiz-adv-x="1061" 
d="M1061 583h-112.999v-583h-70v583h-226v-583h-70v293c-11.333 -7.33301 -27 -13.833 -47 -19.5s-40.333 -8.5 -61 -8.5c-18 0 -35.667 2 -53 6c12 -24 18 -49 18 -75c0 -30.667 -7.66699 -58.167 -23 -82.5s-37 -43.5 -65 -57.5s-60 -21 -96 -21
c-112 0 -197 70.667 -255 212l48 35c24.667 -60 54.167 -106.167 88.5 -138.5s73.5 -48.833 117.5 -49.5c34.667 0.666992 62.5 11 83.5 31s31.5 45.333 31.5 76c0 25.333 -6.5 48.166 -19.5 68.499s-32.167 39.5 -57.5 57.5c-30 -8.66699 -61.333 -14 -94 -16l-15 60
c112.667 3.33301 169 43.333 169 120c0 30 -9.66699 55.333 -29 76s-44.666 31 -75.999 31c-43.333 0 -87.666 -17.667 -132.999 -53l-32 54c22 17.333 47.167 31.333 75.5 42s58.166 16 89.499 16s60.166 -6.5 86.499 -19.5s47.666 -32.5 63.999 -58.5
s24.5 -57.667 24.5 -95c0 -55.333 -23.667 -98.666 -71 -129.999h0.5c0.333008 0 0.5 -0.333008 0.5 -1c16 -7.33301 35.333 -13.833 58 -19.5s44 -8.5 64 -8.5c42.667 0 78.667 11.333 108 34v224h-135v59h614v-59z" />
    <glyph glyph-name="uni0907" unicode="&#x907;" horiz-adv-x="489" 
d="M150 410.5c-10.667 -11 -16.001 -26.166 -16.001 -45.499c0 -21.333 7.66699 -38.333 23 -51s36 -19 62 -19c23.333 0 48.5 3.5 75.5 10.5s51.167 16.5 72.5 28.5c20.667 -17.333 38 -38.5 52 -63.5s21 -51.167 21 -78.5c0 -29.333 -8.83301 -56 -26.5 -80
s-41.334 -43.167 -71.001 -57.5s-62.5 -22.833 -98.5 -25.5l93 -139l-59 -35l-104 177c-31.333 5.33301 -56.666 15 -75.999 29s-29 30.333 -29 49c0 18 7 32.667 21 44s33.667 17.333 59 18l55 -82c3.33301 -0.666992 8.33301 -1 15 -1c29.333 0 55.5 4.66699 78.5 14
s40.833 22 53.5 38s19 33.333 19 52c0 23.333 -9.33301 45.333 -28 66c-41.333 -16 -81.666 -24 -120.999 -24c-52 0 -91.167 12.5 -117.5 37.5s-39.5 57.167 -39.5 96.5c0 33.333 11 61.166 33 83.499s53 33.5 93 33.5h124v97h-334v59h509v-59h-106v-156h-188
c-19.333 0 -34.333 -5.5 -45 -16.5z" />
    <glyph glyph-name="uni0908" unicode="&#x908;" horiz-adv-x="489" 
d="M375 642h113.998v-59h-106v-156h-188c-19.333 0 -34.333 -5.5 -45 -16.5s-16 -26.167 -16 -45.5c0 -21.333 7.66699 -38.333 23 -51s36 -19 62 -19c23.333 0 48.5 3.5 75.5 10.5s51.167 16.5 72.5 28.5c20.667 -17.333 38 -38.5 52 -63.5s21 -51.167 21 -78.5
c0 -29.333 -8.83301 -56 -26.5 -80s-41.334 -43.167 -71.001 -57.5s-62.5 -22.833 -98.5 -25.5l93 -139l-59 -35l-104 177c-31.333 5.33301 -56.666 15 -75.999 29s-29 30.333 -29 49c0 18 7 32.667 21 44s33.667 17.333 59 18l55 -82c3.33301 -0.666992 8.33301 -1 15 -1
c29.333 0 55.5 4.66699 78.5 14s40.833 22 53.5 38s19 33.333 19 52c0 23.333 -9.33301 45.333 -28 66c-41.333 -16 -81.666 -24 -120.999 -24c-52 0 -91.167 12.5 -117.5 37.5s-39.5 57.167 -39.5 96.5c0 33.333 11 61.166 33 83.499s53 33.5 93 33.5h124v97h-334v59h310
c-28 26 -49.333 52.5 -64 79.5s-22 56.833 -22 89.5c0 44 14.333 80.167 43 108.5s67.334 42.5 116.001 42.5c26 0 49.833 -4.66699 71.5 -14s42.5 -22.333 62.5 -39l-27 -50c-16.667 14 -33 24.833 -49 32.5s-34 11.5 -54 11.5c-26 0 -48 -8.83301 -66 -26.5
s-27 -41.5 -27 -71.5c0 -55.333 33.667 -109.666 101 -162.999z" />
    <glyph glyph-name="uni0909" unicode="&#x909;" horiz-adv-x="563" 
d="M563 583l-128.996 0.000976562c30 -35.333 45 -74 45 -116c0 -24 -6.83301 -45.833 -20.5 -65.5s-33.834 -36.5 -60.501 -50.5c27.333 -23.333 49.5 -48.333 66.5 -75s25.5 -56.667 25.5 -90c0 -32.667 -7.66699 -62 -23 -88s-37.166 -46.333 -65.499 -61
s-60.833 -22 -97.5 -22c-59.333 0 -110.333 19.833 -153 59.5s-79.334 97.5 -110.001 173.5l48 35c55.333 -138.667 126.666 -208.334 213.999 -209.001c35.333 0.666992 63.666 11.834 84.999 33.501s32 49.5 32 83.5c0 26.667 -7.33301 51 -22 73s-36 43 -64 63
c-32.667 -8.66699 -72.334 -14 -119.001 -16l-14 60c138.667 4 208 38.333 208 103c0 43.333 -22.333 79.666 -67 108.999h-362v59h583v-59z" />
    <glyph glyph-name="uni090A" unicode="&#x90a;" horiz-adv-x="810" 
d="M479 467c0 -24 -6.83105 -45.8301 -20.498 -65.4971s-33.834 -36.5 -60.501 -50.5c23.333 -20 41.333 -38.667 54 -56c34 30.667 63.667 54.167 89 70.5s54 24.5 86 24.5c42.667 0 76.334 -14.167 101.001 -42.5s37 -63.833 37 -106.5
c0 -36.667 -9.16699 -71.334 -27.5 -104.001s-43.166 -61.334 -74.499 -86.001l-55 46c26.667 20 47.834 42.667 63.501 68s23.5 50 23.5 74c0 28.667 -6.33301 51 -19 67s-29.334 24 -50.001 24c-22.667 0 -45.5 -8 -68.5 -24s-48.5 -38.333 -76.5 -67
c6 -16 9 -33.667 9 -53c0 -32.667 -7.66699 -62 -23 -88s-37.166 -46.333 -65.499 -61s-60.833 -22 -97.5 -22c-59.333 0 -110.333 19.833 -153 59.5s-79.334 97.5 -110.001 173.5l48 35c55.333 -138.667 126.666 -208.334 213.999 -209.001
c35.333 0.666992 63.666 11.834 84.999 33.501s32 49.5 32 83.5c0 26.667 -7.33301 51 -22 73s-36 43 -64 63c-32.667 -8.66699 -72.334 -14 -119.001 -16l-14 60c138.667 4 208 38.333 208 103c0 43.333 -22.333 79.666 -67 108.999h-362v59h830v-59h-376
c30 -35.333 45 -74 45 -116z" />
    <glyph glyph-name="uni090B" unicode="&#x90b;" horiz-adv-x="839" 
d="M456 583l-0.000976562 -250.998c10.667 -2.66699 22.334 -4 35.001 -4c32.667 0 66.667 8.33301 102 25l-39 81c9.33301 14 20.833 25.167 34.5 33.5s27.5 12.5 41.5 12.5c21.333 0 38 -7 50 -21s18 -30.333 18 -49c0 -27.333 -11.333 -52.333 -34 -75l83 -167
c-68 -31.333 -102 -65.333 -102 -102c0 -18.667 6.16699 -34.167 18.5 -46.5s29.833 -18.5 52.5 -18.5c15.333 0 30.166 2.33301 44.499 7s26.5 11 36.5 19l30 -52c-32 -22 -69.667 -33 -113 -33c-40 0 -72.5 11.5 -97.5 34.5s-37.5 51.833 -37.5 86.5
c0 24.667 7.33301 47.167 22 67.5s37.667 40.5 69 60.5l-53 110c-20 -10.667 -41.333 -18.834 -64 -24.501s-44 -8.5 -64 -8.5c-13.333 0 -24.333 1.33301 -33 4v-272h-69v238l-265 -215l-47 56l308 233c-37.333 31.333 -69.666 53.166 -96.999 65.499
s-54.333 18.5 -81 18.5c-41.333 0 -89 -12.667 -143 -38l-27 60c56 25.333 112.667 38 170 38c29.333 0 58 -5.33301 86 -16s60 -29.667 96 -57v200h-407v59h859v-59h-383z" />
    <glyph glyph-name="uni090C" unicode="&#x90c;" horiz-adv-x="720" 
d="M526 583v-159.003c38.667 -6 69 -22.667 91 -50s33 -59.666 33 -96.999c0 -30 -7.66699 -57.167 -23 -81.5s-37 -51.166 -65 -80.499c-22.667 -24.667 -39.167 -44.5 -49.5 -59.5s-15.5 -30.833 -15.5 -47.5c0 -17.333 5.5 -31.166 16.5 -41.499s25.833 -15.5 44.5 -15.5
c45.333 0 85.666 20 120.999 60l33 -49c-20.667 -22.667 -43.167 -40.167 -67.5 -52.5s-53.166 -18.5 -86.499 -18.5c-36.667 0 -67.5 10.333 -92.5 31s-37.5 49 -37.5 85c0 24.667 6.16699 46.5 18.5 65.5s31.5 42.167 57.5 69.5c25.333 26 44.333 48.5 57 67.5
s19 40.833 19 65.5c0 30 -7.66699 52.833 -23 68.5s-36.333 23.5 -63 23.5c-36.667 0 -65.334 -15.5 -86.001 -46.5s-32.334 -73.167 -35.001 -126.5l-70 12c2.66699 37.333 9.66699 70 21 98c-18.667 26 -37.667 45.833 -57 59.5s-40.333 20.5 -63 20.5
c-23.333 0 -42.666 -9 -57.999 -27s-23 -44.333 -23 -79c0 -48.667 13.667 -94.167 41 -136.5s66 -84.5 116 -126.5l-43 -44c-58.667 50 -104.167 100.5 -136.5 151.5s-48.5 105.5 -48.5 163.5c0 50.667 13.833 89.834 41.5 117.501s63.5 41.5 107.5 41.5
c31.333 0 59.833 -8.33301 85.5 -25s47.834 -37.334 66.501 -62.001c26.667 35.333 61 57.333 103 66v159h-476v59h740v-59h-194z" />
    <glyph glyph-name="uni090D" unicode="&#x90d;" horiz-adv-x="595" 
d="M614 -70c10.667 -16.667 15.999 -33.333 15.999 -50c0 -15.333 -2.83301 -29.666 -8.5 -42.999s-15.167 -27.333 -28.5 -42l-64 34c16 16 24 32 24 48c0 10.667 -3.16699 21 -9.5 31s-19.5 22 -39.5 36l-298 201c-36.667 25.333 -62 49.5 -76 72.5s-21 52.833 -21 89.5
v276h-130v59h616v-59h-100v-244c0 -38 -12.167 -69 -36.5 -93s-50.166 -41 -77.499 -51l-45 52c28.667 12 50.167 25.167 64.5 39.5s21.5 34.833 21.5 61.5v235h-240v-273c0 -30 5 -53 15 -69s26.667 -32 50 -48l310 -210c27.333 -18.667 46.333 -36.334 57 -53.001z
M173.499 769.501c-37 23.667 -66.167 53.834 -87.5 90.501l46 34c43.333 -68 99 -102 167 -102s123.667 34 167 102l45 -34c-21.333 -36.667 -50.5 -66.834 -87.5 -90.501s-78.5 -35.5 -124.5 -35.5c-46.667 0 -88.5 11.833 -125.5 35.5z" />
    <glyph glyph-name="uni090E" unicode="&#x90e;" horiz-adv-x="595" 
d="M614 -70c10.667 -16.667 15.999 -33.335 15.999 -50.002c0 -15.333 -2.83301 -29.666 -8.5 -42.999s-15.167 -27.333 -28.5 -42l-64 34c16 16 24 32 24 48c0 10.667 -3.16699 21 -9.5 31s-19.5 22 -39.5 36l-298 201c-36.667 25.333 -62 49.5 -76 72.5
s-21 52.833 -21 89.5v276h-130v59h448c3.33301 12 5 24.667 5 38c0 29.333 -8.66699 54 -26 74s-46.333 30 -87 30c-24 0 -60 -2 -108 -6c-46.667 -4 -80.334 -6 -101.001 -6c-42.667 0 -75.667 9 -99 27s-35 44 -35 78c0 14.667 2.5 29.667 7.5 45s11.5 29 19.5 41l62 -17
c-13.333 -20.667 -20 -41 -20 -61c0 -18 5.33301 -31.333 16 -40s28.334 -13 53.001 -13c22 0 56.333 2 103 6s80.667 6 102 6c58.667 0 103.667 -15.167 135 -45.5s47 -70.166 47 -119.499c0 -11.333 -1.66699 -23.666 -5 -36.999h99v-59h-100v-244
c0 -38 -12.167 -69 -36.5 -93s-50.166 -41 -77.499 -51l-45 52c28.667 12 50.167 25.167 64.5 39.5s21.5 34.833 21.5 61.5v235h-240v-273c0 -30 5 -53 15 -69s26.667 -32 50 -48l310 -210c27.333 -18.667 46.333 -36.334 57 -53.001z" />
    <glyph glyph-name="uni090F" unicode="&#x90f;" horiz-adv-x="595" 
d="M614 -70c10.667 -16.667 15.999 -33.333 15.999 -50c0 -15.333 -2.83301 -29.666 -8.5 -42.999s-15.167 -27.333 -28.5 -42l-64 34c16 16 24 32 24 48c0 10.667 -3.16699 21 -9.5 31s-19.5 22 -39.5 36l-298 201c-36.667 25.333 -62 49.5 -76 72.5s-21 52.833 -21 89.5
v276h-130v59h616v-59h-100v-244c0 -38 -12.167 -69 -36.5 -93s-50.166 -41 -77.499 -51l-45 52c28.667 12 50.167 25.167 64.5 39.5s21.5 34.833 21.5 61.5v235h-240v-273c0 -30 5 -53 15 -69s26.667 -32 50 -48l310 -210c27.333 -18.667 46.333 -36.334 57 -53.001z" />
    <glyph glyph-name="uni0910" unicode="&#x910;" horiz-adv-x="595" 
d="M614 -70c10.667 -16.667 15.998 -33.333 15.998 -50c0 -15.333 -2.83301 -29.666 -8.5 -42.999s-15.167 -27.333 -28.5 -42l-64 34c16 16 24 32 24 48c0 10.667 -3.16699 21 -9.5 31s-19.5 22 -39.5 36l-298 201c-36.667 25.333 -62 49.5 -76 72.5s-21 52.833 -21 89.5
v276h-130v59h438l-38 83c-20.667 45.333 -38.167 80.333 -52.5 105s-30 44 -47 58s-36.833 21 -59.5 21c-24.667 0 -47.667 -4.66699 -69 -14l-13 57c23.333 13.333 50.333 20 81 20c32.667 0 60.834 -8.16699 84.501 -24.5s45.5 -40.333 65.5 -72s43.667 -76.5 71 -134.5
l47 -99h108v-59h-100v-244c0 -38 -12.167 -69 -36.5 -93s-50.166 -41 -77.499 -51l-45 52c28.667 12 50.167 25.167 64.5 39.5s21.5 34.833 21.5 61.5v235h-240v-273c0 -30 5 -53 15 -69s26.667 -32 50 -48l310 -210c27.333 -18.667 46.333 -36.334 57 -53.001z" />
    <glyph glyph-name="uni0911" unicode="&#x911;" horiz-adv-x="1061" 
d="M1061 583h-112.999v-583h-70v583h-226v-583h-70v293c-11.333 -7.33301 -27 -13.833 -47 -19.5s-40.333 -8.5 -61 -8.5c-18 0 -35.667 2 -53 6c12 -24 18 -49 18 -75c0 -30.667 -7.66699 -58.167 -23 -82.5s-37 -43.5 -65 -57.5s-60 -21 -96 -21
c-112 0 -197 70.667 -255 212l48 35c24.667 -60 54.167 -106.167 88.5 -138.5s73.5 -48.833 117.5 -49.5c34.667 0.666992 62.5 11 83.5 31s31.5 45.333 31.5 76c0 25.333 -6.5 48.166 -19.5 68.499s-32.167 39.5 -57.5 57.5c-30 -8.66699 -61.333 -14 -94 -16l-15 60
c112.667 3.33301 169 43.333 169 120c0 30 -9.66699 55.333 -29 76s-44.666 31 -75.999 31c-43.333 0 -87.666 -17.667 -132.999 -53l-32 54c22 17.333 47.167 31.333 75.5 42s58.166 16 89.499 16s60.166 -6.5 86.499 -19.5s47.666 -32.5 63.999 -58.5
s24.5 -57.667 24.5 -95c0 -55.333 -23.667 -98.666 -71 -129.999h0.5c0.333008 0 0.5 -0.333008 0.5 -1c16 -7.33301 35.333 -13.833 58 -19.5s44 -8.5 64 -8.5c42.667 0 78.667 11.333 108 34v224h-135v59h614v-59zM551.501 769.5c-37 23.667 -66.167 53.834 -87.5 90.501
l46 34c43.333 -68 99 -102 167 -102s123.667 34 167 102l45 -34c-21.333 -36.667 -50.5 -66.834 -87.5 -90.501s-78.5 -35.5 -124.5 -35.5c-46.667 0 -88.5 11.833 -125.5 35.5z" />
    <glyph glyph-name="uni0912" unicode="&#x912;" horiz-adv-x="1061" 
d="M1061 583l-112.999 -0.00195312v-583h-70v583h-226v-583h-70v293c-11.333 -7.33301 -27 -13.833 -47 -19.5s-40.333 -8.5 -61 -8.5c-18 0 -35.667 2 -53 6c12 -24 18 -49 18 -75c0 -30.667 -7.66699 -58.167 -23 -82.5s-37 -43.5 -65 -57.5s-60 -21 -96 -21
c-112 0 -197 70.667 -255 212l48 35c24.667 -60 54.167 -106.167 88.5 -138.5s73.5 -48.833 117.5 -49.5c34.667 0.666992 62.5 11 83.5 31s31.5 45.333 31.5 76c0 25.333 -6.5 48.166 -19.5 68.499s-32.167 39.5 -57.5 57.5c-30 -8.66699 -61.333 -14 -94 -16l-15 60
c112.667 3.33301 169 43.333 169 120c0 30 -9.66699 55.333 -29 76s-44.666 31 -75.999 31c-43.333 0 -87.666 -17.667 -132.999 -53l-32 54c22 17.333 47.167 31.333 75.5 42s58.166 16 89.499 16s60.166 -6.5 86.499 -19.5s47.666 -32.5 63.999 -58.5
s24.5 -57.667 24.5 -95c0 -55.333 -23.667 -98.666 -71 -129.999h0.5c0.333008 0 0.5 -0.333008 0.5 -1c16 -7.33301 35.333 -13.833 58 -19.5s44 -8.5 64 -8.5c42.667 0 78.667 11.333 108 34v224h-135v59h435c3.33301 12 5 24.667 5 38c0 29.333 -8.66699 54 -26 74
s-46.333 30 -87 30c-24 0 -60 -2 -108 -6c-46.667 -4 -80.334 -6 -101.001 -6c-42.667 0 -75.667 9 -99 27s-35 44 -35 78c0 14.667 2.5 29.667 7.5 45s11.5 29 19.5 41l62 -17c-13.333 -20.667 -20 -41 -20 -61c0 -18 5.33301 -31.333 16 -40s28.334 -13 53.001 -13
c22 0 56.333 2 103 6s80.667 6 102 6c58.667 0 103.667 -15.167 135 -45.5s47 -70.166 47 -119.499c0 -11.333 -1.66699 -23.666 -5 -36.999h110v-59z" />
    <glyph glyph-name="uni0913" unicode="&#x913;" horiz-adv-x="1061" 
d="M1061 583l-112.999 0.000976562v-583h-70v583h-226v-583h-70v293c-11.333 -7.33301 -27 -13.833 -47 -19.5s-40.333 -8.5 -61 -8.5c-18 0 -35.667 2 -53 6c12 -24 18 -49 18 -75c0 -30.667 -7.66699 -58.167 -23 -82.5s-37 -43.5 -65 -57.5s-60 -21 -96 -21
c-112 0 -197 70.667 -255 212l48 35c24.667 -60 54.167 -106.167 88.5 -138.5s73.5 -48.833 117.5 -49.5c34.667 0.666992 62.5 11 83.5 31s31.5 45.333 31.5 76c0 25.333 -6.5 48.166 -19.5 68.499s-32.167 39.5 -57.5 57.5c-30 -8.66699 -61.333 -14 -94 -16l-15 60
c112.667 3.33301 169 43.333 169 120c0 30 -9.66699 55.333 -29 76s-44.666 31 -75.999 31c-43.333 0 -87.666 -17.667 -132.999 -53l-32 54c22 17.333 47.167 31.333 75.5 42s58.166 16 89.499 16s60.166 -6.5 86.499 -19.5s47.666 -32.5 63.999 -58.5
s24.5 -57.667 24.5 -95c0 -55.333 -23.667 -98.666 -71 -129.999h0.5c0.333008 0 0.5 -0.333008 0.5 -1c16 -7.33301 35.333 -13.833 58 -19.5s44 -8.5 64 -8.5c42.667 0 78.667 11.333 108 34v224h-135v59h424l-38 83c-21.333 46.667 -39 82 -53 106s-29.5 43 -46.5 57
s-36.833 21 -59.5 21c-24.667 0 -47.667 -4.66699 -69 -14l-13 57c23.333 13.333 50.333 20 81 20c32.667 0 60.667 -8 84 -24s45 -39.833 65 -71.5s44 -76.834 72 -135.501l47 -99h120v-59z" />
    <glyph glyph-name="uni0914" unicode="&#x914;" horiz-adv-x="1061" 
d="M1061 583h-113v-583h-70v583h-226v-583h-70v293c-11.333 -7.33301 -27 -13.833 -47 -19.5s-40.333 -8.5 -61 -8.5c-18 0 -35.667 2 -53 6c12 -24 18 -49 18 -75c0 -30.667 -7.66699 -58.167 -23 -82.5s-37 -43.5 -65 -57.5s-60 -21 -96 -21c-112 0 -197 70.667 -255 212
l48 35c24.667 -60 54.167 -106.167 88.5 -138.5s73.5 -48.833 117.5 -49.5c34.667 0.666992 62.5 11 83.5 31s31.5 45.333 31.5 76c0 25.333 -6.5 48.166 -19.5 68.499s-32.167 39.5 -57.5 57.5c-30 -8.66699 -61.333 -14 -94 -16l-15 60
c112.667 3.33301 169 43.333 169 120c0 30 -9.66699 55.333 -29 76s-44.666 31 -75.999 31c-43.333 0 -87.666 -17.667 -132.999 -53l-32 54c22 17.333 47.167 31.333 75.5 42s58.166 16 89.499 16s60.166 -6.5 86.499 -19.5s47.666 -32.5 63.999 -58.5
s24.5 -57.667 24.5 -95c0 -55.333 -23.667 -98.666 -71 -129.999h0.5c0.333008 0 0.5 -0.333008 0.5 -1c16 -7.33301 35.333 -13.833 58 -19.5s44 -8.5 64 -8.5c42.667 0 78.667 11.333 108 34v224h-135v59h392l-36 61c-19.333 33.333 -38.5 57.5 -57.5 72.5
s-40.833 22.5 -65.5 22.5c-13.333 0 -25.166 -1 -35.499 -3s-21.5 -5.66699 -33.5 -11l-13 57c24.667 12.667 51.667 19 81 19c35.333 0 67.833 -12.5 97.5 -37.5s56.167 -58.833 79.5 -101.5l44 -79h3l-35 89c-25.333 64 -46.333 112.833 -63 146.5s-35 59.834 -55 78.501
s-43.333 28 -70 28c-22.667 0 -44.667 -4.66699 -66 -14l-13 57c23.333 13.333 50.666 20 81.999 20c35.333 0 66 -10.333 92 -31s50.333 -52.334 73 -95.001s48.334 -102.667 77.001 -180l38 -99h98v-59z" />
    <glyph glyph-name="uni0915" unicode="&#x915;" horiz-adv-x="838" 
d="M467 583l-0.000976562 -231.998c30.667 28.667 59.167 51 85.5 67s54.833 24 85.5 24c48 0 85.667 -15 113 -45s41 -68 41 -114c0 -42 -9.5 -79.167 -28.5 -111.5s-46.167 -62.5 -81.5 -90.5l-55 46c31.333 24 55 48.333 71 73s24 51.667 24 81
c0 32 -7.83301 57 -23.5 75s-36.167 27 -61.5 27c-27.333 0 -54.166 -9.66699 -80.499 -29s-56.166 -47.333 -89.499 -84v-270h-70v212c-30 -26 -59.333 -46.833 -88 -62.5s-59.334 -23.5 -92.001 -23.5c-34.667 0 -64.667 7.16699 -90 21.5s-44.5 33.166 -57.5 56.499
s-19.5 48.666 -19.5 75.999c0 32 7.66699 61 23 87s36 46.167 62 60.5s54.333 21.5 85 21.5c62.667 0 121.667 -27 177 -81v215h-417v59h858v-59h-371zM307.499 214.002c30.333 18.667 60.167 43.333 89.5 74v3c-55.333 64.667 -111 97 -167 97
c-31.333 0 -57.5 -10 -78.5 -30s-31.5 -45 -31.5 -75c0 -28 9.33301 -51.167 28 -69.5s42.667 -27.5 72 -27.5c28 0 57.167 9.33301 87.5 28z" />
    <glyph glyph-name="uni0916" unicode="&#x916;" horiz-adv-x="814" 
d="M814 583l-110 -0.000976562v-594h-70v120c-32.667 -28 -71 -50.167 -115 -66.5s-88.667 -24.5 -134 -24.5c-68 0 -126.5 15.167 -175.5 45.5s-86.167 73.333 -111.5 129s-37.666 120.834 -36.999 195.501l66 7c0 -21.333 0.333008 -37 1 -47
c7.33301 -5.33301 16 -8 26 -8c15.333 0 27.833 6.16699 37.5 18.5s14.5 32.5 14.5 60.5c0 22 -2.83301 48.667 -8.5 80s-12.834 59.333 -21.501 84h-196v59h834v-59zM634 582.999l-387.002 -0.000976562c19.333 -64.667 29 -120.667 29 -168
c0 -44.667 -10.667 -78.5 -32 -101.5s-46.666 -34.5 -75.999 -34.5c-11.333 0 -21.666 2 -30.999 6c14.667 -67.333 43.5 -118.666 86.5 -153.999s96.833 -53 161.5 -53c44 0 88.167 9 132.5 27s83.166 43.667 116.499 77v75c-27.333 -22.667 -53.833 -40.834 -79.5 -54.501
s-53.834 -20.5 -84.501 -20.5s-57.167 6.66699 -79.5 20s-39.333 30.833 -51 52.5s-17.5 44.834 -17.5 69.501c0 30.667 7 58 21 82s32.667 42.5 56 55.5s48.333 19.5 75 19.5c30.667 0 60.334 -7.33301 89.001 -22s52.334 -31.667 71.001 -51v175zM562.498 398.998
c-25.667 16.667 -53.832 24.998 -84.499 24.998c-25.333 0 -46.5 -9.16699 -63.5 -27.5s-25.5 -41.166 -25.5 -68.499c0 -25.333 8 -46.5 24 -63.5s36.333 -25.5 61 -25.5c25.333 0 52 8.66699 80 26s54 39.333 78 66c-20.667 28.667 -43.834 51.334 -69.501 68.001z" />
    <glyph glyph-name="uni0917" unicode="&#x917;" horiz-adv-x="613" 
d="M613 583l-113 0.00195312v-583h-70v583h-204v-291c0 -29.333 -6 -51.833 -18 -67.5s-28.333 -23.5 -49 -23.5c-24.667 0 -45.167 8.16699 -61.5 24.5s-24.5 37.166 -24.5 62.499c0 13.333 2.33301 26.666 7 39.999h76v255h-176v59h633v-59z" />
    <glyph glyph-name="uni0918" unicode="&#x918;" horiz-adv-x="675" 
d="M675 583h-113v-583h-69v209c-60.667 -50.667 -122.667 -76 -186 -76c-48.667 0 -88.5 14.167 -119.5 42.5s-46.5 65.833 -46.5 112.5c0 39.333 15 72.333 45 99c-41.333 22 -70.833 44.5 -88.5 67.5s-26.5 48.5 -26.5 76.5c0 16.667 3.33301 34 10 52h-101v59h695v-59z
M493 583l-333 -0.000976562c-12 -14.667 -18 -33 -18 -55c0 -20 7.16699 -38.333 21.5 -55s40.833 -34 79.5 -52c18 6 36.333 9 55 9c25.333 0 46 -3.66699 62 -11l-9 -55c-11.333 4 -26.333 6 -45 6c-29.333 0 -52.5 -7.66699 -69.5 -23s-25.5 -35.333 -25.5 -60
c0 -32 9.16699 -55.667 27.5 -71s40.833 -23 67.5 -23c33.333 0 65 7.83301 95 23.5s60.667 37.834 92 66.501v300z" />
    <glyph glyph-name="uni0919" unicode="&#x919;" horiz-adv-x="699" 
d="M699 583l-240 0.00292969v-175h-225c-20.667 0 -36.5 -5.33301 -47.5 -16s-16.5 -25.334 -16.5 -44.001c0 -22.667 8.5 -40.334 25.5 -53.001s42.833 -19 77.5 -19c32 0 64 3.16699 96 9.5s61.333 16.5 88 30.5c22 -16.667 40.667 -38.167 56 -64.5s23 -53.833 23 -82.5
c0 -48 -19.333 -86.667 -58 -116s-92.667 -44 -162 -44c-54.667 0 -105.5 13.333 -152.5 40s-89.5 64.667 -127.5 114l42 43c32 -44 68 -78 108 -102s81.667 -36 125 -36c50 0 88.333 9.33301 115 28s40 42.667 40 72c0 12.667 -3.16699 25.667 -9.5 39
s-14.5 25.333 -24.5 36c-48.667 -18 -101 -27 -157 -27c-60.667 0 -105 12.667 -133 38s-42 57.666 -42 96.999c0 33.333 11.333 60.833 34 82.5s54.667 32.5 96 32.5h160v117h-411v59h720v-59zM661.5 389.503c11.667 -11.667 17.5 -25.5 17.5 -41.5
s-5.83301 -29.833 -17.5 -41.5s-25.5 -17.5 -41.5 -17.5s-29.833 5.83301 -41.5 17.5s-17.5 25.5 -17.5 41.5s5.83301 29.833 17.5 41.5s25.5 17.5 41.5 17.5s29.833 -5.83301 41.5 -17.5z" />
    <glyph glyph-name="uni091A" unicode="&#x91a;" horiz-adv-x="653" 
d="M653 583l-113 -0.000976562v-583h-70v212c-30 -28.667 -61.833 -51.667 -95.5 -69s-67.167 -26 -100.5 -26c-48 0 -86.5 13.333 -115.5 40s-43.5 60.334 -43.5 101.001c0 49.333 24 90 72 122h-144v59h300v-53l1 -1c-44.667 -5.33301 -82.334 -19.5 -113.001 -42.5
s-46 -51.167 -46 -84.5c0 -24.667 7.5 -44.5 22.5 -59.5s36.833 -22.5 65.5 -22.5c60.667 0 126.334 36.667 197.001 110v297h-490v59h673v-59z" />
    <glyph glyph-name="uni091B" unicode="&#x91b;" horiz-adv-x="749" 
d="M541 583l0.000976562 -107.999c36 -8.66699 65.167 -27.5 87.5 -56.5s33.5 -66.833 33.5 -113.5c0 -40.667 -11.333 -80 -34 -118c30 -18.667 53.5 -39.334 70.5 -62.001s25.5 -49.667 25.5 -81c0 -60.667 -26.667 -123.667 -80 -189l-61 38
c21.333 22 39.166 46.5 53.499 73.5s21.5 53.5 21.5 79.5c0 33.333 -21.333 64 -64 92c-36 -42.667 -81.5 -77.167 -136.5 -103.5s-110.5 -39.5 -166.5 -39.5c-54.667 0 -98.167 13.833 -130.5 41.5s-48.5 65.167 -48.5 112.5c0 31.333 9.66699 58.666 29 81.999
c-30.667 16.667 -54 34.667 -70 54s-24 42 -24 68c0 36 13.5 65.5 40.5 88.5s62.5 34.5 106.5 34.5c28.667 0 54 -5 76 -15l-10 -57c-17.333 8 -38.333 12 -63 12s-44.167 -6 -58.5 -18s-21.5 -28 -21.5 -48c0 -16.667 5.16699 -31.5 15.5 -44.5s27.833 -25.5 52.5 -37.5
c26 14.667 53.667 22 83 22c25.333 0 46 -3.66699 62 -11l-9 -55c-12 4 -28 6 -48 6c-28 0 -50.167 -7.66699 -66.5 -23s-24.5 -35.333 -24.5 -60c0 -32 9.83301 -55.5 29.5 -70.5s45.167 -22.5 76.5 -22.5c47.333 0 93 11 137 33s81 50.333 111 85
c-37.333 20 -67 37.333 -89 52s-40.833 33.167 -56.5 55.5s-23.5 48.833 -23.5 79.5c0 33.333 9.66699 60.333 29 81s44.333 33.334 75 38.001v105h-491v59h769v-59h-208zM566.501 391.501c-17 19.667 -38.5 29.498 -64.5 29.498c-17.333 0 -32.5 -5.33301 -45.5 -16
s-19.5 -27.334 -19.5 -50.001c0 -20 5.83301 -37.667 17.5 -53s26.167 -28.666 43.5 -39.999s41 -25 71 -41c15.333 28.667 23 57.334 23 86.001c0 36.667 -8.5 64.834 -25.5 84.501z" />
    <glyph glyph-name="uni091C" unicode="&#x91c;" horiz-adv-x="727" 
d="M727 583l-113 0.000976562v-583h-70v373h-199c66.667 -44 100 -93 100 -147c0 -38.667 -13.833 -69.834 -41.5 -93.501s-61.167 -35.5 -100.5 -35.5c-69.333 0 -125.833 26.333 -169.5 79s-80.834 130.334 -111.501 233.001l56 23c26 -88.667 57 -156.834 93 -204.501
s76.333 -71.5 121 -71.5c26.667 0 47.167 6.66699 61.5 20s21.5 31 21.5 53c0 28 -11.667 54.167 -35 78.5s-58.666 51.5 -105.999 81.5l17 43h293v151h-564v59h747v-59z" />
    <glyph glyph-name="uni091D" unicode="&#x91d;" horiz-adv-x="765" 
d="M766 583l-114.001 0.000976562v-583h-70v235c-12.667 -6.66699 -28.167 -12.5 -46.5 -17.5s-36.833 -7.5 -55.5 -7.5c-14 0 -28 1 -42 3c1.33301 -9.33301 2 -16.333 2 -21c0 -29.333 -8.83301 -56 -26.5 -80s-41.334 -43.167 -71.001 -57.5s-62.5 -22.833 -98.5 -25.5
l93 -139l-59 -35l-104 177c-31.333 5.33301 -56.666 15 -75.999 29s-29 30.333 -29 49c0 18 7 32.667 21 44s33.667 17.333 59 18l55 -82c3.33301 -0.666992 8.33301 -1 15 -1c29.333 0 55.5 4.66699 78.5 14s40.833 22 53.5 38s19 33.333 19 52
c0 23.333 -9.33301 45.333 -28 66c-41.333 -16 -81.666 -24 -120.999 -24c-52 0 -91.167 12.5 -117.5 37.5s-39.5 57.167 -39.5 96.5c0 33.333 11 61.166 33 83.499s53 33.5 93 33.5h124v97h-334v59h786v-59zM581.999 583.001h-199.001v-156h-188
c-19.333 0 -34.333 -5.5 -45 -16.5s-16 -26.167 -16 -45.5c0 -21.333 7.66699 -38.333 23 -51s36 -19 62 -19c23.333 0 48.5 3.5 75.5 10.5s51.167 16.5 72.5 28.5c20.667 -18 36.667 -36.667 48 -56c20.667 -6 42.334 -9 65.001 -9c40 0 74 9.66699 102 29v285z" />
    <glyph glyph-name="uni091E" unicode="&#x91e;" horiz-adv-x="710" 
d="M710 583l-112.997 -0.00292969v-583h-70v265c-24 -8 -47.667 -12 -71 -12c-8.66699 0 -15.334 0.333008 -20.001 1c-8.66699 -34 -27.834 -61 -57.501 -81s-67.167 -30 -112.5 -30c-49.333 0 -94 15.333 -134 46s-82 77 -126 139l44 34
c38 -53.333 73.5 -93.333 106.5 -120s67.833 -40 104.5 -40c35.333 0 62.5 8.83301 81.5 26.5s28.5 39.834 28.5 66.501c0 27.333 -7.83301 49.833 -23.5 67.5s-35.834 26.5 -60.501 26.5c-18.667 0 -34.834 -3.5 -48.501 -10.5s-29.167 -17.833 -46.5 -32.5l-36 49
c20 16.667 40.833 29.834 62.5 39.501s45.834 14.5 72.501 14.5c38 0 71.333 -11.667 100 -35s45 -56.666 49 -99.999c4 -0.666992 9.33301 -1 16 -1c28 0 51.667 4.33301 71 13v257h-547v59h730v-59z" />
    <glyph glyph-name="uni091F" unicode="&#x91f;" horiz-adv-x="528" 
d="M199.5 351.5c-43.667 -25.667 -65.5 -60.499 -65.5 -104.499c0 -40 12.667 -71.333 38 -94s61.333 -34 108 -34c62.667 0 128 18 196 54l26 -52c-73.333 -41.333 -147.333 -62 -222 -62c-66 0 -118.5 16.667 -157.5 50s-58.5 79.333 -58.5 138c0 56 22 101 66 135
s105.667 57.333 185 70v131h-335v59h548v-59h-143v-183c-80 -6.66699 -141.833 -22.834 -185.5 -48.501z" />
    <glyph glyph-name="uni0920" unicode="&#x920;" horiz-adv-x="574" 
d="M575 583l-192 0.00195312c12.667 -21.333 19 -43.333 19 -66c0 -24.667 -5 -49 -15 -73c37.333 -26.667 67 -57 89 -91s33 -69.667 33 -107s-9.66699 -71.333 -29 -102s-46.333 -54.834 -81 -72.501s-73.334 -26.5 -116.001 -26.5c-41.333 0 -78.666 8 -111.999 24
s-59.5 39 -78.5 69s-28.5 64.667 -28.5 104c0 60 23.5 108.833 70.5 146.5s109.5 63.5 187.5 77.5c6.66699 18 10 34.667 10 50c0 19.333 -6.66699 41.666 -20 66.999h-332v59h595v-59zM423 313.502c-11.333 21.667 -25.168 40.335 -41.501 56.002s-31.5 27.167 -45.5 34.5
c-56 -7.33301 -103.667 -24.833 -143 -52.5s-59 -63.834 -59 -108.501s14.333 -78.834 43 -102.501s64 -35.5 106 -35.5c30 0 56.833 6.16699 80.5 18.5s42.334 29.333 56.001 51s20.5 45.5 20.5 71.5c0 23.333 -5.66699 45.833 -17 67.5z" />
    <glyph glyph-name="uni0921" unicode="&#x921;" horiz-adv-x="565" 
d="M186.5 392c-11 -10.667 -16.5 -25.3311 -16.5 -43.998c0 -22.667 8.5 -40.334 25.5 -53.001s42.833 -19 77.5 -19c32 0 64 3.16699 96 9.5s61.333 16.5 88 30.5c22 -16.667 40.667 -38.167 56 -64.5s23 -53.833 23 -82.5c0 -48 -19.333 -86.667 -58 -116
s-92.667 -44 -162 -44c-54.667 0 -105.5 13.333 -152.5 40s-89.5 64.667 -127.5 114l42 43c32 -44 68 -78 108 -102s81.667 -36 125 -36c50 0 88.333 9.33301 115 28s40 42.667 40 72c0 12.667 -3.16699 25.667 -9.5 39s-14.5 25.333 -24.5 36
c-48.667 -18 -101 -27 -157 -27c-60.667 0 -105 12.667 -133 38s-42 57.666 -42 96.999c0 33.333 11.333 60.833 34 82.5s54.667 32.5 96 32.5h160v117h-411v59h586v-59h-106v-175h-225c-20.667 0 -36.5 -5.33301 -47.5 -16z" />
    <glyph glyph-name="uni0922" unicode="&#x922;" horiz-adv-x="546" 
d="M156.5 374.5c-24.333 -21.667 -36.498 -49.5 -36.498 -83.5c0 -51.333 13.5 -94.833 40.5 -130.5s59.5 -61.167 97.5 -76.5c-18.667 26 -28 55.333 -28 88c0 38.667 12.5 69.834 37.5 93.501s55.833 35.5 92.5 35.5c38 0 69.833 -12.333 95.5 -37s38.5 -57 38.5 -97
c0 -32.667 -8.16699 -60.334 -24.5 -83.001s-37.833 -39.667 -64.5 -51s-55.334 -17 -86.001 -17c-42.667 0 -84.834 11.833 -126.501 35.5s-75.834 56.667 -102.501 99s-40 89.5 -40 141.5s17.667 93.833 53 125.5s88.333 47.5 159 47.5h84v118h-366v59h566v-59h-131v-176
h-148c-49.333 0 -86.166 -10.833 -110.499 -32.5zM314.502 222.5c-13 -13.667 -19.501 -32.5029 -19.501 -56.5029c0 -17.333 2.83301 -34.166 8.5 -50.499s13.5 -30.833 23.5 -43.5c32.667 2.66699 57.834 12.334 75.501 29.001s26.5 38.334 26.5 65.001
c0 24.667 -6.33301 43.667 -19 57s-28.667 20 -48 20c-18.667 0 -34.5 -6.83301 -47.5 -20.5z" />
    <glyph glyph-name="uni0923" unicode="&#x923;" horiz-adv-x="750" 
d="M750 583h-113v-583h-70v583h-162v-242c0 -48 -15 -85.667 -45 -113s-67.667 -41 -113 -41c-44.667 0 -82 13.667 -112 41s-45 65 -45 113v242h-110v59h770v-59zM335 583h-174.999v-243c0 -28 7.66699 -50.5 23 -67.5s36.666 -25.5 63.999 -25.5s48.833 8.5 64.5 25.5
s23.5 39.5 23.5 67.5v243z" />
    <glyph glyph-name="uni0924" unicode="&#x924;" horiz-adv-x="589" 
d="M589 583l-112.998 0.00195312v-583h-69v373h-169c-32.667 0 -57.834 -8 -75.501 -24s-26.5 -38.333 -26.5 -67c0 -40.667 12.167 -79.834 36.5 -117.501s60.5 -80.167 108.5 -127.5l-45 -43c-48 44 -88.333 91.667 -121 143s-49 102.333 -49 153
c0 43.333 13.667 77.666 41 102.999s69.666 38 126.999 38h173v152h-427v59h609v-59z" />
    <glyph glyph-name="uni0925" unicode="&#x925;" horiz-adv-x="654" 
d="M654 583l-113.001 0.000976562v-583h-69v217c-26 -22.667 -55 -41.5 -87 -56.5s-66 -22.5 -102 -22.5c-52.667 0 -97.334 15 -134.001 45s-61.667 72.667 -75 128c68 20 116.667 48.333 146 85c-54.667 0.666992 -96.667 15 -126 43s-44 61.667 -44 101
c0 34.667 12 62.834 36 84.501s55 32.5 93 32.5c43.333 0 78.333 -14.833 105 -44.5s40 -69.834 40 -120.501c0 -42.667 -14.5 -83.5 -43.5 -122.5s-70.5 -70.167 -124.5 -93.5c10.667 -24.667 26.834 -43.834 48.501 -57.501s47.834 -20.5 78.501 -20.5
c32.667 0 66 8.83301 100 26.5s63.667 40.5 89 68.5v290h-116v59h298v-59zM147.999 476.001c18.667 -17.333 52 -25.668 100 -25.001c4 14 6 29 6 45c0 30 -6.33301 54.5 -19 73.5s-30.667 28.5 -54 28.5c-17.333 0 -31.833 -5.5 -43.5 -16.5s-17.5 -25.833 -17.5 -44.5
c0 -23.333 9.33301 -43.666 28 -60.999z" />
    <glyph glyph-name="uni0926" unicode="&#x926;" horiz-adv-x="556" 
d="M169.5 373.5c-23 -22.333 -34.4971 -51.832 -34.4971 -88.499c0 -34.667 8 -64.334 24 -89.001s36.667 -43 62 -55s51.666 -18 78.999 -18c19.333 0 38 2.33301 56 7l-35 75c9.33301 13.333 21.166 24.333 35.499 33s28.5 13 42.5 13
c20.667 0 37.167 -6.83301 49.5 -20.5s18.5 -30.167 18.5 -49.5c0 -28.667 -11.667 -53.667 -35 -75l86 -162l-60 -31l-77 164c-24.667 -9.33301 -52.334 -14 -83.001 -14c-39.333 0 -76.833 8.83301 -112.5 26.5s-64.667 43.334 -87 77.001s-33.5 73.167 -33.5 118.5
c0 55.333 17.167 99.166 51.5 131.499s86.5 48.5 156.5 48.5h69v118h-362v59h576v-59h-145v-176h-133c-49.333 0 -85.5 -11.167 -108.5 -33.5z" />
    <glyph glyph-name="uni0927" unicode="&#x927;" horiz-adv-x="648" 
d="M649 583h-113.998v-583h-69v209c-60.667 -50.667 -122.667 -76 -186 -76c-48.667 0 -88.5 14.167 -119.5 42.5s-46.5 65.833 -46.5 112.5c0 40.667 16.333 75 49 103c-72 48.667 -108 102.667 -108 162c0 32.667 11.667 60.334 35 83.001s54 34 92 34
c29.333 0 53.666 -7.16699 72.999 -21.5s33 -33.833 41 -58.5l-48 -31c-10 34.667 -30.333 52 -61 52c-20 0 -35.333 -5.83301 -46 -17.5s-16 -26.167 -16 -43.5c0 -20.667 7.66699 -41.834 23 -63.501s39.666 -42.834 72.999 -63.501c20 4.66699 36.667 7 50 7
c25.333 0 46 -3.66699 62 -11l-9 -55c-10.667 4 -25.667 6 -45 6c-29.333 0 -52.5 -7.66699 -69.5 -23s-25.5 -35.333 -25.5 -60c0 -32 9.16699 -55.667 27.5 -71s40.833 -23 67.5 -23c33.333 0 65 7.83301 95 23.5s60.667 37.834 92 66.501v300h-104v59h287v-59z" />
    <glyph glyph-name="uni0928" unicode="&#x928;" horiz-adv-x="576" 
d="M576 583h-113.001v-583h-70v322h-223v-76c-13.333 -4.66699 -26.666 -7 -39.999 -7c-24.667 0 -45.167 7.66699 -61.5 23s-24.5 34 -24.5 56c0 42 30 63 90 63h259v202h-413v59h596v-59z" />
    <glyph glyph-name="uni0929" unicode="&#x929;" horiz-adv-x="576" 
d="M576 583h-113.001v-583h-70v322h-223v-76c-13.333 -4.66699 -26.666 -7 -39.999 -7c-24.667 0 -45.167 7.66699 -61.5 23s-24.5 34 -24.5 56c0 42 30 63 90 63h259v202h-413v59h596v-59zM171.499 98.5c11.667 11.667 25.5 17.5 41.5 17.5s29.833 -5.83301 41.5 -17.5
s17.5 -25.5 17.5 -41.5s-5.83301 -29.833 -17.5 -41.5s-25.5 -17.5 -41.5 -17.5s-29.833 5.83301 -41.5 17.5s-17.5 25.5 -17.5 41.5s5.83301 29.833 17.5 41.5z" />
    <glyph glyph-name="uni092A" unicode="&#x92a;" horiz-adv-x="558" 
d="M558 583l-113 -0.000976562v-583h-70v235c-40 -30 -83.333 -45 -130 -45c-50.667 0 -89 13.833 -115 41.5s-39 67.834 -39 120.501v231h-111v59h578v-59zM375 582.999l-213.999 -0.000976562v-233c0 -33.333 7.66699 -58.166 23 -74.499s36.666 -24.5 63.999 -24.5
c24.667 0 47 4.5 67 13.5s40 21.833 60 38.5v280z" />
    <glyph glyph-name="uni092B" unicode="&#x92b;" horiz-adv-x="806" 
d="M445 363c26.667 24.667 52.332 43.9971 76.999 57.9971s51.334 21 80.001 21c48 0 85.667 -15.167 113 -45.5s41 -68.5 41 -114.5c0 -42 -9.5 -79.167 -28.5 -111.5s-46.167 -62.5 -81.5 -90.5l-55 46c31.333 24 55 48.333 71 73s24 51.667 24 81
c0 30.667 -7.5 55.334 -22.5 74.001s-35.833 28 -62.5 28c-24 0 -48.5 -8.16699 -73.5 -24.5s-52.5 -39.166 -82.5 -68.499v-289h-70v235c-40 -30 -83.333 -45 -130 -45c-50.667 0 -89 13.833 -115 41.5s-39 67.834 -39 120.501v231h-111v59h826v-59h-361v-220z
M374.998 582.997l-213.999 -0.000976562v-233c0 -33.333 7.66699 -58.166 23 -74.499s36.666 -24.5 63.999 -24.5c24.667 0 47 4.5 67 13.5s40 21.833 60 38.5v280z" />
    <glyph glyph-name="uni092C" unicode="&#x92c;" horiz-adv-x="631" 
d="M633 583h-112.999v-583h-70v207c-34 -30 -67.333 -54.167 -100 -72.5s-68.334 -27.5 -107.001 -27.5c-39.333 0 -73.166 8 -101.499 24s-49.833 37.167 -64.5 63.5s-22 54.833 -22 85.5c0 36 8.5 68.333 25.5 97s40.167 51 69.5 67s61.666 24 96.999 24
c40 0 77.5 -9.5 112.5 -28.5s65.167 -42.5 90.5 -70.5v214h-470v59h653v-59zM450.001 286l-0.000976562 3.00098c-27.333 36 -57.666 64.667 -90.999 86s-68 32 -104 32c-12 0 -23 -1.33301 -33 -4l132 -199c32.667 21.333 64.667 48.666 96 81.999zM158 199.001
c22 -22 50.332 -33 84.999 -33c20.667 0 43.334 5.33301 68.001 16l-134 202c-16 -11.333 -28.667 -25.833 -38 -43.5s-14 -37.167 -14 -58.5c0 -33.333 11 -61 33 -83z" />
    <glyph glyph-name="uni092D" unicode="&#x92d;" horiz-adv-x="706" 
d="M707 583l-113.998 0.00292969v-583h-70v240h-216v-73c-16.667 -6 -33.334 -9 -50.001 -9c-28 0 -51.333 8 -70 24s-28 34.667 -28 56c0 18.667 6.66699 33.167 20 43.5s32.666 16.166 57.999 17.499v79c-65.333 7.33301 -113.333 25.166 -144 53.499
s-46 63.166 -46 104.499c0 34 11.833 62.667 35.5 86s54.167 35 91.5 35c40.667 0 73 -12.833 97 -38.5s36 -64.5 36 -116.5v-203h216v284h-164v59h348v-59zM147.002 468.003c20 -17.333 49.999 -28.333 89.999 -33v71c0 30 -5.66699 52.833 -17 68.5
s-26.666 23.5 -45.999 23.5c-16 0 -29.5 -6 -40.5 -18s-16.5 -27.667 -16.5 -47c0 -26 10 -47.667 30 -65z" />
    <glyph glyph-name="uni092E" unicode="&#x92e;" horiz-adv-x="608" 
d="M608 583l-112.998 0.000976562v-583h-70v260h-232v-73c-16.667 -6 -33.334 -9 -50.001 -9c-28 0 -51.333 8 -70 24s-28 34.667 -28 56c0 18.667 6.66699 33.167 20 43.5s32.666 16.166 57.999 17.499v264h-143v59h628v-59zM425.002 583.001h-232v-264h232v264z" />
    <glyph glyph-name="uni092F" unicode="&#x92f;" horiz-adv-x="606" 
d="M606 583l-112.999 -0.000976562v-583h-69v217c-58 -52.667 -118.333 -79 -181 -79c-54.667 0 -101 16.833 -139 50.5s-63.667 80.834 -77 141.501c55.333 16 95.166 34.333 119.499 55s36.5 45.667 36.5 75c0 46 -31.667 87 -95 123h-108v59h626v-59zM424.001 582.999
l-242.001 -0.00292969c23.333 -17.333 40.833 -36.166 52.5 -56.499s17.5 -43.166 17.5 -68.499c0 -32.667 -12.167 -63.667 -36.5 -93s-60.166 -53.666 -107.499 -72.999c12 -29.333 29.333 -52.333 52 -69s50.334 -25 83.001 -25c30.667 0 62.167 8.83301 94.5 26.5
s61.166 40.5 86.499 68.5v290z" />
    <glyph glyph-name="uni0930" unicode="&#x930;" horiz-adv-x="386" 
d="M386 583h-137.005c13.333 -27.333 24 -56 32 -86s12 -59.333 12 -88c0 -30.667 -6.5 -56.5 -19.5 -77.5s-29.167 -36.333 -48.5 -46s-38.666 -14.5 -57.999 -14.5c-10.667 0 -21 1.66699 -31 5c11.333 -28.667 32 -59 62 -91l152 -162l-45 -44l-138 149
c-31.333 33.333 -54.666 62.166 -69.999 86.499s-25.666 48.833 -30.999 73.5s-8.33301 55.334 -9 92.001l66 7c0 -21.333 0.333008 -36.666 1 -45.999c8.66699 -6.66699 19.334 -10 32.001 -10c16 0 31.167 6.66699 45.5 20s21.5 33.666 21.5 60.999
c0 26.667 -4.16699 55.167 -12.5 85.5s-19.166 58.833 -32.499 85.5h-198v59h406v-59z" />
    <glyph glyph-name="uni0931" unicode="&#x931;" horiz-adv-x="386" 
d="M386 583h-137.005c13.333 -27.333 24 -56 32 -86s12 -59.333 12 -88c0 -30.667 -6.5 -56.5 -19.5 -77.5s-29.167 -36.333 -48.5 -46s-38.666 -14.5 -57.999 -14.5c-10.667 0 -21 1.66699 -31 5c11.333 -28.667 32 -59 62 -91l152 -162l-45 -44l-138 149
c-31.333 33.333 -54.666 62.166 -69.999 86.499s-25.666 48.833 -30.999 73.5s-8.33301 55.334 -9 92.001l66 7c0 -21.333 0.333008 -36.666 1 -45.999c8.66699 -6.66699 19.334 -10 32.001 -10c16 0 31.167 6.66699 45.5 20s21.5 33.666 21.5 60.999
c0 26.667 -4.16699 55.167 -12.5 85.5s-19.166 58.833 -32.499 85.5h-198v59h406v-59zM58.4951 52.5c11.667 11.667 25.5 17.5 41.5 17.5s29.833 -5.83301 41.5 -17.5s17.5 -25.5 17.5 -41.5s-5.83301 -29.833 -17.5 -41.5s-25.5 -17.5 -41.5 -17.5
s-29.833 5.83301 -41.5 17.5s-17.5 25.5 -17.5 41.5s5.83301 29.833 17.5 41.5z" />
    <glyph glyph-name="uni0932" unicode="&#x932;" horiz-adv-x="724" 
d="M724 583l-112.999 -0.00390625v-583h-70v354c-16 8.66699 -32.333 13 -49 13c-36.667 0 -65 -15.5 -85 -46.5s-31.333 -73.167 -34 -126.5l-70 12c2.66699 36.667 9.33398 69.667 20.001 99c-18.667 26.667 -36.834 46.5 -54.501 59.5s-37.834 19.5 -60.501 19.5
c-25.333 0 -45.833 -9 -61.5 -27s-23.5 -44.333 -23.5 -79c0 -47.333 13.667 -91.666 41 -132.999s66 -82.666 116 -123.999l-43 -44c-58.667 50 -104.167 99.833 -136.5 149.5s-48.5 102.834 -48.5 159.501c0 50.667 14 89.834 42 117.501s64.667 41.5 110 41.5
c56 0 105.333 -28.333 148 -85c16.667 22 36.5 38.833 59.5 50.5s47.833 17.5 74.5 17.5c20 0 38.333 -3.66699 55 -11v166h-561v59h744v-59z" />
    <glyph glyph-name="uni0933" unicode="&#x933;" horiz-adv-x="766" 
d="M596 583l0.000976562 -114c37.333 -10 67.166 -30.667 89.499 -62s33.5 -70.666 33.5 -117.999c0 -38 -7.5 -70.833 -22.5 -98.5s-35.333 -48.834 -61 -63.501s-54.5 -22 -86.5 -22c-40 0 -72 9 -96 27s-46.333 42 -67 72c-39.333 -65.333 -88.666 -98 -147.999 -98
c-32.667 0 -62 7.33301 -88 22s-46.5 36 -61.5 64s-22.5 61 -22.5 99c0 57.333 16 102.5 48 135.5s72.667 49.5 122 49.5c40 0 72.167 -9 96.5 -27s46.5 -42.333 66.5 -73c17.333 28 36.166 50.333 56.499 67s43.833 27 70.5 31v109h-546v59h786v-59h-170zM305.501 198.5
c19 21.667 36.167 51.834 51.5 90.501l13 31c-16.667 29.333 -35.167 52.666 -55.5 69.999s-46.5 26 -78.5 26c-30 0 -54.167 -11.333 -72.5 -34s-27.5 -53 -27.5 -91s9.16699 -68.333 27.5 -91s42.5 -34 72.5 -34c27.333 0 50.5 10.833 69.5 32.5zM622.001 380.5
c-18 23 -42.0029 34.5 -72.0029 34.5c-27.333 0 -50.666 -11 -69.999 -33s-36.666 -52.333 -51.999 -91c-6.66699 -16.667 -11 -27 -13 -31c16.667 -28.667 35.334 -51.667 56.001 -69s47 -26 79 -26c30 0 54 11.167 72 33.5s27 52.5 27 90.5s-9 68.5 -27 91.5z" />
    <glyph glyph-name="uni0934" unicode="&#x934;" horiz-adv-x="766" 
d="M596 583l0.000976562 -114c37.333 -10 67.166 -30.667 89.499 -62s33.5 -70.666 33.5 -117.999c0 -38 -7.5 -70.833 -22.5 -98.5s-35.333 -48.834 -61 -63.501s-54.5 -22 -86.5 -22c-40 0 -72 9 -96 27s-46.333 42 -67 72c-39.333 -65.333 -88.666 -98 -147.999 -98
c-32.667 0 -62 7.33301 -88 22s-46.5 36 -61.5 64s-22.5 61 -22.5 99c0 57.333 16 102.5 48 135.5s72.667 49.5 122 49.5c40 0 72.167 -9 96.5 -27s46.5 -42.333 66.5 -73c17.333 28 36.166 50.333 56.499 67s43.833 27 70.5 31v109h-546v59h786v-59h-170zM305.501 198.5
c19 21.667 36.167 51.834 51.5 90.501l13 31c-16.667 29.333 -35.167 52.666 -55.5 69.999s-46.5 26 -78.5 26c-30 0 -54.167 -11.333 -72.5 -34s-27.5 -53 -27.5 -91s9.16699 -68.333 27.5 -91s42.5 -34 72.5 -34c27.333 0 50.5 10.833 69.5 32.5zM622.001 380.5
c-18 23 -42.0029 34.5 -72.0029 34.5c-27.333 0 -50.666 -11 -69.999 -33s-36.666 -52.333 -51.999 -91c-6.66699 -16.667 -11 -27 -13 -31c16.667 -28.667 35.334 -51.667 56.001 -69s47 -26 79 -26c30 0 54 11.167 72 33.5s27 52.5 27 90.5s-9 68.5 -27 91.5z
M344.498 62.5c11.667 11.667 25.5 17.5 41.5 17.5s29.833 -5.83301 41.5 -17.5s17.5 -25.5 17.5 -41.5s-5.83301 -29.833 -17.5 -41.5s-25.5 -17.5 -41.5 -17.5s-29.833 5.83301 -41.5 17.5s-17.5 25.5 -17.5 41.5s5.83301 29.833 17.5 41.5z" />
    <glyph glyph-name="uni0935" unicode="&#x935;" horiz-adv-x="633" 
d="M633 583h-112.999v-583h-70v207c-34 -30 -67.333 -54.167 -100 -72.5s-68.334 -27.5 -107.001 -27.5c-39.333 0 -73.166 8 -101.499 24s-49.833 37.167 -64.5 63.5s-22 54.833 -22 85.5c0 36 8.5 68.333 25.5 97s40.167 51 69.5 67s61.666 24 96.999 24
c40 0 77.5 -9.5 112.5 -28.5s65.167 -42.5 90.5 -70.5v214h-470v59h653v-59zM346.501 199.5c36.333 22.333 70.832 51.167 103.499 86.5v3c-27.333 36 -57.666 64.667 -90.999 86s-68 32 -104 32c-38 0 -69.167 -11.833 -93.5 -35.5s-36.5 -53.5 -36.5 -89.5
c0 -33.333 11 -61 33 -83s50.333 -33 85 -33c32.667 0 67.167 11.167 103.5 33.5z" />
    <glyph glyph-name="uni0936" unicode="&#x936;" horiz-adv-x="724" 
d="M724 583l-114.001 -0.00195312v-583h-69v583h-171c31.333 -32.667 47 -77 47 -133c0 -40 -10.5 -77.667 -31.5 -113s-47.833 -66.166 -80.5 -92.499s-66.667 -46.5 -102 -60.5l111 -176l-59 -35l-112 202c-30 2.66699 -53.833 10.334 -71.5 23.001s-26.5 27.667 -26.5 45
c0 18 7 32.667 21 44s34 17.333 60 18l43 -68c24 8 47.333 19.5 70 34.5s42.334 32.833 59.001 53.5c-58.667 20 -104 46 -136 78s-48 68.333 -48 109c0 27.333 7.33301 51 22 71h-156v59h744v-59zM319.499 545.998c-18.333 24.667 -41.5 36.999 -69.5 36.999
c-18 0 -33.5 -6.16699 -46.5 -18.5s-19.5 -30.5 -19.5 -54.5c0 -28.667 13.5 -54.5 40.5 -77.5s62.5 -41.5 106.5 -55.5c10.667 25.333 16 51 16 77c0 36.667 -9.16699 67.334 -27.5 92.001z" />
    <glyph glyph-name="uni0937" unicode="&#x937;" horiz-adv-x="576" 
d="M576 583h-113v-583h-70v208c-23.333 -15.333 -46 -27.5 -68 -36.5s-45.333 -13.5 -70 -13.5c-54 0 -94.833 14 -122.5 42s-41.5 68.667 -41.5 122v261h-111v59h596v-59zM393 583h-231l231 -242v242zM326.5 233c21 9.33301 43.167 22.333 66.5 39l-232 244v-196
c0 -34 8.66699 -59.333 26 -76s41 -25 71 -25c24.667 0 47.5 4.66699 68.5 14z" />
    <glyph glyph-name="uni0938" unicode="&#x938;" horiz-adv-x="660" 
d="M661 583l-112.005 -0.000976562v-583h-70v244c-11.333 -7.33301 -26.833 -13.666 -46.5 -18.999s-39.5 -8 -59.5 -8c-33.333 0 -63.333 4.66699 -90 14s-52 25 -76 47c-13.333 -4.66699 -26.666 -7 -39.999 -7c-10.667 0 -21 1.66699 -31 5c11.333 -28.667 32 -59 62 -91
l152 -162l-45 -44l-138 149c-31.333 33.333 -54.666 62.166 -69.999 86.499s-25.666 48.833 -30.999 73.5s-8.33301 55.334 -9 92.001l66 7c0 -21.333 0.333008 -36.666 1 -45.999c8.66699 -6.66699 19.334 -10 32.001 -10c16 0 31.167 6.66699 45.5 20
s21.5 33.666 21.5 60.999c0 26.667 -4.16699 55.167 -12.5 85.5s-19.166 58.833 -32.499 85.5h-198v59h681v-59zM478.995 582.999l-230 0.000976562c13.333 -27.333 24 -56 32 -86s12 -59.333 12 -88c0 -40.667 -11.333 -73.334 -34 -98.001c16 -10.667 34 -19 54 -25
s40 -9 60 -9c42.667 0 78 10.667 106 32v274z" />
    <glyph glyph-name="uni0939" unicode="&#x939;" horiz-adv-x="557" 
d="M153 394.5c-10.667 -11 -16.001 -26.1631 -16.001 -45.4961c0 -16 3.83301 -28.833 11.5 -38.5s19.5 -18.5 35.5 -26.5c32.667 24 73.667 36 123 36c32 0 61.5 -6 88.5 -18s48.333 -28.833 64 -50.5s23.5 -46.167 23.5 -73.5c0 -31.333 -7.16699 -57.833 -21.5 -79.5
s-33.5 -42.834 -57.5 -63.501l-51 42c20 14.667 35 30 45 46s15 34.333 15 55c0 22.667 -9.83301 42.167 -29.5 58.5s-45.167 24.5 -76.5 24.5c-38 0 -67.667 -9.83301 -89 -29.5s-32 -45.834 -32 -78.501c0 -44 19 -83.833 57 -119.5s94.333 -68.5 169 -98.5l-25 -56
c-88 34.667 -155.167 75.5 -201.5 122.5s-69.5 98.167 -69.5 153.5c0 30 8.66699 58.667 26 86c-25.333 15.333 -44.166 32.166 -56.499 50.499s-18.5 40.166 -18.5 65.499c0 33.333 10.5 60.5 31.5 81.5s51.833 31.5 92.5 31.5h166v113h-378v59h576v-59h-129v-172h-225
c-21.333 0 -37.333 -5.5 -48 -16.5z" />
    <glyph glyph-name="uni093A" unicode="&#x93a;" horiz-adv-x="0" 
d="M-184 906h73v-281h-73v281z" />
    <glyph glyph-name="uni093B" unicode="&#x93b;" 
d="M296 583h-113v-583h-70v583h-133v59h133v264h73v-264h110v-59z" />
    <glyph glyph-name="uni093C" unicode="&#x93c;" horiz-adv-x="0" 
d="M-41.5 -87.5c11.667 11.667 25.5 17.5 41.5 17.5s29.833 -5.83301 41.5 -17.5s17.5 -25.5 17.5 -41.5s-5.83301 -29.833 -17.5 -41.5s-25.5 -17.5 -41.5 -17.5s-29.833 5.83301 -41.5 17.5s-17.5 25.5 -17.5 41.5s5.83301 29.833 17.5 41.5z" />
    <glyph glyph-name="uni093D" unicode="&#x93d;" horiz-adv-x="528" 
d="M135 57c-36 24.667 -68 61.665 -96 110.998l49 35c48 -82.667 104 -124 168 -124c30 0 53.833 9 71.5 27s26.5 41.333 26.5 70s-8.5 56.167 -25.5 82.5s-41.5 55.833 -73.5 88.5l-68 71c-25.333 26 -44.166 49.167 -56.499 69.5s-18.5 41.5 -18.5 63.5
c0 60.667 35.667 91 107 91h237v-59h-228c-17.333 0 -29.333 -3 -36 -9s-10 -15.333 -10 -28c0 -11.333 4.33301 -23.5 13 -36.5s22.334 -29.5 41.001 -49.5l68 -71c41.333 -43.333 71.666 -81.666 90.999 -114.999s29 -66.666 29 -99.999
c0 -45.333 -15.333 -82.333 -46 -111s-70.334 -43 -119.001 -43c-46.667 0 -88 12.333 -124 37z" />
    <glyph glyph-name="uni093E" unicode="&#x93e;" 
d="M296 583h-113v-583h-70v583h-133v59h316v-59z" />
    <glyph glyph-name="uni093F" unicode="&#x93f;" 
d="M151.5 886.5c-25 -21 -37.5029 -49.834 -37.5029 -86.501c0 -26.667 5.33301 -53.667 16 -81s25.334 -53 44.001 -77h122v-59h-113v-583h-70v583h-133v59h124c-40 59.333 -60 113.666 -60 162.999c0 33.333 8 63 24 89s39.167 46.333 69.5 61s65.833 22 106.5 22
c58.667 0 116.334 -12.667 173.001 -38s107.834 -55.166 153.501 -89.499s97.5 -77.166 155.5 -128.499l-34 -41c-58 48.667 -110 89.667 -156 123s-93.667 60.833 -143 82.5s-97.333 32.5 -144 32.5c-40 0 -72.5 -10.5 -97.5 -31.5z" />
    <glyph glyph-name="uni0940" unicode="&#x940;" 
d="M296 583l-112.998 -0.000976562v-583h-70v583h-133v59h126c-31.333 82.667 -65.333 149 -102 199s-75.334 75 -116.001 75c-27.333 0 -48.333 -7.5 -63 -22.5s-22 -34.5 -22 -58.5s6 -47 18 -69s25.667 -40.667 41 -56l-44 -31c-22.667 20.667 -42.334 45 -59.001 73
s-25 58.333 -25 91c0 24 6 46 18 66s29 36 51 48s47.667 18 77 18c64.667 0 119.5 -29.667 164.5 -89s87.5 -140.666 127.5 -243.999h124v-59z" />
    <glyph glyph-name="uni0941" unicode="&#x941;" horiz-adv-x="0" 
d="M-299 -232.5c-37.333 21.667 -72.668 52.166 -106.001 91.499l42 42c29.333 -34.667 59 -61.167 89 -79.5s63.333 -27.5 100 -27.5c32.667 0 58 7.33301 76 22s27 33.667 27 57c0 20.667 -7.33301 37.667 -22 51s-33 20 -55 20c-34 0 -66.333 -12 -97 -36l-29 52
c36 29.333 78.667 44 128 44c40 0 74.333 -11.5 103 -34.5s43 -55.167 43 -96.5s-15.333 -74.666 -46 -99.999s-72.667 -38 -126 -38c-47.333 0 -89.666 10.833 -126.999 32.5z" />
    <glyph glyph-name="uni0942" unicode="&#x942;" horiz-adv-x="0" 
d="M-22 -29c37.333 -22 72.334 -52.667 105.001 -92l-41 -41c-30 35.333 -59.833 62 -89.5 80s-62.834 27 -99.501 27c-32.667 0 -58.167 -7.5 -76.5 -22.5s-27.5 -34.167 -27.5 -57.5c0 -20.667 7.33301 -37.5 22 -50.5s33.334 -19.5 56.001 -19.5c34 0 66.333 12 97 36
l28 -53c-34 -28.667 -76.333 -43 -127 -43c-40 0 -74.333 11.5 -103 34.5s-43 54.833 -43 95.5c0 41.333 15.333 74.833 46 100.5s72.667 38.5 126 38.5c47.333 0 89.666 -11 126.999 -33z" />
    <glyph glyph-name="uni0943" unicode="&#x943;" horiz-adv-x="0" 
d="M-238.5 -199.5c-25 23 -37.5 51.833 -37.5 86.5c0 28.667 9.66699 54.5 29 77.5s50.333 45.833 93 68.5l46 -41c-68 -31.333 -102 -65.333 -102 -102c0 -19.333 6 -35 18 -47s29.667 -18 53 -18c31.333 0 58 8.66699 80 26l31 -52c-14 -10 -30.833 -18 -50.5 -24
s-40.5 -9 -62.5 -9c-40 0 -72.5 11.5 -97.5 34.5z" />
    </font>
</defs>
</svg>
